<svg xmlns="http://www.w3.org/2000/svg" width="295" height="97.367" viewBox="0 0 295 97.367">
  <g id="Grupo_1224054" data-name="Grupo 1224054" transform="translate(-1125 -3432.633)">
    <g id="Grupo_1222206" data-name="Grupo 1222206">
      <rect id="Rectángulo_421164" data-name="Rectángulo 421164" width="295" height="57" transform="translate(1125 3463)" fill="#4a5641"/>
      <rect id="Rectángulo_421165" data-name="Rectángulo 421165" width="221" height="77" transform="translate(1162 3453)" fill="#eca675"/>
    </g>
    <g id="_25-Insurance" data-name="25-Insurance" transform="translate(1225 3432.633)">
      <path id="Trazado_1180039" data-name="Trazado 1180039" d="M51.5,50V41l-9,9H26V74H81.5V50Z" transform="translate(12.5 20)" fill="#e9edf5"/>
      <path id="Trazado_1180040" data-name="Trazado 1180040" d="M31,25v9l9-9H64V1H1V25Z" fill="#e9edf5"/>
      <path id="Trazado_1180041" data-name="Trazado 1180041" d="M39,1h6V25H39Z" transform="translate(19)" fill="#bec3d2"/>
      <path id="Trazado_1180042" data-name="Trazado 1180042" d="M59,47h6V71H59Z" transform="translate(29 23)" fill="#bec3d2"/>
      <path id="Trazado_1180043" data-name="Trazado 1180043" d="M44,25V37s0,4.5-9,9c-9-4.5-9-9-9-9V25Z" transform="translate(12.5 12)" fill="#a7e340"/>
      <path id="Trazado_1180044" data-name="Trazado 1180044" d="M40.55,25v9s0,4.5-9,9a27.75,27.75,0,0,1-4.65-2.869A20.279,20.279,0,0,0,34.55,46c9-4.5,9-9,9-9V25Z" transform="translate(12.95 12)" fill="#d7fa78"/>
      <path id="Trazado_1180045" data-name="Trazado 1180045" d="M59.49,14.59v3.615s.585,0,1.47.03l-4.47,4.47-4.47-4.47c.885-.03,1.47-.03,1.47-.03V14.59a7.625,7.625,0,0,0,6,0Z" transform="translate(25.51 6.795)" fill="#eb975d"/>
      <path id="Trazado_1180046" data-name="Trazado 1180046" d="M66.5,31v3l2.295,6.1L71,46H47l4.5-12V31Z" transform="translate(23 15)" fill="#555a66"/>
      <path id="Trazado_1180047" data-name="Trazado 1180047" d="M63.795,40.1,61.5,34V31H57v3l2.295,6.1L61.5,46H66Z" transform="translate(28 15)" fill="#9196aa"/>
      <path id="Trazado_1180048" data-name="Trazado 1180048" d="M49.205,40.1,51.5,34V31H56v3l-2.295,6.1L51.5,46H47Z" transform="translate(23 15)" fill="#9196aa"/>
      <path id="Trazado_1180049" data-name="Trazado 1180049" d="M55,41h7.5V53H55Z" transform="translate(27 20)" fill="#ffdaaa"/>
      <path id="Trazado_1180050" data-name="Trazado 1180050" d="M57.5,41V53H50V41Z" transform="translate(24.5 20)" fill="#ffdaaa"/>
      <path id="Trazado_1180051" data-name="Trazado 1180051" d="M60.5,21.385a7.625,7.625,0,0,1-6,0A7.543,7.543,0,0,1,50,14.5v-6a7.5,7.5,0,0,1,15,0v6A7.543,7.543,0,0,1,60.5,21.385Z" transform="translate(24.5)" fill="#ffdaaa"/>
      <path id="Trazado_1180052" data-name="Trazado 1180052" d="M66.5,37.99h-15v3H47V18.49c0-1.11,5-1.4,7.53-1.47L59,21.49l4.47-4.47c2.55.075,7.53.36,7.53,1.47v22.5H66.5Z" transform="translate(23 8.01)" fill="#ffa426"/>
      <path id="Trazado_1180053" data-name="Trazado 1180053" d="M61.06,3.19A7.533,7.533,0,0,0,55.75,1a7.44,7.44,0,0,0-2.25.381A7.58,7.58,0,0,1,56.56,3.19,7.533,7.533,0,0,1,58.75,8.5v6a7.543,7.543,0,0,1-4.5,6.885,7.65,7.65,0,0,1-.75.235A7.551,7.551,0,0,0,55.75,22a7.659,7.659,0,0,0,3-.615,7.543,7.543,0,0,0,4.5-6.885v-6a7.533,7.533,0,0,0-2.19-5.31Z" transform="translate(26.25 0)" fill="#eb975d"/>
      <path id="Trazado_1180054" data-name="Trazado 1180054" d="M60,24h3V37.5H60Z" transform="translate(29.5 11.5)" fill="#ffc170"/>
      <path id="Trazado_1180055" data-name="Trazado 1180055" d="M48,24h3V37.5H48Z" transform="translate(23.5 11.5)" fill="#ffc170"/>
      <path id="Trazado_1180056" data-name="Trazado 1180056" d="M58,41h3V53H58Z" transform="translate(28.5 20)" fill="#eb975d"/>
      <path id="Trazado_1180057" data-name="Trazado 1180057" d="M53,41h3V53H53Z" transform="translate(26 20)" fill="#eb975d"/>
      <path id="Trazado_1180058" data-name="Trazado 1180058" d="M13.49,28.59v3.615s.585,0,1.47.03l-4.47,4.47-4.47-4.47c.885-.03,1.47-.03,1.47-.03V28.59a7.625,7.625,0,0,0,6,0Z" transform="translate(2.51 13.795)" fill="#eb975d"/>
      <path id="Trazado_1180059" data-name="Trazado 1180059" d="M19,48V72H4V45H19Z" transform="translate(1.5 22)" fill="#555a66"/>
      <path id="Trazado_1180060" data-name="Trazado 1180060" d="M14.5,35.385a7.625,7.625,0,0,1-6,0A7.544,7.544,0,0,1,4,28.5v-6a7.5,7.5,0,0,1,15,0v6a7.544,7.544,0,0,1-4.5,6.885Z" transform="translate(1.5 7)" fill="#ffdaaa"/>
      <path id="Trazado_1180061" data-name="Trazado 1180061" d="M15.06,17.19A7.533,7.533,0,0,0,9.75,15a7.44,7.44,0,0,0-2.25.381A7.35,7.35,0,0,1,12.75,22.5v6a7.543,7.543,0,0,1-4.5,6.885,7.651,7.651,0,0,1-.75.236A7.551,7.551,0,0,0,9.75,36a7.659,7.659,0,0,0,3-.615,7.543,7.543,0,0,0,4.5-6.885v-6a7.533,7.533,0,0,0-2.19-5.31Z" transform="translate(3.25 7)" fill="#eb975d"/>
      <path id="Trazado_1180062" data-name="Trazado 1180062" d="M20.5,51.99H5.5v3H1V32.49c0-1.11,4.995-1.395,7.53-1.47L13,35.49l4.47-4.47c2.55.075,7.53.36,7.53,1.47v22.5H20.5Z" transform="translate(0 15.01)" fill="#19cffc"/>
      <path id="Trazado_1180063" data-name="Trazado 1180063" d="M14,38h3V51.5H14Z" transform="translate(6.5 18.5)" fill="#b5efff"/>
      <path id="Trazado_1180064" data-name="Trazado 1180064" d="M2,38H5V51.5H2Z" transform="translate(0.5 18.5)" fill="#b5efff"/>
      <path id="Trazado_1180065" data-name="Trazado 1180065" d="M12,45h3V72H12Z" transform="translate(5.5 22)" fill="#9196aa"/>
      <path id="Trazado_1180066" data-name="Trazado 1180066" d="M4,45H7V72H4Z" transform="translate(1.5 22)" fill="#9196aa"/>
      <path id="Trazado_1180067" data-name="Trazado 1180067" d="M14,50H26V62H14Z" transform="translate(6.5 24.5)" fill="#ffc170"/>
      <path id="Trazado_1180068" data-name="Trazado 1180068" d="M14,50h3V62H14Z" transform="translate(6.5 24.5)" fill="#ffa426"/>
      <g id="Grupo_1224170" data-name="Grupo 1224170" transform="translate(1 1)">
        <path id="Trazado_1180069" data-name="Trazado 1180069" d="M50,41V53H65V41" transform="translate(23.5 19)" fill="none" stroke="#2b1800" stroke-linejoin="round" stroke-width="2"/>
        <path id="Trazado_1180070" data-name="Trazado 1180070" d="M55,53V41" transform="translate(26 19)" fill="none" stroke="#2b1800" stroke-linejoin="round" stroke-width="2"/>
        <rect id="Rectángulo_421903" data-name="Rectángulo 421903" width="15" height="21" rx="5" transform="translate(5 21)" fill="none" stroke="#2b1800" stroke-linejoin="round" stroke-width="2"/>
        <path id="Trazado_1180071" data-name="Trazado 1180071" d="M10,28v4.5s-9,0-9,1.5V56.5H5.5v24h15v-24H25V34c0-1.5-9-1.5-9-1.5V28" transform="translate(-1 12.5)" fill="none" stroke="#2b1800" stroke-linejoin="round" stroke-width="2"/>
        <path id="Trazado_1180072" data-name="Trazado 1180072" d="M4,51.5V38" transform="translate(0.5 17.5)" fill="none" stroke="#2b1800" stroke-linejoin="round" stroke-width="2"/>
        <path id="Trazado_1180073" data-name="Trazado 1180073" d="M14,51.5V38" transform="translate(5.5 17.5)" fill="none" stroke="#2b1800" stroke-linejoin="round" stroke-width="2"/>
        <path id="Trazado_1180074" data-name="Trazado 1180074" d="M4,45H19" transform="translate(0.5 21)" fill="none" stroke="#2b1800" stroke-linejoin="round" stroke-width="2"/>
        <path id="Trazado_1180075" data-name="Trazado 1180075" d="M9,69.5V50" transform="translate(3 23.5)" fill="none" stroke="#2b1800" stroke-linejoin="round" stroke-width="2"/>
        <path id="Trazado_1180076" data-name="Trazado 1180076" d="M7,50h6" transform="translate(2 23.5)" fill="none" stroke="#2b1800" stroke-linejoin="round" stroke-width="2"/>
        <path id="Trazado_1180077" data-name="Trazado 1180077" d="M6,31l4.5,4.5L15,31" transform="translate(1.5 14)" fill="none" stroke="#2b1800" stroke-linejoin="round" stroke-width="2"/>
        <rect id="Rectángulo_421904" data-name="Rectángulo 421904" width="15" height="21" rx="5" transform="translate(74)" fill="none" stroke="#2b1800" stroke-linejoin="round" stroke-width="2"/>
        <path id="Trazado_1180078" data-name="Trazado 1180078" d="M56,14v4.5s-9,0-9,1.5V42.5h4.5L47,54.5H71l-4.5-12H71V20c0-1.5-9-1.5-9-1.5V14" transform="translate(22 5.5)" fill="none" stroke="#2b1800" stroke-linejoin="round" stroke-width="2"/>
        <path id="Trazado_1180079" data-name="Trazado 1180079" d="M50,37.5V24" transform="translate(23.5 10.5)" fill="none" stroke="#2b1800" stroke-linejoin="round" stroke-width="2"/>
        <path id="Trazado_1180080" data-name="Trazado 1180080" d="M60,37.5V24" transform="translate(28.5 10.5)" fill="none" stroke="#2b1800" stroke-linejoin="round" stroke-width="2"/>
        <path id="Trazado_1180081" data-name="Trazado 1180081" d="M50,31H65" transform="translate(23.5 14)" fill="none" stroke="#2b1800" stroke-linejoin="round" stroke-width="2"/>
        <path id="Trazado_1180082" data-name="Trazado 1180082" d="M52,17l4.5,4.5L61,17" transform="translate(24.5 7)" fill="none" stroke="#2b1800" stroke-linejoin="round" stroke-width="2"/>
        <path id="Trazado_1180083" data-name="Trazado 1180083" d="M9,34V50.5" transform="translate(3 15.5)" fill="none" stroke="#2b1800" stroke-linejoin="round" stroke-width="2"/>
        <path id="Trazado_1180084" data-name="Trazado 1180084" d="M14,50H26V62H15.5" transform="translate(5.5 23.5)" fill="none" stroke="#2b1800" stroke-linejoin="round" stroke-width="2"/>
        <path id="Trazado_1180085" data-name="Trazado 1180085" d="M20,51.5V47H17" transform="translate(7 22)" fill="none" stroke="#2b1800" stroke-linejoin="round" stroke-width="2"/>
        <path id="Trazado_1180086" data-name="Trazado 1180086" d="M7,25H1V1H64V25H40l-9,9V25H19" transform="translate(-1 -1)" fill="none" stroke="#2b1800" stroke-linejoin="round" stroke-width="2"/>
        <path id="Trazado_1180087" data-name="Trazado 1180087" d="M77,50h4.5V74H26V50H42.5l9-9v9H62" transform="translate(11.5 19)" fill="none" stroke="#2b1800" stroke-linejoin="round" stroke-width="2"/>
        <path id="Trazado_1180088" data-name="Trazado 1180088" d="M5,7H8" transform="translate(1 2)" fill="none" stroke="#2b1800" stroke-linejoin="round" stroke-width="2"/>
        <path id="Trazado_1180089" data-name="Trazado 1180089" d="M9,7H54" transform="translate(3 2)" fill="none" stroke="#2b1800" stroke-linejoin="round" stroke-width="2"/>
        <path id="Trazado_1180090" data-name="Trazado 1180090" d="M5,11H56" transform="translate(1 4)" fill="none" stroke="#2b1800" stroke-linejoin="round" stroke-width="2"/>
        <path id="Trazado_1180091" data-name="Trazado 1180091" d="M30,53h3" transform="translate(13.5 25)" fill="none" stroke="#2b1800" stroke-linejoin="round" stroke-width="2"/>
        <path id="Trazado_1180092" data-name="Trazado 1180092" d="M34,53H71.5" transform="translate(15.5 25)" fill="none" stroke="#2b1800" stroke-linejoin="round" stroke-width="2"/>
        <path id="Trazado_1180093" data-name="Trazado 1180093" d="M30,57H73.5" transform="translate(13.5 27)" fill="none" stroke="#2b1800" stroke-linejoin="round" stroke-width="2"/>
        <path id="Trazado_1180094" data-name="Trazado 1180094" d="M44,25V37s0,4.5-9,9c-9-4.5-9-9-9-9V25Z" transform="translate(11.5 11)" fill="none" stroke="#2b1800" stroke-linejoin="round" stroke-width="2"/>
        <path id="Trazado_1180095" data-name="Trazado 1180095" d="M29,32l3,3,6-6" transform="translate(13 13)" fill="none" stroke="#2b1800" stroke-linejoin="round" stroke-width="2"/>
      </g>
    </g>
  </g>
</svg>
