<svg xmlns="http://www.w3.org/2000/svg" xmlns:xlink="http://www.w3.org/1999/xlink" width="108" height="108" viewBox="0 0 108 108">
  <defs>
    <filter id="Trazado_904820" x="0" y="0" width="108" height="108" filterUnits="userSpaceOnUse">
      <feOffset dy="3" input="SourceAlpha"/>
      <feGaussianBlur stdDeviation="3" result="blur"/>
      <feFlood flood-opacity="0.161"/>
      <feComposite operator="in" in2="blur"/>
      <feComposite in="SourceGraphic"/>
    </filter>
  </defs>
  <g id="Grupo_1224073" data-name="Grupo 1224073" transform="translate(9 6)">
    <g id="Grupo_1173585" data-name="Grupo 1173585" transform="translate(0 0)">
      <g id="Grupo_1173428" data-name="Grupo 1173428">
        <g id="Grupo_1171958" data-name="Grupo 1171958">
          <g id="Grupo_1167341" data-name="Grupo 1167341">
            <g id="Grupo_1166792" data-name="Grupo 1166792">
              <g transform="matrix(1, 0, 0, 1, -9, -6)" filter="url(#Trazado_904820)">
                <g id="Trazado_904820-2" data-name="Trazado 904820" transform="translate(9 6)" fill="#e7f2f8">
                  <path d="M 44.99999618530273 88.50003051757812 C 39.12687301635742 88.50003051757812 33.43022155761719 87.35010528564453 28.06829643249512 85.08219146728516 C 22.88852119445801 82.89134216308594 18.23629570007324 79.75461578369141 14.24084663391113 75.75916290283203 C 10.24540901184082 71.76371765136719 7.108683586120605 67.11148834228516 4.917821407318115 61.93171691894531 C 2.649921178817749 56.56978988647461 1.499996185302734 50.87313842773438 1.499996185302734 45.00001525878906 C 1.499996185302734 39.12689208984375 2.649921178817749 33.43024063110352 4.917821407318115 28.06830215454102 C 7.108683586120605 22.88852691650391 10.24540901184082 18.23631477355957 14.24084663391113 14.24086570739746 C 18.23629570007324 10.24541568756104 22.88852119445801 7.10869026184082 28.06829643249512 4.917827606201172 C 33.43022155761719 2.649927854537964 39.12687301635742 1.50000274181366 44.99999618530273 1.50000274181366 C 50.87311935424805 1.50000274181366 56.56977081298828 2.649927854537964 61.93169784545898 4.917827606201172 C 67.11147308349609 7.10869026184082 71.76369476318359 10.24541568756104 75.75914764404297 14.24086570739746 C 79.75458526611328 18.23631477355957 82.89131164550781 22.88852691650391 85.08216857910156 28.06830215454102 C 87.35007476806641 33.43024063110352 88.5 39.12689208984375 88.5 45.00001525878906 C 88.5 50.87313842773438 87.35007476806641 56.56978988647461 85.08216857910156 61.93171691894531 C 82.89131164550781 67.11148834228516 79.75458526611328 71.76371765136719 75.75914764404297 75.75916290283203 C 71.76369476318359 79.75461578369141 67.11147308349609 82.89134216308594 61.93169784545898 85.08219146728516 C 56.56977081298828 87.35010528564453 50.87311935424805 88.50003051757812 44.99999618530273 88.50003051757812 Z" stroke="none"/>
                  <path d="M 44.99999618530273 3 C 39.32870864868164 3 33.82865142822266 4.110061645507812 28.65262603759766 6.299346923828125 C 23.65165710449219 8.414573669433594 19.15968322753906 11.44334411621094 15.301513671875 15.301513671875 C 11.44333648681641 19.15968322753906 8.414566040039062 23.65165710449219 6.299339294433594 28.65262985229492 C 4.110054016113281 33.82867050170898 2.999992370605469 39.32872772216797 2.999992370605469 45.00001525878906 C 2.999992370605469 50.67130279541016 4.110054016113281 56.17136001586914 6.299339294433594 61.34738922119141 C 8.414566040039062 66.34837341308594 11.44333648681641 70.84033203125 15.301513671875 74.69850158691406 C 19.15968322753906 78.55668640136719 23.65165710449219 81.58545684814453 28.65262603759766 83.70068359375 C 33.82865142822266 85.88996887207031 39.32870864868164 87.00003051757812 44.99999618530273 87.00003051757812 C 50.67128372192383 87.00003051757812 56.17134094238281 85.88996887207031 61.34736633300781 83.70068359375 C 66.34834289550781 81.58545684814453 70.84030914306641 78.55668640136719 74.69847869873047 74.69850158691406 C 78.55665588378906 70.84033203125 81.58542633056641 66.34837341308594 83.70065307617188 61.34738922119141 C 85.88993835449219 56.17136001586914 87 50.67130279541016 87 45.00001525878906 C 87 39.32872772216797 85.88993835449219 33.82867050170898 83.70065307617188 28.65262985229492 C 81.58542633056641 23.65165710449219 78.55665588378906 19.15968322753906 74.69847869873047 15.301513671875 C 70.84030914306641 11.44334411621094 66.34834289550781 8.414573669433594 61.34736633300781 6.299346923828125 C 56.17134094238281 4.110061645507812 50.67128372192383 3 44.99999618530273 3 M 44.99999618530273 0 C 69.85281372070312 0 90 20.14718627929688 90 45.00001525878906 C 90 69.85282897949219 69.85281372070312 90.00003051757812 44.99999618530273 90.00003051757812 C 20.14717864990234 90.00003051757812 -7.62939453125e-06 69.85282897949219 -7.62939453125e-06 45.00001525878906 C -7.62939453125e-06 20.14718627929688 20.14717864990234 0 44.99999618530273 0 Z" stroke="none" fill="#248abf"/>
                </g>
              </g>
            </g>
          </g>
        </g>
      </g>
    </g>
    <g id="law-book_11776484" transform="translate(-9.615 -9.615)">
      <g id="Grupo_1224173" data-name="Grupo 1224173" transform="translate(26.527 26.527)">
        <path id="Trazado_1180118" data-name="Trazado 1180118" d="M57.8,68.778l.784,1.685,19.122,4.271h4.65V70.28A24.444,24.444,0,0,0,58.819,64.56Z" transform="translate(-54.26 -59.309)" fill="#dbe0eb" fill-rule="evenodd"/>
        <path id="Trazado_1180119" data-name="Trazado 1180119" d="M270.255,68.778l-.784,1.685L250.35,74.734H245.7V70.28a24.428,24.428,0,0,1,23.523-5.721Z" transform="translate(-217.618 -59.309)" fill="#dbe0eb" fill-rule="evenodd"/>
        <path id="Trazado_1180120" data-name="Trazado 1180120" d="M54.145,146.147l1.881-22.269-1.881-19.109L32.28,98.917a1.254,1.254,0,0,0-1.58,1.215v38.779a1.258,1.258,0,0,0,.927,1.215Z" transform="translate(-30.7 -89.971)" fill="#e04141" fill-rule="evenodd"/>
        <path id="Trazado_1180121" data-name="Trazado 1180121" d="M268.781,146.06,266.9,123.007l1.881-18.325,21.864-5.864a1.254,1.254,0,0,1,1.58,1.215V138.08a2.166,2.166,0,0,1-1.633,2.116Z" transform="translate(-236.049 -89.884)" fill="#e04141" fill-rule="evenodd"/>
        <path id="Trazado_1180122" data-name="Trazado 1180122" d="M210.2,144h9.287v41.378H210.2Z" transform="translate(-186.755 -129.202)" fill="#aa3737" fill-rule="evenodd"/>
        <path id="Trazado_1180123" data-name="Trazado 1180123" d="M83.118,167.853,69.9,164.3v6.491l13.218,3.54Z" transform="translate(-64.78 -146.85)" fill="#ffce00" fill-rule="evenodd"/>
        <path id="Trazado_1180124" data-name="Trazado 1180124" d="M320.5,167.853l13.218-3.553v6.491l-13.218,3.54Z" transform="translate(-282.649 -146.85)" fill="#ffce00" fill-rule="evenodd"/>
        <path id="Trazado_1180125" data-name="Trazado 1180125" d="M122,30.7a18.6,18.6,0,1,1-18.6,18.6,18.4,18.4,0,0,1,1.58-7.5,18.781,18.781,0,0,1,4.663-6.4A18.48,18.48,0,0,1,122,30.7Z" transform="translate(-93.905 -30.7)" fill="#f29c1f" fill-rule="evenodd"/>
        <g id="Grupo_1224172" data-name="Grupo 1224172" transform="translate(13.61 5.002)">
          <path id="Trazado_1180126" data-name="Trazado 1180126" d="M140.49,175.5H134.9a5.59,5.59,0,1,0,11.18,0Z" transform="translate(-134.9 -161.59)" fill="#ffd731" fill-rule="evenodd"/>
          <path id="Trazado_1180127" data-name="Trazado 1180127" d="M276.59,175.5H271a5.59,5.59,0,0,0,11.18,0Z" transform="translate(-253.224 -161.59)" fill="#ffd731" fill-rule="evenodd"/>
          <path id="Trazado_1180128" data-name="Trazado 1180128" d="M230.8,69c2.991,1.881,2.991,5.46,0,7.353C227.8,74.46,227.8,70.881,230.8,69Z" transform="translate(-216.318 -69)" fill="#ffd731" fill-rule="evenodd"/>
          <path id="Trazado_1180129" data-name="Trazado 1180129" d="M202.2,237.2h9.287a1.2,1.2,0,0,1,1.2,1.2v1.58a1.2,1.2,0,0,1-1.2,1.2H202.2a1.2,1.2,0,0,1-1.2-1.2V238.4a1.215,1.215,0,0,1,1.2-1.2Z" transform="translate(-192.367 -215.231)" fill="#ffd731" fill-rule="evenodd"/>
        </g>
      </g>
      <g id="Grupo_1224174" data-name="Grupo 1224174" transform="translate(25.9 25.9)">
        <path id="Trazado_1180130" data-name="Trazado 1180130" d="M215.313,327.107h-9.287a.619.619,0,0,1-.627-.627V306.927a.627.627,0,1,1,1.254,0v18.926h8.033V306.927a.627.627,0,1,1,1.254,0V326.48A.619.619,0,0,1,215.313,327.107Z" transform="translate(-181.955 -269.676)" fill-rule="evenodd"/>
        <path id="Trazado_1180131" data-name="Trazado 1180131" d="M49.972,142.659a.9.9,0,0,1-.17-.026l-22.5-6.021a1.859,1.859,0,0,1-1.4-1.816V96.017a1.881,1.881,0,0,1,.731-1.489,1.917,1.917,0,0,1,1.633-.327l1.959.522h.013L37.6,96.7a.629.629,0,1,1-.327,1.215L29.9,95.939h-.013l-1.946-.522a.63.63,0,0,0-.549.1.619.619,0,0,0-.248.5V134.8a.6.6,0,0,0,.457.6l22.518,6.034a.639.639,0,0,1,.47.6.655.655,0,0,1-.026.157A.588.588,0,0,1,49.972,142.659Z" transform="translate(-25.9 -85.229)" fill-rule="evenodd"/>
        <path id="Trazado_1180132" data-name="Trazado 1180132" d="M277.151,142.519a.613.613,0,0,1-.6-.47.623.623,0,0,1,.444-.771l21.812-5.851a1.553,1.553,0,0,0,1.162-1.515V95.851a.619.619,0,0,0-.248-.5.63.63,0,0,0-.549-.1l-9.326,2.521a.629.629,0,0,1-.327-1.215l9.339-2.508a1.878,1.878,0,0,1,2.364,1.816v38.06a2.8,2.8,0,0,1-2.09,2.73l-21.825,5.851A.636.636,0,0,1,277.151,142.519Z" transform="translate(-243.793 -85.089)" fill-rule="evenodd"/>
        <path id="Trazado_1180133" data-name="Trazado 1180133" d="M71.322,168.8a.9.9,0,0,1-.17-.026l-5.682-1.528a.639.639,0,0,1-.47-.6V160.15a.619.619,0,0,1,.248-.5.63.63,0,0,1,.549-.1l4.376,1.176a.629.629,0,1,1-.327,1.215l-3.579-.953v5.185l5.211,1.4a.624.624,0,0,1-.157,1.228Z" transform="translate(-59.893 -142.073)" fill-rule="evenodd"/>
        <path id="Trazado_1180134" data-name="Trazado 1180134" d="M374.052,168.709a.613.613,0,0,1-.6-.47.623.623,0,0,1,.444-.771l5.211-1.4v-5.185l-3.579.953a.629.629,0,1,1-.327-1.215l4.376-1.176a.638.638,0,0,1,.549.1.619.619,0,0,1,.248.5v6.491a.616.616,0,0,1-.47.6l-5.682,1.528a.451.451,0,0,1-.17.039Z" transform="translate(-328.037 -141.986)" fill-rule="evenodd"/>
        <path id="Trazado_1180135" data-name="Trazado 1180135" d="M117.826,27.154A17.972,17.972,0,1,0,135.8,45.126,18,18,0,0,0,117.826,27.154Zm0,37.2a19.226,19.226,0,1,1,19.226-19.226A19.242,19.242,0,0,1,117.826,64.352Z" transform="translate(-89.104 -25.9)" fill-rule="evenodd"/>
        <path id="Trazado_1180136" data-name="Trazado 1180136" d="M53.686,65.242a.49.49,0,0,1-.144-.013.622.622,0,0,1-.457-.758L54.1,60.253a.635.635,0,0,1,.431-.457,24.982,24.982,0,0,1,11.455-.562.643.643,0,0,1,.509.731.624.624,0,0,1-.731.5,24.137,24.137,0,0,0-10.54.431l-.94,3.866a.625.625,0,0,1-.6.483Z" transform="translate(-49.52 -54.519)" fill-rule="evenodd"/>
        <path id="Trazado_1180137" data-name="Trazado 1180137" d="M348.25,65.28a.64.64,0,0,1-.614-.483l-.94-3.866a23.941,23.941,0,0,0-10.54-.431.625.625,0,0,1-.235-1.228,25.162,25.162,0,0,1,11.455.562.635.635,0,0,1,.431.457l1.019,4.219a.632.632,0,0,1-.457.758.258.258,0,0,1-.118.013Z" transform="translate(-294.987 -54.557)" fill-rule="evenodd"/>
        <path id="Trazado_1180138" data-name="Trazado 1180138" d="M78.883,361.031a.9.9,0,0,1-.17-.026l-13.218-3.54a.629.629,0,1,1,.327-1.215l13.218,3.54a.623.623,0,0,1,.444.771A.639.639,0,0,1,78.883,361.031Z" transform="translate(-59.918 -313.083)" fill-rule="evenodd"/>
        <path id="Trazado_1180139" data-name="Trazado 1180139" d="M78.883,330.531a.9.9,0,0,1-.17-.026l-13.218-3.54a.629.629,0,1,1,.327-1.215l13.218,3.54a.632.632,0,0,1-.157,1.241Z" transform="translate(-59.918 -286.567)" fill-rule="evenodd"/>
        <path id="Trazado_1180140" data-name="Trazado 1180140" d="M78.883,301.831a.415.415,0,0,1-.17-.026l-13.218-3.54a.629.629,0,1,1,.327-1.215l13.218,3.54a.632.632,0,0,1-.157,1.241Z" transform="translate(-59.918 -261.616)" fill-rule="evenodd"/>
        <path id="Trazado_1180141" data-name="Trazado 1180141" d="M316.351,361.031a.613.613,0,0,1-.6-.47.623.623,0,0,1,.444-.771l13.218-3.54a.629.629,0,1,1,.327,1.215L316.521,361A.9.9,0,0,1,316.351,361.031Z" transform="translate(-277.873 -313.083)" fill-rule="evenodd"/>
        <path id="Trazado_1180142" data-name="Trazado 1180142" d="M316.351,330.531a.613.613,0,0,1-.6-.47.623.623,0,0,1,.444-.771l13.218-3.54a.629.629,0,1,1,.327,1.215l-13.218,3.54A.9.9,0,0,1,316.351,330.531Z" transform="translate(-277.873 -286.567)" fill-rule="evenodd"/>
        <path id="Trazado_1180143" data-name="Trazado 1180143" d="M316.351,301.831a.613.613,0,0,1-.6-.47.623.623,0,0,1,.444-.771l13.218-3.54a.629.629,0,1,1,.327,1.215l-13.218,3.54A.415.415,0,0,1,316.351,301.831Z" transform="translate(-277.873 -261.616)" fill-rule="evenodd"/>
        <path id="Trazado_1180144" data-name="Trazado 1180144" d="M226.673,65.628a3.429,3.429,0,0,0,0,5.825,3.429,3.429,0,0,0,0-5.825Zm0,7.223a.633.633,0,0,1-.34-.091,4.757,4.757,0,0,1,0-8.411.615.615,0,0,1,.666,0,4.757,4.757,0,0,1,0,8.411.771.771,0,0,1-.327.091Z" transform="translate(-197.952 -59.241)" fill-rule="evenodd"/>
        <path id="Trazado_1180145" data-name="Trazado 1180145" d="M241.627,136.282a.636.636,0,0,1-.627-.627V121.027a.627.627,0,1,1,1.254,0v14.629A.627.627,0,0,1,241.627,136.282Z" transform="translate(-212.905 -108.057)" fill-rule="evenodd"/>
        <path id="Trazado_1180146" data-name="Trazado 1180146" d="M131.393,171.954a4.964,4.964,0,0,0,9.848,0Zm4.924,5.59a6.224,6.224,0,0,1-6.217-6.217.627.627,0,0,1,.627-.627h11.18a.636.636,0,0,1,.627.627A6.232,6.232,0,0,1,136.317,177.544Z" transform="translate(-116.49 -151.787)" fill-rule="evenodd"/>
        <path id="Trazado_1180147" data-name="Trazado 1180147" d="M267.493,171.954a4.964,4.964,0,0,0,9.848,0Zm4.924,5.59a6.224,6.224,0,0,1-6.217-6.217.627.627,0,0,1,.627-.627h11.18a.627.627,0,0,1,.627.627A6.224,6.224,0,0,1,272.417,177.544Z" transform="translate(-234.814 -151.787)" fill-rule="evenodd"/>
        <path id="Trazado_1180148" data-name="Trazado 1180148" d="M180.893,110.754h-7.367a.627.627,0,0,1-.627-.627.619.619,0,0,1,.627-.627h7.367a.627.627,0,0,1,.627.627A.619.619,0,0,1,180.893,110.754Z" transform="translate(-153.7 -98.581)" fill-rule="evenodd"/>
        <path id="Trazado_1180149" data-name="Trazado 1180149" d="M260.593,110.754h-7.367a.627.627,0,0,1,0-1.254h7.367a.627.627,0,0,1,.627.627A.619.619,0,0,1,260.593,110.754Z" transform="translate(-222.99 -98.581)" fill-rule="evenodd"/>
        <path id="Trazado_1180150" data-name="Trazado 1180150" d="M179.152,118.695a.6.6,0,0,1-.509-.274l-5.59-7.993a.629.629,0,0,1,1.032-.718l5.59,7.993a.628.628,0,0,1-.157.875A.672.672,0,0,1,179.152,118.695Z" transform="translate(-153.735 -98.528)" fill-rule="evenodd"/>
        <path id="Trazado_1180151" data-name="Trazado 1180151" d="M130.675,118.695a.672.672,0,0,1-.366-.118.628.628,0,0,1-.157-.875l5.59-7.993a.629.629,0,0,1,1.032.718l-5.59,7.993A.6.6,0,0,1,130.675,118.695Z" transform="translate(-116.438 -98.528)" fill-rule="evenodd"/>
        <path id="Trazado_1180152" data-name="Trazado 1180152" d="M315.252,118.695a.6.6,0,0,1-.509-.274l-5.59-7.993a.629.629,0,0,1,1.032-.718l5.59,7.993a.628.628,0,0,1-.157.875A.64.64,0,0,1,315.252,118.695Z" transform="translate(-272.058 -98.528)" fill-rule="evenodd"/>
        <path id="Trazado_1180153" data-name="Trazado 1180153" d="M266.861,118.695a.6.6,0,0,1-.353-.118.628.628,0,0,1-.157-.875l5.59-7.993a.629.629,0,0,1,1.032.718l-5.59,8.007A.662.662,0,0,1,266.861,118.695Z" transform="translate(-234.848 -98.528)" fill-rule="evenodd"/>
        <path id="Trazado_1180154" data-name="Trazado 1180154" d="M198.029,233.654a.58.58,0,0,0-.575.575v1.58a.58.58,0,0,0,.575.575h9.287a.58.58,0,0,0,.575-.575v-1.58a.58.58,0,0,0-.575-.575Zm9.287,3.984h-9.287a1.834,1.834,0,0,1-1.829-1.829v-1.58a1.834,1.834,0,0,1,1.829-1.829h9.287a1.834,1.834,0,0,1,1.829,1.829v1.58A1.834,1.834,0,0,1,207.315,237.638Z" transform="translate(-173.957 -205.429)" fill-rule="evenodd"/>
      </g>
    </g>
  </g>
</svg>
