<svg xmlns="http://www.w3.org/2000/svg" xmlns:xlink="http://www.w3.org/1999/xlink" width="113" height="113" viewBox="0 0 113 113">
  <defs>
    <filter id="Trazado_982547" x="0" y="0" width="113" height="113" filterUnits="userSpaceOnUse">
      <feOffset dy="3" input="SourceAlpha"/>
      <feGaussianBlur stdDeviation="3" result="blur"/>
      <feFlood flood-opacity="0.161"/>
      <feComposite operator="in" in2="blur"/>
      <feComposite in="SourceGraphic"/>
    </filter>
  </defs>
  <g id="Grupo_1224178" data-name="Grupo 1224178" transform="translate(-1678.49 -7420.751)">
    <g id="Grupo_1224075" data-name="Grupo 1224075" transform="translate(1323 2845.683)">
      <g id="Grupo_1223183" data-name="Grupo 1223183" transform="translate(364.49 4581.069)">
        <g id="Grupo_1211217" data-name="Grupo 1211217" transform="translate(0)">
          <g id="Grupo_1210736" data-name="Grupo 1210736">
            <g id="Grupo_1210537" data-name="Grupo 1210537">
              <g id="Grupo_1164202" data-name="Grupo 1164202">
                <g id="Grupo_1158168" data-name="Grupo 1158168">
                  <g id="Grupo_1152576" data-name="Grupo 1152576">
                    <g id="Grupo_1148633" data-name="Grupo 1148633">
                      <g id="Grupo_1148525" data-name="Grupo 1148525">
                        <g transform="matrix(1, 0, 0, 1, -9, -6)" filter="url(#Trazado_982547)">
                          <g id="Trazado_982547-2" data-name="Trazado 982547" transform="translate(9 6)" fill="#fcf5f0">
                            <path d="M 47.49999618530273 93.5 C 41.28936767578125 93.5 35.26533126831055 92.28396606445312 29.59518241882324 89.88570404052734 C 24.11771583557129 87.56893157958984 19.19812965393066 84.251953125 14.97308921813965 80.02690124511719 C 10.74803638458252 75.80186462402344 7.431062698364258 70.88227844238281 5.114289283752441 65.40480804443359 C 2.716022968292236 59.73466110229492 1.499996185302734 53.71062469482422 1.499996185302734 47.49999618530273 C 1.499996185302734 41.28936767578125 2.716022968292236 35.26533126831055 5.114289283752441 29.59518241882324 C 7.431062698364258 24.11771583557129 10.74803638458252 19.19812965393066 14.97308921813965 14.97308921813965 C 19.19812965393066 10.74803638458252 24.11771583557129 7.431062698364258 29.59518241882324 5.114289283752441 C 35.26533126831055 2.716022968292236 41.28936767578125 1.499996185302734 47.49999618530273 1.499996185302734 C 53.71062469482422 1.499996185302734 59.73466110229492 2.716022968292236 65.40480804443359 5.114289283752441 C 70.88227844238281 7.431062698364258 75.80186462402344 10.74803638458252 80.02690124511719 14.97308921813965 C 84.251953125 19.19812965393066 87.56893157958984 24.11771583557129 89.88570404052734 29.59518241882324 C 92.28396606445312 35.26533126831055 93.5 41.28936767578125 93.5 47.49999618530273 C 93.5 53.71062469482422 92.28396606445312 59.73466110229492 89.88570404052734 65.40480804443359 C 87.56893157958984 70.88227844238281 84.251953125 75.80186462402344 80.02690124511719 80.02690124511719 C 75.80186462402344 84.251953125 70.88227844238281 87.56893157958984 65.40480804443359 89.88570404052734 C 59.73466110229492 92.28396606445312 53.71062469482422 93.5 47.49999618530273 93.5 Z" stroke="none"/>
                            <path d="M 47.49999618530273 2.999992370605469 C 41.4912109375 2.999992370605469 35.66376495361328 4.1761474609375 30.17950439453125 6.495796203613281 C 24.88084411621094 8.736953735351562 20.12152099609375 11.94598388671875 16.03375244140625 16.03375244140625 C 11.94598388671875 20.12152099609375 8.736953735351562 24.88084411621094 6.495796203613281 30.17950439453125 C 4.1761474609375 35.66376495361328 2.999992370605469 41.4912109375 2.999992370605469 47.49999618530273 C 2.999992370605469 53.50878143310547 4.1761474609375 59.33622741699219 6.495796203613281 64.82048797607422 C 8.736953735351562 70.11914825439453 11.94598388671875 74.87847137451172 16.03375244140625 78.96623992919922 C 20.12152099609375 83.05400848388672 24.88084411621094 86.26304626464844 30.17950439453125 88.50419616699219 C 35.66376495361328 90.82384490966797 41.4912109375 92 47.49999618530273 92 C 53.50878143310547 92 59.33622741699219 90.82384490966797 64.82048797607422 88.50419616699219 C 70.11914825439453 86.26304626464844 74.87847137451172 83.05400848388672 78.96623992919922 78.96623992919922 C 83.05400848388672 74.87847137451172 86.26304626464844 70.11914825439453 88.50419616699219 64.82048797607422 C 90.82384490966797 59.33622741699219 92 53.50878143310547 92 47.49999618530273 C 92 41.4912109375 90.82384490966797 35.66376495361328 88.50419616699219 30.17950439453125 C 86.26304626464844 24.88084411621094 83.05400848388672 20.12152099609375 78.96623992919922 16.03375244140625 C 74.87847137451172 11.94598388671875 70.11914825439453 8.736953735351562 64.82048797607422 6.495796203613281 C 59.33622741699219 4.1761474609375 53.50878143310547 2.999992370605469 47.49999618530273 2.999992370605469 M 47.49999618530273 -7.62939453125e-06 C 73.7335205078125 -7.62939453125e-06 95 21.26647186279297 95 47.49999618530273 C 95 73.7335205078125 73.7335205078125 95 47.49999618530273 95 C 21.26647186279297 95 -7.62939453125e-06 73.7335205078125 -7.62939453125e-06 47.49999618530273 C -7.62939453125e-06 21.26647186279297 21.26647186279297 -7.62939453125e-06 47.49999618530273 -7.62939453125e-06 Z" stroke="none" fill="#eca675"/>
                          </g>
                        </g>
                      </g>
                    </g>
                  </g>
                </g>
              </g>
            </g>
          </g>
        </g>
      </g>
    </g>
    <g id="proofing_10988140" transform="translate(1691.83 7405.431)">
      <path id="Trazado_1180177" data-name="Trazado 1180177" d="M208.775,95.042a2.018,2.018,0,0,1-2.018,2.018H164.831a2.018,2.018,0,0,1-2.018-2.018V40.58a2.018,2.018,0,0,1,2.018-2.018h20.577c4.459,0,9.47,2.816,12.624,5.969l4.775,4.775c3.153,3.153,5.969,8.164,5.969,12.624Z" transform="translate(-134.421)" fill="#d8ecfe"/>
      <path id="Trazado_1180178" data-name="Trazado 1180178" d="M202.8,101.125l-2.69-2.69c3.153,3.153,5.969,8.164,5.969,12.624v33.112a2.018,2.018,0,0,1-2.018,2.018H162.812v.673a2.018,2.018,0,0,0,2.018,2.018h41.927a2.018,2.018,0,0,0,2.018-2.018V113.749C208.774,109.29,205.958,104.279,202.8,101.125Z" transform="translate(-134.42 -51.819)" fill="#c4e2ff"/>
      <path id="Trazado_1180179" data-name="Trazado 1180179" d="M234.476,106.955h-24.4a.673.673,0,0,1-.673-.673V101.36a.673.673,0,0,1,.673-.673h26.487Z" transform="translate(-174.747 -53.768)" fill="#ffd15b"/>
      <path id="Trazado_1180180" data-name="Trazado 1180180" d="M115.146,145.052a14.626,14.626,0,0,0-23.091,17.581,1.352,1.352,0,0,1-.274,1.705l-2.295,1.989,4.2,4.2,1.978-2.283a1.355,1.355,0,0,1,1.7-.294,14.627,14.627,0,0,0,17.784-22.894Z" transform="translate(-70.958 -88.394)" fill="#d8ecfe"/>
      <path id="Trazado_1180181" data-name="Trazado 1180181" d="M134.433,208.078a14.629,14.629,0,0,1-21.694,15.5,1.355,1.355,0,0,0-1.7.294l-2.853,3.292,1.681,1.681,1.978-2.283a1.355,1.355,0,0,1,1.7-.294,14.63,14.63,0,0,0,20.887-18.188Z" transform="translate(-87.142 -146.713)" fill="#b3ceec"/>
      <circle id="Elipse_14736" data-name="Elipse 14736" cx="10.446" cy="10.446" r="10.446" transform="translate(23.307 56.459)" fill="#eaf6ff"/>
      <path id="Trazado_1180182" data-name="Trazado 1180182" d="M162.506,228.117l-1.766-1.766a1.345,1.345,0,0,0-1.9,0l-1.052,1.052a1.345,1.345,0,0,0,0,1.9l3.056,3.056a2.69,2.69,0,0,0,3.8,0l4.076-4.076a1.345,1.345,0,0,0,0-1.9l-1.052-1.052a1.345,1.345,0,0,0-1.9,0l-2.786,2.786A.336.336,0,0,1,162.506,228.117Z" transform="translate(-129.73 -161.305)" fill="#6ed5a1"/>
      <path id="Trazado_1180183" data-name="Trazado 1180183" d="M8.842,339.643a3.891,3.891,0,1,0,5.488,5.488l8.394-9.686-4.2-4.2Z" transform="translate(0 -253.316)" fill="#685e68"/>
      <path id="Trazado_1180184" data-name="Trazado 1180184" d="M13.524,358.625a3.891,3.891,0,0,1-5.691.2,3.947,3.947,0,0,1-.321-.363,3.891,3.891,0,0,0,6.819,2.85l8.394-9.686-1.681-1.681Z" transform="translate(-0.001 -269.5)" fill="#554e56"/>
      <path id="Trazado_1180185" data-name="Trazado 1180185" d="M344.45,43.487a16.814,16.814,0,0,0-11.89-4.925h-1.779a8.743,8.743,0,0,1,8.744,8.744v5.881h6.024a8.623,8.623,0,0,1,8.6,8.744V60.151a16.814,16.814,0,0,0-4.925-11.89Z" transform="translate(-279.796 0)" fill="#eaf6ff"/>
      <path id="Trazado_1180186" data-name="Trazado 1180186" d="M130.689,191.349a10.45,10.45,0,1,1,4.77,1.15" transform="translate(-101.706 -115.148)" fill="none" stroke="#000" stroke-linecap="round" stroke-linejoin="round" stroke-miterlimit="10" stroke-width="1.5"/>
      <path id="Trazado_1180187" data-name="Trazado 1180187" d="M162.506,228.117l-1.766-1.766a1.345,1.345,0,0,0-1.9,0l-1.052,1.052a1.345,1.345,0,0,0,0,1.9l3.056,3.056a2.69,2.69,0,0,0,3.8,0l4.076-4.076a1.345,1.345,0,0,0,0-1.9l-1.052-1.052a1.345,1.345,0,0,0-1.9,0l-2.786,2.786A.336.336,0,0,1,162.506,228.117Z" transform="translate(-129.73 -161.305)" fill="none" stroke="#000" stroke-linecap="round" stroke-linejoin="round" stroke-miterlimit="10" stroke-width="1.5"/>
      <line id="Línea_3748" data-name="Línea 3748" x2="7.159" y2="7.159" transform="translate(17.047 76.452)" fill="none" stroke="#000" stroke-linecap="round" stroke-linejoin="round" stroke-miterlimit="10" stroke-width="1.5"/>
      <path id="Trazado_1180188" data-name="Trazado 1180188" d="M8.842,339.643a3.891,3.891,0,1,0,5.488,5.488l8.394-9.686-4.2-4.2Z" transform="translate(0 -253.316)" fill="none" stroke="#000" stroke-linecap="round" stroke-linejoin="round" stroke-miterlimit="10" stroke-width="1.5"/>
      <path id="Trazado_1180189" data-name="Trazado 1180189" d="M115.146,145.052a14.626,14.626,0,0,0-23.091,17.581,1.352,1.352,0,0,1-.274,1.705l-2.295,1.989,4.2,4.2,1.978-2.283a1.355,1.355,0,0,1,1.7-.294,14.627,14.627,0,0,0,17.784-22.894Z" transform="translate(-70.958 -88.394)" fill="none" stroke="#000" stroke-linecap="round" stroke-linejoin="round" stroke-miterlimit="10" stroke-width="1.5"/>
      <path id="Trazado_1180190" data-name="Trazado 1180190" d="M344.45,43.487a16.814,16.814,0,0,0-11.89-4.925h-1.779a8.743,8.743,0,0,1,8.744,8.744v5.881h6.024a8.623,8.623,0,0,1,8.6,8.744V60.151a16.814,16.814,0,0,0-4.925-11.89Z" transform="translate(-279.796 0)" fill="none" stroke="#000" stroke-linecap="round" stroke-linejoin="round" stroke-miterlimit="10" stroke-width="1.5"/>
      <path id="Trazado_1180191" data-name="Trazado 1180191" d="M185.406,38.562H164.83a2.018,2.018,0,0,0-2.018,2.018V53.306" transform="translate(-134.42)" fill="none" stroke="#000" stroke-linecap="round" stroke-linejoin="round" stroke-miterlimit="10" stroke-width="1.5"/>
      <path id="Trazado_1180192" data-name="Trazado 1180192" d="M162.812,244.092v1.3a2.018,2.018,0,0,0,2.018,2.018h41.927a2.018,2.018,0,0,0,2.018-2.018V212.281" transform="translate(-134.42 -150.351)" fill="none" stroke="#000" stroke-linecap="round" stroke-linejoin="round" stroke-miterlimit="10" stroke-width="1.5"/>
      <line id="Línea_3749" data-name="Línea 3749" y2="8.518" transform="translate(28.392 80.515)" fill="none" stroke="#000" stroke-linecap="round" stroke-linejoin="round" stroke-miterlimit="10" stroke-width="1.5"/>
      <path id="Trazado_1180193" data-name="Trazado 1180193" d="M234.468,100.688H210.079a.673.673,0,0,0-.673.673V106.1" transform="translate(-174.747 -53.769)" fill="none" stroke="#000" stroke-linecap="round" stroke-linejoin="round" stroke-miterlimit="10" stroke-width="1.5"/>
      <line id="Línea_3750" data-name="Línea 3750" x2="2.898" transform="translate(56.832 53.186)" fill="none" stroke="#000" stroke-linecap="round" stroke-linejoin="round" stroke-miterlimit="10" stroke-width="1.5"/>
      <line id="Línea_3751" data-name="Línea 3751" x2="13.331" transform="translate(38.793 53.186)" fill="none" stroke="#000" stroke-linecap="round" stroke-linejoin="round" stroke-miterlimit="10" stroke-width="1.5"/>
      <line id="Línea_3752" data-name="Línea 3752" x2="20.723" transform="translate(47.363 61.543)" fill="none" stroke="#000" stroke-linecap="round" stroke-linejoin="round" stroke-miterlimit="10" stroke-width="1.5"/>
      <line id="Línea_3753" data-name="Línea 3753" x2="19.737" transform="translate(48.349 67.811)" fill="none" stroke="#000" stroke-linecap="round" stroke-linejoin="round" stroke-miterlimit="10" stroke-width="1.5"/>
      <line id="Línea_3754" data-name="Línea 3754" x2="21.585" transform="translate(46.501 74.078)" fill="none" stroke="#000" stroke-linecap="round" stroke-linejoin="round" stroke-miterlimit="10" stroke-width="1.5"/>
      <line id="Línea_3755" data-name="Línea 3755" x2="27.159" transform="translate(34.659 86.613)" fill="none" stroke="#000" stroke-linecap="round" stroke-linejoin="round" stroke-miterlimit="10" stroke-width="1.5"/>
      <line id="Línea_3756" data-name="Línea 3756" x2="28.561" transform="translate(39.525 80.346)" fill="none" stroke="#000" stroke-linecap="round" stroke-linejoin="round" stroke-miterlimit="10" stroke-width="1.5"/>
    </g>
  </g>
</svg>
