<svg xmlns="http://www.w3.org/2000/svg" xmlns:xlink="http://www.w3.org/1999/xlink" width="103" height="103" viewBox="0 0 103 103">
  <defs>
    <filter id="Trazado_982547" x="0" y="0" width="103" height="103" filterUnits="userSpaceOnUse">
      <feOffset dy="3" input="SourceAlpha"/>
      <feGaussianBlur stdDeviation="3" result="blur"/>
      <feFlood flood-opacity="0.161"/>
      <feComposite operator="in" in2="blur"/>
      <feComposite in="SourceGraphic"/>
    </filter>
  </defs>
  <g id="Grupo_1224201" data-name="Grupo 1224201" transform="translate(-194.13 -426)">
    <g id="Grupo_1224080" data-name="Grupo 1224080" transform="translate(0 -1582)">
      <g id="Grupo_1206686" data-name="Grupo 1206686" transform="translate(-2.87 300.583)">
        <g id="Grupo_1201889" data-name="Grupo 1201889" transform="translate(206 1713.417)">
          <g id="Grupo_1201680" data-name="Grupo 1201680">
            <g id="Grupo_1201330" data-name="Grupo 1201330">
              <g id="Grupo_1172010" data-name="Grupo 1172010">
                <g id="Grupo_1171046" data-name="Grupo 1171046">
                  <g id="Grupo_1148525" data-name="Grupo 1148525">
                    <g transform="matrix(1, 0, 0, 1, -9, -6)" filter="url(#Trazado_982547)">
                      <g id="Trazado_982547-2" data-name="Trazado 982547" transform="translate(9 6)" fill="#f2f4f0">
                        <path d="M 42.5 83.5 C 36.96437835693359 83.5 31.59512901306152 82.41617584228516 26.54141235351562 80.27863311767578 C 21.65934181213379 78.21369171142578 17.27447128295898 75.25723266601562 13.50862312316895 71.49137878417969 C 9.742764472961426 67.72553253173828 6.786305904388428 63.34066009521484 4.721364498138428 58.45858764648438 C 2.583823442459106 53.40486907958984 1.5 48.03562164306641 1.5 42.5 C 1.5 36.96437835693359 2.583823442459106 31.59512901306152 4.721364498138428 26.54141235351562 C 6.786305904388428 21.65934181213379 9.742764472961426 17.27448272705078 13.50862312316895 13.50862312316895 C 17.27447128295898 9.742776870727539 21.65934181213379 6.786305904388428 26.54141235351562 4.721364498138428 C 31.59512901306152 2.583823442459106 36.96437835693359 1.5 42.5 1.5 C 48.03562164306641 1.5 53.40486907958984 2.583823442459106 58.45858764648438 4.721364498138428 C 63.34066009521484 6.786305904388428 67.72553253173828 9.742776870727539 71.49137878417969 13.50862312316895 C 75.25723266601562 17.27448272705078 78.21369171142578 21.65934181213379 80.27863311767578 26.54141235351562 C 82.41617584228516 31.59512901306152 83.5 36.96437835693359 83.5 42.5 C 83.5 48.03562164306641 82.41617584228516 53.40486907958984 80.27863311767578 58.45858764648438 C 78.21369171142578 63.34066009521484 75.25723266601562 67.72553253173828 71.49137878417969 71.49137878417969 C 67.72553253173828 75.25723266601562 63.34066009521484 78.21369171142578 58.45858764648438 80.27863311767578 C 53.40486907958984 82.41617584228516 48.03562164306641 83.5 42.5 83.5 Z" stroke="none"/>
                        <path d="M 42.5 3 C 37.16621398925781 3 31.99356079101562 4.043960571289062 27.125732421875 6.102882385253906 C 22.42246627807617 8.092185974121094 18.19785308837891 10.94070434570312 14.56928253173828 14.56928253173828 C 10.94070434570312 18.19785308837891 8.092185974121094 22.42246627807617 6.102882385253906 27.125732421875 C 4.043960571289062 31.99356079101562 3 37.16621398925781 3 42.5 C 3 47.83378601074219 4.043960571289062 53.00643920898438 6.102882385253906 57.87425231933594 C 8.092185974121094 62.57753372192383 10.94070434570312 66.80213165283203 14.56928253173828 70.43071746826172 C 18.19786834716797 74.05929565429688 22.42246627807617 76.90781402587891 27.125732421875 78.89711761474609 C 31.99356079101562 80.95603942871094 37.16621398925781 82 42.5 82 C 47.83378601074219 82 53.00642395019531 80.95603942871094 57.87425231933594 78.89711761474609 C 62.57753372192383 76.90781402587891 66.80213165283203 74.05929565429688 70.43071746826172 70.43071746826172 C 74.05929565429688 66.80213165283203 76.90781402587891 62.57753372192383 78.89711761474609 57.87425231933594 C 80.95603942871094 53.00642395019531 82 47.83378601074219 82 42.5 C 82 37.16621398925781 80.95603942871094 31.99356079101562 78.89711761474609 27.125732421875 C 76.90781402587891 22.42246627807617 74.05929565429688 18.19786834716797 70.43071746826172 14.56928253173828 C 66.80213165283203 10.94070434570312 62.57753372192383 8.092185974121094 57.87425231933594 6.102882385253906 C 53.00643920898438 4.043960571289062 47.83378601074219 3 42.5 3 M 42.5 0 C 65.97209167480469 0 85 19.02789306640625 85 42.5 C 85 65.97209167480469 65.97209167480469 85 42.5 85 C 19.02789306640625 85 0 65.97209167480469 0 42.5 C 0 19.02789306640625 19.02789306640625 0 42.5 0 Z" stroke="none" fill="#899e78"/>
                      </g>
                    </g>
                  </g>
                </g>
              </g>
            </g>
          </g>
        </g>
      </g>
    </g>
    <g id="bond_18203576" transform="translate(149.824 429.948)">
      <path id="Trazado_1180330" data-name="Trazado 1180330" d="M95.062,22.95h29.962l1.343,6.633,6.546,1.256V75.51a.579.579,0,0,1-.578.578H95.062a.579.579,0,0,1-.578-.578V23.528a.579.579,0,0,1,.578-.578Z" transform="translate(-17.892 -6.122)" fill="#e6e6e6" fill-rule="evenodd"/>
      <path id="Trazado_1180331" data-name="Trazado 1180331" d="M351.776,30.838h7.312L351.2,22.949v7.312A.579.579,0,0,0,351.776,30.838Z" transform="translate(-244.067 -6.121)" fill="#b3b3b3" fill-rule="evenodd"/>
      <path id="Trazado_1180332" data-name="Trazado 1180332" d="M234.88,172.622H239.9v12.05a.347.347,0,0,1-.591.245L237.392,183l-1.921,1.921a.346.346,0,0,1-.592-.245v-12.05Z" transform="translate(-141.586 -137.989)" fill="#cd212d" fill-rule="evenodd"/>
      <path id="Trazado_1180333" data-name="Trazado 1180333" d="M243.618,172.622H247.6v11.847l-1.993-1.993-1.993,1.993V172.622Z" transform="translate(-149.285 -137.989)" fill="#ee2b39" fill-rule="evenodd"/>
      <circle id="Elipse_14737" data-name="Elipse 14737" cx="8.816" cy="8.816" r="8.816" transform="translate(86.991 19.246)" fill="#ffb336"/>
      <circle id="Elipse_14738" data-name="Elipse 14738" cx="6.222" cy="6.222" r="6.222" transform="translate(87.99 24.034) rotate(-17.638)" fill="#fec66f"/>
      <g id="Grupo_1224200" data-name="Grupo 1224200" transform="translate(74.176 16.001)">
        <path id="Trazado_1180334" data-name="Trazado 1180334" d="M221.281,65.426a6.222,6.222,0,1,1-5.5,6.181A6.223,6.223,0,0,1,221.281,65.426Z" transform="translate(-198.933 -59.546)" fill="#ffce7b" fill-rule="evenodd"/>
        <path id="Trazado_1180335" data-name="Trazado 1180335" d="M119.052,300.505l-6.079,9.986,18.772,12.189a1.91,1.91,0,0,0,1.914-3.305l1.451.838a1.91,1.91,0,0,0,1.911-3.307l1.323.764a1.91,1.91,0,0,0,1.955-3.281l1.381.8a1.915,1.915,0,0,0,2.609-.7,1.974,1.974,0,0,0-.7-2.609l-13.321-9.165c-1.739-1.2-4.627.349-6.563.469l-4.654-2.678Z" transform="translate(-108.358 -266.66)" fill="#f2d3bd" fill-rule="evenodd"/>
        <path id="Trazado_1180336" data-name="Trazado 1180336" d="M305.443,398.814a1.911,1.911,0,0,0-.9-1.444l1.381.8h0L300,394.743a.4.4,0,1,0-.4.694l5.848,3.376Z" transform="translate(-272.603 -349.64)" fill="#e4c3af" fill-rule="evenodd"/>
        <path id="Trazado_1180337" data-name="Trazado 1180337" d="M289.986,426.962a1.911,1.911,0,0,0-.943-1.47l-2.92-1.686a.4.4,0,1,0-.4.694l4.263,2.461Zm-.751-1.359,1.131.653h0l-1.132-.654Z" transform="translate(-260.381 -375.246)" fill="#e4c3af" fill-rule="evenodd"/>
        <path id="Trazado_1180338" data-name="Trazado 1180338" d="M270.994,453.069a1.9,1.9,0,0,0-.94-1.468l-1.67-.964a.4.4,0,0,0-.4.694Zm-.338-1.12.849.49h0l-.848-.489Z" transform="translate(-244.752 -398.885)" fill="#e4c3af" fill-rule="evenodd"/>
        <path id="Trazado_1180339" data-name="Trazado 1180339" d="M113.994,370.354l-1.021,1.677,9.208,5.979,1.162-1.881Z" transform="translate(-108.358 -328.199)" fill="#e4c3af" fill-rule="evenodd"/>
        <path id="Trazado_1180340" data-name="Trazado 1180340" d="M91.6,280.518l-6.113,10.589a1.43,1.43,0,0,1-1.947.522l-2.2-1.269a.737.737,0,0,1-.269-1l6.8-11.784a.737.737,0,0,1,1-.269l2.2,1.269a1.43,1.43,0,0,1,.522,1.947Z" transform="translate(-80.167 -246.13)" fill="#0dbaf3" fill-rule="evenodd"/>
        <path id="Trazado_1180341" data-name="Trazado 1180341" d="M86.772,357.088l-1.284,2.223a1.43,1.43,0,0,1-1.947.522l-2.2-1.269a.737.737,0,0,1-.269-1l1.7-2.942Z" transform="translate(-80.167 -314.334)" fill="#0ba1e2" fill-rule="evenodd"/>
        <path id="Trazado_1180342" data-name="Trazado 1180342" d="M158.3,399.149a1.577,1.577,0,0,1-2.029-2.337l1.322-1.693a1.576,1.576,0,0,1,2.8,1.233l.949-1.215a1.576,1.576,0,0,1,2.8,1.238l.007-.009a1.577,1.577,0,1,1,2.486,1.941L165.38,399.9a1.577,1.577,0,0,1,2.11,2.287l-1.613,2.064a1.577,1.577,0,0,1-2.694-1.587,1.576,1.576,0,0,1-2.542-1.65,1.576,1.576,0,0,1-2.346-1.865Z" transform="translate(-146.207 -349.486)" fill="#d7b5a3" fill-rule="evenodd"/>
        <path id="Trazado_1180343" data-name="Trazado 1180343" d="M219.483,425.406c-.026.04-.054.08-.084.118l-.247.316.33-.434Zm-1.278,1.679a1.592,1.592,0,0,1,1.193-.184l-3.346,4.394a1.592,1.592,0,0,1-.177-1.151l2.33-3.06Z" transform="translate(-198.985 -376.702)" fill="#cca898" fill-rule="evenodd"/>
        <path id="Trazado_1180344" data-name="Trazado 1180344" d="M198.653,405.436a1.585,1.585,0,0,1,1.37-.416l-4.9,6.431a1.591,1.591,0,0,1-.118-1.2l-.038.024,3.682-4.836Z" transform="translate(-180.575 -358.721)" fill="#cca898" fill-rule="evenodd"/>
        <path id="Trazado_1180345" data-name="Trazado 1180345" d="M175.071,399.283l-.067.036,2.159-2.835.947-1.213a1.581,1.581,0,0,1,1.477-.588l-4.45,5.845A1.591,1.591,0,0,1,175.071,399.283Z" transform="translate(-162.983 -349.62)" fill="#cca898" fill-rule="evenodd"/>
        <path id="Trazado_1180346" data-name="Trazado 1180346" d="M156.025,398.311a1.579,1.579,0,0,1,.241-1.5l1.322-1.693a1.579,1.579,0,0,1,1.392-.6l-2.955,3.791Z" transform="translate(-146.208 -349.485)" fill="#cca898" fill-rule="evenodd"/>
        <path id="Trazado_1180347" data-name="Trazado 1180347" d="M256.053,306.386l5,8.846-2.28,2-10.814-6.243c-1.086,3.085-1.236,4.025-4.239,3.844a.368.368,0,0,1-.33-.473,29.645,29.645,0,0,0,.575-4.124,3.238,3.238,0,0,1,2.183-2.9,16.352,16.352,0,0,1,2.621-.583c2.1-.432,1.9-.077,3.8,1.01l3.485-1.373Z" transform="translate(-223.244 -271.841)" fill="#d7b5a3" fill-rule="evenodd"/>
        <path id="Trazado_1180348" data-name="Trazado 1180348" d="M294.561,342.6l-1.817,1.593-10.825-6.234.3-.959,9.077,5.228c1.131.651,1.484.406,1.855.1l.853-.7Z" transform="translate(-257.205 -298.815)" fill="#cca898" fill-rule="evenodd"/>
        <path id="Trazado_1180349" data-name="Trazado 1180349" d="M340.292,279l6.113,10.589a1.429,1.429,0,0,0,1.947.522l2.2-1.269a.737.737,0,0,0,.269-1l-6.8-11.784a.737.737,0,0,0-1-.269l-2.2,1.269a1.429,1.429,0,0,0-.522,1.947Z" transform="translate(-308.467 -244.795)" fill="#50bc5d" fill-rule="evenodd"/>
        <path id="Trazado_1180350" data-name="Trazado 1180350" d="M383.491,358.533l1.142,1.978a1.429,1.429,0,0,0,1.947.522l2.2-1.269a.737.737,0,0,0,.269-1l-1.487-2.575-4.07,2.35Z" transform="translate(-346.694 -315.714)" fill="#3cb54b" fill-rule="evenodd"/>
        <g id="Grupo_1224199" data-name="Grupo 1224199" transform="translate(0 0)">
          <path id="Trazado_1180351" data-name="Trazado 1180351" d="M88.5,58.328a.808.808,0,0,1-.809-.808V17.11A.809.809,0,0,1,88.5,16.3h30.539a.809.809,0,0,1,.572.237l7.889,7.889a.808.808,0,0,1,.237.572V57.341a.809.809,0,1,1-1.617,0V25.334L118.7,17.918H89.3v39.6A.808.808,0,0,1,88.5,58.328Zm14.5,12.728H88.5a.808.808,0,0,1-.809-.808V61.231a.809.809,0,0,1,1.617,0v8.207h13.689a.809.809,0,0,1,0,1.617Zm23.931,0h-14.7a.809.809,0,1,1,0-1.617h13.893V61.053a.809.809,0,0,1,1.617,0v9.194a.808.808,0,0,1-.809.809Z" transform="translate(-86.08 -16.265)" fill-rule="evenodd"/>
          <path id="Trazado_1180352" data-name="Trazado 1180352" d="M345.048,25.543a.808.808,0,0,1-.809-.806l-.022-7.925a.809.809,0,0,1,.806-.811h0a.809.809,0,0,1,.808.806l.02,7.115,7.057-.032h0a.809.809,0,0,1,0,1.617l-7.867.036h0Z" transform="translate(-312.092 -16.001)" fill-rule="evenodd"/>
          <path id="Trazado_1180353" data-name="Trazado 1180353" d="M336.24,271.441l-2.1,1.212a.6.6,0,0,0-.219.818l6.035,10.453a.6.6,0,0,0,.818.22l2.1-1.213-6.634-11.489Zm4.24,14.4a2.219,2.219,0,0,1-1.923-1.108l-6.035-10.453a2.22,2.22,0,0,1,.811-3.027l2.8-1.616a.808.808,0,0,1,1.1.3l7.442,12.89a.808.808,0,0,1-.3,1.1l-2.8,1.616a2.2,2.2,0,0,1-1.1.3Z" transform="translate(-301.527 -239.367)" fill-rule="evenodd"/>
          <path id="Trazado_1180354" data-name="Trazado 1180354" d="M126.262,303.852a.81.81,0,0,1-.4-.107l-3.817-2.195a.809.809,0,1,1,.806-1.4l3.6,2.071a9.9,9.9,0,0,0,2.334-.512,5.183,5.183,0,0,1,4.251.114.809.809,0,0,1-.618,1.495,3.644,3.644,0,0,0-3.141-.068,11.277,11.277,0,0,1-2.962.6ZM120.5,314.7a.8.8,0,0,1-.426-.122l-.211-.132a.679.679,0,0,1-.058-.039l-3.694-2.768a.809.809,0,0,1,.97-1.295l3.666,2.748.182.112a.809.809,0,0,1-.428,1.5Zm14.637,8.65a2.665,2.665,0,0,1-1.339-.36l-2.825-1.631a.808.808,0,1,1,.809-1.4l2.825,1.631a1.083,1.083,0,0,0,1.471-.394,1.076,1.076,0,0,0-.39-1.468.809.809,0,0,1,.809-1.4h0l0,0,1.427.823A1.077,1.077,0,0,0,139,317.291a.809.809,0,0,1,.809-1.4h0l1.306.754a1.077,1.077,0,0,0,1.1-1.849.809.809,0,0,1,.828-1.39l1.363.787a1.076,1.076,0,1,0,1.077-1.864l-9.984-5.764a.808.808,0,1,1,.809-1.4l9.984,5.764a2.694,2.694,0,0,1-1.956,4.957,2.657,2.657,0,0,1-.351,1.175,2.7,2.7,0,0,1-2.836,1.3,2.693,2.693,0,0,1-3.324,2.482,2.69,2.69,0,0,1-1.991,2.418,2.729,2.729,0,0,1-.7.092Z" transform="translate(-110.833 -266.25)" fill-rule="evenodd"/>
          <path id="Trazado_1180355" data-name="Trazado 1180355" d="M150.02,393.863a2.343,2.343,0,0,1-1.45-.5,2.369,2.369,0,0,1-.408-3.321l1.306-1.672a2.366,2.366,0,0,1,3.729,2.912.809.809,0,1,1-1.275-1,.748.748,0,1,0-1.18-.921l-1.306,1.672a.749.749,0,0,0,1.179.922.808.808,0,1,1,1.274.995,2.351,2.351,0,0,1-1.576.891,2.53,2.53,0,0,1-.3.017Z" transform="translate(-138.92 -343.274)" fill-rule="evenodd"/>
          <path id="Trazado_1180356" data-name="Trazado 1180356" d="M174.649,391.165h0Zm-1.226-1.706a.749.749,0,0,0-.59.288l-2.767,3.543a.749.749,0,0,0,1.18.922l2.767-3.543a.748.748,0,0,0-.589-1.209Zm-2.771,6.656a2.364,2.364,0,0,1-1.862-3.821l2.767-3.543a2.366,2.366,0,0,1,3.729,2.912l-2.767,3.543a2.361,2.361,0,0,1-1.867.909Z" transform="translate(-157.094 -343.607)" fill-rule="evenodd"/>
          <path id="Trazado_1180357" data-name="Trazado 1180357" d="M191.28,408.233a2.364,2.364,0,0,1-1.862-3.82.808.808,0,1,1,1.274.995.749.749,0,0,0,1.179.922l3.189-4.084a.748.748,0,0,0-1.18-.921.809.809,0,0,1-1.274-1,2.365,2.365,0,0,1,3.729,2.912l-3.189,4.083a2.363,2.363,0,0,1-1.867.908Z" transform="translate(-175.268 -353.809)" fill-rule="evenodd"/>
          <path id="Trazado_1180358" data-name="Trazado 1180358" d="M211.908,439.485a2.366,2.366,0,0,1-1.857-3.82.809.809,0,1,1,1.274,1,.753.753,0,0,0,.129,1.05.749.749,0,0,0,1.05-.129l1.592-2.038a.748.748,0,0,0-1.18-.922.808.808,0,1,1-1.275-.995,2.365,2.365,0,1,1,3.729,2.912l-1.592,2.038a2.383,2.383,0,0,1-1.871.908Z" transform="translate(-193.446 -383.145)" fill-rule="evenodd"/>
          <path id="Trazado_1180359" data-name="Trazado 1180359" d="M85.742,275.368h0Zm-9.652,9.055,2.1,1.212a.6.6,0,0,0,.818-.218l6.035-10.453a.6.6,0,0,0-.219-.818l-2.1-1.212L76.09,284.424Zm2.394,2.909a2.2,2.2,0,0,1-1.1-.3l-2.8-1.616a.808.808,0,0,1-.3-1.1l7.442-12.891a.808.808,0,0,1,1.1-.3l2.8,1.616a2.22,2.22,0,0,1,.811,3.027h0l-6.035,10.453a2.218,2.218,0,0,1-1.923,1.106Z" transform="translate(-74.176 -240.683)" fill-rule="evenodd"/>
          <path id="Trazado_1180360" data-name="Trazado 1180360" d="M296.765,390.685a.8.8,0,0,1-.4-.108l-5.241-3.025a.809.809,0,0,1,.809-1.4l5.241,3.026a.808.808,0,0,1-.405,1.509Z" transform="translate(-264.956 -342.021)" fill-rule="evenodd"/>
          <path id="Trazado_1180361" data-name="Trazado 1180361" d="M285.395,420.721a.809.809,0,0,1-.4-.107l-3.1-1.792a.808.808,0,1,1,.809-1.4l3.1,1.79a.808.808,0,0,1-.405,1.508Z" transform="translate(-256.823 -369.572)" fill-rule="evenodd"/>
          <path id="Trazado_1180362" data-name="Trazado 1180362" d="M267.631,447.063a.8.8,0,0,1-.4-.109l-1.734-1a.808.808,0,1,1,.809-1.4l1.734,1a.809.809,0,0,1-.405,1.509Z" transform="translate(-242.377 -393.476)" fill-rule="evenodd"/>
          <path id="Trazado_1180363" data-name="Trazado 1180363" d="M251.784,315.757a.806.806,0,0,1-.4-.107l-9.83-5.677a5.935,5.935,0,0,1-1.48,2.709c-.88.747-2.111.807-3.689.668a.807.807,0,0,1-.685-1.09,9.927,9.927,0,0,0,.5-2.776c.042-.508.086-1.034.173-1.571a4,4,0,0,1,2.638-3.479,7.445,7.445,0,0,1,1.622-.41c.317-.057.676-.121,1.118-.213,1.863-.384,2.3-.18,3.388.519.174.112.365.234.591.371l2.417-.988a.809.809,0,0,1,.611,1.5l-2.787,1.139a.81.81,0,0,1-.707-.047c-.42-.239-.741-.445-1-.61-.832-.534-.882-.566-2.189-.3-.461.095-.847.165-1.156.221a6.256,6.256,0,0,0-1.28.307,2.411,2.411,0,0,0-1.672,2.248c-.076.475-.116.947-.158,1.447a15.413,15.413,0,0,1-.289,2.175,2.285,2.285,0,0,0,1.5-.343A6.333,6.333,0,0,0,240.177,309l.17-.485a.807.807,0,0,1,1.167-.431l10.178,5.876,1.38-1.19A.808.808,0,1,1,254.128,314l-1.815,1.565a.807.807,0,0,1-.528.2Z" transform="translate(-216.435 -269.403)" fill-rule="evenodd"/>
          <path id="Trazado_1180364" data-name="Trazado 1180364" d="M233.917,194.4a.808.808,0,0,1-.572-.237l-1.941-1.941-1.941,1.941a.808.808,0,0,1-1.38-.572V182.588a.809.809,0,0,1,1.617,0v9.054l1.132-1.132a.807.807,0,0,1,1.143,0l1.132,1.132v-9.054a.809.809,0,0,1,1.617,0v11.005a.807.807,0,0,1-.809.809Z" transform="translate(-209.774 -162.058)" fill-rule="evenodd"/>
          <path id="Trazado_1180365" data-name="Trazado 1180365" d="M184.723,38.244a8.007,8.007,0,1,0,8.007,8.007A8.016,8.016,0,0,0,184.723,38.244Zm0,17.632a9.624,9.624,0,1,1,9.624-9.624A9.635,9.635,0,0,1,184.723,55.876Z" transform="translate(-163.093 -34.173)" fill-rule="evenodd"/>
          <path id="Trazado_1180366" data-name="Trazado 1180366" d="M206.527,62.993a5.063,5.063,0,1,0,5.063,5.063A5.068,5.068,0,0,0,206.527,62.993Zm0,11.743a6.68,6.68,0,1,1,6.68-6.68A6.688,6.688,0,0,1,206.527,74.736Z" transform="translate(-184.897 -55.978)" fill-rule="evenodd"/>
          <path id="Trazado_1180367" data-name="Trazado 1180367" d="M239.139,87.084a.808.808,0,0,1-.809-.808v-.532a2.6,2.6,0,0,1-1.125-.7.809.809,0,0,1,1.173-1.113.92.92,0,0,0,.991.252.575.575,0,0,0,.418-.445c.017-.211-.3-.448-.8-.592-1.806-.526-2.087-1.624-2.123-2.072a2.088,2.088,0,0,1,1.254-2.022q.1-.048.207-.087v-.575a.809.809,0,0,1,1.617,0v.536a3.054,3.054,0,0,1,1.215.728.809.809,0,1,1-1.113,1.174,1.06,1.06,0,0,0-1.228-.318.531.531,0,0,0-.341.432c.015.189.319.464.963.651,1.54.448,2.02,1.468,1.956,2.273a2.148,2.148,0,0,1-1.452,1.827v.585a.808.808,0,0,1-.809.809Z" transform="translate(-217.509 -70.254)" fill-rule="evenodd"/>
        </g>
      </g>
    </g>
  </g>
</svg>
