<svg xmlns="http://www.w3.org/2000/svg" xmlns:xlink="http://www.w3.org/1999/xlink" width="113" height="113" viewBox="0 0 113 113">
  <defs>
    <filter id="Trazado_982547" x="0" y="0" width="113" height="113" filterUnits="userSpaceOnUse">
      <feOffset dy="3" input="SourceAlpha"/>
      <feGaussianBlur stdDeviation="3" result="blur"/>
      <feFlood flood-opacity="0.161"/>
      <feComposite operator="in" in2="blur"/>
      <feComposite in="SourceGraphic"/>
    </filter>
  </defs>
  <g id="Grupo_1224223" data-name="Grupo 1224223" transform="translate(-900.509 -1954.751)">
    <g id="Grupo_1224093" data-name="Grupo 1224093" transform="translate(226.51 -2620.317)">
      <g id="Grupo_1223184" data-name="Grupo 1223184" transform="translate(683 4581.069)">
        <g id="Grupo_1211216" data-name="Grupo 1211216" transform="translate(0)">
          <g id="Grupo_1210737" data-name="Grupo 1210737">
            <g id="Grupo_1210537" data-name="Grupo 1210537">
              <g id="Grupo_1164202" data-name="Grupo 1164202">
                <g id="Grupo_1158168" data-name="Grupo 1158168">
                  <g id="Grupo_1152576" data-name="Grupo 1152576">
                    <g id="Grupo_1148633" data-name="Grupo 1148633">
                      <g id="Grupo_1148525" data-name="Grupo 1148525">
                        <g transform="matrix(1, 0, 0, 1, -9, -6)" filter="url(#Trazado_982547)">
                          <g id="Trazado_982547-2" data-name="Trazado 982547" transform="translate(9 6)" fill="#fcf5f0">
                            <path d="M 47.49999618530273 93.5 C 41.28936767578125 93.5 35.26533126831055 92.28396606445312 29.59518241882324 89.88570404052734 C 24.11771583557129 87.56893157958984 19.19812965393066 84.251953125 14.97308921813965 80.02690124511719 C 10.74803638458252 75.80186462402344 7.431062698364258 70.88227844238281 5.114289283752441 65.40480804443359 C 2.716022968292236 59.73466110229492 1.499996185302734 53.71062469482422 1.499996185302734 47.49999618530273 C 1.499996185302734 41.28936767578125 2.716022968292236 35.26533126831055 5.114289283752441 29.59518241882324 C 7.431062698364258 24.11771583557129 10.74803638458252 19.19812965393066 14.97308921813965 14.97308921813965 C 19.19812965393066 10.74803638458252 24.11771583557129 7.431062698364258 29.59518241882324 5.114289283752441 C 35.26533126831055 2.716022968292236 41.28936767578125 1.499996185302734 47.49999618530273 1.499996185302734 C 53.71062469482422 1.499996185302734 59.73466110229492 2.716022968292236 65.40480804443359 5.114289283752441 C 70.88227844238281 7.431062698364258 75.80186462402344 10.74803638458252 80.02690124511719 14.97308921813965 C 84.251953125 19.19812965393066 87.56893157958984 24.11771583557129 89.88570404052734 29.59518241882324 C 92.28396606445312 35.26533126831055 93.5 41.28936767578125 93.5 47.49999618530273 C 93.5 53.71062469482422 92.28396606445312 59.73466110229492 89.88570404052734 65.40480804443359 C 87.56893157958984 70.88227844238281 84.251953125 75.80186462402344 80.02690124511719 80.02690124511719 C 75.80186462402344 84.251953125 70.88227844238281 87.56893157958984 65.40480804443359 89.88570404052734 C 59.73466110229492 92.28396606445312 53.71062469482422 93.5 47.49999618530273 93.5 Z" stroke="none"/>
                            <path d="M 47.49999618530273 2.999992370605469 C 41.4912109375 2.999992370605469 35.66376495361328 4.1761474609375 30.17950439453125 6.495796203613281 C 24.88084411621094 8.736953735351562 20.12152099609375 11.94598388671875 16.03375244140625 16.03375244140625 C 11.94598388671875 20.12152099609375 8.736953735351562 24.88084411621094 6.495796203613281 30.17950439453125 C 4.1761474609375 35.66376495361328 2.999992370605469 41.4912109375 2.999992370605469 47.49999618530273 C 2.999992370605469 53.50878143310547 4.1761474609375 59.33622741699219 6.495796203613281 64.82048797607422 C 8.736953735351562 70.11914825439453 11.94598388671875 74.87847137451172 16.03375244140625 78.96623992919922 C 20.12152099609375 83.05400848388672 24.88084411621094 86.26304626464844 30.17950439453125 88.50419616699219 C 35.66376495361328 90.82384490966797 41.4912109375 92 47.49999618530273 92 C 53.50878143310547 92 59.33622741699219 90.82384490966797 64.82048797607422 88.50419616699219 C 70.11914825439453 86.26304626464844 74.87847137451172 83.05400848388672 78.96623992919922 78.96623992919922 C 83.05400848388672 74.87847137451172 86.26304626464844 70.11914825439453 88.50419616699219 64.82048797607422 C 90.82384490966797 59.33622741699219 92 53.50878143310547 92 47.49999618530273 C 92 41.4912109375 90.82384490966797 35.66376495361328 88.50419616699219 30.17950439453125 C 86.26304626464844 24.88084411621094 83.05400848388672 20.12152099609375 78.96623992919922 16.03375244140625 C 74.87847137451172 11.94598388671875 70.11914825439453 8.736953735351562 64.82048797607422 6.495796203613281 C 59.33622741699219 4.1761474609375 53.50878143310547 2.999992370605469 47.49999618530273 2.999992370605469 M 47.49999618530273 -7.62939453125e-06 C 73.7335205078125 -7.62939453125e-06 95 21.26647186279297 95 47.49999618530273 C 95 73.7335205078125 73.7335205078125 95 47.49999618530273 95 C 21.26647186279297 95 -7.62939453125e-06 73.7335205078125 -7.62939453125e-06 47.49999618530273 C -7.62939453125e-06 21.26647186279297 21.26647186279297 -7.62939453125e-06 47.49999618530273 -7.62939453125e-06 Z" stroke="none" fill="#eca675"/>
                          </g>
                        </g>
                      </g>
                    </g>
                  </g>
                </g>
              </g>
            </g>
          </g>
        </g>
      </g>
    </g>
    <g id="audit_8790354" transform="translate(889.257 1970.881)">
      <path id="Trazado_1180450" data-name="Trazado 1180450" d="M148.529,9.425A1.925,1.925,0,0,0,146.6,7.5H102.612a1.925,1.925,0,0,0-1.925,1.925V69.364a1.925,1.925,0,0,0,1.925,1.925H127.93c4.255,0,7.339-2.687,10.348-5.7l4.556-4.556c3.009-3.009,5.7-6.093,5.7-10.348Z" transform="translate(-54.15)" fill="#f2fbff"/>
      <path id="Trazado_1180451" data-name="Trazado 1180451" d="M121.794,167.282a13.955,13.955,0,0,0-11.055,22.31l-2.92,2.92-.729-.729a.963.963,0,0,0-1.361,0l-1.458,1.458a.963.963,0,0,0,0,1.361.963.963,0,0,0-1.361,0l-2.223,2.223V208.1l7.862-7.862a.963.963,0,0,0,0-1.361.963.963,0,0,0,1.361,0l1.458-1.458a.963.963,0,0,0,0-1.361l-.275-.275a.642.642,0,0,1,0-.908l2.081-2.081a.642.642,0,0,1,.82-.072,13.955,13.955,0,1,0,7.8-25.442Z" transform="translate(-54.15 -139.273)" fill="#dff6fd"/>
      <path id="Trazado_1180452" data-name="Trazado 1180452" d="M170.357,147.281a13.955,13.955,0,0,0-11.176,22.311l-2.92,2.92.684,2.678,2.135.142,2.92-2.92a13.954,13.954,0,1,0,8.357-25.13Z" transform="translate(-102.591 -121.84)" fill="#0067c5"/>
      <path id="Trazado_1180453" data-name="Trazado 1180453" d="M182.5,80.074H147.943a.662.662,0,0,1-.662-.662V74.756a.662.662,0,0,1,.662-.662H182.5a.662.662,0,0,1,.661.662v4.657A.662.662,0,0,1,182.5,80.074Z" transform="translate(-94.764 -58.047)" fill="#dff6fd"/>
      <path id="Trazado_1180454" data-name="Trazado 1180454" d="M146.6,7.5H143.4V44.583A10.186,10.186,0,0,1,133.21,54.769h0a3.768,3.768,0,0,0-3.768,3.768h0a10.186,10.186,0,0,1-10.186,10.186H100.687v.642a1.925,1.925,0,0,0,1.925,1.925H127.93c4.255,0,7.339-2.687,10.348-5.7l4.556-4.556c3.009-3.009,5.7-6.093,5.7-10.348V9.425A1.925,1.925,0,0,0,146.6,7.5Z" transform="translate(-54.15)" fill="#dff6fd"/>
      <path id="Trazado_1180455" data-name="Trazado 1180455" d="M301.728,337.347a16.044,16.044,0,0,1-11.345,4.7h-1.7a8.343,8.343,0,0,0,8.343-8.343v-3.686a1.925,1.925,0,0,1,1.925-1.925h3.686a8.343,8.343,0,0,0,8.343-8.343v1.7a16.043,16.043,0,0,1-4.7,11.345Z" transform="translate(-216.604 -270.756)" fill="#f2fbff"/>
      <circle id="Elipse_14743" data-name="Elipse 14743" cx="9.967" cy="9.967" r="9.967" transform="translate(57.798 29.428)" fill="#c8effe"/>
      <path id="Trazado_1180456" data-name="Trazado 1180456" d="M228.381,247.749l-1.41-1.41a1.993,1.993,0,0,0-2.819,0h0a1.993,1.993,0,0,0,0,2.819l2.819,2.819a1.993,1.993,0,0,0,2.819,0l4.108-4.108a1.993,1.993,0,0,0,0-2.819h0a1.993,1.993,0,0,0-2.819,0Z" transform="translate(-161.26 -206.553)" fill="#99e6fc"/>
      <path id="Trazado_1180457" data-name="Trazado 1180457" d="M221.374,179.468a9.971,9.971,0,0,1-8.533,17.079,9.968,9.968,0,1,0,8.533-17.079Z" transform="translate(-151.909 -149.896)" fill="#99e6fc"/>
      <path id="Trazado_1180458" data-name="Trazado 1180458" d="M228.381,227.749l-1.41-1.41a1.993,1.993,0,0,0-2.819,0h0a1.993,1.993,0,0,0,0,2.819l2.819,2.819a1.993,1.993,0,0,0,2.819,0l4.108-4.108a1.993,1.993,0,0,0,0-2.819h0a1.993,1.993,0,0,0-2.819,0Z" transform="translate(-161.26 -189.12)" fill="#05e39c"/>
      <path id="Trazado_1180459" data-name="Trazado 1180459" d="M133.8,340.542l-4.277-4.277a.963.963,0,0,0-1.361,0l-1.458,1.458a.963.963,0,0,0,0,1.361l4.277,4.277a.963.963,0,0,0,1.361,0L133.8,341.9A.963.963,0,0,0,133.8,340.542Z" transform="translate(-76.581 -286.323)" fill="#fe9738"/>
      <path id="Trazado_1180460" data-name="Trazado 1180460" d="M43.122,373.783l-4.277-4.277a.963.963,0,0,1,0-1.361l9.915-9.915a.963.963,0,0,1,1.361,0l4.277,4.277a.963.963,0,0,1,0,1.361l-9.915,9.915A.963.963,0,0,1,43.122,373.783Z" transform="translate(0 -305.468)" fill="#01c0fa"/>
      <path id="Trazado_1180461" data-name="Trazado 1180461" d="M43.122,373.783l-4.277-4.277a.963.963,0,0,1,0-1.361l9.915-9.915a.963.963,0,0,1,1.361,0l4.277,4.277a.963.963,0,0,1,0,1.361l-9.915,9.915A.963.963,0,0,1,43.122,373.783Z" transform="translate(0 -305.468)" fill="#fe9738"/>
      <path id="Trazado_1180462" data-name="Trazado 1180462" d="M72.548,362.506l-4.277-4.277a.963.963,0,0,0-1.361,0l-.6.6.759.759a3.269,3.269,0,0,1,0,4.624L59.385,371.9l1.886,1.886a.963.963,0,0,0,1.361,0l9.915-9.915A.963.963,0,0,0,72.548,362.506Z" transform="translate(-18.149 -305.468)" fill="#fe860a"/>
      <rect id="Rectángulo_421911" data-name="Rectángulo 421911" width="35.882" height="5.98" transform="translate(52.517 13.48)" fill="#05e39c"/>
      <path id="Trazado_1180463" data-name="Trazado 1180463" d="M178.029,54.094v1.455a1.958,1.958,0,0,1-1.958,1.958h-28.79v2.567h35.882v-5.98Z" transform="translate(-94.764 -40.614)" fill="#0ed290"/>
      <path id="Trazado_1180464" data-name="Trazado 1180464" d="M301.728,337.347a16.044,16.044,0,0,1-11.345,4.7h-1.7a8.343,8.343,0,0,0,8.343-8.343v-3.686a1.925,1.925,0,0,1,1.925-1.925h3.686a8.343,8.343,0,0,0,8.343-8.343v1.7a16.043,16.043,0,0,1-4.7,11.345Z" transform="translate(-216.604 -270.756)" fill="none" stroke="#000" stroke-linecap="round" stroke-linejoin="round" stroke-miterlimit="10" stroke-width="1"/>
      <path id="Trazado_1180465" data-name="Trazado 1180465" d="M192.937,196.653a9.969,9.969,0,1,1,5.457,1.625,10.086,10.086,0,0,1-1.155-.066" transform="translate(-130.629 -148.916)" fill="none" stroke="#000" stroke-linecap="round" stroke-linejoin="round" stroke-miterlimit="10" stroke-width="1"/>
      <path id="Trazado_1180466" data-name="Trazado 1180466" d="M228.381,227.749l-1.41-1.41a1.993,1.993,0,0,0-2.819,0h0a1.993,1.993,0,0,0,0,2.819l2.819,2.819a1.993,1.993,0,0,0,2.819,0l4.108-4.108a1.993,1.993,0,0,0,0-2.819h0a1.993,1.993,0,0,0-2.819,0Z" transform="translate(-161.26 -189.12)" fill="none" stroke="#000" stroke-linecap="round" stroke-linejoin="round" stroke-miterlimit="10" stroke-width="1"/>
      <path id="Trazado_1180467" data-name="Trazado 1180467" d="M159.08,175.331l2.92-2.92a13.952,13.952,0,1,0-2.819-2.819l-2.92,2.92" transform="translate(-102.591 -121.84)" fill="none" stroke="#000" stroke-linecap="round" stroke-linejoin="round" stroke-miterlimit="10" stroke-width="1"/>
      <path id="Trazado_1180468" data-name="Trazado 1180468" d="M133.8,340.542l-4.277-4.277a.963.963,0,0,0-1.361,0l-1.458,1.458a.963.963,0,0,0,0,1.361l4.277,4.277a.963.963,0,0,0,1.361,0L133.8,341.9A.963.963,0,0,0,133.8,340.542Z" transform="translate(-76.581 -286.323)" fill="none" stroke="#000" stroke-linecap="round" stroke-linejoin="round" stroke-miterlimit="10" stroke-width="1"/>
      <path id="Trazado_1180469" data-name="Trazado 1180469" d="M43.122,373.783l-4.277-4.277a.963.963,0,0,1,0-1.361l9.915-9.915a.963.963,0,0,1,1.361,0l4.277,4.277a.963.963,0,0,1,0,1.361l-9.915,9.915A.963.963,0,0,1,43.122,373.783Z" transform="translate(0 -305.468)" fill="none" stroke="#000" stroke-linecap="round" stroke-linejoin="round" stroke-miterlimit="10" stroke-width="1"/>
      <path id="Trazado_1180470" data-name="Trazado 1180470" d="M43.122,373.783l-4.277-4.277a.963.963,0,0,1,0-1.361l9.915-9.915a.963.963,0,0,1,1.361,0l4.277,4.277a.963.963,0,0,1,0,1.361l-9.915,9.915A.963.963,0,0,1,43.122,373.783Z" transform="translate(0 -305.468)" fill="none" stroke="#000" stroke-linecap="round" stroke-linejoin="round" stroke-miterlimit="10" stroke-width="1"/>
      <line id="Línea_3760" data-name="Línea 3760" x1="5.638" y1="5.638" transform="translate(41.49 60.033)" fill="none" stroke="#000" stroke-linecap="round" stroke-linejoin="round" stroke-miterlimit="10" stroke-width="1"/>
      <path id="Trazado_1180471" data-name="Trazado 1180471" d="M154.283,54.094h28.88v5.98H147.281v-5.98h2.638" transform="translate(-94.764 -40.614)" fill="none" stroke="#000" stroke-linecap="round" stroke-linejoin="round" stroke-miterlimit="10" stroke-width="1"/>
      <line id="Línea_3761" data-name="Línea 3761" x2="33.888" transform="translate(54.511 25.441)" fill="none" stroke="#000" stroke-linecap="round" stroke-linejoin="round" stroke-miterlimit="10" stroke-width="1"/>
      <line id="Línea_3762" data-name="Línea 3762" x1="10.87" transform="translate(77.529 29.428)" fill="none" stroke="#000" stroke-linecap="round" stroke-linejoin="round" stroke-miterlimit="10" stroke-width="1"/>
      <line id="Línea_3763" data-name="Línea 3763" x1="3.491" transform="translate(54.51 29.428)" fill="none" stroke="#000" stroke-linecap="round" stroke-linejoin="round" stroke-miterlimit="10" stroke-width="1"/>
      <line id="Línea_3764" data-name="Línea 3764" x1="8.024" transform="translate(80.375 33.414)" fill="none" stroke="#000" stroke-linecap="round" stroke-linejoin="round" stroke-miterlimit="10" stroke-width="1"/>
      <line id="Línea_3765" data-name="Línea 3765" x1="0.646" transform="translate(54.51 33.414)" fill="none" stroke="#000" stroke-linecap="round" stroke-linejoin="round" stroke-miterlimit="10" stroke-width="1"/>
      <line id="Línea_3766" data-name="Línea 3766" x1="6.823" transform="translate(81.576 37.402)" fill="none" stroke="#000" stroke-linecap="round" stroke-linejoin="round" stroke-miterlimit="10" stroke-width="1"/>
      <line id="Línea_3767" data-name="Línea 3767" x1="6.823" transform="translate(81.576 41.389)" fill="none" stroke="#000" stroke-linecap="round" stroke-linejoin="round" stroke-miterlimit="10" stroke-width="1"/>
      <line id="Línea_3768" data-name="Línea 3768" x1="8.024" transform="translate(80.375 45.375)" fill="none" stroke="#000" stroke-linecap="round" stroke-linejoin="round" stroke-miterlimit="10" stroke-width="1"/>
      <line id="Línea_3769" data-name="Línea 3769" x1="0.644" transform="translate(54.51 45.375)" fill="none" stroke="#000" stroke-linecap="round" stroke-linejoin="round" stroke-miterlimit="10" stroke-width="1"/>
      <line id="Línea_3770" data-name="Línea 3770" x1="10.87" transform="translate(77.529 49.362)" fill="none" stroke="#000" stroke-linecap="round" stroke-linejoin="round" stroke-miterlimit="10" stroke-width="1"/>
      <line id="Línea_3771" data-name="Línea 3771" x1="0.468" transform="translate(54.51 49.362)" fill="none" stroke="#000" stroke-linecap="round" stroke-linejoin="round" stroke-miterlimit="10" stroke-width="1"/>
      <path id="Trazado_1180472" data-name="Trazado 1180472" d="M179.337,364.714H211.1" transform="translate(-122.705 -311.366)" fill="none" stroke="#000" stroke-linecap="round" stroke-linejoin="round" stroke-miterlimit="10" stroke-width="1"/>
      <line id="Línea_3772" data-name="Línea 3772" x2="29.901" transform="translate(54.511 57.336)" fill="none" stroke="#000" stroke-linecap="round" stroke-linejoin="round" stroke-miterlimit="10" stroke-width="1"/>
      <line id="Línea_3773" data-name="Línea 3773" x2="25.915" transform="translate(54.511 61.323)" fill="none" stroke="#000" stroke-linecap="round" stroke-linejoin="round" stroke-miterlimit="10" stroke-width="1"/>
      <path id="Trazado_1180473" data-name="Trazado 1180473" d="M148.53,28.565V9.425A1.925,1.925,0,0,0,146.605,7.5H102.613a1.925,1.925,0,0,0-1.925,1.925v45.56" transform="translate(-54.151)" fill="none" stroke="#000" stroke-linecap="round" stroke-linejoin="round" stroke-miterlimit="10" stroke-width="1"/>
      <line id="Línea_3774" data-name="Línea 3774" y1="17.633" transform="translate(94.379 33.057)" fill="none" stroke="#000" stroke-linecap="round" stroke-linejoin="round" stroke-miterlimit="10" stroke-width="1"/>
      <path id="Trazado_1180474" data-name="Trazado 1180474" d="M100.687,465.325v3.1a1.925,1.925,0,0,0,1.925,1.925H127.93" transform="translate(-54.15 -399.063)" fill="none" stroke="#000" stroke-linecap="round" stroke-linejoin="round" stroke-miterlimit="10" stroke-width="1"/>
    </g>
  </g>
</svg>
