<svg xmlns="http://www.w3.org/2000/svg" xmlns:xlink="http://www.w3.org/1999/xlink" width="103" height="103" viewBox="0 0 103 103">
  <defs>
    <filter id="Trazado_982547" x="0" y="0" width="103" height="103" filterUnits="userSpaceOnUse">
      <feOffset dy="3" input="SourceAlpha"/>
      <feGaussianBlur stdDeviation="3" result="blur"/>
      <feFlood flood-opacity="0.161"/>
      <feComposite operator="in" in2="blur"/>
      <feComposite in="SourceGraphic"/>
    </filter>
  </defs>
  <g id="Grupo_1224204" data-name="Grupo 1224204" transform="translate(-1033.12 -426)">
    <g id="Grupo_1224082" data-name="Grupo 1224082" transform="translate(838.99 -1582)">
      <g id="Grupo_1206686" data-name="Grupo 1206686" transform="translate(-2.87 300.583)">
        <g id="Grupo_1201889" data-name="Grupo 1201889" transform="translate(206 1713.417)">
          <g id="Grupo_1201680" data-name="Grupo 1201680">
            <g id="Grupo_1201330" data-name="Grupo 1201330">
              <g id="Grupo_1172010" data-name="Grupo 1172010">
                <g id="Grupo_1171046" data-name="Grupo 1171046">
                  <g id="Grupo_1148525" data-name="Grupo 1148525">
                    <g transform="matrix(1, 0, 0, 1, -9, -6)" filter="url(#Trazado_982547)">
                      <g id="Trazado_982547-2" data-name="Trazado 982547" transform="translate(9 6)" fill="#f2f4f0">
                        <path d="M 42.5 83.5 C 36.96437835693359 83.5 31.59512901306152 82.41617584228516 26.54141235351562 80.27863311767578 C 21.65934181213379 78.21369171142578 17.27447128295898 75.25723266601562 13.50862312316895 71.49137878417969 C 9.742764472961426 67.72553253173828 6.786305904388428 63.34066009521484 4.721364498138428 58.45858764648438 C 2.583823442459106 53.40486907958984 1.5 48.03562164306641 1.5 42.5 C 1.5 36.96437835693359 2.583823442459106 31.59512901306152 4.721364498138428 26.54141235351562 C 6.786305904388428 21.65934181213379 9.742764472961426 17.27448272705078 13.50862312316895 13.50862312316895 C 17.27447128295898 9.742776870727539 21.65934181213379 6.786305904388428 26.54141235351562 4.721364498138428 C 31.59512901306152 2.583823442459106 36.96437835693359 1.5 42.5 1.5 C 48.03562164306641 1.5 53.40486907958984 2.583823442459106 58.45858764648438 4.721364498138428 C 63.34066009521484 6.786305904388428 67.72553253173828 9.742776870727539 71.49137878417969 13.50862312316895 C 75.25723266601562 17.27448272705078 78.21369171142578 21.65934181213379 80.27863311767578 26.54141235351562 C 82.41617584228516 31.59512901306152 83.5 36.96437835693359 83.5 42.5 C 83.5 48.03562164306641 82.41617584228516 53.40486907958984 80.27863311767578 58.45858764648438 C 78.21369171142578 63.34066009521484 75.25723266601562 67.72553253173828 71.49137878417969 71.49137878417969 C 67.72553253173828 75.25723266601562 63.34066009521484 78.21369171142578 58.45858764648438 80.27863311767578 C 53.40486907958984 82.41617584228516 48.03562164306641 83.5 42.5 83.5 Z" stroke="none"/>
                        <path d="M 42.5 3 C 37.16621398925781 3 31.99356079101562 4.043960571289062 27.125732421875 6.102882385253906 C 22.42246627807617 8.092185974121094 18.19785308837891 10.94070434570312 14.56928253173828 14.56928253173828 C 10.94070434570312 18.19785308837891 8.092185974121094 22.42246627807617 6.102882385253906 27.125732421875 C 4.043960571289062 31.99356079101562 3 37.16621398925781 3 42.5 C 3 47.83378601074219 4.043960571289062 53.00643920898438 6.102882385253906 57.87425231933594 C 8.092185974121094 62.57753372192383 10.94070434570312 66.80213165283203 14.56928253173828 70.43071746826172 C 18.19786834716797 74.05929565429688 22.42246627807617 76.90781402587891 27.125732421875 78.89711761474609 C 31.99356079101562 80.95603942871094 37.16621398925781 82 42.5 82 C 47.83378601074219 82 53.00642395019531 80.95603942871094 57.87425231933594 78.89711761474609 C 62.57753372192383 76.90781402587891 66.80213165283203 74.05929565429688 70.43071746826172 70.43071746826172 C 74.05929565429688 66.80213165283203 76.90781402587891 62.57753372192383 78.89711761474609 57.87425231933594 C 80.95603942871094 53.00642395019531 82 47.83378601074219 82 42.5 C 82 37.16621398925781 80.95603942871094 31.99356079101562 78.89711761474609 27.125732421875 C 76.90781402587891 22.42246627807617 74.05929565429688 18.19786834716797 70.43071746826172 14.56928253173828 C 66.80213165283203 10.94070434570312 62.57753372192383 8.092185974121094 57.87425231933594 6.102882385253906 C 53.00643920898438 4.043960571289062 47.83378601074219 3 42.5 3 M 42.5 0 C 65.97209167480469 0 85 19.02789306640625 85 42.5 C 85 65.97209167480469 65.97209167480469 85 42.5 85 C 19.02789306640625 85 0 65.97209167480469 0 42.5 C 0 19.02789306640625 19.02789306640625 0 42.5 0 Z" stroke="none" fill="#899e78"/>
                      </g>
                    </g>
                  </g>
                </g>
              </g>
            </g>
          </g>
        </g>
      </g>
    </g>
    <g id="process_12113592" transform="translate(1045.951 428.5)">
      <path id="Trazado_1180386" data-name="Trazado 1180386" d="M26.989,30.85l1.114.684.723,1.75-.3,1.272a1.484,1.484,0,0,0,.394,1.393L30.9,37.934a1.485,1.485,0,0,0,1.393.394l1.271-.3,1.752.726L36,39.864a1.484,1.484,0,0,0,1.264.706h2.8a1.484,1.484,0,0,0,1.263-.7l.688-1.114,1.753-.726,1.271.3a1.484,1.484,0,0,0,1.394-.4l1.981-1.984a1.484,1.484,0,0,0,.393-1.392l-.3-1.271.725-1.751,1.115-.684a1.484,1.484,0,0,0,.708-1.265v-2.8a1.484,1.484,0,0,0-.706-1.264l-1.116-.688-.726-1.752.3-1.271a1.484,1.484,0,0,0-.394-1.393l-1.981-1.981a1.484,1.484,0,0,0-1.393-.394l-1.271.3-1.752-.726L41.334,16.5a1.484,1.484,0,0,0-1.264-.706h-2.8A1.484,1.484,0,0,0,36,16.5l-.684,1.115-1.751.726-1.271-.3a1.484,1.484,0,0,0-1.392.394l-1.984,1.981a1.484,1.484,0,0,0-.4,1.394l.3,1.272L28.1,24.831l-1.115.687a1.484,1.484,0,0,0-.706,1.264v2.8a1.484,1.484,0,0,0,.708,1.265Zm2.26-3.241.819-.5a1.485,1.485,0,0,0,.593-.7l1.09-2.64a1.484,1.484,0,0,0,.072-.91l-.221-.931.811-.809.933.222a1.486,1.486,0,0,0,.912-.073l2.64-1.094a1.484,1.484,0,0,0,.7-.595l.5-.817h1.145l.5.819a1.485,1.485,0,0,0,.7.593l2.64,1.094a1.484,1.484,0,0,0,.912.073l.932-.222.808.808-.222.932a1.484,1.484,0,0,0,.073.912l1.094,2.64a1.484,1.484,0,0,0,.593.7l.819.5v1.145l-.817.5a1.484,1.484,0,0,0-.595.7l-1.094,2.64a1.484,1.484,0,0,0-.073.912l.222.933-.809.811-.931-.222a1.484,1.484,0,0,0-.912.073l-2.64,1.094a1.484,1.484,0,0,0-.695.591l-.5.817H38.1l-.5-.815a1.483,1.483,0,0,0-.7-.593L34.258,35.1a1.484,1.484,0,0,0-.912-.073l-.932.222-.812-.812.222-.932a1.484,1.484,0,0,0-.072-.91l-1.09-2.64a1.483,1.483,0,0,0-.6-.7l-.817-.5V27.61Zm9.419,7.064a6.492,6.492,0,1,0-6.49-6.49A6.5,6.5,0,0,0,38.668,34.674Zm0-10.016a3.524,3.524,0,1,1-3.522,3.526A3.53,3.53,0,0,1,38.668,24.658ZM27.22,63.826v-5.15a5.414,5.414,0,0,0-5.547-5.256h-.954a7.239,7.239,0,0,0,2.165-5.345,5.274,5.274,0,0,0-10.548,0A7.239,7.239,0,0,0,14.5,53.42h-.954A5.414,5.414,0,0,0,8,58.676v5.15A1.484,1.484,0,0,0,9.483,65.31H25.735a1.484,1.484,0,0,0,1.484-1.484Zm-9.61-18.057a2.308,2.308,0,0,1,2.306,2.306c0,1.158-.564,3.55-2.306,3.55S15.3,49.233,15.3,48.075A2.308,2.308,0,0,1,17.609,45.769Zm6.642,16.573H10.967V58.676a2.449,2.449,0,0,1,2.579-2.288h8.126a2.449,2.449,0,0,1,2.579,2.288ZM63.793,53.42H62.84A7.239,7.239,0,0,0,65,48.075a5.274,5.274,0,1,0-10.548,0,7.239,7.239,0,0,0,2.165,5.345h-.954a5.414,5.414,0,0,0-5.547,5.256v5.15A1.484,1.484,0,0,0,51.6,65.31H67.856a1.484,1.484,0,0,0,1.484-1.484v-5.15a5.414,5.414,0,0,0-5.547-5.256ZM59.73,45.769a2.308,2.308,0,0,1,2.306,2.306c0,1.158-.564,3.55-2.306,3.55s-2.306-2.392-2.306-3.55A2.308,2.308,0,0,1,59.73,45.769Zm6.642,16.573H53.088V58.676a2.48,2.48,0,0,1,2.579-2.288h8.126a2.449,2.449,0,0,1,2.579,2.288ZM53.395,27.956a1.484,1.484,0,0,1,2.09-.19,26.446,26.446,0,0,1,6.549,8.142l.314-.775A1.484,1.484,0,1,1,65.1,36.246L63.458,40.3a1.483,1.483,0,0,1-1.932.819L57.47,39.477a1.484,1.484,0,0,1,1.113-2.752l.667.27a23.48,23.48,0,0,0-5.665-6.949,1.484,1.484,0,0,1-.19-2.09ZM52.13,68.9a1.484,1.484,0,0,1-.566,2.021,26.339,26.339,0,0,1-22.376,1.6l.253.669a1.484,1.484,0,1,1-2.776,1.051l-1.549-4.091a1.484,1.484,0,0,1,.862-1.913l4.091-1.549A1.484,1.484,0,1,1,31.12,69.47l-.815.309a23.375,23.375,0,0,0,19.8-1.441,1.484,1.484,0,0,1,2.021.566ZM13.854,39.248a26.282,26.282,0,0,1,5.274-8.859h-.7a1.484,1.484,0,0,1,0-2.968H22.8a1.484,1.484,0,0,1,1.484,1.484v4.375a1.484,1.484,0,0,1-2.968,0v-.892a23.315,23.315,0,0,0-4.668,7.846,1.484,1.484,0,1,1-2.8-.987Zm26.3,6.341v4.506l4.332,3.1a1.484,1.484,0,1,1-1.726,2.415l-4.09-2.924-4.087,2.923a1.484,1.484,0,0,1-1.727-2.414l4.329-3.1V45.589a1.484,1.484,0,0,1,2.968,0Z"/>
      <path id="Trazado_1180387" data-name="Trazado 1180387" d="M26.989,30.85l1.114.684.723,1.75-.3,1.272a1.484,1.484,0,0,0,.394,1.393L30.9,37.934a1.485,1.485,0,0,0,1.393.394l1.271-.3,1.752.726L36,39.864a1.484,1.484,0,0,0,1.264.706h2.8a1.484,1.484,0,0,0,1.263-.7l.688-1.114,1.753-.726,1.271.3a1.484,1.484,0,0,0,1.394-.4l1.981-1.984a1.484,1.484,0,0,0,.393-1.392l-.3-1.271.725-1.751,1.115-.684a1.484,1.484,0,0,0,.708-1.265v-2.8a1.484,1.484,0,0,0-.706-1.264l-1.116-.688-.726-1.752.3-1.271a1.484,1.484,0,0,0-.394-1.393l-1.981-1.981a1.484,1.484,0,0,0-1.393-.394l-1.271.3-1.752-.726L41.334,16.5a1.484,1.484,0,0,0-1.264-.706h-2.8A1.484,1.484,0,0,0,36,16.5l-.684,1.115-1.751.726-1.271-.3a1.484,1.484,0,0,0-1.392.394l-1.984,1.981a1.484,1.484,0,0,0-.4,1.394l.3,1.272L28.1,24.831l-1.115.687a1.484,1.484,0,0,0-.706,1.264v2.8a1.484,1.484,0,0,0,.708,1.265Zm2.26-3.241.819-.5a1.485,1.485,0,0,0,.593-.7l1.09-2.64a1.484,1.484,0,0,0,.072-.91l-.221-.931.811-.809.933.222a1.486,1.486,0,0,0,.912-.073l2.64-1.094a1.484,1.484,0,0,0,.7-.595l.5-.817h1.145l.5.819a1.485,1.485,0,0,0,.7.593l2.64,1.094a1.484,1.484,0,0,0,.912.073l.932-.222.808.808-.222.932a1.484,1.484,0,0,0,.073.912l1.094,2.64a1.484,1.484,0,0,0,.593.7l.819.5v1.145l-.817.5a1.484,1.484,0,0,0-.595.7l-1.094,2.64a1.484,1.484,0,0,0-.073.912l.222.933-.809.811-.931-.222a1.484,1.484,0,0,0-.912.073l-2.64,1.094a1.484,1.484,0,0,0-.695.591l-.5.817H38.1l-.5-.815a1.483,1.483,0,0,0-.7-.593L34.258,35.1a1.484,1.484,0,0,0-.912-.073l-.932.222-.812-.812.222-.932a1.484,1.484,0,0,0-.072-.91l-1.09-2.64a1.483,1.483,0,0,0-.6-.7l-.817-.5V27.61Zm9.419,7.064a6.492,6.492,0,1,0-6.49-6.49A6.5,6.5,0,0,0,38.668,34.674Zm0-10.016a3.524,3.524,0,1,1-3.522,3.526A3.53,3.53,0,0,1,38.668,24.658ZM27.22,63.826v-5.15a5.414,5.414,0,0,0-5.547-5.256h-.954a7.239,7.239,0,0,0,2.165-5.345,5.274,5.274,0,0,0-10.548,0A7.239,7.239,0,0,0,14.5,53.42h-.954A5.414,5.414,0,0,0,8,58.676v5.15A1.484,1.484,0,0,0,9.483,65.31H25.735a1.484,1.484,0,0,0,1.484-1.484Zm-9.61-18.057a2.308,2.308,0,0,1,2.306,2.306c0,1.158-.564,3.55-2.306,3.55S15.3,49.233,15.3,48.075A2.308,2.308,0,0,1,17.609,45.769Zm6.642,16.573H10.967V58.676a2.449,2.449,0,0,1,2.579-2.288h8.126a2.449,2.449,0,0,1,2.579,2.288ZM63.793,53.42H62.84A7.239,7.239,0,0,0,65,48.075a5.274,5.274,0,1,0-10.548,0,7.239,7.239,0,0,0,2.165,5.345h-.954a5.414,5.414,0,0,0-5.547,5.256v5.15A1.484,1.484,0,0,0,51.6,65.31H67.856a1.484,1.484,0,0,0,1.484-1.484v-5.15a5.414,5.414,0,0,0-5.547-5.256ZM59.73,45.769a2.308,2.308,0,0,1,2.306,2.306c0,1.158-.564,3.55-2.306,3.55s-2.306-2.392-2.306-3.55A2.308,2.308,0,0,1,59.73,45.769Zm6.642,16.573H53.088V58.676a2.48,2.48,0,0,1,2.579-2.288h8.126a2.449,2.449,0,0,1,2.579,2.288ZM53.395,27.956a1.484,1.484,0,0,1,2.09-.19,26.446,26.446,0,0,1,6.549,8.142l.314-.775A1.484,1.484,0,1,1,65.1,36.246L63.458,40.3a1.483,1.483,0,0,1-1.932.819L57.47,39.477a1.484,1.484,0,0,1,1.113-2.752l.667.27a23.48,23.48,0,0,0-5.665-6.949,1.484,1.484,0,0,1-.19-2.09ZM52.13,68.9a1.484,1.484,0,0,1-.566,2.021,26.339,26.339,0,0,1-22.376,1.6l.253.669a1.484,1.484,0,1,1-2.776,1.051l-1.549-4.091a1.484,1.484,0,0,1,.862-1.913l4.091-1.549A1.484,1.484,0,1,1,31.12,69.47l-.815.309a23.375,23.375,0,0,0,19.8-1.441,1.484,1.484,0,0,1,2.021.566ZM13.854,39.248a26.282,26.282,0,0,1,5.274-8.859h-.7a1.484,1.484,0,0,1,0-2.968H22.8a1.484,1.484,0,0,1,1.484,1.484v4.375a1.484,1.484,0,0,1-2.968,0v-.892a23.315,23.315,0,0,0-4.668,7.846,1.484,1.484,0,1,1-2.8-.987Zm26.3,6.341v4.506l4.332,3.1a1.484,1.484,0,1,1-1.726,2.415l-4.09-2.924-4.087,2.923a1.484,1.484,0,0,1-1.727-2.414l4.329-3.1V45.589a1.484,1.484,0,0,1,2.968,0Z"/>
      <path id="Trazado_1180388" data-name="Trazado 1180388" d="M409.956,264.032c1.742,0,2.306-2.392,2.306-3.55a2.306,2.306,0,1,0-4.611,0C407.65,261.64,408.214,264.032,409.956,264.032Z" transform="translate(-350.225 -212.407)" fill="#fed9a8"/>
      <path id="Trazado_1180389" data-name="Trazado 1180389" d="M45.284,346.326a2.449,2.449,0,0,0-2.579-2.288H34.579A2.449,2.449,0,0,0,32,346.326v3.666H45.284Z" transform="translate(-21.033 -287.65)" fill="#43bdfd"/>
      <path id="Trazado_1180390" data-name="Trazado 1180390" d="M383.29,344.038h-8.126a2.48,2.48,0,0,0-2.579,2.288v3.666h13.284v-3.666A2.449,2.449,0,0,0,383.29,344.038Z" transform="translate(-319.497 -287.65)" fill="#43bdfd"/>
      <path id="Trazado_1180391" data-name="Trazado 1180391" d="M69.371,264.032c1.742,0,2.306-2.392,2.306-3.55a2.306,2.306,0,1,0-4.611,0C67.065,261.64,67.629,264.032,69.371,264.032Z" transform="translate(-51.761 -212.407)" fill="#fed9a8"/>
      <path id="Trazado_1180392" data-name="Trazado 1180392" d="M181.239,50.985l1.09,2.64a1.484,1.484,0,0,1,.072.91l-.222.932.812.812.932-.222a1.485,1.485,0,0,1,.912.073l2.64,1.094a1.483,1.483,0,0,1,.7.593l.5.815h1.147l.5-.817a1.485,1.485,0,0,1,.695-.591l2.64-1.094a1.484,1.484,0,0,1,.912-.073l.931.222.809-.811-.222-.933a1.484,1.484,0,0,1,.073-.912l1.094-2.64a1.484,1.484,0,0,1,.595-.7l.817-.5V48.64l-.819-.5a1.484,1.484,0,0,1-.593-.7l-1.094-2.64a1.484,1.484,0,0,1-.073-.912l.222-.932-.808-.808-.932.222a1.485,1.485,0,0,1-.912-.073l-2.64-1.094a1.485,1.485,0,0,1-.7-.593l-.5-.819h-1.145l-.5.817a1.484,1.484,0,0,1-.7.595l-2.64,1.094a1.484,1.484,0,0,1-.912.073l-.933-.222-.811.809.221.931a1.484,1.484,0,0,1-.072.91l-1.09,2.64a1.485,1.485,0,0,1-.593.7l-.819.5v1.145l.817.5a1.483,1.483,0,0,1,.6.7Zm8.006-8.266a6.492,6.492,0,1,1-6.49,6.494A6.5,6.5,0,0,1,189.245,42.72Z" transform="translate(-150.577 -21.03)" fill="#ec9922"/>
    </g>
  </g>
</svg>
