<svg xmlns="http://www.w3.org/2000/svg" xmlns:xlink="http://www.w3.org/1999/xlink" width="113" height="113" viewBox="0 0 113 113">
  <defs>
    <filter id="Trazado_982547" x="0" y="0" width="113" height="113" filterUnits="userSpaceOnUse">
      <feOffset dy="3" input="SourceAlpha"/>
      <feGaussianBlur stdDeviation="3" result="blur"/>
      <feFlood flood-opacity="0.161"/>
      <feComposite operator="in" in2="blur"/>
      <feComposite in="SourceGraphic"/>
    </filter>
  </defs>
  <g id="Grupo_1224281" data-name="Grupo 1224281" transform="translate(-5995.964 -1253.751)">
    <g id="Grupo_1224088" data-name="Grupo 1224088" transform="translate(5321.965 -3321.317)">
      <g id="Grupo_1223184" data-name="Grupo 1223184" transform="translate(683 4581.069)">
        <g id="Grupo_1211216" data-name="Grupo 1211216" transform="translate(0)">
          <g id="Grupo_1210737" data-name="Grupo 1210737">
            <g id="Grupo_1210537" data-name="Grupo 1210537">
              <g id="Grupo_1164202" data-name="Grupo 1164202">
                <g id="Grupo_1158168" data-name="Grupo 1158168">
                  <g id="Grupo_1152576" data-name="Grupo 1152576">
                    <g id="Grupo_1148633" data-name="Grupo 1148633">
                      <g id="Grupo_1148525" data-name="Grupo 1148525">
                        <g transform="matrix(1, 0, 0, 1, -9, -6)" filter="url(#Trazado_982547)">
                          <g id="Trazado_982547-2" data-name="Trazado 982547" transform="translate(9 6)" fill="#fcf5f0">
                            <path d="M 47.49999618530273 93.5 C 41.28936767578125 93.5 35.26533126831055 92.28396606445312 29.59518241882324 89.88570404052734 C 24.11771583557129 87.56893157958984 19.19812965393066 84.251953125 14.97308921813965 80.02690124511719 C 10.74803638458252 75.80186462402344 7.431062698364258 70.88227844238281 5.114289283752441 65.40480804443359 C 2.716022968292236 59.73466110229492 1.499996185302734 53.71062469482422 1.499996185302734 47.49999618530273 C 1.499996185302734 41.28936767578125 2.716022968292236 35.26533126831055 5.114289283752441 29.59518241882324 C 7.431062698364258 24.11771583557129 10.74803638458252 19.19812965393066 14.97308921813965 14.97308921813965 C 19.19812965393066 10.74803638458252 24.11771583557129 7.431062698364258 29.59518241882324 5.114289283752441 C 35.26533126831055 2.716022968292236 41.28936767578125 1.499996185302734 47.49999618530273 1.499996185302734 C 53.71062469482422 1.499996185302734 59.73466110229492 2.716022968292236 65.40480804443359 5.114289283752441 C 70.88227844238281 7.431062698364258 75.80186462402344 10.74803638458252 80.02690124511719 14.97308921813965 C 84.251953125 19.19812965393066 87.56893157958984 24.11771583557129 89.88570404052734 29.59518241882324 C 92.28396606445312 35.26533126831055 93.5 41.28936767578125 93.5 47.49999618530273 C 93.5 53.71062469482422 92.28396606445312 59.73466110229492 89.88570404052734 65.40480804443359 C 87.56893157958984 70.88227844238281 84.251953125 75.80186462402344 80.02690124511719 80.02690124511719 C 75.80186462402344 84.251953125 70.88227844238281 87.56893157958984 65.40480804443359 89.88570404052734 C 59.73466110229492 92.28396606445312 53.71062469482422 93.5 47.49999618530273 93.5 Z" stroke="none"/>
                            <path d="M 47.49999618530273 2.999992370605469 C 41.4912109375 2.999992370605469 35.66376495361328 4.1761474609375 30.17950439453125 6.495796203613281 C 24.88084411621094 8.736953735351562 20.12152099609375 11.94598388671875 16.03375244140625 16.03375244140625 C 11.94598388671875 20.12152099609375 8.736953735351562 24.88084411621094 6.495796203613281 30.17950439453125 C 4.1761474609375 35.66376495361328 2.999992370605469 41.4912109375 2.999992370605469 47.49999618530273 C 2.999992370605469 53.50878143310547 4.1761474609375 59.33622741699219 6.495796203613281 64.82048797607422 C 8.736953735351562 70.11914825439453 11.94598388671875 74.87847137451172 16.03375244140625 78.96623992919922 C 20.12152099609375 83.05400848388672 24.88084411621094 86.26304626464844 30.17950439453125 88.50419616699219 C 35.66376495361328 90.82384490966797 41.4912109375 92 47.49999618530273 92 C 53.50878143310547 92 59.33622741699219 90.82384490966797 64.82048797607422 88.50419616699219 C 70.11914825439453 86.26304626464844 74.87847137451172 83.05400848388672 78.96623992919922 78.96623992919922 C 83.05400848388672 74.87847137451172 86.26304626464844 70.11914825439453 88.50419616699219 64.82048797607422 C 90.82384490966797 59.33622741699219 92 53.50878143310547 92 47.49999618530273 C 92 41.4912109375 90.82384490966797 35.66376495361328 88.50419616699219 30.17950439453125 C 86.26304626464844 24.88084411621094 83.05400848388672 20.12152099609375 78.96623992919922 16.03375244140625 C 74.87847137451172 11.94598388671875 70.11914825439453 8.736953735351562 64.82048797607422 6.495796203613281 C 59.33622741699219 4.1761474609375 53.50878143310547 2.999992370605469 47.49999618530273 2.999992370605469 M 47.49999618530273 -7.62939453125e-06 C 73.7335205078125 -7.62939453125e-06 95 21.26647186279297 95 47.49999618530273 C 95 73.7335205078125 73.7335205078125 95 47.49999618530273 95 C 21.26647186279297 95 -7.62939453125e-06 73.7335205078125 -7.62939453125e-06 47.49999618530273 C -7.62939453125e-06 21.26647186279297 21.26647186279297 -7.62939453125e-06 47.49999618530273 -7.62939453125e-06 Z" stroke="none" fill="#eca675"/>
                          </g>
                        </g>
                      </g>
                    </g>
                  </g>
                </g>
              </g>
            </g>
          </g>
        </g>
      </g>
    </g>
    <g id="professional-development_16648066" transform="translate(6022.786 1275.461)">
      <path id="Trazado_1180580" data-name="Trazado 1180580" d="M9.837,376.65V362.371a4.682,4.682,0,0,1,1.21-3.321,4.979,4.979,0,0,0-3.038,4.676v12.2a.721.721,0,0,0,.719.719H9.837Z" transform="translate(-6.333 -314.468)" fill="#cbd0d8" fill-rule="evenodd"/>
      <g id="Grupo_1224280" data-name="Grupo 1224280" transform="translate(1.677 1.398)">
        <g id="Grupo_1224279" data-name="Grupo 1224279" transform="translate(0 14.347)">
          <path id="Trazado_1180581" data-name="Trazado 1180581" d="M49.631,139.44H70.117c0-4.973.785-8.661-4.687-9.135a.718.718,0,0,1-.529-1.131l.91-1.292a.718.718,0,0,0-.586-1.132H58.636c-4.656,0-9.006,2.972-9.006,7.973v4.717Z" transform="translate(-44.463 -126.75)" fill="#231915" fill-rule="evenodd"/>
          <path id="Trazado_1180582" data-name="Trazado 1180582" d="M51.436,214.51h16.9a1.8,1.8,0,0,1,1.8,1.8v2.29a1.8,1.8,0,0,1-1.8,1.8h-16.9a1.8,1.8,0,0,1-1.8-1.8v-2.29A1.8,1.8,0,0,1,51.436,214.51Z" transform="translate(-44.472 -203.616)" fill="#e2aa73" fill-rule="evenodd"/>
          <path id="Trazado_1180583" data-name="Trazado 1180583" d="M19.394,285.63h8.1v3.157a3.818,3.818,0,0,0,2.253,3.532c3.8,1.773,9.131,2.185,9.131,7.1v12.2a.721.721,0,0,1-.719.719H8.729a.721.721,0,0,1-.719-.719v-12.2c0-4.918,5.334-5.332,9.131-7.1a3.823,3.823,0,0,0,2.253-3.532Z" transform="translate(-8.01 -265.907)" fill="#e2e7f0" fill-rule="evenodd"/>
          <path id="Trazado_1180584" data-name="Trazado 1180584" d="M97.487,285.63h8.1v3.157a3.94,3.94,0,0,0,.317,1.568v4.162H97.17v-4.162a3.97,3.97,0,0,0,.317-1.568Z" transform="translate(-86.102 -265.907)" fill="#fbbd80" fill-rule="evenodd"/>
          <path id="Trazado_1180585" data-name="Trazado 1180585" d="M99.256,285.63h8.1v3.157a4.115,4.115,0,0,0,.058.7,8.481,8.481,0,0,1-3.961.978h-.341a8.439,8.439,0,0,1-3.92-.958,4.11,4.11,0,0,0,.065-.716V285.63Z" transform="translate(-87.871 -265.907)" fill="#e2aa73" fill-rule="evenodd"/>
          <path id="Trazado_1180586" data-name="Trazado 1180586" d="M82.957,185.709l1,.664a2.937,2.937,0,0,0,1.708.518h.583a2.225,2.225,0,0,1,2.22,2.222v4.823a7.066,7.066,0,0,1-7.046,7.046h-.341a7.066,7.066,0,0,1-7.046-7.046v-4.823a2.227,2.227,0,0,1,2.222-2.222h.58a2.945,2.945,0,0,0,1.711-.518l1-.664A3.027,3.027,0,0,1,82.957,185.709Z" transform="translate(-65.835 -177.927)" fill="#fbbd80" fill-rule="evenodd"/>
          <path id="Trazado_1180587" data-name="Trazado 1180587" d="M104.471,382.65l-1.837,2.5-2.114,9.861.283,2.314h7.331l.287-2.314-2.113-9.861Z" transform="translate(-89.036 -350.884)" fill="#2f5274" fill-rule="evenodd"/>
          <path id="Trazado_1180588" data-name="Trazado 1180588" d="M106.707,354.91l-2.4,5.939h-3.674l-2.4-5.939h8.467Z" transform="translate(-87.039 -326.587)" fill="#223c55" fill-rule="evenodd"/>
          <path id="Trazado_1180589" data-name="Trazado 1180589" d="M82.81,325.578a3.8,3.8,0,0,0,1.783-1.888l3.753,3.875L83.6,332.011Z" transform="translate(-73.525 -299.243)" fill="#2f5274" fill-rule="evenodd"/>
          <path id="Trazado_1180590" data-name="Trazado 1180590" d="M142.825,325.578a3.8,3.8,0,0,1-1.783-1.888l-3.753,3.875,4.742,4.445Z" transform="translate(-121.242 -299.243)" fill="#2f5274" fill-rule="evenodd"/>
          <path id="Trazado_1180591" data-name="Trazado 1180591" d="M302.409,200.976a7.64,7.64,0,0,0,1.909-.794.464.464,0,0,1,.453-.01l1.111.566a.463.463,0,0,0,.549-.088l1.128-1.128a.46.46,0,0,0,.086-.545l-.566-1.115a.451.451,0,0,1,.014-.449,7.705,7.705,0,0,0,.791-1.912.466.466,0,0,1,.31-.328l1.187-.385a.469.469,0,0,0,.328-.449v-1.6a.467.467,0,0,0-.328-.449l-1.187-.385a.464.464,0,0,1-.31-.328,7.686,7.686,0,0,0-.791-1.912.451.451,0,0,1-.014-.449l.566-1.115a.46.46,0,0,0-.086-.545l-1.128-1.132a.466.466,0,0,0-.549-.086l-1.111.566a.467.467,0,0,1-.453-.01,7.484,7.484,0,0,0-1.909-.794.46.46,0,0,1-.33-.31l-.385-1.187a.465.465,0,0,0-.447-.328h-1.6a.462.462,0,0,0-.447.328l-.385,1.187a.461.461,0,0,1-.33.31,7.5,7.5,0,0,0-1.909.794.464.464,0,0,1-.453.01l-1.111-.566a.465.465,0,0,0-.549.086l-1.128,1.132a.464.464,0,0,0-.088.545l.57,1.115a.46.46,0,0,1-.014.449,7.706,7.706,0,0,0-.791,1.912.466.466,0,0,1-.31.328l-1.189.385a.466.466,0,0,0-.324.449v1.6a.465.465,0,0,0,.324.449l1.189.385a.452.452,0,0,1,.307.328,7.789,7.789,0,0,0,.794,1.912.46.46,0,0,1,.014.449l-.57,1.115a.466.466,0,0,0,.088.545l1.128,1.128a.46.46,0,0,0,.549.088l1.111-.566a.46.46,0,0,1,.449.01,7.716,7.716,0,0,0,1.912.794.46.46,0,0,1,.33.31l.385,1.187a.458.458,0,0,0,.447.324h1.6a.463.463,0,0,0,.447-.324l.385-1.187A.462.462,0,0,1,302.409,200.976Z" transform="translate(-256.037 -177.139)" fill="#2f5274" fill-rule="evenodd"/>
          <path id="Trazado_1180592" data-name="Trazado 1180592" d="M335.375,232.79a4.305,4.305,0,1,0-4.305-4.305A4.315,4.315,0,0,0,335.375,232.79Z" transform="translate(-290.967 -212.086)" fill="#ebf5fc" fill-rule="evenodd"/>
        </g>
        <path id="Trazado_1180593" data-name="Trazado 1180593" d="M264.857,22.858V17.05a.554.554,0,0,1,.552-.552h1.929a.543.543,0,0,0,.511-.341.551.551,0,0,0-.119-.6l-4.223-4.219a.554.554,0,0,0-.781,0l-4.219,4.219a.551.551,0,0,0-.119.6.545.545,0,0,0,.511.341h1.929a.554.554,0,0,1,.552.552v5.808a.457.457,0,0,0,.457.457H264.4a.456.456,0,0,0,.456-.457Z" transform="translate(-227.27 -11.172)" fill="#0593fc"/>
        <path id="Trazado_1180594" data-name="Trazado 1180594" d="M402.775,22.858V17.05a.554.554,0,0,1,.552-.552h1.929a.544.544,0,0,0,.511-.341.551.551,0,0,0-.119-.6l-4.223-4.219a.554.554,0,0,0-.781,0l-4.219,4.219a.554.554,0,0,0,.392.945h1.929a.554.554,0,0,1,.552.552v5.808a.456.456,0,0,0,.453.457h2.567A.456.456,0,0,0,402.775,22.858Z" transform="translate(-348.066 -11.172)" fill="#0593fc"/>
        <path id="Trazado_1180595" data-name="Trazado 1180595" d="M335.917,232.757a4.306,4.306,0,0,1,0-8.545,4.864,4.864,0,0,0-.542-.031,4.305,4.305,0,1,0,0,8.61A4.118,4.118,0,0,0,335.917,232.757Z" transform="translate(-290.967 -197.738)" fill="#cbd0d8" fill-rule="evenodd"/>
        <path id="Trazado_1180596" data-name="Trazado 1180596" d="M263.6,11.425l-.092-.092a.554.554,0,0,0-.781,0l-4.219,4.219a.551.551,0,0,0-.119.6.545.545,0,0,0,.511.341h.958a.539.539,0,0,1-.508-.341.546.546,0,0,1,.119-.6ZM260.829,16.5a.554.554,0,0,1,.552.552v5.808a.457.457,0,0,0,.457.457h.958a.46.46,0,0,1-.457-.457V17.05a.553.553,0,0,0-.552-.552Z" transform="translate(-227.27 -11.172)" fill="#0584e3"/>
        <path id="Trazado_1180597" data-name="Trazado 1180597" d="M401.518,11.425l-.092-.092a.554.554,0,0,0-.781,0l-4.219,4.219a.554.554,0,0,0,.392.945h.958a.554.554,0,0,1-.389-.945ZM398.747,16.5a.554.554,0,0,1,.552.552v5.808a.456.456,0,0,0,.453.457h.961a.457.457,0,0,1-.457-.457V17.05a.554.554,0,0,0-.552-.552Z" transform="translate(-348.066 -11.172)" fill="#0584e3"/>
      </g>
      <path id="Trazado_1180598" data-name="Trazado 1180598" d="M26.928,42.443c-.925-.325-1.881-.662-2.719-1.053A2.89,2.89,0,0,1,22.5,38.711V38.2a8.136,8.136,0,0,0,2.988-4.676h.453a2.815,2.815,0,0,0,2.812-2.812V28.39c0-.043,0-.088,0-.132,0-.528.011-1.043.02-1.542.076-4.038.146-7.859-5.225-8.519l.658-.935a1.719,1.719,0,0,0-1.4-2.717H16.129a10.961,10.961,0,0,0-6.958,2.364,8.518,8.518,0,0,0-3.156,6.7v7.1a2.815,2.815,0,0,0,2.812,2.812h.449a8.146,8.146,0,0,0,3.034,4.711v.477A2.887,2.887,0,0,1,10.6,41.391c-.838.391-1.794.727-2.719,1.053C4.555,43.616.78,44.944.78,49.486V61.848A1.723,1.723,0,0,0,2.5,63.568H32.317a1.72,1.72,0,0,0,1.717-1.721V49.486c0-4.543-3.775-5.872-7.106-7.043Zm-4.355.278-.487,3.948-2.643-2.478,2.226-2.3A4.869,4.869,0,0,0,22.573,42.721Zm-4.936,2.5,1.878,1.761-.915,2.27H16.215l-.915-2.27,1.878-1.761Zm-3.517-5.168a4.968,4.968,0,0,0,.138-.724,8.087,8.087,0,0,0,2.954.557h.345a8.093,8.093,0,0,0,3-.575,4.978,4.978,0,0,0,.143.736l-3.088,3.189h-.4ZM26.77,30.712a.838.838,0,0,1-.827.827h-.257V27.563h.257a.838.838,0,0,1,.827.827Zm-17.689.827H8.828A.838.838,0,0,1,8,30.712V28.39a.838.838,0,0,1,.827-.827h.253Zm.268-5.961H8.828A2.8,2.8,0,0,0,8,25.7V23.61c0-4.65,4.089-7.083,8.128-7.083h6.165l-.627.89a1.723,1.723,0,0,0,1.259,2.71c3.506.3,3.9,1.711,3.874,5.585a2.8,2.8,0,0,0-.858-.134h-.524a3.244,3.244,0,0,0-2.973-1.953h-.591a2.011,2.011,0,0,1-1.178-.356l-1.007-.675h0a4.05,4.05,0,0,0-4.566,0l-1.007.674a2.018,2.018,0,0,1-1.182.359h-.587A3.251,3.251,0,0,0,9.349,25.578Zm1.759,6.885c0-.034-.006-.067-.011-.1-.02-.2-.031-.4-.031-.61V26.866a1.259,1.259,0,0,1,1.26-1.256h.587a4.006,4.006,0,0,0,2.283-.691l1.009-.675a2.066,2.066,0,0,1,2.359,0l1.009.678a4,4,0,0,0,2.28.69h.591A1.258,1.258,0,0,1,23.7,26.866v4.887A6.141,6.141,0,0,1,21,36.837c-.026.015-.051.032-.076.05A6.108,6.108,0,0,1,17.556,37.9h-.345a6.106,6.106,0,0,1-3.327-.982.913.913,0,0,0-.109-.071A6.156,6.156,0,0,1,11.108,32.462ZM13.153,41.9l2.221,2.29L12.731,46.67l-.488-3.944A4.9,4.9,0,0,0,13.153,41.9Zm-.718,18.124a.977.977,0,0,0-.015.329l.151,1.23H9.587V56.428a.992.992,0,0,0-1.984,0v5.154H2.765v-12.1c0-2.926,2.184-3.905,5.78-5.17.6-.211,1.213-.427,1.811-.663L11,48.85a.992.992,0,0,0,1.663.6l1.085-1.018.763,1.9Zm7.809,1.558H14.571l-.161-1.307,1.937-9.042h2.121L20.4,60.275Zm11.8,0H27.21V56.427a.992.992,0,1,0-1.984,0v5.155h-2.98l.151-1.23a.977.977,0,0,0-.015-.329L20.306,50.33l.763-1.9,1.085,1.018a.993.993,0,0,0,1.663-.6l.641-5.2c.6.236,1.212.452,1.811.663,3.6,1.265,5.78,2.244,5.78,5.17v12.1ZM33.811,7.39h1.521V12.84a1.456,1.456,0,0,0,1.457,1.454h2.6a1.455,1.455,0,0,0,1.454-1.454V7.39h1.521a1.554,1.554,0,0,0,1.1-2.652L39.18.458a1.566,1.566,0,0,0-2.19.006L32.715,4.739a1.551,1.551,0,0,0,1.1,2.65Zm4.278-5.217L41.321,5.4h-.912a1.554,1.554,0,0,0-1.552,1.552v5.353H37.316V6.956A1.552,1.552,0,0,0,35.768,5.4h-.912ZM51.155,7.39h1.521V12.84a1.456,1.456,0,0,0,1.457,1.454h2.6a1.457,1.457,0,0,0,1.457-1.454V7.39h1.521A1.552,1.552,0,0,0,60.8,4.738L56.521.458a1.558,1.558,0,0,0-2.186,0L50.048,4.745A1.554,1.554,0,0,0,51.155,7.39Zm4.275-5.216L58.662,5.4h-.909A1.554,1.554,0,0,0,56.2,6.956v5.353H54.66V6.956A1.554,1.554,0,0,0,53.108,5.4H52.2Zm5.412,35.9a15.279,15.279,0,0,1-29.13-3.281l-.554.727a.993.993,0,0,1-1.58-1.2l2.108-2.769a.993.993,0,0,1,1.39-.189l2.769,2.108a.992.992,0,0,1-1.2,1.579l-1.007-.766A13.294,13.294,0,0,0,59.013,37.3a.993.993,0,0,1,1.83.77Zm3.1-8.092-2.112,2.769a.993.993,0,0,1-1.39.189L57.669,30.83a.992.992,0,0,1,1.2-1.579l1.005.766A13.292,13.292,0,0,0,34.505,27a.993.993,0,1,1-1.83-.77A15.275,15.275,0,0,1,61.8,29.509l.559-.732a.993.993,0,0,1,1.581,1.2ZM37.4,29.944a1.471,1.471,0,0,0-1.009,1.4v1.619a1.474,1.474,0,0,0,1.017,1.4l.941.307a8.647,8.647,0,0,0,.688,1.661l-.449.883a1.464,1.464,0,0,0,.271,1.7l1.136,1.136a1.456,1.456,0,0,0,1.717.279l.88-.448a8.742,8.742,0,0,0,1.665.69l.3.932a1.462,1.462,0,0,0,1.4,1.024h1.615a1.46,1.46,0,0,0,1.4-1.017l.305-.938a8.742,8.742,0,0,0,1.665-.69l.873.444a1.453,1.453,0,0,0,1.714-.267l1.143-1.143a1.464,1.464,0,0,0,.271-1.7l-.449-.883a8.823,8.823,0,0,0,.69-1.662l.945-.308a1.471,1.471,0,0,0,1.009-1.4V31.341a1.474,1.474,0,0,0-1.015-1.4l-.941-.307a8.647,8.647,0,0,0-.688-1.661l.449-.883a1.464,1.464,0,0,0-.271-1.7l-1.135-1.135a1.456,1.456,0,0,0-1.717-.279l-.88.448a8.662,8.662,0,0,0-1.665-.69l-.3-.931a1.461,1.461,0,0,0-1.4-1.024H45.953a1.458,1.458,0,0,0-1.4,1.017l-.305.938a8.742,8.742,0,0,0-1.665.69l-.874-.444A1.453,1.453,0,0,0,40,24.246l-1.143,1.143a1.464,1.464,0,0,0-.271,1.7l.449.883a8.647,8.647,0,0,0-.688,1.661Zm.976,1.769.847-.276a1.447,1.447,0,0,0,.969-1.024,6.7,6.7,0,0,1,.7-1.687,1.461,1.461,0,0,0,.038-1.409l-.4-.792.614-.614.8.407a1.464,1.464,0,0,0,1.4-.045,6.738,6.738,0,0,1,1.687-.7,1.474,1.474,0,0,0,1.028-.967l.276-.848h.865l.278.857a1.471,1.471,0,0,0,1.024.96,6.753,6.753,0,0,1,1.686.7,1.474,1.474,0,0,0,1.409.042l.793-.4.614.614-.4.79a1.46,1.46,0,0,0,.037,1.41,6.683,6.683,0,0,1,.7,1.688c0,.006,0,.014,0,.02a1.463,1.463,0,0,0,.965,1l.845.276v.87l-.853.277a1.462,1.462,0,0,0-.958,1.018,6.835,6.835,0,0,1-.7,1.692,1.458,1.458,0,0,0-.038,1.409l.4.792-.614.614-.8-.407a1.467,1.467,0,0,0-1.4.043,6.785,6.785,0,0,1-1.687.7,1.472,1.472,0,0,0-1.027.967l-.276.848h-.866l-.278-.855a1.468,1.468,0,0,0-1.024-.96,6.726,6.726,0,0,1-1.685-.7,1.471,1.471,0,0,0-1.409-.042l-.793.4-.614-.614.4-.789a1.464,1.464,0,0,0-.037-1.41,6.683,6.683,0,0,1-.7-1.688c0-.006,0-.014,0-.02a1.463,1.463,0,0,0-.965-1l-.845-.276ZM46.757,37.5A5.355,5.355,0,1,0,41.4,32.148,5.361,5.361,0,0,0,46.757,37.5Zm0-8.727a3.372,3.372,0,1,1-3.368,3.372A3.376,3.376,0,0,1,46.757,28.777Z" transform="translate(0 0)"/>
    </g>
  </g>
</svg>
