<svg xmlns="http://www.w3.org/2000/svg" xmlns:xlink="http://www.w3.org/1999/xlink" width="113" height="113" viewBox="0 0 113 113">
  <defs>
    <filter id="Trazado_982547" x="0" y="0" width="113" height="113" filterUnits="userSpaceOnUse">
      <feOffset dy="3" input="SourceAlpha"/>
      <feGaussianBlur stdDeviation="3" result="blur"/>
      <feFlood flood-opacity="0.161"/>
      <feComposite operator="in" in2="blur"/>
      <feComposite in="SourceGraphic"/>
    </filter>
  </defs>
  <g id="Grupo_1224282" data-name="Grupo 1224282" transform="translate(-6344.964 -1253.751)">
    <g id="Grupo_1224089" data-name="Grupo 1224089" transform="translate(5670.965 -3321.317)">
      <g id="Grupo_1223184" data-name="Grupo 1223184" transform="translate(683 4581.069)">
        <g id="Grupo_1211216" data-name="Grupo 1211216" transform="translate(0)">
          <g id="Grupo_1210737" data-name="Grupo 1210737">
            <g id="Grupo_1210537" data-name="Grupo 1210537">
              <g id="Grupo_1164202" data-name="Grupo 1164202">
                <g id="Grupo_1158168" data-name="Grupo 1158168">
                  <g id="Grupo_1152576" data-name="Grupo 1152576">
                    <g id="Grupo_1148633" data-name="Grupo 1148633">
                      <g id="Grupo_1148525" data-name="Grupo 1148525">
                        <g transform="matrix(1, 0, 0, 1, -9, -6)" filter="url(#Trazado_982547)">
                          <g id="Trazado_982547-2" data-name="Trazado 982547" transform="translate(9 6)" fill="#fcf5f0">
                            <path d="M 47.49999618530273 93.5 C 41.28936767578125 93.5 35.26533126831055 92.28396606445312 29.59518241882324 89.88570404052734 C 24.11771583557129 87.56893157958984 19.19812965393066 84.251953125 14.97308921813965 80.02690124511719 C 10.74803638458252 75.80186462402344 7.431062698364258 70.88227844238281 5.114289283752441 65.40480804443359 C 2.716022968292236 59.73466110229492 1.499996185302734 53.71062469482422 1.499996185302734 47.49999618530273 C 1.499996185302734 41.28936767578125 2.716022968292236 35.26533126831055 5.114289283752441 29.59518241882324 C 7.431062698364258 24.11771583557129 10.74803638458252 19.19812965393066 14.97308921813965 14.97308921813965 C 19.19812965393066 10.74803638458252 24.11771583557129 7.431062698364258 29.59518241882324 5.114289283752441 C 35.26533126831055 2.716022968292236 41.28936767578125 1.499996185302734 47.49999618530273 1.499996185302734 C 53.71062469482422 1.499996185302734 59.73466110229492 2.716022968292236 65.40480804443359 5.114289283752441 C 70.88227844238281 7.431062698364258 75.80186462402344 10.74803638458252 80.02690124511719 14.97308921813965 C 84.251953125 19.19812965393066 87.56893157958984 24.11771583557129 89.88570404052734 29.59518241882324 C 92.28396606445312 35.26533126831055 93.5 41.28936767578125 93.5 47.49999618530273 C 93.5 53.71062469482422 92.28396606445312 59.73466110229492 89.88570404052734 65.40480804443359 C 87.56893157958984 70.88227844238281 84.251953125 75.80186462402344 80.02690124511719 80.02690124511719 C 75.80186462402344 84.251953125 70.88227844238281 87.56893157958984 65.40480804443359 89.88570404052734 C 59.73466110229492 92.28396606445312 53.71062469482422 93.5 47.49999618530273 93.5 Z" stroke="none"/>
                            <path d="M 47.49999618530273 2.999992370605469 C 41.4912109375 2.999992370605469 35.66376495361328 4.1761474609375 30.17950439453125 6.495796203613281 C 24.88084411621094 8.736953735351562 20.12152099609375 11.94598388671875 16.03375244140625 16.03375244140625 C 11.94598388671875 20.12152099609375 8.736953735351562 24.88084411621094 6.495796203613281 30.17950439453125 C 4.1761474609375 35.66376495361328 2.999992370605469 41.4912109375 2.999992370605469 47.49999618530273 C 2.999992370605469 53.50878143310547 4.1761474609375 59.33622741699219 6.495796203613281 64.82048797607422 C 8.736953735351562 70.11914825439453 11.94598388671875 74.87847137451172 16.03375244140625 78.96623992919922 C 20.12152099609375 83.05400848388672 24.88084411621094 86.26304626464844 30.17950439453125 88.50419616699219 C 35.66376495361328 90.82384490966797 41.4912109375 92 47.49999618530273 92 C 53.50878143310547 92 59.33622741699219 90.82384490966797 64.82048797607422 88.50419616699219 C 70.11914825439453 86.26304626464844 74.87847137451172 83.05400848388672 78.96623992919922 78.96623992919922 C 83.05400848388672 74.87847137451172 86.26304626464844 70.11914825439453 88.50419616699219 64.82048797607422 C 90.82384490966797 59.33622741699219 92 53.50878143310547 92 47.49999618530273 C 92 41.4912109375 90.82384490966797 35.66376495361328 88.50419616699219 30.17950439453125 C 86.26304626464844 24.88084411621094 83.05400848388672 20.12152099609375 78.96623992919922 16.03375244140625 C 74.87847137451172 11.94598388671875 70.11914825439453 8.736953735351562 64.82048797607422 6.495796203613281 C 59.33622741699219 4.1761474609375 53.50878143310547 2.999992370605469 47.49999618530273 2.999992370605469 M 47.49999618530273 -7.62939453125e-06 C 73.7335205078125 -7.62939453125e-06 95 21.26647186279297 95 47.49999618530273 C 95 73.7335205078125 73.7335205078125 95 47.49999618530273 95 C 21.26647186279297 95 -7.62939453125e-06 73.7335205078125 -7.62939453125e-06 47.49999618530273 C -7.62939453125e-06 21.26647186279297 21.26647186279297 -7.62939453125e-06 47.49999618530273 -7.62939453125e-06 Z" stroke="none" fill="#eca675"/>
                          </g>
                        </g>
                      </g>
                    </g>
                  </g>
                </g>
              </g>
            </g>
          </g>
        </g>
      </g>
    </g>
    <g id="Check" transform="translate(6369 1275)">
      <path id="Trazado_1180599" data-name="Trazado 1180599" d="M61,55v6H6a3,3,0,0,1,0-6Z" fill="#ff7956"/>
      <path id="Trazado_1180600" data-name="Trazado 1180600" d="M55,49h6v6H55Z" fill="#fee9ab"/>
      <path id="Trazado_1180601" data-name="Trazado 1180601" d="M61,43v6H6a3,3,0,0,1,0-6Z" fill="#ff7956"/>
      <path id="Trazado_1180602" data-name="Trazado 1180602" d="M51,13h6V33H51Z" fill="#9cdd05"/>
      <path id="Trazado_1180603" data-name="Trazado 1180603" d="M57,9v4H51V9h6Z" fill="#ff9811"/>
      <path id="Trazado_1180604" data-name="Trazado 1180604" d="M57,33l-3.02,6L51,33Z" fill="#ff9811"/>
      <path id="Trazado_1180605" data-name="Trazado 1180605" d="M56,5V9H52V5a2,2,0,0,1,4,0Z" fill="#9cdd05"/>
      <path id="Trazado_1180606" data-name="Trazado 1180606" d="M55,55v3l-3-2-3,2V47h6v8Z" fill="#ff3051"/>
      <path id="Trazado_1180607" data-name="Trazado 1180607" d="M49,49v6H6a3,3,0,0,1,0-6Z" fill="#fee9ab"/>
      <path id="Trazado_1180608" data-name="Trazado 1180608" d="M42.99,15,35,7.01,34.99,7H15V3H47V43H43V15.01Z" fill="#ff7956"/>
      <path id="Trazado_1180609" data-name="Trazado 1180609" d="M43,15.01V43H11V7H34.99l.01.01V15h7.99Z" fill="#fee9ab"/>
      <path id="Trazado_1180610" data-name="Trazado 1180610" d="M42.99,15H35V7.01Z" fill="#ffde55"/>
      <circle id="Elipse_14750" data-name="Elipse 14750" cx="10" cy="10" r="10" transform="translate(17 17)" fill="#46f8ff"/>
      <path id="Trazado_1180611" data-name="Trazado 1180611" d="M61,42H48V3a1,1,0,0,0-1-1H15a1,1,0,0,0-1,1V6H11a1,1,0,0,0-1,1V42H6a4,4,0,0,0-2.643,7,4,4,0,0,0,0,6A4,4,0,0,0,6,62H61a1,1,0,0,0,1-1V43A1,1,0,0,0,61,42ZM16,4H46V42H44V15.014a1,1,0,0,0-.293-.707L35.7,6.293A1,1,0,0,0,34.988,6H16ZM36,9.426,40.573,14H36ZM12,8H34v7a1,1,0,0,0,1,1h7V42H12ZM6,44H60v4H56V47a1,1,0,0,0-1-1H49a1,1,0,0,0-1,1v1H6a2,2,0,0,1,0-4Zm50,6h4v4H56Zm-2-2v8.132l-1.445-.964a1,1,0,0,0-1.11,0L50,56.132V48ZM6,50H48v4H6a2,2,0,0,1,0-4ZM6,60a2,2,0,0,1,0-4H48v2a1,1,0,0,0,1.555.832L52,57.2l2.445,1.63A1,1,0,0,0,56,58V56h4v4Z"/>
      <path id="Trazado_1180612" data-name="Trazado 1180612" d="M61,12H58V9a1,1,0,0,0-1-1V5a3,3,0,0,0-6,0V8a1,1,0,0,0-1,1V33a.989.989,0,0,0,.1.444l2.976,6a1,1,0,0,0,1.785.006l3.025-6A1,1,0,0,0,58,33V14h2v7h2V13A1,1,0,0,0,61,12Zm-5-2v2H52V10ZM53,5a1,1,0,0,1,2,0V8H53Zm.982,31.764L52.612,34h2.764ZM56,32H52V14h4Z"/>
      <path id="Trazado_1180613" data-name="Trazado 1180613" d="M27,16A11,11,0,1,0,38,27,11,11,0,0,0,27,16Zm0,20a9,9,0,1,1,9-9,9,9,0,0,1-9,9Z"/>
      <path id="Trazado_1180614" data-name="Trazado 1180614" d="M24,29.586l-2.121-2.121-1.414,1.414,2.828,2.828a1,1,0,0,0,1.414,0l8.485-8.485-1.414-1.414Z"/>
    </g>
  </g>
</svg>
