<svg xmlns="http://www.w3.org/2000/svg" xmlns:xlink="http://www.w3.org/1999/xlink" width="848.104" height="495.859" viewBox="0 0 848.104 495.859">
  <defs>
    <filter id="Rectángulo_421893" x="540" y="253.36" width="153.104" height="59" filterUnits="userSpaceOnUse">
      <feOffset dy="3" input="SourceAlpha"/>
      <feGaussianBlur stdDeviation="3" result="blur"/>
      <feFlood flood-opacity="0.161"/>
      <feComposite operator="in" in2="blur"/>
      <feComposite in="SourceGraphic"/>
    </filter>
    <clipPath id="clip-path">
      <rect id="Rectángulo_421891" data-name="Rectángulo 421891" width="250.295" height="495.859" fill="none"/>
    </clipPath>
    <filter id="Rectángulo_419643" x="227" y="246.395" width="135.104" height="59" filterUnits="userSpaceOnUse">
      <feOffset dy="3" input="SourceAlpha"/>
      <feGaussianBlur stdDeviation="3" result="blur-2"/>
      <feFlood flood-opacity="0.161"/>
      <feComposite operator="in" in2="blur-2"/>
      <feComposite in="SourceGraphic"/>
    </filter>
    <filter id="Rectángulo_421892" x="395" y="222.895" width="135.104" height="59" filterUnits="userSpaceOnUse">
      <feOffset dy="3" input="SourceAlpha"/>
      <feGaussianBlur stdDeviation="3" result="blur-3"/>
      <feFlood flood-opacity="0.161"/>
      <feComposite operator="in" in2="blur-3"/>
      <feComposite in="SourceGraphic"/>
    </filter>
    <filter id="Rectángulo_421894" x="706" y="225.395" width="142.104" height="66" filterUnits="userSpaceOnUse">
      <feOffset dy="3" input="SourceAlpha"/>
      <feGaussianBlur stdDeviation="3" result="blur-4"/>
      <feFlood flood-opacity="0.161"/>
      <feComposite operator="in" in2="blur-4"/>
      <feComposite in="SourceGraphic"/>
    </filter>
  </defs>
  <g id="Grupo_1224285" data-name="Grupo 1224285" transform="translate(-4368 -9219.605)">
    <g id="Grupo_1224284" data-name="Grupo 1224284" transform="translate(3975 6476)">
      <g id="_6d463fda-4266-44e2-8b45-d6dfbcf9fa86_Convertido_" data-name="6d463fda-4266-44e2-8b45-d6dfbcf9fa86 [Convertido]" transform="translate(359.205 2621.296)">
        <g id="OBJECTS" transform="translate(21 122.31)">
          <g id="Grupo_1224108" data-name="Grupo 1224108">
            <g id="Grupo_1224097" data-name="Grupo 1224097" transform="translate(388.673)">
              <path id="Trazado_1179801" data-name="Trazado 1179801" d="M327.133,239.124H246.542v-17.4l37.011-38.907a78.218,78.218,0,0,0,10.36-14.4q3.322-6.334,3.322-11,0-6.644-3.36-10.6c-2.233-2.628-5.612-3.96-10.079-3.96a10.845,10.845,0,0,0-9.459,5.1q-3.435,5.1-3.435,13.006H244.8l-.15-.469q-.394-15.962,10.435-27.083T283.8,122.31q18.975,0,29.616,9.328,10.642,9.347,10.642,25.544a33.794,33.794,0,0,1-5.649,19.294q-5.659,8.389-20.833,24.906L282,218.066l.244.469h44.931v20.57Z" transform="translate(-213.585 -122.31)" fill="#ecb13e"/>
              <path id="Trazado_1179802" data-name="Trazado 1179802" d="M228.09,194.093,385.05,172.81v280L228.09,474.1Z" transform="translate(-228.09 -78.03)" fill="#ecb13e"/>
              <path id="Trazado_1179803" data-name="Trazado 1179803" d="M228.09,195.48l27.758,254.968L228.09,454.22Z" transform="translate(-228.09 -58.152)" fill="#d3a03a"/>
            </g>
            <g id="Grupo_1224099" data-name="Grupo 1224099" transform="translate(702.611 0.882)">
              <path id="Trazado_1179806" data-name="Trazado 1179806" d="M395.36,194.093,552.338,172.81v280L395.36,474.1Z" transform="translate(-395.36 -78.912)" fill="#248abf"/>
              <path id="Trazado_1179807" data-name="Trazado 1179807" d="M487.555,193.1h11.636v20.57H487.555v24.286H460.829V213.675H416.217l-1.577-16.328,46.189-74.323v-.244h26.726v70.306Zm-49.042,0h22.3V157.52l-.469-.169-2.065,3.266L438.494,193.1Z" transform="translate(-378.455 -122.78)" fill="#248abf"/>
              <path id="Trazado_1179808" data-name="Trazado 1179808" d="M395.36,195.48l27.777,254.968L395.36,454.22Z" transform="translate(-395.36 -59.034)" fill="#134b69"/>
            </g>
            <g id="Grupo_1224101" data-name="Grupo 1224101" transform="translate(545.633 20.514)">
              <path id="Trazado_1179814" data-name="Trazado 1179814" d="M357.974,181.324h12.575c4.8,0,8.483-1.3,11.073-3.885s3.866-6.175,3.866-10.754a12.961,12.961,0,0,0-3.472-9.178c-2.327-2.477-5.687-3.716-10.116-3.716a14.758,14.758,0,0,0-9.178,3,9.339,9.339,0,0,0-3.96,7.751H332.824l-.15-.469q-.479-13.767,10.829-22.3t27.439-8.54q18.75,0,29.973,8.577t11.224,24.324a23.766,23.766,0,0,1-4.861,14.433A32.572,32.572,0,0,1,394.272,190.9a30.885,30.885,0,0,1,14.47,10.323,26.779,26.779,0,0,1,5.218,16.572q0,15.822-12.106,24.868-12.106,9.065-30.93,9.065-16.216,0-28.359-8.5T330.816,218.58l.15-.469h26.107a11.771,11.771,0,0,0,4.317,9.29,15.327,15.327,0,0,0,10.473,3.754c4.692,0,8.446-1.314,11.224-3.96a13.081,13.081,0,0,0,4.185-9.966q0-8.389-4.392-12.218t-12.387-3.829H357.917V181.325Z" transform="translate(-294.987 -133.24)" fill="#899e78"/>
              <path id="Trazado_1179815" data-name="Trazado 1179815" d="M311.72,184.15,468.7,205.415v280L311.72,464.155Z" transform="translate(-311.72 -88.6)" fill="#899e78"/>
              <path id="Trazado_1179816" data-name="Trazado 1179816" d="M311.72,442.872,339.5,187.9,311.72,184.15Z" transform="translate(-311.72 -88.6)" fill="#4a5641"/>
              <g transform="matrix(1, 0, 0, 1, -532.84, -20.51)" filter="url(#Rectángulo_421893)">
                <rect id="Rectángulo_421893-2" data-name="Rectángulo 421893" width="135.103" height="41" rx="20.5" transform="translate(549 259.36)" fill="#fff"/>
              </g>
              <path id="Trazado_1180617" data-name="Trazado 1180617" d="M9.344-.859A4.694,4.694,0,0,1,6.047.32,4.967,4.967,0,0,1,2.141-1.273,6.379,6.379,0,0,1,.719-5.664a6.324,6.324,0,0,1,1.617-4.648,4.819,4.819,0,0,1,3.578-1.422,4.839,4.839,0,0,1,4.25,1.906,4.127,4.127,0,0,1,.8,2.148H8.555a3.25,3.25,0,0,0-.6-1.25,2.447,2.447,0,0,0-1.945-.75,2.412,2.412,0,0,0-2.07,1.059,5.089,5.089,0,0,0-.758,3,4.467,4.467,0,0,0,.8,2.9,2.53,2.53,0,0,0,2.035.965,2.328,2.328,0,0,0,1.93-.828,3.6,3.6,0,0,0,.609-1.336h2.383A5.178,5.178,0,0,1,9.344-.859ZM19.7-7.437a4.969,4.969,0,0,1,1.078,3.2A4.936,4.936,0,0,1,19.7-1.035,3.961,3.961,0,0,1,16.423.3,3.961,3.961,0,0,1,13.15-1.035a4.936,4.936,0,0,1-1.078-3.207,4.969,4.969,0,0,1,1.078-3.2,3.934,3.934,0,0,1,3.273-1.352A3.934,3.934,0,0,1,19.7-7.437Zm-3.281.531a1.779,1.779,0,0,0-1.5.691,3.2,3.2,0,0,0-.527,1.973,3.217,3.217,0,0,0,.527,1.977,1.775,1.775,0,0,0,1.5.7,1.765,1.765,0,0,0,1.5-.7,3.235,3.235,0,0,0,.523-1.977,3.217,3.217,0,0,0-.523-1.973A1.769,1.769,0,0,0,16.416-6.906Zm9.963.039a1.55,1.55,0,0,0-1.555.961,3.3,3.3,0,0,0-.219,1.3V0H22.386V-8.5h2.148v1.242a3.78,3.78,0,0,1,.813-.945,2.824,2.824,0,0,1,1.742-.516,3.287,3.287,0,0,1,2.16.691,2.811,2.811,0,0,1,.84,2.293V0H27.808V-5.18a2.364,2.364,0,0,0-.18-1.031A1.264,1.264,0,0,0,26.378-6.867Zm9.759-4.719v1.813q-.187-.023-.629-.035a.724.724,0,0,0-.609.2.709.709,0,0,0-.168.457v.719h1.461v1.57H34.731V0H32.513V-6.867H31.27v-1.57h1.219v-.547a2.877,2.877,0,0,1,.461-1.883q.484-.766,2.336-.766.211,0,.383.012Zm3.627,3.07V0H37.506V-8.516Zm0-3.07v2.055H37.506v-2.055Zm9.908.086V0H47.508V-1.18a3.141,3.141,0,0,1-1.086,1.1,3.049,3.049,0,0,1-1.516.344A3.165,3.165,0,0,1,42.395-.941a4.635,4.635,0,0,1-1.02-3.1,5.331,5.331,0,0,1,1-3.43,3.266,3.266,0,0,1,2.684-1.25,2.747,2.747,0,0,1,1.375.34,2.7,2.7,0,0,1,.977.941V-11.5Zm-6,7.3a3.348,3.348,0,0,0,.469,1.883,1.56,1.56,0,0,0,1.406.711,1.644,1.644,0,0,0,1.438-.7,3.106,3.106,0,0,0,.492-1.82,2.792,2.792,0,0,0-.789-2.234,1.7,1.7,0,0,0-1.125-.406,1.564,1.564,0,0,0-1.434.738A3.42,3.42,0,0,0,43.672-4.2ZM58.986-2.5A2.824,2.824,0,0,1,58.2-.961,3.866,3.866,0,0,1,55.135.281,4.318,4.318,0,0,1,52.267-.766a4.222,4.222,0,0,1-1.242-3.406,4.734,4.734,0,0,1,1.121-3.391,3.833,3.833,0,0,1,2.91-1.18,4.463,4.463,0,0,1,1.914.4,3.353,3.353,0,0,1,1.406,1.258,4.292,4.292,0,0,1,.648,1.758,11.352,11.352,0,0,1,.07,1.688H53.267a2.116,2.116,0,0,0,.8,1.8,1.9,1.9,0,0,0,1.109.32A1.6,1.6,0,0,0,56.3-1.914a1.855,1.855,0,0,0,.414-.586Zm-2.2-2.609a1.938,1.938,0,0,0-.535-1.34,1.662,1.662,0,0,0-1.191-.457,1.512,1.512,0,0,0-1.2.484,2.418,2.418,0,0,0-.535,1.313ZM64.6-6.867a1.55,1.55,0,0,0-1.555.961,3.3,3.3,0,0,0-.219,1.3V0H60.613V-8.5h2.148v1.242a3.78,3.78,0,0,1,.813-.945,2.824,2.824,0,0,1,1.742-.516,3.287,3.287,0,0,1,2.16.691,2.811,2.811,0,0,1,.84,2.293V0H66.035V-5.18a2.364,2.364,0,0,0-.18-1.031A1.264,1.264,0,0,0,64.6-6.867ZM77.739-5.461H75.458a1.976,1.976,0,0,0-.32-.859,1.343,1.343,0,0,0-1.164-.516,1.533,1.533,0,0,0-1.539,1.117,4.671,4.671,0,0,0-.219,1.578,4.3,4.3,0,0,0,.219,1.508,1.486,1.486,0,0,0,1.5,1.063,1.323,1.323,0,0,0,1.109-.422,2.1,2.1,0,0,0,.4-1.094h2.273a3.725,3.725,0,0,1-.734,1.922A3.57,3.57,0,0,1,73.88.3,3.628,3.628,0,0,1,70.857-.922a4.932,4.932,0,0,1-.969-3.164A5,5,0,0,1,70.958-7.5a3.726,3.726,0,0,1,2.953-1.219A4.447,4.447,0,0,1,76.532-8,3.343,3.343,0,0,1,77.739-5.461Zm3.822-3.055V0H79.3V-8.516Zm0-3.07v2.055H79.3v-2.055Zm2.478,3.992a3.636,3.636,0,0,1,3.031-1.125,5.386,5.386,0,0,1,2.484.555A2.13,2.13,0,0,1,90.641-6.07v3.906q0,.406.016.984a1.238,1.238,0,0,0,.133.594.8.8,0,0,0,.328.258V0H88.7a2.48,2.48,0,0,1-.141-.484Q88.516-.711,88.493-1a4.575,4.575,0,0,1-1.062.852,3.2,3.2,0,0,1-1.625.414,2.794,2.794,0,0,1-1.91-.66,2.355,2.355,0,0,1-.754-1.871,2.429,2.429,0,0,1,1.211-2.273,5.377,5.377,0,0,1,1.953-.547l.758-.094a3.475,3.475,0,0,0,.883-.2.669.669,0,0,0,.477-.633.751.751,0,0,0-.363-.723,2.269,2.269,0,0,0-1.066-.2,1.389,1.389,0,0,0-1.117.391,1.624,1.624,0,0,0-.312.781H83.414A3.268,3.268,0,0,1,84.039-7.594ZM85.7-1.609a1.163,1.163,0,0,0,.766.258,2.268,2.268,0,0,0,1.324-.422,1.8,1.8,0,0,0,.629-1.539v-.828a2.42,2.42,0,0,1-.426.215,3.561,3.561,0,0,1-.59.152l-.5.094a3.229,3.229,0,0,0-1.008.3,1.021,1.021,0,0,0-.516.945A.978.978,0,0,0,85.7-1.609Zm6.97-9.906h2.227V0H92.666Zm6.689,3V0H97.1V-8.516Zm0-3.07v2.055H97.1v-2.055Zm9.908.086V0H107.1V-1.18a3.141,3.141,0,0,1-1.086,1.1A3.049,3.049,0,0,1,104.5.266a3.165,3.165,0,0,1-2.512-1.207,4.635,4.635,0,0,1-1.02-3.1,5.331,5.331,0,0,1,1-3.43,3.266,3.266,0,0,1,2.684-1.25,2.747,2.747,0,0,1,1.375.34,2.7,2.7,0,0,1,.977.941V-11.5Zm-6,7.3a3.348,3.348,0,0,0,.469,1.883,1.56,1.56,0,0,0,1.406.711,1.644,1.644,0,0,0,1.438-.7,3.106,3.106,0,0,0,.492-1.82,2.792,2.792,0,0,0-.789-2.234,1.7,1.7,0,0,0-1.125-.406,1.564,1.564,0,0,0-1.434.738A3.42,3.42,0,0,0,103.263-4.2Zm8.345-3.391a3.636,3.636,0,0,1,3.031-1.125,5.386,5.386,0,0,1,2.484.555A2.13,2.13,0,0,1,118.21-6.07v3.906q0,.406.016.984a1.238,1.238,0,0,0,.133.594.8.8,0,0,0,.328.258V0h-2.422a2.48,2.48,0,0,1-.141-.484q-.039-.227-.062-.516A4.575,4.575,0,0,1,115-.148a3.2,3.2,0,0,1-1.625.414,2.794,2.794,0,0,1-1.91-.66,2.355,2.355,0,0,1-.754-1.871,2.429,2.429,0,0,1,1.211-2.273,5.377,5.377,0,0,1,1.953-.547l.758-.094a3.475,3.475,0,0,0,.883-.2.669.669,0,0,0,.477-.633.751.751,0,0,0-.363-.723,2.269,2.269,0,0,0-1.066-.2,1.389,1.389,0,0,0-1.117.391,1.624,1.624,0,0,0-.312.781h-2.148A3.268,3.268,0,0,1,111.608-7.594Zm1.656,5.984a1.163,1.163,0,0,0,.766.258,2.268,2.268,0,0,0,1.324-.422,1.8,1.8,0,0,0,.629-1.539v-.828a2.42,2.42,0,0,1-.426.215,3.561,3.561,0,0,1-.59.152l-.5.094a3.229,3.229,0,0,0-1.008.3,1.021,1.021,0,0,0-.516.945A.978.978,0,0,0,113.265-1.609ZM127.938-11.5V0h-2.164V-1.18a3.141,3.141,0,0,1-1.086,1.1,3.049,3.049,0,0,1-1.516.344,3.165,3.165,0,0,1-2.512-1.207,4.635,4.635,0,0,1-1.02-3.1,5.331,5.331,0,0,1,1-3.43,3.266,3.266,0,0,1,2.684-1.25,2.747,2.747,0,0,1,1.375.34,2.7,2.7,0,0,1,.977.941V-11.5Zm-6,7.3a3.348,3.348,0,0,0,.469,1.883,1.56,1.56,0,0,0,1.406.711,1.644,1.644,0,0,0,1.438-.7,3.106,3.106,0,0,0,.492-1.82,2.792,2.792,0,0,0-.789-2.234,1.7,1.7,0,0,0-1.125-.406,1.564,1.564,0,0,0-1.434.738A3.42,3.42,0,0,0,121.938-4.2Z" transform="translate(19.713 265.846)" fill="#0b0a0a"/>
              <g id="job_17485679" transform="translate(54.972 141.86)">
                <g id="Grupo_1224243" data-name="Grupo 1224243">
                  <path id="Trazado_1180529" data-name="Trazado 1180529" d="M41.93,21.03H11.7V10.57a8.553,8.553,0,0,1,8.55-8.55H33.38a8.553,8.553,0,0,1,8.55,8.55Z" fill="#506b75"/>
                  <path id="Trazado_1180530" data-name="Trazado 1180530" d="M41.93,22.03H11.7a1,1,0,0,1-1-1V10.57a9.562,9.562,0,0,1,9.55-9.55H33.38a9.562,9.562,0,0,1,9.55,9.55V21.03A1,1,0,0,1,41.93,22.03Zm-29.23-2H40.94V10.57a7.556,7.556,0,0,0-7.55-7.55H20.25a7.556,7.556,0,0,0-7.55,7.55Z"/>
                </g>
                <g id="Grupo_1224244" data-name="Grupo 1224244" opacity="0.2">
                  <path id="Trazado_1180531" data-name="Trazado 1180531" d="M33.38,2.01H23.6a8.553,8.553,0,0,1,8.55,8.55V21.02h9.77V10.57a8.54,8.54,0,0,0-8.54-8.56Z"/>
                </g>
                <g id="Grupo_1224245" data-name="Grupo 1224245">
                  <path id="Trazado_1180532" data-name="Trazado 1180532" d="M51.05,61.35H2.97A1.976,1.976,0,0,1,1,59.37,20.613,20.613,0,0,1,21.61,38.76H32.4A20.613,20.613,0,0,1,53.01,59.37,1.961,1.961,0,0,1,51.05,61.35Z" fill="#79799c"/>
                  <path id="Trazado_1180533" data-name="Trazado 1180533" d="M51.05,62.35H2.97A2.979,2.979,0,0,1,0,59.37,21.635,21.635,0,0,1,21.61,37.76H32.4A21.635,21.635,0,0,1,54.01,59.37,2.964,2.964,0,0,1,51.05,62.35ZM21.61,39.76A19.636,19.636,0,0,0,2,59.37a.971.971,0,0,0,.97.97H51.04a.971.971,0,0,0,.97-.97A19.636,19.636,0,0,0,32.4,39.76Z"/>
                </g>
                <g id="Grupo_1224248" data-name="Grupo 1224248">
                  <g id="Grupo_1224246" data-name="Grupo 1224246">
                    <circle id="Elipse_14746" data-name="Elipse 14746" cx="3.68" cy="3.68" r="3.68" transform="translate(36.58 17.35)" fill="#ffcaca"/>
                    <path id="Trazado_1180534" data-name="Trazado 1180534" d="M40.26,25.7a4.68,4.68,0,1,1,4.68-4.68A4.686,4.686,0,0,1,40.26,25.7Zm0-7.35a2.68,2.68,0,1,0,2.68,2.68A2.68,2.68,0,0,0,40.26,18.35Z"/>
                  </g>
                  <g id="Grupo_1224247" data-name="Grupo 1224247">
                    <circle id="Elipse_14747" data-name="Elipse 14747" cx="3.68" cy="3.68" r="3.68" transform="translate(9.68 17.35)" fill="#ffcaca"/>
                    <path id="Trazado_1180535" data-name="Trazado 1180535" d="M13.36,25.7a4.68,4.68,0,1,1,4.68-4.68,4.686,4.686,0,0,1-4.68,4.68Zm0-7.35a2.68,2.68,0,1,0,2.68,2.68,2.68,2.68,0,0,0-2.68-2.68Z"/>
                  </g>
                </g>
                <g id="Grupo_1224249" data-name="Grupo 1224249">
                  <path id="Trazado_1180536" data-name="Trazado 1180536" d="M33.88,38.76l-6.87,5.3-6.87-5.3V29.89H33.88Z" fill="#ffcaca"/>
                  <path id="Trazado_1180537" data-name="Trazado 1180537" d="M27.01,45.06a.981.981,0,0,1-.61-.21l-6.87-5.3a.985.985,0,0,1-.39-.79V29.89a1,1,0,0,1,1-1H33.88a1,1,0,0,1,1,1v8.87a.985.985,0,0,1-.39.79l-6.87,5.3a.981.981,0,0,1-.61.21Zm-5.87-6.79,5.87,4.53,5.87-4.53V30.89H21.14Z"/>
                </g>
                <g id="Grupo_1224250" data-name="Grupo 1224250">
                  <path id="Trazado_1180538" data-name="Trazado 1180538" d="M40.45,16.74c0,8.33-6.11,18.83-13.64,18.83S13.17,25.07,13.17,16.74C22.31,9.22,31.4,9.04,40.45,16.74Z" fill="#ffcaca"/>
                  <path id="Trazado_1180539" data-name="Trazado 1180539" d="M26.81,36.57c-8.11,0-14.64-10.85-14.64-19.83a.992.992,0,0,1,.36-.77c9.63-7.93,19.24-7.92,28.56.01a1.011,1.011,0,0,1,.35.76c.01,8.98-6.52,19.83-14.63,19.83ZM14.18,17.21c.22,7.93,5.96,17.36,12.63,17.36S39.23,25.14,39.44,17.2c-8.35-6.91-16.62-6.91-25.26.01Z"/>
                </g>
                <g id="Grupo_1224251" data-name="Grupo 1224251" opacity="0.2">
                  <path id="Trazado_1180540" data-name="Trazado 1180540" d="M23.6,11.38a18.175,18.175,0,0,1,2.69.78A9.935,9.935,0,0,1,31.85,25.5c-1.83,4.23-4.82,7.9-8.37,9.38a8.717,8.717,0,0,0,3.34.69c7.53,0,13.64-10.5,13.64-18.83-5.61-4.76-11.22-6.5-16.86-5.36Z"/>
                </g>
                <g id="Grupo_1224252" data-name="Grupo 1224252">
                  <path id="Trazado_1180541" data-name="Trazado 1180541" d="M44.52,61.7a1,1,0,0,1-1-1V56.05a1,1,0,0,1,2,0V60.7A1,1,0,0,1,44.52,61.7Z"/>
                </g>
                <g id="Grupo_1224256" data-name="Grupo 1224256">
                  <g id="Grupo_1224253" data-name="Grupo 1224253">
                    <path id="Trazado_1180542" data-name="Trazado 1180542" d="M54.75,15.11c2.38,3.5,5.07,4.81,8.25,2.71v6.64a12.572,12.572,0,0,1-5.94,10.68l-2.31,1.43-2.31-1.43A12.572,12.572,0,0,1,46.5,24.46V17.82C49.69,19.92,52.38,18.61,54.75,15.11Z" fill="#6cc2c1"/>
                    <path id="Trazado_1180543" data-name="Trazado 1180543" d="M54.75,37.57a1.014,1.014,0,0,1-.53-.15l-2.31-1.43A13.468,13.468,0,0,1,45.5,24.46V17.82a1,1,0,0,1,1.55-.83c1.68,1.11,3.97,1.83,6.87-2.44a1.031,1.031,0,0,1,1.65,0c2.9,4.27,5.19,3.54,6.87,2.44a1.009,1.009,0,0,1,1.02-.05.975.975,0,0,1,.54.88v6.64a13.491,13.491,0,0,1-6.41,11.53l-2.31,1.43A.988.988,0,0,1,54.75,37.57ZM47.51,19.45v5.01a11.481,11.481,0,0,0,5.47,9.83l1.78,1.1,1.78-1.1a11.5,11.5,0,0,0,5.47-9.83V19.45c-2.06.76-4.62.55-7.25-2.67-2.63,3.22-5.2,3.44-7.25,2.67Z"/>
                  </g>
                  <g id="Grupo_1224254" data-name="Grupo 1224254" opacity="0.2">
                    <path id="Trazado_1180544" data-name="Trazado 1180544" d="M60.9,18.73v3.63a12.572,12.572,0,0,1-5.94,10.68l-2.31,1.43-2.31-1.43a11.1,11.1,0,0,1-1.11-.79,12.424,12.424,0,0,0,3.22,2.9l2.31,1.43,2.31-1.43A12.615,12.615,0,0,0,63,24.46V17.82a6.091,6.091,0,0,1-2.1.91Z"/>
                  </g>
                  <g id="Grupo_1224255" data-name="Grupo 1224255">
                    <path id="Trazado_1180545" data-name="Trazado 1180545" d="M53.17,29.54a1.033,1.033,0,0,1-.71-.29l-1.58-1.58a1,1,0,0,1,1.41-1.41l.87.87,4.04-4.04a1,1,0,0,1,1.41,1.41l-4.75,4.75A.967.967,0,0,1,53.17,29.54Z"/>
                  </g>
                </g>
                <g id="Grupo_1224257" data-name="Grupo 1224257">
                  <path id="Trazado_1180546" data-name="Trazado 1180546" d="M31.24,61.35H22.88l3-17.29h2.36Z" fill="#f0dba5"/>
                  <path id="Trazado_1180547" data-name="Trazado 1180547" d="M31.24,62.35H22.89a1.008,1.008,0,0,1-.77-.36,1,1,0,0,1-.22-.81l3-17.29a1,1,0,0,1,.99-.83h2.35a1.008,1.008,0,0,1,.99.83l3,17.29a.986.986,0,0,1-.22.81,1.023,1.023,0,0,1-.77.36Zm-7.17-2h5.98L27.4,45.06h-.67Z"/>
                </g>
                <g id="Grupo_1224258" data-name="Grupo 1224258">
                  <path id="Trazado_1180548" data-name="Trazado 1180548" d="M20.14,39.27l3.34-.87,3.33,5.66-5.78,3.41Z" fill="#e18a86"/>
                  <path id="Trazado_1180549" data-name="Trazado 1180549" d="M21.03,48.47a1.017,1.017,0,0,1-1-.9l-.89-8.19a1.012,1.012,0,0,1,.74-1.08l3.34-.88a1.008,1.008,0,0,1,1.12.46l3.34,5.66a1,1,0,0,1-.35,1.37l-5.78,3.41a1.006,1.006,0,0,1-.52.15Zm.2-8.45.63,5.8,3.59-2.12L23,39.56Z"/>
                </g>
                <g id="Grupo_1224259" data-name="Grupo 1224259">
                  <path id="Trazado_1180550" data-name="Trazado 1180550" d="M33.48,39.27l-3.33-.87-3.34,5.66,5.78,3.41Z" fill="#e18a86"/>
                  <path id="Trazado_1180551" data-name="Trazado 1180551" d="M32.59,48.47a1.03,1.03,0,0,1-.51-.14L26.3,44.92a1,1,0,0,1-.35-1.37l3.34-5.66a1,1,0,0,1,1.12-.46l3.34.88a1,1,0,0,1,.74,1.08l-.89,8.19a1.013,1.013,0,0,1-.55.79,1.227,1.227,0,0,1-.46.1ZM28.18,43.7l3.59,2.12.63-5.8-1.77-.47Z"/>
                </g>
                <g id="Grupo_1224265" data-name="Grupo 1224265">
                  <g id="Grupo_1224260" data-name="Grupo 1224260">
                    <path id="Trazado_1180552" data-name="Trazado 1180552" d="M58.09,61.99H39.34A2.343,2.343,0,0,1,37,59.65V49.42a2.343,2.343,0,0,1,2.34-2.34H58.09a2.343,2.343,0,0,1,2.34,2.34V59.65A2.343,2.343,0,0,1,58.09,61.99Z" fill="#64808d"/>
                    <path id="Trazado_1180553" data-name="Trazado 1180553" d="M58.09,62.99H39.34A3.346,3.346,0,0,1,36,59.65V49.42a3.346,3.346,0,0,1,3.34-3.34H58.09a3.346,3.346,0,0,1,3.34,3.34V59.65A3.346,3.346,0,0,1,58.09,62.99ZM39.34,48.08A1.34,1.34,0,0,0,38,49.42V59.65a1.34,1.34,0,0,0,1.34,1.34H58.09a1.34,1.34,0,0,0,1.34-1.34V49.42a1.34,1.34,0,0,0-1.34-1.34Z"/>
                  </g>
                  <g id="Grupo_1224261" data-name="Grupo 1224261">
                    <path id="Trazado_1180554" data-name="Trazado 1180554" d="M52.6,48.08H44.83a1,1,0,0,1-1-1v-.94a4.88,4.88,0,1,1,9.76,0v.94A.988.988,0,0,1,52.6,48.08Zm-6.77-2H51.6a2.886,2.886,0,0,0-5.77,0Z"/>
                  </g>
                  <g id="Grupo_1224262" data-name="Grupo 1224262">
                    <path id="Trazado_1180555" data-name="Trazado 1180555" d="M59.43,53.2H38a2.29,2.29,0,0,1-2.29-2.29v-4.8h26v4.8A2.281,2.281,0,0,1,59.43,53.2Z" fill="#7590a0"/>
                    <path id="Trazado_1180556" data-name="Trazado 1180556" d="M59.43,54.2H38a3.293,3.293,0,0,1-3.29-3.29v-4.8a1,1,0,0,1,1-1h26a1,1,0,0,1,1,1v4.8A3.284,3.284,0,0,1,59.43,54.2ZM36.72,47.11v3.8a1.293,1.293,0,0,0,1.29,1.29H59.44a1.293,1.293,0,0,0,1.29-1.29v-3.8Z"/>
                  </g>
                  <g id="Grupo_1224263" data-name="Grupo 1224263">
                    <path id="Trazado_1180557" data-name="Trazado 1180557" d="M56.27,55.53a1,1,0,0,1-1-1V51.86a1,1,0,0,1,2,0v2.67A1,1,0,0,1,56.27,55.53Z"/>
                  </g>
                  <g id="Grupo_1224264" data-name="Grupo 1224264">
                    <path id="Trazado_1180558" data-name="Trazado 1180558" d="M41.16,55.53a1,1,0,0,1-1-1V51.86a1,1,0,0,1,2,0v2.67A1,1,0,0,1,41.16,55.53Z"/>
                  </g>
                </g>
                <g id="Grupo_1224268" data-name="Grupo 1224268">
                  <g id="Grupo_1224266" data-name="Grupo 1224266">
                    <path id="Trazado_1180559" data-name="Trazado 1180559" d="M15.46,10.27a.248.248,0,0,1-.25-.25V8.08a.25.25,0,0,1,.5,0v1.94A.248.248,0,0,1,15.46,10.27Z" fill="#fff"/>
                  </g>
                  <g id="Grupo_1224267" data-name="Grupo 1224267">
                    <path id="Trazado_1180560" data-name="Trazado 1180560" d="M15.46,11.77a.3.3,0,0,1-.1-.02.156.156,0,0,1-.08-.06.206.206,0,0,1-.07-.17.241.241,0,0,1,.07-.18.255.255,0,0,1,.43.18.214.214,0,0,1-.08.17.229.229,0,0,1-.17.08Z" fill="#fff"/>
                  </g>
                </g>
                <g id="Grupo_1224271" data-name="Grupo 1224271">
                  <g id="Grupo_1224269" data-name="Grupo 1224269">
                    <path id="Trazado_1180561" data-name="Trazado 1180561" d="M6.29,55.96a.248.248,0,0,1-.25-.25V52.77a.25.25,0,0,1,.5,0v2.94A.254.254,0,0,1,6.29,55.96Z" fill="#fff"/>
                  </g>
                  <g id="Grupo_1224270" data-name="Grupo 1224270">
                    <path id="Trazado_1180562" data-name="Trazado 1180562" d="M6.29,57.45a.241.241,0,0,1-.18-.07.218.218,0,0,1-.05-.08.3.3,0,0,1-.02-.1.254.254,0,0,1,.35-.23.417.417,0,0,1,.08.06.261.261,0,0,1,.07.17.3.3,0,0,1-.02.1.218.218,0,0,1-.05.08.241.241,0,0,1-.18.07Z" fill="#fff"/>
                  </g>
                </g>
              </g>
            </g>
            <g id="Grupo_1224103" data-name="Grupo 1224103" transform="translate(120.268 23.704)">
              <path id="Trazado_1179820" data-name="Trazado 1179820" d="M353.486,485.419,85.08,464.155v-280l268.406,21.265Z" transform="translate(-85.08 -91.791)" fill="#cf364a"/>
              <path id="Trazado_1179821" data-name="Trazado 1179821" d="M85.08,464.155l72.052,5.706,47.8-165.818h0a142.534,142.534,0,0,0,6.456-42.567,139.453,139.453,0,0,0-17.792-68.73L85.08,184.15v280Z" transform="translate(-85.08 -91.791)" fill="#ba3345"/>
              <path id="Trazado_1179822" data-name="Trazado 1179822" d="M217.64,250.178l-26.651-.3.995-88.343-25.694-.282.206-18.825,52.439-7.489Z" transform="translate(-13.872 -134.94)" fill="#cf364a"/>
            </g>
            <g id="Grupo_1224109" data-name="Grupo 1224109" transform="translate(12.795)">
              <g id="Grupo_1224109-2" data-name="Grupo 1224109" clip-path="url(#clip-path)">
                <path id="Trazado_1179840" data-name="Trazado 1179840" d="M200.615,243.366c-6.18,7.335-21.92,5.657-27.667-2.022-12.833-17.152-14.576-38.741-18.265-59.842-9.563-54.707,18.73-60.254,18.73-60.254,5.947,1.18,12.15,18.674,19.543,49.265,6.009,24.861,19.418,58.9,7.659,72.853" fill="#9e3b52"/>
                <path id="Trazado_1179841" data-name="Trazado 1179841" d="M203.627,244.8c16.647-7.566,32.009-48.8,33.029-59.354-6.9.522-12.95,0-22.7-.342-6.33,8.21-15.883,19.311-22.763,27.066-4.836,5.452-9.88,10.9-12.96,17.5s-3.907,14.722-.232,21.015c3.514,6.019,22.249-4.356,25.622-5.889" fill="#9e3b52"/>
                <path id="Trazado_1179842" data-name="Trazado 1179842" d="M181.232,490.842c-3.74.45-22.72,2.84-36.33,3.87-11.121.84-20.65.78-20.65-1.98,0-52.1,1.43-152.41,1.43-152.41-.1.63-.19,1.26-.29,1.89-8.46,55.91-18.27,151.47-22.93,152-9.72,1.1-48.27,1.75-60.51.08-1.36-24.92,4.69-118.39,14.04-182.9,4.16-28.75,8.99-51.75,14.1-60.36,13.99-23.56,86.54-23.35,97.28,3.98,7.25,18.45,11.679,37.37,14.23,57.83,5.869,46.91,1.919,101.94-.37,178" fill="#2a5c70"/>
                <path id="Trazado_1179843" data-name="Trazado 1179843" d="M181.6,312.842c-58.61,15.08-71.35-1.79-71.35-1.79-9.271,10.18-40.43,3.81-54.26.34,4.16-28.75,8.989-51.75,14.1-60.36,13.991-23.56,86.541-23.35,97.28,3.98,7.25,18.45,11.68,37.37,14.231,57.83" fill="#204c59"/>
                <path id="Trazado_1179844" data-name="Trazado 1179844" d="M133.785,495.556c-11.118.844-9.537-.064-9.537-2.82,0-52.108,1.527-153.045,1.431-152.415l8.031-.662Z" fill="#204c59"/>
                <path id="Trazado_1179845" data-name="Trazado 1179845" d="M67.549,294.788a1486.519,1486.519,0,0,0-17.01,155.751q-1.211,21.858-1.632,43.75a.375.375,0,0,0,.75,0C50.6,442.1,55.09,389.948,61.919,338.213q2.859-21.659,6.353-43.226c.077-.472-.646-.675-.723-.2" fill="#204651"/>
                <path id="Trazado_1179846" data-name="Trazado 1179846" d="M173.585,299.883c3.744,23.771,4.263,48.066,4.334,72.086.078,26.49-.808,52.976-1.947,79.439-.56,13-1.2,26-1.794,39-.022.482.728.481.75,0,1.124-24.48,2.346-48.956,3.068-73.452.783-26.556,1.145-53.175-.144-79.721a350.3,350.3,0,0,0-3.545-37.547c-.075-.476-.8-.274-.722.2" fill="#204651"/>
                <path id="Trazado_1179847" data-name="Trazado 1179847" d="M124.9,322.911a7.367,7.367,0,0,0,4.322-1.66c1.614-1.659,1.306-5.823,1.419-7.94.432-8.149-.333-16.3-.678-24.432-.021-.481-.771-.483-.75,0,.272,6.418.793,12.827.8,19.255a78.815,78.815,0,0,1-.466,9.331c-.252,2.142-.561,3.536-2.767,4.277a9.432,9.432,0,0,1-1.88.419c-.474.056-.479.806,0,.75" fill="#204651"/>
                <path id="Trazado_1179848" data-name="Trazado 1179848" d="M125.678,340.7a121.22,121.22,0,0,0,22.118-3.19c.469-.112.271-.836-.2-.723a120.2,120.2,0,0,1-21.919,3.163c-.48.025-.483.775,0,.75" fill="#204651"/>
                <path id="Trazado_1179849" data-name="Trazado 1179849" d="M161.781,90.1c-8.1,9.42-28.048,9.292-40.312,9.089-26.052-.438-50.162-3.642-52.794-10.061,0,0,9.412-4.187,7.145-38.181-.094-1.389.063-8.491.177-9.794a70.75,70.75,0,0,1,1.63-10.626C80,20.485,84.448,13.8,90.758,9.133a14.755,14.755,0,0,1,8-2.361,22.73,22.73,0,0,1,3.875-3.535C114.429-3,122.253,1.571,134.026,2.265c14.9.887,22.1,12.709,24.485,20.933.22.748.4,1.463.533,2.136,1.463,7.124.146,20.794-1.866,28.835-2.184,8.727-2.668,30,4.6,35.929" fill="#17333a"/>
                <path id="Trazado_1179850" data-name="Trazado 1179850" d="M85.065,107.856c-2.148,3.277-19.511,7.557-22.414,10.188-16.388,14.856,1.414,28.491,5.464,37.364C89.7,202.7,91.019,204.65,75.293,254.2c43.017,4.535,55.092,10.576,97.034,0-5.95-20.243-7.779-41.759-5.673-77.707.9-15.361,1.034-53.392,0-55.247-1.011-1.813-17.529-11.372-19.211-12.324Z" fill="#fff"/>
                <path id="Trazado_1179851" data-name="Trazado 1179851" d="M161.908,302.112c15.282,7.486,28.374.694,35.413-10.638-10.274-15.548-17.3-28.683-17.3-45.981,0-27.995,4.392-44.7,0-69.869-1.247-7.142-4.378-11.6-5.78-17.62-2.28-9.792-.5-18.6-.827-36.756-10.321-4.464-14.97-7.86-25.29-12.324,5.045,23.659,4.391,48.43,6.56,72.577,2.383,26.522-2.009,115.261,7.225,120.611" fill="#9e3b52"/>
                <path id="Trazado_1179852" data-name="Trazado 1179852" d="M129.992,143.776c4.856,24.979,5.659,50.915,6.344,76.288q.274,10.176.352,20.356a.375.375,0,0,0,.75,0c-.2-26.071-1.015-52.281-3.958-78.2-.708-6.242-1.566-12.473-2.765-18.641-.092-.474-.815-.273-.723.2" fill="#8eb2b1"/>
                <path id="Trazado_1179853" data-name="Trazado 1179853" d="M145.49,108.927c-2.67,5.276-11.492,33.087-15.262,33.087-4.827,0-39.089-32.275-38.864-33.963C91.62,106.2,96,105.189,96,105.189s.555-9.5.267-24.66c-.118-5.778-.363-12.378-.8-19.587,10.573,5.649,27.191,8.319,38.982,11.235-2.232,11.214-.256,21.83,1.26,27.533a44.1,44.1,0,0,0,1.356,4.368Z" fill="#f0aca1"/>
                <path id="Trazado_1179854" data-name="Trazado 1179854" d="M136.4,102.122c-9.655,5.308-20.735-1.188-30.261-8.515-4.069-3.129-7.32-8.9-9.872-13.079-.118-5.778-.364-12.378-.8-19.587,10.573,5.65,27.191,8.32,38.982,11.235-2.232,11.214.435,24.243,1.952,29.946" fill="#e09890"/>
                <path id="Trazado_1179855" data-name="Trazado 1179855" d="M96.106,93.83c-2.093-3.587-11.041,14.026-11.041,14.026l27.484,39.38,6.2-10.679,11.606,7.119,6.211-7.119,7.794,10.679s6.344-28.171,3.084-38.312c-1.418-4.415-13-14.294-13-14.294s2.284,34.517-4.216,47.388c0,0-24.613-31.9-34.119-48.188" fill="#e8e8e8"/>
                <path id="Trazado_1179856" data-name="Trazado 1179856" d="M85.474,107.537c1.075-3.3,3.51-5.77,5.619-8.435.709-.895,3.426-5.825,4.824-4.948.41.257.787-.392.378-.648-1.775-1.114-3.51,1.917-4.308,3.1-2.42,3.576-5.867,6.531-7.236,10.735-.15.46.574.657.723.2" fill="#8eb2b1"/>
                <path id="Trazado_1179857" data-name="Trazado 1179857" d="M134.618,95.152a169.863,169.863,0,0,1,12.5,13.961c.29.378.941,0,.647-.379a171.528,171.528,0,0,0-12.619-14.112c-.334-.35-.864.181-.53.53" fill="#8eb2b1"/>
                <path id="Trazado_1179858" data-name="Trazado 1179858" d="M84.789,107.626c8.211,13.845,18.115,26.7,27.8,39.526a.381.381,0,0,0,.648,0c1.072-1.829,2.084-3.691,3.105-5.549q.648-1.181,1.3-2.356c.856-1.528.88-2.015,2.543-1.36a34.1,34.1,0,0,1,4.892,3.047c1.681,1.044,3.372,2.071,5.082,3.066a.375.375,0,0,0,.379-.647c-3.923-2.285-7.74-4.742-11.606-7.12a.38.38,0,0,0-.513.135c-1.986,3.445-3.822,6.974-5.832,10.4h.648c-9.69-12.825-19.594-25.679-27.8-39.526a.376.376,0,0,0-.648.379" fill="#8eb2b1"/>
                <path id="Trazado_1179859" data-name="Trazado 1179859" d="M130.619,143.941c.793-1.021,5.26-6.807,6.053-6.568.524.157,1.44,1.936,1.776,2.4l1.738,2.382q1.638,2.243,3.274,4.486a.381.381,0,0,0,.686-.09,85.967,85.967,0,0,0,3.672-37.625c-.058-.472-.809-.478-.75,0a85.443,85.443,0,0,1-3.646,37.426l.686-.09q-3.61-4.945-7.219-9.892c-.125-.171-.427-.285-.589-.076-1.935,2.489-4.277,4.631-6.211,7.12-.293.376.234.911.53.53" fill="#8eb2b1"/>
                <path id="Trazado_1179860" data-name="Trazado 1179860" d="M142.949,102.726a41.865,41.865,0,0,1,10.666,8.764l10.666,39.342-8,4.771,8,13.264-8.452,47.894s-5.349-46.505-5.823-57.117-2.639-47.724-7.057-56.918" fill="#84304a"/>
                <path id="Trazado_1179861" data-name="Trazado 1179861" d="M161.292,182.776a105.725,105.725,0,0,0,2.852-11.225c.467-2.3.613-2.588-.551-4.614-.953-1.659-1.9-3.318-2.881-4.962q-.9-1.518-1.834-3.02c-.409-.659-1.9-2.295-1.79-3.063.153-1.04,3.565-2.46,4.578-3.064l2.8-1.672a.388.388,0,0,0,.173-.424c-2.67-12.856-6.887-25.43-10.328-38.093a.375.375,0,0,0-.723.2c2.407,8.858,4.984,17.669,7.4,26.524.929,3.4,1.505,7.069,2.67,10.389.208.594.282.694.125.936-.251.383-1.295.772-1.694,1.01l-6.005,3.581a.379.379,0,0,0-.135.513c1.8,2.719,3.495,5.5,5.137,8.311.748,1.282,2.589,3.525,2.783,4.9.205,1.446-.728,3.688-1.04,5.082-.641,2.862-1.372,5.7-2.268,8.495-.148.46.576.657.723.2" fill="#722a3d"/>
                <path id="Trazado_1179862" data-name="Trazado 1179862" d="M172.929,129.5c.367,10.087-1.418,20.715,1.469,30.555,1.14,3.889,3.075,7.522,4.437,11.339a40.582,40.582,0,0,1,2.284,15.589c-.026.482.724.48.75,0a42.05,42.05,0,0,0-1.766-14.133c-1.19-3.97-3.164-7.634-4.516-11.536-3.51-10.127-1.526-21.326-1.908-31.814-.018-.481-.768-.483-.75,0" fill="#722a3d"/>
                <path id="Trazado_1179863" data-name="Trazado 1179863" d="M108.057,300.271c-.16.5-.31.972-.47,1.431-3.556,10.434-31.08,8.277-58.207.769,11.652-31.485,12.123-39.014,17.2-72.208,1.463-9.569-9.495-22.481-14.675-52.951-2.381-13.981-6.545-29.52-4.73-52.269,0-2.2,33.94-16.415,37.892-17.184,6.408,15.048,19.993,50.143,22.236,61,12.357,59.851,6.728,112.162.758,131.407" fill="#9e3b52"/>
                <path id="Trazado_1179864" data-name="Trazado 1179864" d="M108.057,300.271c-.16.5-.31.972-.47,1.431-3.556,10.434-31.08,8.277-58.207.769,2.4-29.02,12.123-39.014,17.2-72.208,1.463-9.569-9.495-22.481-14.675-52.951l3.461-4.422L67.5,190.95s15.475,32.19,13.019,46.3-20.356,55.365-11.535,63.247c7.06,6.312,29.242,4.625,39.068-.224" fill="#84304a"/>
                <rect id="Rectángulo_421890" data-name="Rectángulo 421890" width="4.628" height="27.178" transform="translate(218.413 128.429)" fill="#d37739"/>
                <path id="Trazado_1179865" data-name="Trazado 1179865" d="M244.691,115.9a23.964,23.964,0,1,1-23.964-23.964A23.964,23.964,0,0,1,244.691,115.9" fill="#ec8a47"/>
                <path id="Trazado_1179866" data-name="Trazado 1179866" d="M241.665,115.9A20.938,20.938,0,1,1,220.727,94.96,20.938,20.938,0,0,1,241.665,115.9" fill="#b2d1d8"/>
                <path id="Trazado_1179867" data-name="Trazado 1179867" d="M224.324,148.426h-7.2a1.03,1.03,0,0,0-1.03,1.031v31.365a4.628,4.628,0,0,0,9.256,0V149.457a1.031,1.031,0,0,0-1.031-1.031" fill="#366d89"/>
                <path id="Trazado_1179868" data-name="Trazado 1179868" d="M230.187,108.808a4.73,4.73,0,1,1-4.73-4.73,4.73,4.73,0,0,1,4.73,4.73" fill="#fff"/>
                <path id="Trazado_1179869" data-name="Trazado 1179869" d="M234.611,119.946a2.492,2.492,0,1,1-2.492-2.492,2.492,2.492,0,0,1,2.492,2.492" fill="#fff"/>
                <path id="Trazado_1179870" data-name="Trazado 1179870" d="M231.677,162.329c-1.188-2.055-3.851-6.875-6.22-6.722-.343,1.3-.093,5.66-.031,7-2.959.127-5.351-.76-8.194-1.588-1.6-.466-5.141-.569-5.541,1.7-.378,2.14,1.59,3.787,3.2,4.216,0,0-3.177-1.131-4.143,1.059s.06,4.622,2.44,4.871c-2.67-.011-3.978,1.384-3.613,3.211.456,2.286,3.051,3.064,3.051,3.064.8,1.286-3.812.787-.8,5.206,1.319,1.935,24.885,4.2,24.832,1.1-.151-8.764-.347-15.108-4.979-23.121" fill="#f0aca1"/>
                <path id="Trazado_1179871" data-name="Trazado 1179871" d="M214.79,167.3a34.946,34.946,0,0,0,8.138,1.929c.473.073.676-.649.2-.723a35,35,0,0,1-8.139-1.929c-.446-.183-.64.542-.2.723" fill="#bc6561"/>
                <path id="Trazado_1179872" data-name="Trazado 1179872" d="M212.487,173.256a42.288,42.288,0,0,0,9.082,2.257c.481.043.478-.708,0-.75a41.536,41.536,0,0,1-8.883-2.23c-.46-.148-.658.576-.2.723" fill="#bc6561"/>
                <path id="Trazado_1179873" data-name="Trazado 1179873" d="M112.666,296.136c-11.067-32.162,18.5-91.939,37.34-109.27,15.117-13.9,70.362-12.581,94.926-3.677,0,0-70.394,77.612-42.72,113.212,0,0-34.189,12.972-59.452,13.161-19.012.142-25.472,0-30.094-13.426" fill="#e8e8e8"/>
                <path id="Trazado_1179874" data-name="Trazado 1179874" d="M115.171,265.38c7.125.054,26.368-4.872,26.368-7.1,0-3.848-9.922-.268-13.227-.772a57.2,57.2,0,0,0,9.278-3.738c4.429-2.326,8.374-5.746,8.151-6.458-.736-2.357-2.887-1.893-7.382-.869,0,0,9.675-5.835,9.3-6.961-2.2-4.007-11.222,2.088-10.6.933,0,0,5.326-6.557,4.806-6.9-2.8-2.841-7.133,2.576-13.083,4.808-2.743,1.029-5.752.171-9.879.224l3.388-7.873c-2.94-.022-4.459,2.8-12.041,3.334-6.256.44-8.19,4.686-14.042,6.942-1.19.458-4.318-2.99-5.02-1.925a6.811,6.811,0,0,0-.84,2.958q-.973,7.791-1.944,15.582c6.106,4.606,19.258,7.754,26.762,7.811" fill="#f0aca1"/>
                <path id="Trazado_1179875" data-name="Trazado 1179875" d="M90.962,236.771h8.9s2.493,19.936,0,27.056l-9.79-1.036Z" fill="#fff"/>
                <path id="Trazado_1179876" data-name="Trazado 1179876" d="M.427,236.593c8.921,25.7,79.32,30.26,96.765,27.768a185.4,185.4,0,0,0-.387-29.12c-6.815-1.385-30.828-10.253-46.251-13.6,12.1-18.608,13.218-17.4,17.7-37.673,4.706-21.29-11.787-58.926-21.081-58.926-10.654,0-49.054,104.9-46.746,111.551" fill="#9e3b52"/>
                <path id="Trazado_1179877" data-name="Trazado 1179877" d="M150.006,186.866s8.637-7.126,17.144-1.018c3.675,2.638,8.492,8.087,5.177,16.481,0,0-8.124,7.566-13.684,0s3.774-13.557,8.729-6.779c0,0-3.517-8.62-10.975-2.39-6.391,5.341-1.933,16.725,10.975,15.675,17.752-1.446,27.364-5.528,66.346,0,0,0,12.942-.492,15.612-8.732s-.658-15.676-4.4-16.914-65.964-16.5-94.926,3.677" fill="#fff"/>
                <path id="Trazado_1179878" data-name="Trazado 1179878" d="M128.879,288.911s9.966,9.063,0,12.474-12-9.439-5.874-14.774c7.352-6.408,53.282-4.992,74.612-13.087,0,0,14.211-2.043,14.21,15.4,0,7.832-7.678,13.172-11.673,12.492,0,0-59.842,13.925-76.4,8.287-9.794-3.335-11.082-13.568-11.082-13.568s4.3,15.4,17.989,12.013,14.109-21.613,2.874-22.8-16.084,7.881-11.234,12.472,11.92,1.424,6.583-8.914" fill="#fff"/>
                <path id="Trazado_1179879" data-name="Trazado 1179879" d="M124,246.135c7.51-.745,15.025-5.114,18.161-12.09.2-.436-.45-.818-.647-.378-3.014,6.7-10.268,11-17.514,11.718-.476.047-.481.8,0,.75" fill="#bc6561"/>
                <path id="Trazado_1179880" data-name="Trazado 1179880" d="M124.1,253.063a47.509,47.509,0,0,0,13.418-5.694c3.546-2.036,7.422-4.164,10.133-7.3.315-.364-.214-.9-.53-.531-2.671,3.086-6.483,5.17-9.981,7.179A46.912,46.912,0,0,1,123.9,252.34c-.472.1-.272.826.2.723" fill="#bc6561"/>
                <path id="Trazado_1179881" data-name="Trazado 1179881" d="M125.491,258.647c7.59-1.9,14.639-4.923,20.231-10.575.339-.344-.191-.874-.531-.53-5.5,5.56-12.436,8.509-19.9,10.382a.375.375,0,0,0,.2.723" fill="#bc6561"/>
                <path id="Trazado_1179882" data-name="Trazado 1179882" d="M110.607,88.617c6.767,3.464,16.793,8.693,23.413,4.945,5.519-3.124,12.985-13.932,15.284-19.937,2.276-5.945.177-13.625.967-19.958.477-3.827,1.645-7.257,1.56-11.115-.168-7.66-1.856-15.117-7-20.69-3.292-3.566-4.909-5.394-9.434-7.023-7.615-2.74-16.759-3.913-23.2,1.062-23.416,18.081-28.273,59.055-1.588,72.716" fill="#f0aca1"/>
                <path id="Trazado_1179883" data-name="Trazado 1179883" d="M97.5,52.33c10.53-14.393,11.289-27.839,10.91-30.314,5.266,2.967,8.177,12.962,30.414,11.331,7.221-.53,4.974,10.8,18.307,10.453,2.436-15.291-2.514-30.631-13.755-37.007-3.463-1.964-14.844-3.615-18.8-3.56-6.758.094-19.466,2.544-24.408,7.256-5.867,5.593-11.59,7.142-13.543,30.163,0,0-.76,11.489,10.878,11.678" fill="#17333a"/>
                <path id="Trazado_1179884" data-name="Trazado 1179884" d="M139.594,9.837l1.692,3.877A50.767,50.767,0,0,0,124.97,8.107a39.978,39.978,0,0,0,7,8.191c-7.1,1.261-13.841-6.835-20.672-4.528.219,1.549.438,3.1.658,4.635-2.319-1.089-4.743-2.211-7.3-2.189s-5.307,1.548-5.9,4.09a2.19,2.19,0,0,0-2.842.31,6.639,6.639,0,0,0-1.462,2.8,14.781,14.781,0,0,0,.313-6.344,53.753,53.753,0,0,0-9.412,17.1A38.769,38.769,0,0,1,87.52,18.4c-.742,2.094-5.1,4.935-6.55,6.921-1.211,1.645-2.172,3.5-3.342,5.2C80,20.485,84.449,13.8,90.758,9.132a14.756,14.756,0,0,1,8-2.36,22.707,22.707,0,0,1,3.876-3.535c11.793-6.237,19.618-1.666,31.39-.972,14.9.886,22.1,12.709,24.486,20.933-5.317-6.024-11.355-11.289-18.918-13.361" fill="#2b5660"/>
                <path id="Trazado_1179885" data-name="Trazado 1179885" d="M95.191,59.148c-.749-4.892-7.024-13.607-11.674-7.694-5.695,7.241-.9,14.04,1.014,17.491s5.638,5.629,8.778,4.1c3.679-1.8,1.882-13.893,1.882-13.893" fill="#f0aca1"/>
                <path id="Trazado_1179886" data-name="Trazado 1179886" d="M121.337,78.19a16.328,16.328,0,0,0,12.942-.467c.583-.269.076-1.132-.505-.863a15.35,15.35,0,0,1-12.171.366c-.6-.231-.862.735-.266.964" fill="#bc6561"/>
                <path id="Trazado_1179887" data-name="Trazado 1179887" d="M125.8,82.6h4.353a.375.375,0,0,0,0-.75H125.8a.375.375,0,0,0,0,.75" fill="#c6817b"/>
                <path id="Trazado_1179888" data-name="Trazado 1179888" d="M116.4,54.169a3.155,3.155,0,1,1-3.154-3.225,3.19,3.19,0,0,1,3.154,3.225" fill="#17333a"/>
                <path id="Trazado_1179889" data-name="Trazado 1179889" d="M141.509,54.169a3.155,3.155,0,1,1-3.154-3.225,3.19,3.19,0,0,1,3.154,3.225" fill="#17333a"/>
                <path id="Trazado_1179890" data-name="Trazado 1179890" d="M98.765,42.1s-3.325,18.327,0,24.755c0,0-9.256,0-10.334-26.208,0,0,5.93-6.984,10.334,1.453" fill="#17333a"/>
                <path id="Trazado_1179891" data-name="Trazado 1179891" d="M88.53,53.457c-7.616-1.584-6.17,13.507-.306,14.185.478.055.474-.695,0-.75-4.762-.551-6.252-14.034.107-12.712.471.1.672-.625.2-.723" fill="#c6817b"/>
                <path id="Trazado_1179892" data-name="Trazado 1179892" d="M112.73,66.242A4.728,4.728,0,1,1,108,61.409a4.781,4.781,0,0,1,4.727,4.833" fill="#e5948c"/>
                <path id="Trazado_1179893" data-name="Trazado 1179893" d="M150.27,64.472a4.728,4.728,0,1,1-4.727-4.833,4.781,4.781,0,0,1,4.727,4.833" fill="#e5948c"/>
                <path id="Trazado_1179894" data-name="Trazado 1179894" d="M127.528,51.974c-1.14,4.88.069,9.737,2.313,14.122.2.388,2.088,2.943,1.947,3.376-.039.117-2.1.89-2.44,1.053a10.77,10.77,0,0,0-2.105,1.2c-.506.4.206,1.1.708.707,1.757-1.377,5.814-1.567,4.19-4.3-2.866-4.83-4.977-10.2-3.649-15.887.147-.626-.817-.893-.964-.266" fill="#bc6561"/>
                <path id="Trazado_1179895" data-name="Trazado 1179895" d="M92.535,69.7a1.776,1.776,0,1,1-1.776-1.816A1.8,1.8,0,0,1,92.535,69.7" fill="#fff"/>
                <path id="Trazado_1179896" data-name="Trazado 1179896" d="M106.384,48.173s7.834-2.53,13.668-1.065a1.669,1.669,0,0,0,1.333-2.264c-.667-1.864-16-.133-15,3.329" fill="#17333a"/>
                <path id="Trazado_1179897" data-name="Trazado 1179897" d="M147.413,48.173s-7.834-2.53-13.668-1.065a1.669,1.669,0,0,1-1.333-2.264c.667-1.864,16-.133,15,3.329" fill="#17333a"/>
                <path id="Trazado_1179898" data-name="Trazado 1179898" d="M94.519,71.294c1.906,3.532,3.5,7.565,6.272,10.538,3.185,3.419,7.755,6.083,11.837,8.258A49.707,49.707,0,0,0,125.2,94.7c3.22.71,6.13.858,9.012-.813a.375.375,0,0,0-.379-.647c-3.241,1.878-6.681,1.241-10.174.308a50.147,50.147,0,0,1-12.2-4.969c-3.6-2.08-7.708-4.478-10.46-7.641-2.512-2.887-4.025-6.685-5.825-10.021-.23-.423-.877-.045-.648.379" fill="#c6817b"/>
                <path id="Trazado_1179899" data-name="Trazado 1179899" d="M64.183,150.629c3.387,8,4.464,17.776,4.387,26.392A57.813,57.813,0,0,1,59.7,206.986c-.266.4.383.78.648.378a50.837,50.837,0,0,0,6.389-14.721,60.88,60.88,0,0,0,2.58-15.622c.078-8.742-1.057-18.664-4.489-26.771-.188-.443-.834-.061-.648.379" fill="#722a3d"/>
                <path id="Trazado_1179900" data-name="Trazado 1179900" d="M36.574,228.588a15.908,15.908,0,0,1,11.685-6.113c4.857-.237,10.144,1.436,14.787,2.749,8.177,2.312,16.044,5.57,24.185,7.992,2.238.666,4.493,1.272,6.767,1.8,1.139.264,2.176.263,2.664,1.467a15.682,15.682,0,0,1,.527,4.281,107.822,107.822,0,0,1,.007,13.112c-.089,2.026-.2,4.05-.276,6.076-.034.877-.064,1.755-.082,2.633-.032,1.49-.143,1.5-1.575,1.679a70.867,70.867,0,0,1-8.53.451c-12.9.012-25.828-1.828-38.525-3.953-6.732-1.126-13.294-2.224-19.727-4.556a88.808,88.808,0,0,1-17.1-8.084C6.88,245.286.875,241,.75,235.08a.375.375,0,0,0-.75,0c.135,6.4,6.566,10.957,11.47,13.977A92.948,92.948,0,0,0,31.9,258.163a89.784,89.784,0,0,0,11.721,2.563c8.082,1.435,16.2,2.673,24.366,3.563,9.628,1.051,19.685,1.989,29.309.433a.377.377,0,0,0,.276-.361c.047-9.726,1.522-19.583-.4-29.22a.365.365,0,0,0-.262-.261c-11.141-2.319-21.549-6.825-32.429-10.024-5.289-1.555-11.391-3.574-16.967-3.083a16.561,16.561,0,0,0-11.465,6.285c-.3.373.229.908.53.53" fill="#722a3d"/>
                <path id="Trazado_1179901" data-name="Trazado 1179901" d="M48.108,126.591a80.617,80.617,0,0,1,6.759,9.987.375.375,0,0,0,.648-.378,81.773,81.773,0,0,0-6.877-10.139c-.3-.378-.827.156-.53.53" fill="#722a3d"/>
                <path id="Trazado_1179902" data-name="Trazado 1179902" d="M152.78,199.246c.739,4.811,4.826,8.155,9.366,9.366,6.445,1.72,13.431-.317,19.881-1.011a174.5,174.5,0,0,1,43.262.982c.314.045.45-.436.132-.482a179.742,179.742,0,0,0-38.116-1.468c-6.352.45-12.68,1.929-19.034,2.093s-13.914-2.489-15.009-9.613c-.049-.317-.531-.182-.482.133" fill="#c5c8c9"/>
                <path id="Trazado_1179903" data-name="Trazado 1179903" d="M126.767,301.6c-3.683-.105-6.527-2.047-7.142-5.8a10.128,10.128,0,0,1,1.961-7.881c2.428-2.879,6.669-4.048,10.2-4.812a81.023,81.023,0,0,1,12-1.236,350.74,350.74,0,0,0,52.839-7.723c.314-.069.181-.551-.133-.482a348.931,348.931,0,0,1-49.908,7.514c-8.746.631-26.545-.143-27.542,12.121-.41,5.039,2.645,8.657,7.721,8.8a.25.25,0,0,0,0-.5" fill="#c5c8c9"/>
                <path id="Trazado_1179904" data-name="Trazado 1179904" d="M119.149,238.617c4.208-10.064,8.59-20.276,14.282-29.606,4.987-8.174,10.549-17.432,18.324-23.253.254-.191,0-.625-.252-.432-7.711,5.774-13.274,14.912-18.241,23-5.831,9.5-10.3,19.892-14.595,30.154-.124.3.36.426.482.133" fill="#c5c8c9"/>
                <path id="Trazado_1179905" data-name="Trazado 1179905" d="M87.831,102.527s-5.5,1.429-12.9,9.342l6.45,45.413,14.725,2.37-4.743,16.842,22.468,40.267s-1.2-43.1-13.8-76.9c-5.365-14.4-12.6-26.324-12.2-37.335" fill="#84304a"/>
                <path id="Trazado_1179906" data-name="Trazado 1179906" d="M74.569,113c2.1,14.786,3.725,29.691,6.45,44.38a.363.363,0,0,0,.262.262c3.692.588,7.353,1.368,11.051,1.912q.725.106,1.451.2.75.1,1.5.181.579-.3.236.237c.16.778-.861,2.711-1.09,3.493-.787,2.687-1.515,5.392-2.229,8.1-.34,1.288-1.255,3.253-1.194,4.606.05,1.122,1.311,2.605,1.86,3.589q1.6,2.869,3.2,5.737l6.641,11.9,10.8,19.351c.235.421.883.044.648-.379l-18.58-33.3q-1.372-2.461-2.747-4.923a4.876,4.876,0,0,1-.99-2.2c-.039-1.337.814-3.152,1.153-4.435,1.057-4,2.041-8.076,3.476-11.961.093-.252-.141-.451-.361-.475-2.415-.263-4.81-.617-7.2-1.054-1.634-.3-6.455-.432-7.293-1.734a9.237,9.237,0,0,1-.445-2.558q-.243-1.455-.472-2.911-.553-3.512-1.06-7.03c-1.513-10.387-2.872-20.8-4.345-31.187-.067-.476-.79-.274-.723.2" fill="#722a3d"/>
              </g>
            </g>
          </g>
        </g>
        <g id="work-life-balance_12278473" transform="translate(448.074 241.632)">
          <path id="Trazado_1180505" data-name="Trazado 1180505" d="M63.365,35.3a5.409,5.409,0,0,1,4.341,2.2,5.4,5.4,0,0,1,9.742,3.2c0,3.915-7.14,10.379-9.285,12.216a.7.7,0,0,1-.918-.005c-2.719-2.357-9.28-8.158-9.28-12.21a5.415,5.415,0,0,1,5.4-5.4ZM21.5,35.922v-1.5a2.774,2.774,0,0,1,2.792-2.74h9.324a2.774,2.774,0,0,1,2.792,2.74v1.5h3.331a2.161,2.161,0,0,1,2.171,2.134v5.726a.7.7,0,0,1-.431.649v6.493a1.959,1.959,0,0,1-1.966,1.934H18.4a1.959,1.959,0,0,1-1.966-1.934V44.43a.7.7,0,0,1-.43-.649V38.055a2.161,2.161,0,0,1,2.17-2.134Zm29.667,8.388-.226-4.884a2.75,2.75,0,0,0-.791-1.819,2.591,2.591,0,0,0-4.405,1.819l-.226,4.884a4.938,4.938,0,0,0-.358,7.823l-.443,10.441a4.726,4.726,0,0,0-.4.558l-13.244.347v-.886h3.183a2.7,2.7,0,0,0,2.458-2.87V57.867a2.065,2.065,0,0,0-1.206-3.734H22.447a2.065,2.065,0,0,0-1.206,3.734v1.854a2.7,2.7,0,0,0,2.458,2.87h3.183v.725c-.811-.043-1.447-.158-2.078.557-1.1,1.245-.4,3.445,1.189,3.525l1.566.079a1.65,1.65,0,0,0,2.733.138l14.133.7L43.94,78.727a3.275,3.275,0,0,0-2.592,3.194v1.857h-2.92a2.673,2.673,0,0,0-2.667,2.667v1.963a.7.7,0,0,0,.7.7H60.221a.7.7,0,0,0,.7-.7V86.445a2.673,2.673,0,0,0-2.668-2.667H55.337V81.921a3.275,3.275,0,0,0-2.592-3.194l-.484-10.408,14.133-.7a1.65,1.65,0,0,0,2.733-.138l1.566-.079c1.589-.081,2.291-2.279,1.189-3.525-.61-.689-1.256-.615-2.079-.564v-.718h3.183a2.7,2.7,0,0,0,2.458-2.87V57.867a2.064,2.064,0,0,0-1.206-3.734H61.173a2.065,2.065,0,0,0-1.206,3.734v1.854a2.7,2.7,0,0,0,2.458,2.87h3.183v.886l-13.244-.347a4.711,4.711,0,0,0-.365-.52l-.473-10.479a4.938,4.938,0,0,0-.358-7.822ZM32.353,35.922v-.714h-6.8v.714Z" transform="translate(0 0)" fill-rule="evenodd"/>
          <path id="Trazado_1180506" data-name="Trazado 1180506" d="M248.554,271.6a3.292,3.292,0,1,0,0,4.656A3.3,3.3,0,0,0,248.554,271.6Zm-2.328.208a2.119,2.119,0,1,1-2.119,2.119,2.122,2.122,0,0,1,2.119-2.119Z" transform="translate(-197.883 -208.363)" fill="gray" fill-rule="evenodd"/>
          <path id="Trazado_1180507" data-name="Trazado 1180507" d="M358.793,70.9a4.007,4.007,0,0,0-3.993,3.993c0,3.253,6.007,8.732,8.334,10.755,1.833-1.61,8.336-7.627,8.336-10.754a3.993,3.993,0,0,0-7.686-1.517.7.7,0,0,1-1.3,0A4,4,0,0,0,358.793,70.9Z" transform="translate(-295.428 -34.198)" fill="#f8423f" fill-rule="evenodd"/>
          <path id="Trazado_1180508" data-name="Trazado 1180508" d="M259.19,88.245a4.932,4.932,0,0,1,1.388.2l-.192-4.135a1.188,1.188,0,0,0-2.009-.885,1.338,1.338,0,0,0-.384.885l-.192,4.135A4.933,4.933,0,0,1,259.19,88.245Z" transform="translate(-210.847 -44.823)" fill="#b3b3b3" fill-rule="evenodd"/>
          <path id="Trazado_1180509" data-name="Trazado 1180509" d="M255.677,197.84a4.953,4.953,0,0,1-3.629,0l-.358,8.443a4.7,4.7,0,0,1,4.369.014Z" transform="translate(-205.518 -144.89)" fill="#b3b3b3" fill-rule="evenodd"/>
          <circle id="Elipse_14745" data-name="Elipse 14745" cx="3.529" cy="3.529" r="3.529" transform="translate(44.814 44.829)" fill="gray"/>
          <g id="Grupo_1224242" data-name="Grupo 1224242" transform="translate(17.407 33.085)">
            <path id="Trazado_1180510" data-name="Trazado 1180510" d="M245.261,336.265h5.989l-.426-9.158a4.7,4.7,0,0,1-5.137,0Z" transform="translate(-217.319 -290.695)" fill="#b3b3b3" fill-rule="evenodd"/>
            <path id="Trazado_1180511" data-name="Trazado 1180511" d="M234.326,409.639h-7.458a1.865,1.865,0,0,0-1.857,1.858v1.858h11.173V411.5A1.865,1.865,0,0,0,234.326,409.639Z" transform="translate(-199.66 -362.661)" fill="#b3b3b3" fill-rule="evenodd"/>
            <path id="Trazado_1180512" data-name="Trazado 1180512" d="M202.451,449.652h-19.83a1.265,1.265,0,0,0-1.259,1.26v1.259h22.349v-1.259A1.265,1.265,0,0,0,202.451,449.652Z" transform="translate(-161.6 -397.552)" fill="gray" fill-rule="evenodd"/>
            <path id="Trazado_1180513" data-name="Trazado 1180513" d="M264.3,291.009a.712.712,0,1,0,0,1.007A.712.712,0,0,0,264.3,291.009Z" transform="translate(-232.863 -259.036)" fill="#b3b3b3" fill-rule="evenodd"/>
            <path id="Trazado_1180514" data-name="Trazado 1180514" d="M316.639,288.774l-12.676-.332a4.728,4.728,0,0,1-.079,2.336l12.881-.64A5.086,5.086,0,0,1,316.639,288.774Z" transform="translate(-268.437 -256.979)" fill="#b3b3b3" fill-rule="evenodd"/>
            <path id="Trazado_1180515" data-name="Trazado 1180515" d="M435.648,290.845l.906-.046c.318-.016.574-.777.2-1.194a.309.309,0,0,0-.219-.121l-.81.041A6.178,6.178,0,0,1,435.648,290.845Z" transform="translate(-383.333 -257.888)" fill="#b3b3b3" fill-rule="evenodd"/>
            <path id="Trazado_1180516" data-name="Trazado 1180516" d="M414.508,273.159v2.575a2.742,2.742,0,0,0,.313,1.346c.272.469.482.469.754,0a2.742,2.742,0,0,0,.313-1.346v-2.575Z" transform="translate(-364.898 -243.653)" fill="#b3b3b3" fill-rule="evenodd"/>
            <path id="Trazado_1180517" data-name="Trazado 1180517" d="M370.446,239.3v1.463c0,.693.413,1.463,1.051,1.463h10.561c.638,0,1.051-.77,1.051-1.463V239.3Z" transform="translate(-326.478 -214.133)" fill="gray" fill-rule="evenodd"/>
            <path id="Trazado_1180518" data-name="Trazado 1180518" d="M377.473,218.072H364.407a.656.656,0,1,0,0,1.311h13.066a.656.656,0,1,0,0-1.311Z" transform="translate(-320.64 -195.617)" fill="gray" fill-rule="evenodd"/>
            <path id="Trazado_1180519" data-name="Trazado 1180519" d="M145.6,288.442l-12.676.332a5.091,5.091,0,0,1-.126,1.363l12.881.641A4.73,4.73,0,0,1,145.6,288.442Z" transform="translate(-119.251 -256.979)" fill="#b3b3b3" fill-rule="evenodd"/>
            <path id="Trazado_1180520" data-name="Trazado 1180520" d="M92.759,289.526l-.81-.041c-.3-.008-.588.7-.247,1.157a.342.342,0,0,0,.233.158l.906.046A6.179,6.179,0,0,1,92.759,289.526Z" transform="translate(-83.283 -257.888)" fill="#b3b3b3" fill-rule="evenodd"/>
            <path id="Trazado_1180521" data-name="Trazado 1180521" d="M111.994,273.159v2.575a2.741,2.741,0,0,0,.313,1.346c.272.469.482.469.754,0a2.742,2.742,0,0,0,.313-1.346v-2.575Z" transform="translate(-101.111 -243.653)" fill="#b3b3b3" fill-rule="evenodd"/>
            <path id="Trazado_1180522" data-name="Trazado 1180522" d="M67.935,239.3v1.463c0,.693.413,1.463,1.051,1.463H79.547c.638,0,1.051-.77,1.051-1.463V239.3Z" transform="translate(-62.693 -214.133)" fill="gray" fill-rule="evenodd"/>
            <path id="Trazado_1180523" data-name="Trazado 1180523" d="M74.963,218.072H61.9a.656.656,0,1,0,0,1.311H74.963a.656.656,0,1,0,0-1.311Z" transform="translate(-56.856 -195.617)" fill="gray" fill-rule="evenodd"/>
            <path id="Trazado_1180524" data-name="Trazado 1180524" d="M44.069,80.869A2,2,0,0,1,46.011,82.4l4.075-.719V76.541a.746.746,0,0,0-.763-.726H27.752a.746.746,0,0,0-.763.726v5.136l4.075.719a2,2,0,0,1,3.941.472v.223l3.533.623,3.533-.623v-.223a2,2,0,0,1,2-2Z" transform="translate(-26.989 -71.571)" fill="#bf9b76" fill-rule="evenodd"/>
            <path id="Trazado_1180525" data-name="Trazado 1180525" d="M49,133.995v1.453a.7.7,0,0,1-.7.7h-2.59a.7.7,0,0,1-.7-.7V134.7l-3.4.6a.7.7,0,0,1-.257,0l-3.412-.6v.748a.7.7,0,0,1-.7.7H34.644a.7.7,0,0,1-.7-.7v-1.453l-3.587-.633v6.228a.543.543,0,0,0,.559.527H52.029a.543.543,0,0,0,.559-.527v-6.228Z" transform="translate(-29.921 -121.752)" fill="#ad8966" fill-rule="evenodd"/>
            <path id="Trazado_1180526" data-name="Trazado 1180526" d="M156.8,126.479a.592.592,0,0,0-1.009.417v1.7h1.183v-1.7A.59.59,0,0,0,156.8,126.479Z" transform="translate(-139.302 -115.6)" fill="#c7c1b3" fill-rule="evenodd"/>
            <path id="Trazado_1180527" data-name="Trazado 1180527" d="M70.381,126.479a.592.592,0,0,0-1.009.417v1.7h1.183v-1.7A.59.59,0,0,0,70.381,126.479Z" transform="translate(-63.946 -115.6)" fill="#c7c1b3" fill-rule="evenodd"/>
            <path id="Trazado_1180528" data-name="Trazado 1180528" d="M71.207,45.505v-.958a1.243,1.243,0,0,1,1.311-1.164h6.99a1.243,1.243,0,0,1,1.311,1.164v.958h1.242V44a1.358,1.358,0,0,0-1.385-1.332H71.35A1.358,1.358,0,0,0,69.965,44v1.5Z" transform="translate(-64.463 -42.669)" fill="#ad8966" fill-rule="evenodd"/>
          </g>
        </g>
      </g>
      <g transform="matrix(1, 0, 0, 1, 393, 2743.61)" filter="url(#Rectángulo_419643)">
        <rect id="Rectángulo_419643-2" data-name="Rectángulo 419643" width="117.103" height="41" rx="20.5" transform="translate(236 252.39)" fill="#fff"/>
      </g>
      <g transform="matrix(1, 0, 0, 1, 393, 2743.61)" filter="url(#Rectángulo_421892)">
        <rect id="Rectángulo_421892-2" data-name="Rectángulo 421892" width="117.103" height="41" rx="20.5" transform="translate(404 228.89)" fill="#fff"/>
      </g>
      <g transform="matrix(1, 0, 0, 1, 393, 2743.61)" filter="url(#Rectángulo_421894)">
        <rect id="Rectángulo_421894-2" data-name="Rectángulo 421894" width="124.103" height="48" rx="24" transform="translate(715 231.39)" fill="#fff"/>
      </g>
      <path id="Trazado_1180615" data-name="Trazado 1180615" d="M8.086,0V-5.141h-4.5V0H1.2V-11.516H3.586v4.391h4.5v-4.391h2.391V0ZM19.7-7.437a4.969,4.969,0,0,1,1.078,3.2A4.936,4.936,0,0,1,19.7-1.035,3.961,3.961,0,0,1,16.423.3,3.961,3.961,0,0,1,13.15-1.035a4.936,4.936,0,0,1-1.078-3.207,4.969,4.969,0,0,1,1.078-3.2,3.934,3.934,0,0,1,3.273-1.352A3.934,3.934,0,0,1,19.7-7.437Zm-3.281.531a1.779,1.779,0,0,0-1.5.691,3.2,3.2,0,0,0-.527,1.973,3.217,3.217,0,0,0,.527,1.977,1.775,1.775,0,0,0,1.5.7,1.765,1.765,0,0,0,1.5-.7,3.235,3.235,0,0,0,.523-1.977,3.217,3.217,0,0,0-.523-1.973A1.769,1.769,0,0,0,16.416-6.906Zm9.963.039a1.55,1.55,0,0,0-1.555.961,3.3,3.3,0,0,0-.219,1.3V0H22.386V-8.5h2.148v1.242a3.78,3.78,0,0,1,.813-.945,2.824,2.824,0,0,1,1.742-.516,3.287,3.287,0,0,1,2.16.691,2.811,2.811,0,0,1,.84,2.293V0H27.808V-5.18a2.364,2.364,0,0,0-.18-1.031A1.264,1.264,0,0,0,26.378-6.867ZM39.434-2.5a2.824,2.824,0,0,1-.789,1.539A3.866,3.866,0,0,1,35.583.281,4.318,4.318,0,0,1,32.716-.766a4.222,4.222,0,0,1-1.242-3.406,4.734,4.734,0,0,1,1.121-3.391,3.833,3.833,0,0,1,2.91-1.18,4.463,4.463,0,0,1,1.914.4,3.353,3.353,0,0,1,1.406,1.258,4.292,4.292,0,0,1,.648,1.758,11.352,11.352,0,0,1,.07,1.688H33.716a2.116,2.116,0,0,0,.8,1.8,1.9,1.9,0,0,0,1.109.32,1.6,1.6,0,0,0,1.117-.391,1.855,1.855,0,0,0,.414-.586Zm-2.2-2.609a1.938,1.938,0,0,0-.535-1.34A1.662,1.662,0,0,0,35.5-6.906a1.512,1.512,0,0,0-1.2.484,2.418,2.418,0,0,0-.535,1.313Zm9.681-3.016a2.743,2.743,0,0,1,1.148,2.2H45.835a1.317,1.317,0,0,0-.242-.68,1.524,1.524,0,0,0-1.25-.453,1.8,1.8,0,0,0-1.035.227A.652.652,0,0,0,43-6.3a.581.581,0,0,0,.328.555,14.2,14.2,0,0,0,2.32.617,4.262,4.262,0,0,1,1.992.945,2.146,2.146,0,0,1,.656,1.6,2.588,2.588,0,0,1-.941,2.066,4.423,4.423,0,0,1-2.91.8,4.381,4.381,0,0,1-2.965-.848,2.758,2.758,0,0,1-.957-2.16H42.78a1.487,1.487,0,0,0,.3.844,2.06,2.06,0,0,0,1.531.445,2.334,2.334,0,0,0,1.043-.2.626.626,0,0,0,.387-.586.632.632,0,0,0-.312-.57,12.713,12.713,0,0,0-2.32-.672,4.832,4.832,0,0,1-2.039-.9,1.948,1.948,0,0,1-.594-1.531,2.656,2.656,0,0,1,.926-2.027,3.718,3.718,0,0,1,2.605-.848A4.824,4.824,0,0,1,46.913-8.125Zm6.931,6.539V.078L52.789.117A2.83,2.83,0,0,1,50.633-.43a1.628,1.628,0,0,1-.375-1.18V-6.852H49.07V-8.437h1.188v-2.375h2.2v2.375h1.383v1.586H52.461v4.5a1.014,1.014,0,0,0,.133.652,1.462,1.462,0,0,0,.813.129q.1,0,.215,0T53.844-1.586Zm3.72-6.93V0H55.306V-8.516Zm0-3.07v2.055H55.306v-2.055Zm9.908.086V0H65.308V-1.18a3.141,3.141,0,0,1-1.086,1.1,3.049,3.049,0,0,1-1.516.344A3.165,3.165,0,0,1,60.195-.941a4.635,4.635,0,0,1-1.02-3.1,5.331,5.331,0,0,1,1-3.43,3.266,3.266,0,0,1,2.684-1.25,2.747,2.747,0,0,1,1.375.34,2.7,2.7,0,0,1,.977.941V-11.5Zm-6,7.3a3.348,3.348,0,0,0,.469,1.883,1.56,1.56,0,0,0,1.406.711,1.644,1.644,0,0,0,1.437-.7,3.106,3.106,0,0,0,.492-1.82,2.792,2.792,0,0,0-.789-2.234,1.7,1.7,0,0,0-1.125-.406,1.564,1.564,0,0,0-1.434.738A3.42,3.42,0,0,0,61.472-4.2Zm8.345-3.391a3.636,3.636,0,0,1,3.031-1.125,5.386,5.386,0,0,1,2.484.555A2.13,2.13,0,0,1,76.419-6.07v3.906q0,.406.016.984a1.238,1.238,0,0,0,.133.594.8.8,0,0,0,.328.258V0H74.474a2.48,2.48,0,0,1-.141-.484Q74.294-.711,74.271-1a4.575,4.575,0,0,1-1.062.852,3.2,3.2,0,0,1-1.625.414,2.794,2.794,0,0,1-1.91-.66,2.355,2.355,0,0,1-.754-1.871A2.429,2.429,0,0,1,70.13-4.539a5.377,5.377,0,0,1,1.953-.547l.758-.094a3.475,3.475,0,0,0,.883-.2.669.669,0,0,0,.477-.633.751.751,0,0,0-.363-.723,2.269,2.269,0,0,0-1.066-.2,1.389,1.389,0,0,0-1.117.391,1.624,1.624,0,0,0-.312.781H69.192A3.268,3.268,0,0,1,69.817-7.594Zm1.656,5.984a1.163,1.163,0,0,0,.766.258,2.268,2.268,0,0,0,1.324-.422,1.8,1.8,0,0,0,.629-1.539v-.828a2.42,2.42,0,0,1-.426.215,3.561,3.561,0,0,1-.59.152l-.5.094a3.229,3.229,0,0,0-1.008.3,1.021,1.021,0,0,0-.516.945A.978.978,0,0,0,71.474-1.609ZM86.147-11.5V0H83.983V-1.18A3.141,3.141,0,0,1,82.9-.078a3.049,3.049,0,0,1-1.516.344A3.165,3.165,0,0,1,78.87-.941a4.635,4.635,0,0,1-1.02-3.1,5.331,5.331,0,0,1,1-3.43,3.266,3.266,0,0,1,2.684-1.25,2.747,2.747,0,0,1,1.375.34,2.7,2.7,0,0,1,.977.941V-11.5Zm-6,7.3a3.348,3.348,0,0,0,.469,1.883,1.56,1.56,0,0,0,1.406.711,1.644,1.644,0,0,0,1.438-.7,3.106,3.106,0,0,0,.492-1.82,2.792,2.792,0,0,0-.789-2.234,1.7,1.7,0,0,0-1.125-.406,1.564,1.564,0,0,0-1.434.738A3.42,3.42,0,0,0,80.147-4.2Z" transform="translate(645 3023)" fill="#0b0a0a"/>
      <path id="Trazado_1180616" data-name="Trazado 1180616" d="M9.234-5.031H3.641V-2.07h6.375V0H1.289V-11.516H9.734v2.039H3.641v2.445H9.234ZM17.2,3.375v-4.43a2.367,2.367,0,0,1-.855.918,2.954,2.954,0,0,1-1.652.4,3.234,3.234,0,0,1-2.516-1.18,4.591,4.591,0,0,1-1.039-3.148,5.2,5.2,0,0,1,1.043-3.4,3.206,3.206,0,0,1,2.574-1.273,2.674,2.674,0,0,1,1.719.523,3.423,3.423,0,0,1,.781.977V-8.5h2.148V3.375ZM13.7-2.711a1.612,1.612,0,0,0,1.625,1.07,1.681,1.681,0,0,0,1.633-.984,3.777,3.777,0,0,0,.313-1.641A3.506,3.506,0,0,0,17-5.664,1.688,1.688,0,0,0,15.33-6.773a1.641,1.641,0,0,0-1.355.648,3.149,3.149,0,0,0-.512,1.969A3.794,3.794,0,0,0,13.7-2.711ZM26.949-1.2q-.031.039-.156.234a1.568,1.568,0,0,1-.3.344,3.1,3.1,0,0,1-1.012.641,3.448,3.448,0,0,1-1.145.172,2.551,2.551,0,0,1-2.547-1.359,5.2,5.2,0,0,1-.367-2.211V-8.516h2.281v5.133a2.687,2.687,0,0,0,.172,1.094,1.19,1.19,0,0,0,1.2.648,1.563,1.563,0,0,0,1.563-.922,3.337,3.337,0,0,0,.219-1.32V-8.516h2.258V0H26.949Zm6.6-7.312V0H31.294V-8.516Zm0-3.07v2.055H31.294v-2.055Zm9.908.086V0H41.3V-1.18a3.141,3.141,0,0,1-1.086,1.1,3.049,3.049,0,0,1-1.516.344A3.165,3.165,0,0,1,36.182-.941a4.635,4.635,0,0,1-1.02-3.1,5.331,5.331,0,0,1,1-3.43,3.266,3.266,0,0,1,2.684-1.25,2.747,2.747,0,0,1,1.375.34,2.7,2.7,0,0,1,.977.941V-11.5Zm-6,7.3a3.348,3.348,0,0,0,.469,1.883,1.56,1.56,0,0,0,1.406.711,1.644,1.644,0,0,0,1.438-.7,3.106,3.106,0,0,0,.492-1.82,2.792,2.792,0,0,0-.789-2.234,1.7,1.7,0,0,0-1.125-.406,1.564,1.564,0,0,0-1.434.738A3.42,3.42,0,0,0,37.46-4.2ZM45.8-7.594a3.636,3.636,0,0,1,3.031-1.125,5.385,5.385,0,0,1,2.484.555A2.13,2.13,0,0,1,52.406-6.07v3.906q0,.406.016.984a1.238,1.238,0,0,0,.133.594.8.8,0,0,0,.328.258V0H50.461a2.48,2.48,0,0,1-.141-.484Q50.281-.711,50.258-1A4.575,4.575,0,0,1,49.2-.148,3.2,3.2,0,0,1,47.57.266a2.794,2.794,0,0,1-1.91-.66,2.355,2.355,0,0,1-.754-1.871,2.429,2.429,0,0,1,1.211-2.273,5.377,5.377,0,0,1,1.953-.547l.758-.094a3.475,3.475,0,0,0,.883-.2.669.669,0,0,0,.477-.633.751.751,0,0,0-.363-.723,2.269,2.269,0,0,0-1.066-.2,1.389,1.389,0,0,0-1.117.391,1.624,1.624,0,0,0-.312.781H45.18A3.268,3.268,0,0,1,45.8-7.594Zm1.656,5.984a1.163,1.163,0,0,0,.766.258,2.268,2.268,0,0,0,1.324-.422,1.8,1.8,0,0,0,.629-1.539v-.828a2.42,2.42,0,0,1-.426.215,3.561,3.561,0,0,1-.59.152l-.5.094a3.229,3.229,0,0,0-1.008.3,1.021,1.021,0,0,0-.516.945A.978.978,0,0,0,47.461-1.609ZM62.135-11.5V0H59.971V-1.18a3.141,3.141,0,0,1-1.086,1.1,3.049,3.049,0,0,1-1.516.344A3.165,3.165,0,0,1,54.857-.941a4.635,4.635,0,0,1-1.02-3.1,5.331,5.331,0,0,1,1-3.43,3.266,3.266,0,0,1,2.684-1.25,2.747,2.747,0,0,1,1.375.34,2.7,2.7,0,0,1,.977.941V-11.5Zm-6,7.3A3.348,3.348,0,0,0,56.6-2.32a1.56,1.56,0,0,0,1.406.711,1.644,1.644,0,0,0,1.438-.7,3.106,3.106,0,0,0,.492-1.82,2.792,2.792,0,0,0-.789-2.234,1.7,1.7,0,0,0-1.125-.406,1.564,1.564,0,0,0-1.434.738A3.42,3.42,0,0,0,56.135-4.2Z" transform="translate(824 2999.5)" fill="#0b0a0a"/>
      <path id="Trazado_1180618" data-name="Trazado 1180618" d="M-39.25-4.141H-41.7V0h-2.391V-11.516h5.016a4.085,4.085,0,0,1,2.766.891,3.451,3.451,0,0,1,1.031,2.758A3.534,3.534,0,0,1-36.3-4.984,4.541,4.541,0,0,1-39.25-4.141Zm1.125-2.4a1.666,1.666,0,0,0,.469-1.312,1.559,1.559,0,0,0-.473-1.281,2.051,2.051,0,0,0-1.324-.383H-41.7v3.391h2.242A1.96,1.96,0,0,0-38.125-6.539Zm8.759.078a1.847,1.847,0,0,0-1.8.875,3.4,3.4,0,0,0-.258,1.516V0H-33.67V-8.516h2.125v1.484a4.707,4.707,0,0,1,.9-1.164,2.446,2.446,0,0,1,1.625-.523q.062,0,.105,0l.191.012v2.281q-.211-.023-.375-.031T-29.366-6.461ZM-20.13-2.5a2.824,2.824,0,0,1-.789,1.539A3.866,3.866,0,0,1-23.981.281,4.318,4.318,0,0,1-26.849-.766a4.222,4.222,0,0,1-1.242-3.406A4.734,4.734,0,0,1-26.97-7.562a3.833,3.833,0,0,1,2.91-1.18,4.463,4.463,0,0,1,1.914.4,3.353,3.353,0,0,1,1.406,1.258,4.292,4.292,0,0,1,.648,1.758,11.352,11.352,0,0,1,.07,1.688h-5.828a2.116,2.116,0,0,0,.8,1.8,1.9,1.9,0,0,0,1.109.32,1.6,1.6,0,0,0,1.117-.391A1.855,1.855,0,0,0-22.4-2.5Zm-2.2-2.609a1.938,1.938,0,0,0-.535-1.34,1.662,1.662,0,0,0-1.191-.457,1.512,1.512,0,0,0-1.2.484,2.418,2.418,0,0,0-.535,1.313Zm2.978-3.406h2.5l1.773,6.281,1.813-6.281h2.391L-13.949,0H-16.3ZM-2.33-2.5A2.824,2.824,0,0,1-3.119-.961,3.866,3.866,0,0,1-6.181.281,4.318,4.318,0,0,1-9.048-.766a4.222,4.222,0,0,1-1.242-3.406A4.734,4.734,0,0,1-9.17-7.562a3.833,3.833,0,0,1,2.91-1.18,4.463,4.463,0,0,1,1.914.4A3.353,3.353,0,0,1-2.939-7.086a4.292,4.292,0,0,1,.648,1.758,11.352,11.352,0,0,1,.07,1.688H-8.048a2.116,2.116,0,0,0,.8,1.8,1.9,1.9,0,0,0,1.109.32,1.6,1.6,0,0,0,1.117-.391A1.855,1.855,0,0,0-4.6-2.5Zm-2.2-2.609a1.938,1.938,0,0,0-.535-1.34,1.662,1.662,0,0,0-1.191-.457,1.512,1.512,0,0,0-1.2.484,2.418,2.418,0,0,0-.535,1.313ZM3.289-6.867a1.55,1.55,0,0,0-1.555.961,3.3,3.3,0,0,0-.219,1.3V0H-.7V-8.5H1.445v1.242A3.78,3.78,0,0,1,2.258-8.2,2.824,2.824,0,0,1,4-8.719a3.287,3.287,0,0,1,2.16.691A2.811,2.811,0,0,1,7-5.734V0H4.719V-5.18a2.364,2.364,0,0,0-.18-1.031A1.264,1.264,0,0,0,3.289-6.867ZM16.423-5.461H14.142a1.976,1.976,0,0,0-.32-.859,1.343,1.343,0,0,0-1.164-.516,1.533,1.533,0,0,0-1.539,1.117A4.671,4.671,0,0,0,10.9-4.141a4.3,4.3,0,0,0,.219,1.508,1.486,1.486,0,0,0,1.5,1.063,1.323,1.323,0,0,0,1.109-.422,2.1,2.1,0,0,0,.4-1.094H16.4a3.725,3.725,0,0,1-.734,1.922A3.57,3.57,0,0,1,12.564.3,3.628,3.628,0,0,1,9.541-.922a4.932,4.932,0,0,1-.969-3.164A5,5,0,0,1,9.642-7.5,3.726,3.726,0,0,1,12.6-8.719,4.447,4.447,0,0,1,15.216-8,3.343,3.343,0,0,1,16.423-5.461Zm3.822-3.055V0H17.988V-8.516Zm0-3.07v2.055H17.988v-2.055ZM29.5-7.437a4.969,4.969,0,0,1,1.078,3.2A4.936,4.936,0,0,1,29.5-1.035,3.961,3.961,0,0,1,26.231.3a3.961,3.961,0,0,1-3.273-1.332A4.936,4.936,0,0,1,21.88-4.242a4.969,4.969,0,0,1,1.078-3.2,3.934,3.934,0,0,1,3.273-1.352A3.934,3.934,0,0,1,29.5-7.437Zm-3.281.531a1.779,1.779,0,0,0-1.5.691,3.2,3.2,0,0,0-.527,1.973,3.217,3.217,0,0,0,.527,1.977,1.775,1.775,0,0,0,1.5.7,1.765,1.765,0,0,0,1.5-.7,3.235,3.235,0,0,0,.523-1.977,3.217,3.217,0,0,0-.523-1.973A1.769,1.769,0,0,0,26.224-6.906ZM24.911-9.664,26.411-12H28.9L26.52-9.664Zm11.275,2.8a1.55,1.55,0,0,0-1.555.961,3.3,3.3,0,0,0-.219,1.3V0H32.194V-8.5h2.148v1.242a3.78,3.78,0,0,1,.813-.945A2.824,2.824,0,0,1,36.9-8.719a3.287,3.287,0,0,1,2.16.691,2.811,2.811,0,0,1,.84,2.293V0H37.616V-5.18a2.363,2.363,0,0,0-.18-1.031A1.264,1.264,0,0,0,36.186-6.867ZM-44.56,6.5V18h-2.164V16.82a3.141,3.141,0,0,1-1.086,1.1,3.049,3.049,0,0,1-1.516.344,3.165,3.165,0,0,1-2.512-1.207,4.635,4.635,0,0,1-1.02-3.1,5.331,5.331,0,0,1,1-3.43,3.266,3.266,0,0,1,2.684-1.25,2.747,2.747,0,0,1,1.375.34,2.7,2.7,0,0,1,.977.941V6.5Zm-6,7.3a3.348,3.348,0,0,0,.469,1.883,1.56,1.56,0,0,0,1.406.711,1.644,1.644,0,0,0,1.438-.7,3.106,3.106,0,0,0,.492-1.82,2.792,2.792,0,0,0-.789-2.234,1.7,1.7,0,0,0-1.125-.406,1.564,1.564,0,0,0-1.434.738A3.42,3.42,0,0,0-50.56,13.8Zm15.314,1.7a2.824,2.824,0,0,1-.789,1.539A3.866,3.866,0,0,1-39.1,18.281a4.318,4.318,0,0,1-2.867-1.047,4.222,4.222,0,0,1-1.242-3.406,4.734,4.734,0,0,1,1.121-3.391,3.833,3.833,0,0,1,2.91-1.18,4.463,4.463,0,0,1,1.914.4,3.353,3.353,0,0,1,1.406,1.258,4.292,4.292,0,0,1,.648,1.758,11.352,11.352,0,0,1,.07,1.688h-5.828a2.116,2.116,0,0,0,.8,1.8,1.9,1.9,0,0,0,1.109.32,1.6,1.6,0,0,0,1.117-.391,1.855,1.855,0,0,0,.414-.586Zm-2.2-2.609a1.938,1.938,0,0,0-.535-1.34,1.662,1.662,0,0,0-1.191-.457,1.512,1.512,0,0,0-1.2.484,2.418,2.418,0,0,0-.535,1.313Zm15.628-.352H-24.1a1.976,1.976,0,0,0-.32-.859,1.343,1.343,0,0,0-1.164-.516,1.533,1.533,0,0,0-1.539,1.117,4.671,4.671,0,0,0-.219,1.578,4.3,4.3,0,0,0,.219,1.508,1.486,1.486,0,0,0,1.5,1.063,1.323,1.323,0,0,0,1.109-.422,2.1,2.1,0,0,0,.4-1.094h2.273a3.725,3.725,0,0,1-.734,1.922,3.57,3.57,0,0,1-3.1,1.461A3.628,3.628,0,0,1-28.7,17.078a4.932,4.932,0,0,1-.969-3.164A5,5,0,0,1-28.6,10.5a3.726,3.726,0,0,1,2.953-1.219A4.447,4.447,0,0,1-23.028,10,3.343,3.343,0,0,1-21.821,12.539Zm8.634-1.977a4.969,4.969,0,0,1,1.078,3.2,4.936,4.936,0,0,1-1.078,3.207A3.961,3.961,0,0,1-16.46,18.3a3.961,3.961,0,0,1-3.273-1.332,4.936,4.936,0,0,1-1.078-3.207,4.969,4.969,0,0,1,1.078-3.2A3.934,3.934,0,0,1-16.46,9.211,3.934,3.934,0,0,1-13.187,10.563Zm-3.281.531a1.779,1.779,0,0,0-1.5.691,3.2,3.2,0,0,0-.527,1.973,3.217,3.217,0,0,0,.527,1.977,1.775,1.775,0,0,0,1.5.7,1.765,1.765,0,0,0,1.5-.7,3.235,3.235,0,0,0,.523-1.977,3.217,3.217,0,0,0-.523-1.973A1.769,1.769,0,0,0-16.468,11.094Zm10.236.445a1.847,1.847,0,0,0-1.8.875,3.4,3.4,0,0,0-.258,1.516V18h-2.242V9.484h2.125v1.484a4.708,4.708,0,0,1,.9-1.164,2.446,2.446,0,0,1,1.625-.523q.062,0,.105,0l.191.012v2.281q-.211-.023-.375-.031T-6.232,11.539Zm6.228,0a1.847,1.847,0,0,0-1.8.875,3.4,3.4,0,0,0-.258,1.516V18H-4.309V9.484h2.125v1.484a4.708,4.708,0,0,1,.9-1.164A2.446,2.446,0,0,1,.34,9.281q.062,0,.105,0L.637,9.3v2.281q-.211-.023-.375-.031T0,11.539ZM7.4,16.8q-.031.039-.156.234a1.568,1.568,0,0,1-.3.344,3.1,3.1,0,0,1-1.012.641,3.448,3.448,0,0,1-1.145.172,2.551,2.551,0,0,1-2.547-1.359,5.2,5.2,0,0,1-.367-2.211V9.484H4.162v5.133a2.687,2.687,0,0,0,.172,1.094,1.19,1.19,0,0,0,1.2.648,1.563,1.563,0,0,0,1.563-.922,3.337,3.337,0,0,0,.219-1.32V9.484H9.568V18H7.4Zm11.447-6.4a4.569,4.569,0,0,1,1.031,3.234,5.13,5.13,0,0,1-1.012,3.43,3.275,3.275,0,0,1-2.605,1.18,2.719,2.719,0,0,1-1.687-.508,3.274,3.274,0,0,1-.719-.82v4.438h-2.2V9.484h2.133v1.258a3.575,3.575,0,0,1,.766-.875A2.813,2.813,0,0,1,16.32,9.3,3.348,3.348,0,0,1,18.851,10.4Zm-1.266,3.344A3.351,3.351,0,0,0,17.136,12a1.564,1.564,0,0,0-1.457-.758,1.658,1.658,0,0,0-1.664,1.148,4.356,4.356,0,0,0-.234,1.547,2.467,2.467,0,0,0,.789,2.086,1.8,1.8,0,0,0,1.109.352,1.608,1.608,0,0,0,1.418-.719A3.352,3.352,0,0,0,17.585,13.742Zm11.275-1.2H26.579a1.976,1.976,0,0,0-.32-.859,1.343,1.343,0,0,0-1.164-.516,1.533,1.533,0,0,0-1.539,1.117,4.671,4.671,0,0,0-.219,1.578,4.3,4.3,0,0,0,.219,1.508,1.486,1.486,0,0,0,1.5,1.063,1.323,1.323,0,0,0,1.109-.422,2.1,2.1,0,0,0,.4-1.094h2.273a3.725,3.725,0,0,1-.734,1.922A3.57,3.57,0,0,1,25,18.3a3.628,3.628,0,0,1-3.023-1.219,4.932,4.932,0,0,1-.969-3.164,5,5,0,0,1,1.07-3.414,3.726,3.726,0,0,1,2.953-1.219A4.447,4.447,0,0,1,27.653,10,3.343,3.343,0,0,1,28.86,12.539Zm3.822-3.055V18H30.424V9.484Zm0-3.07V8.469H30.424V6.414Zm9.259,4.148a4.969,4.969,0,0,1,1.078,3.2,4.936,4.936,0,0,1-1.078,3.207A3.961,3.961,0,0,1,38.668,18.3a3.961,3.961,0,0,1-3.273-1.332,4.936,4.936,0,0,1-1.078-3.207,4.969,4.969,0,0,1,1.078-3.2,3.934,3.934,0,0,1,3.273-1.352A3.934,3.934,0,0,1,41.942,10.563Zm-3.281.531a1.779,1.779,0,0,0-1.5.691,3.2,3.2,0,0,0-.527,1.973,3.217,3.217,0,0,0,.527,1.977,1.97,1.97,0,0,0,3,0,3.235,3.235,0,0,0,.523-1.977,3.217,3.217,0,0,0-.523-1.973A1.769,1.769,0,0,0,38.66,11.094ZM37.348,8.336,38.848,6h2.484L38.957,8.336Zm11.275,2.8a1.55,1.55,0,0,0-1.555.961,3.3,3.3,0,0,0-.219,1.3V18H44.631V9.5h2.148v1.242a3.78,3.78,0,0,1,.813-.945,2.824,2.824,0,0,1,1.742-.516,3.287,3.287,0,0,1,2.16.691,2.811,2.811,0,0,1,.84,2.293V18H50.053V12.82a2.363,2.363,0,0,0-.18-1.031A1.264,1.264,0,0,0,48.623,11.133Z" transform="translate(1170 2994)" fill="#0b0a0a"/>
      <g id="responsible-business_18616680" transform="translate(639.501 2891.682)">
        <g id="Grupo_1224241" data-name="Grupo 1224241" transform="translate(16.001 26.559)">
          <path id="Trazado_1180490" data-name="Trazado 1180490" d="M66.7,33.347h.529a.676.676,0,0,1,.675.675v1.131h2.9a1.721,1.721,0,0,1,1.718,1.718V45.84A1.615,1.615,0,0,1,72.043,47a1.994,1.994,0,0,1-1.091.539V58.168A5.248,5.248,0,0,1,73.8,59.684a4.4,4.4,0,0,1,.972,1.542,3.715,3.715,0,0,1-1.241,4.2l-14.4,12.834,0,0c-1.515,1.383-4.452,2.467-7.533,3.148-3.561.787-7.366,1.05-9.379.618L31.641,79.75l-4.11-.069-.04,1.819a1.433,1.433,0,0,1-.522,1.069,1.672,1.672,0,0,1-1.1.386c-2.765-.046-5.538-.071-8.3-.139a1.663,1.663,0,0,1-1.084-.423A1.425,1.425,0,0,1,16,81.311c.111-6.443.28-12.892.42-19.335a1.434,1.434,0,0,1,.522-1.069,1.672,1.672,0,0,1,1.1-.386c2.765.046,5.538.071,8.3.139a1.662,1.662,0,0,1,1.084.423,1.425,1.425,0,0,1,.478,1.083c-.01.554-.024,1.107-.036,1.661l4.035.067.616-.247,0,0a2.291,2.291,0,0,1-.33-1.183V58.716a10.576,10.576,0,1,1-1.575-19.956V36.871a1.721,1.721,0,0,1,1.718-1.718h2.9V34.022a.676.676,0,0,1,.675-.675h.529a8.135,8.135,0,0,1,1.838-4.668,5.665,5.665,0,0,1,4.312-2.119H60.551a5.665,5.665,0,0,1,4.312,2.119A8.135,8.135,0,0,1,66.7,33.346Zm-5.2,0h.519a3.239,3.239,0,0,0-.668-1.606h0a1.806,1.806,0,0,0-1.375-.73H43.168a1.8,1.8,0,0,0-1.375.728,3.238,3.238,0,0,0-.669,1.607h.519a.676.676,0,0,1,.675.675v1.131H60.828V34.022a.676.676,0,0,1,.675-.675Z" transform="translate(-16.001 -26.559)" fill-rule="evenodd"/>
          <path id="Trazado_1180491" data-name="Trazado 1180491" d="M176.37,205.181l-3.543-2.574a.675.675,0,0,1-.238-.778l.353-1.086-9.186-1.265q.016.293.016.591a10.587,10.587,0,0,1-5.023,9v4.451a.95.95,0,0,0,.135.491.963.963,0,0,0,.153.193c5.12-1.89,6.883-1.552,12.138-.543.5.1,1.03.2,1.414.27l9.007.556a3.786,3.786,0,0,1,3.426,2.163l6.989-6.209a4.93,4.93,0,0,1,2.794-1.266V198.786l-14.2,1.925.371,1.141a.674.674,0,0,1-.246.755l-3.554,2.583a.675.675,0,0,1-.8-.008Z" transform="translate(-141.206 -177.619)" fill="#966d42" fill-rule="evenodd"/>
          <path id="Trazado_1180492" data-name="Trazado 1180492" d="M176.37,210.12l-3.543-2.574a.675.675,0,0,1-.238-.778l.353-1.086-9.186-1.265q.016.293.016.591a10.587,10.587,0,0,1-5.023,9v4.451a.951.951,0,0,0,.135.491.964.964,0,0,0,.153.193c5.12-1.89,6.883-1.552,12.138-.543.5.1,1.03.2,1.414.27l8.672.535a28.065,28.065,0,0,0,5-14.523l-5.655.767.371,1.141a.674.674,0,0,1-.246.755l-3.554,2.583a.675.675,0,0,1-.8-.008Z" transform="translate(-141.206 -182.558)" fill="#b58e63" fill-rule="evenodd"/>
          <path id="Trazado_1180493" data-name="Trazado 1180493" d="M162.122,119.359l.574-1.767a.675.675,0,0,1,.641-.466h4.394a.676.676,0,0,1,.655.509l.55,1.694,15.745-2.135a.644.644,0,0,0,.368-.167.291.291,0,0,0,.089-.208V107.85a.37.37,0,0,0-.367-.367h-2.9v1.146a.676.676,0,0,1-.675.675h-5.728a.676.676,0,0,1-.675-.675v-1.146H156.28v1.146a.676.676,0,0,1-.675.675h-5.728a.676.676,0,0,1-.675-.675v-1.146h-2.9a.37.37,0,0,0-.367.367v2.334a10.6,10.6,0,0,1,6.414,7.829l9.777,1.346Z" transform="translate(-129.962 -97.537)" fill="#966d42" fill-rule="evenodd"/>
          <path id="Trazado_1180494" data-name="Trazado 1180494" d="M162.123,119.359l.574-1.767a.675.675,0,0,1,.641-.466h4.394a.676.676,0,0,1,.655.509l.55,1.694,6.12-.83c0-.069,0-.139,0-.208a28.13,28.13,0,0,0-2.145-10.807H156.281v1.146a.676.676,0,0,1-.675.675h-5.728a.676.676,0,0,1-.675-.675v-1.146h-2.9a.37.37,0,0,0-.367.367v2.334a10.6,10.6,0,0,1,6.414,7.829l9.777,1.346Z" transform="translate(-129.963 -97.537)" fill="#b58e63" fill-rule="evenodd"/>
          <path id="Trazado_1180495" data-name="Trazado 1180495" d="M284.344,201.176l1.382,1,2.762-2.007-1.054-3.245h-3.415l-1.054,3.245Z" transform="translate(-250.154 -175.989)" fill="#ccc" fill-rule="evenodd"/>
          <path id="Trazado_1180496" data-name="Trazado 1180496" d="M218.914,42.99h1.973a6.765,6.765,0,0,0-1.517-3.8,4.333,4.333,0,0,0-3.283-1.639H198.132a4.333,4.333,0,0,0-3.283,1.639,6.765,6.765,0,0,0-1.517,3.8h1.973a4.628,4.628,0,0,1,.98-2.457A3.131,3.131,0,0,1,198.7,39.3h16.81a3.128,3.128,0,0,1,2.42,1.226v0a4.629,4.629,0,0,1,.98,2.457Z" transform="translate(-171.538 -36.202)" fill="#966d42" fill-rule="evenodd"/>
          <path id="Trazado_1180497" data-name="Trazado 1180497" d="M208.9,37.553H198.131a4.333,4.333,0,0,0-3.283,1.639,6.765,6.765,0,0,0-1.517,3.8H195.3a4.628,4.628,0,0,1,.98-2.457A3.131,3.131,0,0,1,198.7,39.3H210.43Q209.7,38.4,208.9,37.553Z" transform="translate(-171.537 -36.202)" fill="#b58e63" fill-rule="evenodd"/>
        </g>
        <path id="Trazado_1180498" data-name="Trazado 1180498" d="M391.727,92.781H396.1v2.277h-4.376Z" transform="translate(-329.549 -58.083)" fill="#ccc"/>
        <path id="Trazado_1180499" data-name="Trazado 1180499" d="M183.534,92.781h4.377v2.277h-4.377Z" transform="translate(-146.943 -58.083)" fill="#ccc"/>
        <path id="Trazado_1180500" data-name="Trazado 1180500" d="M110.048,313.038l4.175.07a.678.678,0,0,1,.129.015h0l10.628,2.283c1.847.4,5.421.137,8.81-.612,2.885-.638,5.6-1.619,6.922-2.832l.007-.006,0,0,14.4-12.834a2.442,2.442,0,0,0,.871-2.735,3.044,3.044,0,0,0-.676-1.062,3.839,3.839,0,0,0-1.122-.8,3.57,3.57,0,0,0-4,.577l-7.611,6.762a3.286,3.286,0,0,1-.379,1.336,3.668,3.668,0,0,1-3.493,1.829l-9.368-.156a.673.673,0,1,1,.021-1.346l9.368.156a2.379,2.379,0,0,0,2.285-1.117,1.936,1.936,0,0,0,.225-.846q0-.052,0-.1a.7.7,0,0,1,0-.074,2.015,2.015,0,0,0-.167-.7,2.482,2.482,0,0,0-2.271-1.357l-9.049-.558a.681.681,0,0,1-.1-.014c-.635-.119-1.051-.2-1.441-.274-5.586-1.072-7-1.345-13.424,1.267a.67.67,0,0,1-.315.047l-4.133-.069-.286,13.164Z" transform="translate(-82.488 -234.702)" fill="#eec3a1" fill-rule="evenodd"/>
        <path id="Trazado_1180501" data-name="Trazado 1180501" d="M132.38,331.362l-2.525-.042a.673.673,0,1,1,.021-1.346l4.191.07a28.393,28.393,0,0,0,4.039-4.185l-7.84-.484a.674.674,0,0,1-.1-.014c-.635-.119-1.051-.2-1.441-.274-5.586-1.072-7-1.345-13.424,1.267a.669.669,0,0,1-.315.047l-4.133-.069-.215,9.867a28.258,28.258,0,0,0,21.747-4.836Z" transform="translate(-83.001 -261.159)" fill="#fad4b6" fill-rule="evenodd"/>
        <path id="Trazado_1180502" data-name="Trazado 1180502" d="M36.12,316.453l.051-2.33a.1.1,0,0,0-.04-.064.31.31,0,0,0-.2-.075l-8.3-.139a.321.321,0,0,0-.213.069.112.112,0,0,0-.047.067l-.42,19.33a.1.1,0,0,0,.04.064.31.31,0,0,0,.2.075l8.3.139a.321.321,0,0,0,.213-.069.111.111,0,0,0,.047-.067l.37-17Z" transform="translate(-9.605 -251.978)" fill="#5296c7" fill-rule="evenodd"/>
        <path id="Trazado_1180503" data-name="Trazado 1180503" d="M37.721,316.453l.051-2.33a.1.1,0,0,0-.04-.064.31.31,0,0,0-.2-.075l-8.3-.139a.321.321,0,0,0-.213.069.112.112,0,0,0-.047.067l-.2,9.014a28.069,28.069,0,0,0,8.72,3.736l.224-10.278Z" transform="translate(-11.206 -251.978)" fill="#6db2e3" fill-rule="evenodd"/>
        <path id="Trazado_1180504" data-name="Trazado 1180504" d="M54.247,136.86a9.226,9.226,0,1,0,2.7,6.523A9.2,9.2,0,0,0,54.247,136.86Zm-11.012,6.917a.674.674,0,1,1,.918-.987l2.451,2.284,4.667-4.792a.674.674,0,1,1,.966.939l-5.117,5.254a.674.674,0,0,1-.952.034l-2.932-2.732Z" transform="translate(-19.732 -94.375)" fill="#4caa46" fill-rule="evenodd"/>
      </g>
      <g id="severance_10722633" transform="translate(1125.163 2876.166)">
        <g id="Grupo_1224276" data-name="Grupo 1224276" transform="translate(9.059 9.055)">
          <g id="Grupo_1224272" data-name="Grupo 1224272" transform="translate(0 36.584)">
            <path id="Trazado_1180563" data-name="Trazado 1180563" d="M49.1,301.26l12.415-7.193c2.33-1.35,4.7-2.307,7.26-1.476,2.855.926,7.518,2.914,12.273,3.772a3.449,3.449,0,0,1,2.385,4.131c-.48,1.792-1.995,2.716-4.131,2.386l1.662.266a7.739,7.739,0,0,0,5.321-.927l11.936-6.952c9.278-5.4,10.641,2.91,7.556,4.809L84.115,313.414a7.943,7.943,0,0,1-6.432.907l-15.712-4.21-5.819,3.359a2.35,2.35,0,0,1-3.2-.858l-4.705-8.15a2.35,2.35,0,0,1,.856-3.2Z" transform="translate(-43.703 -292.281)" fill="#f6dccd" fill-rule="evenodd"/>
            <path id="Trazado_1180564" data-name="Trazado 1180564" d="M231.866,340.5a3.406,3.406,0,0,1-3.848,1.642c-2.574-.681-5.144-1.378-7.716-2.067a1.291,1.291,0,0,1,.668-2.494Z" transform="translate(-192.42 -331.548)" fill="#f1cbbc" fill-rule="evenodd"/>
            <path id="Trazado_1180565" data-name="Trazado 1180565" d="M49.1,301.26l12.415-7.193c2.33-1.35,4.7-2.307,7.26-1.476,1.527.5,3.573,1.295,5.872,2.063L50.6,308.538l-2.353-4.076a2.35,2.35,0,0,1,.856-3.2Z" transform="translate(-43.702 -292.281)" fill="#f1cbbc" fill-rule="evenodd"/>
            <path id="Trazado_1180566" data-name="Trazado 1180566" d="M22.635,324.671l9.846,17.4a1.763,1.763,0,0,1-.664,2.4l-3.349,1.9a1.762,1.762,0,0,1-2.4-.664l-9.846-17.4a1.763,1.763,0,0,1,.664-2.4l3.349-1.9a1.762,1.762,0,0,1,2.4.664Z" transform="translate(-16.001 -319.61)" fill="#d1d1d6" fill-rule="evenodd"/>
            <path id="Trazado_1180567" data-name="Trazado 1180567" d="M57.872,336.626l1.743,3.079,1.723,3.045a1.763,1.763,0,0,1-.659,2.392l1.2-.677a1.763,1.763,0,0,0,.664-2.4l-1.729-3.055-3.472-6.135-3.476-6.142-1.169-2.065a1.764,1.764,0,0,0-2.047-.814l2.024,3.576,3.472,6.135,1.729,3.055Z" transform="translate(-46.059 -319.612)" fill="#b1b1b5" fill-rule="evenodd"/>
          </g>
          <g id="Grupo_1224273" data-name="Grupo 1224273" transform="translate(20.383)">
            <path id="Trazado_1180568" data-name="Trazado 1180568" d="M274.479,22.926h2.763V19.113a3.131,3.131,0,0,0-3.121-3.121H264.8a3.131,3.131,0,0,0-3.122,3.121v3.813h2.763V19.113a.367.367,0,0,1,.358-.358h9.319a.366.366,0,0,1,.358.358v3.812Z" transform="translate(-249.533 -15.992)" fill="#837683" fill-rule="evenodd"/>
            <path id="Trazado_1180569" data-name="Trazado 1180569" d="M274.48,22.926h1.158V19.113a.366.366,0,0,0-.358-.358h-1.158a.366.366,0,0,1,.358.358Zm-8.519-6.934H264.8a3.131,3.131,0,0,0-3.122,3.121v3.813h1.158V19.113A3.131,3.131,0,0,1,265.961,15.992Z" transform="translate(-249.534 -15.992)" fill="#685e68" fill-rule="evenodd"/>
            <path id="Trazado_1180570" data-name="Trazado 1180570" d="M183.354,134.8v15.576a2.925,2.925,0,0,0,2.917,2.917h30.47a2.925,2.925,0,0,0,2.917-2.917V134.8Z" transform="translate(-181.578 -119.069)" fill="#ecba78" fill-rule="evenodd"/>
            <path id="Trazado_1180571" data-name="Trazado 1180571" d="M183.354,134.8v15.576a2.925,2.925,0,0,0,2.917,2.917h2.315a2.925,2.925,0,0,1-2.917-2.917V134.8Z" transform="translate(-181.578 -119.069)" fill="#e3a76f" fill-rule="evenodd"/>
            <path id="Trazado_1180572" data-name="Trazado 1180572" d="M207.11,75.746a9.1,9.1,0,0,0,.908-.651,4.265,4.265,0,0,0,1.777-3.349V64.636a1.5,1.5,0,0,0-1.495-1.495H171.433a1.5,1.5,0,0,0-1.495,1.495v7.111a4.265,4.265,0,0,0,1.776,3.349,9.093,9.093,0,0,0,.908.651C178.691,79.585,201.086,79.557,207.11,75.746Z" transform="translate(-169.938 -56.898)" fill="#e3a76f" fill-rule="evenodd"/>
            <path id="Trazado_1180573" data-name="Trazado 1180573" d="M174.03,63.141h-2.6a1.5,1.5,0,0,0-1.494,1.495v7.111a4.264,4.264,0,0,0,1.776,3.349,9.08,9.08,0,0,0,.908.651,9.208,9.208,0,0,0,1.407.709Z" transform="translate(-169.939 -56.898)" fill="#c48958" fill-rule="evenodd"/>
            <path id="Trazado_1180574" data-name="Trazado 1180574" d="M241.85,63.141h20.813V68a1.879,1.879,0,0,1-1.874,1.874H243.724A1.879,1.879,0,0,1,241.85,68Z" transform="translate(-232.328 -56.898)" fill="#c48958" fill-rule="evenodd"/>
            <path id="Trazado_1180575" data-name="Trazado 1180575" d="M292.7,159.494a3.673,3.673,0,1,0,3.673-3.673A3.673,3.673,0,0,0,292.7,159.494Z" transform="translate(-276.448 -137.306)" fill="#837683" fill-rule="evenodd"/>
            <path id="Trazado_1180576" data-name="Trazado 1180576" d="M292.7,159.494a3.675,3.675,0,0,0,4.252,3.628,3.674,3.674,0,0,1,0-7.255,3.676,3.676,0,0,0-4.252,3.628Z" transform="translate(-276.448 -137.306)" fill="#685e68" fill-rule="evenodd"/>
          </g>
          <g id="Grupo_1224274" data-name="Grupo 1224274" transform="translate(10.992 12.691)">
            <circle id="Elipse_14748" data-name="Elipse 14748" cx="7.806" cy="7.806" r="7.806" transform="translate(0 3.591) rotate(-13.3)" fill="#ffc338"/>
            <path id="Trazado_1180577" data-name="Trazado 1180577" d="M165.557,123.889a7.806,7.806,0,0,1,0,15.613c-.225,0-.448-.01-.668-.029a7.806,7.806,0,0,0,0-15.555C165.109,123.9,165.332,123.889,165.557,123.889Z" transform="translate(-156.167 -122.293)" fill="#f5b829" fill-rule="evenodd"/>
          </g>
          <g id="Grupo_1224275" data-name="Grupo 1224275" transform="translate(50.085 21.669)">
            <circle id="Elipse_14749" data-name="Elipse 14749" cx="6.27" cy="6.27" r="6.27" transform="matrix(0.987, -0.16, 0.16, 0.987, 0, 2.006)" fill="#fe646f"/>
            <path id="Trazado_1180578" data-name="Trazado 1180578" d="M443.54,186.539a6.27,6.27,0,0,1,0,12.539,6.342,6.342,0,0,1-.78-.048,6.27,6.27,0,0,0,0-12.443A6.339,6.339,0,0,1,443.54,186.539Z" transform="translate(-436.338 -185.626)" fill="#fd4755" fill-rule="evenodd"/>
          </g>
        </g>
        <path id="Trazado_1180579" data-name="Trazado 1180579" d="M30.784,33.482a.431.431,0,0,0,.1-.379c-.025-.206-.084-.688-1.6-.937-2.632-.433-3.1-1.941-3.138-2.8a2.934,2.934,0,0,1,2.243-2.957v-.2a1.059,1.059,0,0,1,2.119,0V26.4a3.335,3.335,0,0,1,2.215,1.969,1.059,1.059,0,0,1-1.953.82,1.427,1.427,0,0,0-1.679-.773c-.2.046-.858.242-.827.847.006.147.027.595,1.364.814,2.05.336,3.18,1.27,3.363,2.773a2.535,2.535,0,0,1-.6,2.02A3.515,3.515,0,0,1,30.5,35.928v.16a1.059,1.059,0,0,1-2.119,0V35.91a3.337,3.337,0,0,1-2.472-2.4,1.059,1.059,0,1,1,2.055-.512,1.454,1.454,0,0,0,1.553.932,1.863,1.863,0,0,0,1.265-.442ZM29.442,24.4a6.747,6.747,0,1,0,6.746,6.748A6.754,6.754,0,0,0,29.442,24.4Zm1.495-8.044a.436.436,0,0,0-.436.436v5.556a8.884,8.884,0,0,1,7.477,6.415,53.852,53.852,0,0,0,6.961.821,4.731,4.731,0,0,1,8.863,0c5.663-.334,10.2-1.283,12.247-2.575,1.5-.946,2.193-1.932,2.193-3.1V16.793a.437.437,0,0,0-.436-.436H60.837v3.8A2.936,2.936,0,0,1,57.9,23.092H40.839A2.937,2.937,0,0,1,37.9,20.158v-3.8ZM42.65,12.176a2.064,2.064,0,0,1,2.061-2.062h9.319a2.064,2.064,0,0,1,2.061,2.062v2.063h-.645V12.176a1.418,1.418,0,0,0-1.417-1.417H44.711a1.419,1.419,0,0,0-1.418,1.417v2.063H42.65Zm10.679,2.063V12.878H45.412v1.361h7.917ZM40.023,16.357H58.718v3.8a.816.816,0,0,1-.814.815H40.839a.816.816,0,0,1-.815-.815Zm6.735,14.886a2.614,2.614,0,1,1,2.614,2.614A2.617,2.617,0,0,1,46.758,31.243Zm19.589-.665.118,0V29.2c-2.521,1.269-6.928,2.156-12.382,2.489a4.732,4.732,0,0,1-9.422,0,57.678,57.678,0,0,1-6.357-.713c0,.057,0,.114,0,.171a8.88,8.88,0,0,1-6.029,8.4v.817a1.86,1.86,0,0,0,1.857,1.858h26.29a7.324,7.324,0,0,1,5.92-11.643Zm5.21,7.329a5.21,5.21,0,1,1-5.21-5.21A5.216,5.216,0,0,1,71.556,37.907ZM29.442,40.014c.242,0,.481-.012.717-.032v.381a3.981,3.981,0,0,0,3.976,3.976h28.7a7.328,7.328,0,1,0,5.746-13.412v-3.2A5.072,5.072,0,0,0,70.359,23.9V16.793A2.557,2.557,0,0,0,67.8,14.239H58.211V12.176A4.184,4.184,0,0,0,54.031,8H44.711a4.184,4.184,0,0,0-4.18,4.18v2.063H30.937a2.557,2.557,0,0,0-2.554,2.554v5.556a8.864,8.864,0,0,0,1.06,17.665Zm36.9-3.6,1.136-1.136a1.059,1.059,0,1,1,1.5,1.5l-1.135,1.136,1.135,1.136a1.059,1.059,0,0,1-1.5,1.5l-1.136-1.136-1.135,1.136a1.06,1.06,0,0,1-1.5-1.5l1.136-1.135-1.136-1.136a1.06,1.06,0,0,1,1.5-1.5Zm-51.553,17.9a1.2,1.2,0,1,1-1.358-1.01,1.2,1.2,0,0,1,1.358,1.01Zm55.783-1.78L48.914,65.875a6.905,6.905,0,0,1-5.6.785L27.6,62.45a1.058,1.058,0,0,0-.8.106l-2.389,1.38L18.5,53.5l8.9-5.152c1.992-1.153,4.146-2.119,6.4-1.386.726.236,1.562.538,2.531.888a61.835,61.835,0,0,0,9.805,2.905,2.372,2.372,0,0,1,1.626,2.83,2.269,2.269,0,0,1-2.757,1.638c-1.758-.361-3.43-.838-5.2-1.344-.838-.24-1.7-.486-2.6-.726a1.059,1.059,0,1,0-.548,2.047c.874.234,1.732.479,2.562.716,1.822.52,3.543,1.011,5.4,1.39l.042.008,1.485.241A8.77,8.77,0,0,0,52.172,56.5l11.937-6.953c3.438-2,6.082-2.2,7.076-.545A2.788,2.788,0,0,1,70.576,52.535ZM24.683,69.146a.688.688,0,0,0-.064-.53l-9.847-17.4a.691.691,0,0,0-.421-.327.728.728,0,0,0-.191-.027.681.681,0,0,0-.339.09l-3.35,1.895a.7.7,0,0,0-.264.952l9.847,17.4a.707.707,0,0,0,.951.265l3.35-1.9a.693.693,0,0,0,.327-.422Zm38.36-21.433c6.77-3.943,9.334-.846,9.96.2a4.875,4.875,0,0,1-1.315,6.43L50.024,67.679A8.875,8.875,0,0,1,45.3,69.054a9.836,9.836,0,0,1-2.54-.347l-15.29-4.1-2.025,1.168,1.015,1.794A2.82,2.82,0,0,1,25.4,71.411l-3.35,1.9a2.816,2.816,0,0,1-3.838-1.065l-9.847-17.4a2.821,2.821,0,0,1,1.065-3.839l3.35-1.9a2.822,2.822,0,0,1,3.839,1.065l.837,1.479,8.881-5.142c2.3-1.332,5.064-2.558,8.12-1.568.759.246,1.652.569,2.6.911a59.886,59.886,0,0,0,9.538,2.827,1.042,1.042,0,0,1,.138.035,4.524,4.524,0,0,1,3.082,5.414,4.723,4.723,0,0,1-.547,1.276,6.6,6.6,0,0,0,1.843-.742Z" fill-rule="evenodd"/>
      </g>
    </g>
  </g>
</svg>
