<svg xmlns="http://www.w3.org/2000/svg" xmlns:xlink="http://www.w3.org/1999/xlink" width="113" height="113" viewBox="0 0 113 113">
  <defs>
    <filter id="Trazado_982547" x="0" y="0" width="113" height="113" filterUnits="userSpaceOnUse">
      <feOffset dy="3" input="SourceAlpha"/>
      <feGaussianBlur stdDeviation="3" result="blur"/>
      <feFlood flood-opacity="0.161"/>
      <feComposite operator="in" in2="blur"/>
      <feComposite in="SourceGraphic"/>
    </filter>
  </defs>
  <g id="Grupo_1224220" data-name="Grupo 1224220" transform="translate(-271 -1954.751)">
    <g id="Grupo_1224091" data-name="Grupo 1224091" transform="translate(-84.49 -2620.317)">
      <g id="Grupo_1223183" data-name="Grupo 1223183" transform="translate(364.49 4581.069)">
        <g id="Grupo_1211217" data-name="Grupo 1211217" transform="translate(0)">
          <g id="Grupo_1210736" data-name="Grupo 1210736">
            <g id="Grupo_1210537" data-name="Grupo 1210537">
              <g id="Grupo_1164202" data-name="Grupo 1164202">
                <g id="Grupo_1158168" data-name="Grupo 1158168">
                  <g id="Grupo_1152576" data-name="Grupo 1152576">
                    <g id="Grupo_1148633" data-name="Grupo 1148633">
                      <g id="Grupo_1148525" data-name="Grupo 1148525">
                        <g transform="matrix(1, 0, 0, 1, -9, -6)" filter="url(#Trazado_982547)">
                          <g id="Trazado_982547-2" data-name="Trazado 982547" transform="translate(9 6)" fill="#fcf5f0">
                            <path d="M 47.49999618530273 93.5 C 41.28936767578125 93.5 35.26533126831055 92.28396606445312 29.59518241882324 89.88570404052734 C 24.11771583557129 87.56893157958984 19.19812965393066 84.251953125 14.97308921813965 80.02690124511719 C 10.74803638458252 75.80186462402344 7.431062698364258 70.88227844238281 5.114289283752441 65.40480804443359 C 2.716022968292236 59.73466110229492 1.499996185302734 53.71062469482422 1.499996185302734 47.49999618530273 C 1.499996185302734 41.28936767578125 2.716022968292236 35.26533126831055 5.114289283752441 29.59518241882324 C 7.431062698364258 24.11771583557129 10.74803638458252 19.19812965393066 14.97308921813965 14.97308921813965 C 19.19812965393066 10.74803638458252 24.11771583557129 7.431062698364258 29.59518241882324 5.114289283752441 C 35.26533126831055 2.716022968292236 41.28936767578125 1.499996185302734 47.49999618530273 1.499996185302734 C 53.71062469482422 1.499996185302734 59.73466110229492 2.716022968292236 65.40480804443359 5.114289283752441 C 70.88227844238281 7.431062698364258 75.80186462402344 10.74803638458252 80.02690124511719 14.97308921813965 C 84.251953125 19.19812965393066 87.56893157958984 24.11771583557129 89.88570404052734 29.59518241882324 C 92.28396606445312 35.26533126831055 93.5 41.28936767578125 93.5 47.49999618530273 C 93.5 53.71062469482422 92.28396606445312 59.73466110229492 89.88570404052734 65.40480804443359 C 87.56893157958984 70.88227844238281 84.251953125 75.80186462402344 80.02690124511719 80.02690124511719 C 75.80186462402344 84.251953125 70.88227844238281 87.56893157958984 65.40480804443359 89.88570404052734 C 59.73466110229492 92.28396606445312 53.71062469482422 93.5 47.49999618530273 93.5 Z" stroke="none"/>
                            <path d="M 47.49999618530273 2.999992370605469 C 41.4912109375 2.999992370605469 35.66376495361328 4.1761474609375 30.17950439453125 6.495796203613281 C 24.88084411621094 8.736953735351562 20.12152099609375 11.94598388671875 16.03375244140625 16.03375244140625 C 11.94598388671875 20.12152099609375 8.736953735351562 24.88084411621094 6.495796203613281 30.17950439453125 C 4.1761474609375 35.66376495361328 2.999992370605469 41.4912109375 2.999992370605469 47.49999618530273 C 2.999992370605469 53.50878143310547 4.1761474609375 59.33622741699219 6.495796203613281 64.82048797607422 C 8.736953735351562 70.11914825439453 11.94598388671875 74.87847137451172 16.03375244140625 78.96623992919922 C 20.12152099609375 83.05400848388672 24.88084411621094 86.26304626464844 30.17950439453125 88.50419616699219 C 35.66376495361328 90.82384490966797 41.4912109375 92 47.49999618530273 92 C 53.50878143310547 92 59.33622741699219 90.82384490966797 64.82048797607422 88.50419616699219 C 70.11914825439453 86.26304626464844 74.87847137451172 83.05400848388672 78.96623992919922 78.96623992919922 C 83.05400848388672 74.87847137451172 86.26304626464844 70.11914825439453 88.50419616699219 64.82048797607422 C 90.82384490966797 59.33622741699219 92 53.50878143310547 92 47.49999618530273 C 92 41.4912109375 90.82384490966797 35.66376495361328 88.50419616699219 30.17950439453125 C 86.26304626464844 24.88084411621094 83.05400848388672 20.12152099609375 78.96623992919922 16.03375244140625 C 74.87847137451172 11.94598388671875 70.11914825439453 8.736953735351562 64.82048797607422 6.495796203613281 C 59.33622741699219 4.1761474609375 53.50878143310547 2.999992370605469 47.49999618530273 2.999992370605469 M 47.49999618530273 -7.62939453125e-06 C 73.7335205078125 -7.62939453125e-06 95 21.26647186279297 95 47.49999618530273 C 95 73.7335205078125 73.7335205078125 95 47.49999618530273 95 C 21.26647186279297 95 -7.62939453125e-06 73.7335205078125 -7.62939453125e-06 47.49999618530273 C -7.62939453125e-06 21.26647186279297 21.26647186279297 -7.62939453125e-06 47.49999618530273 -7.62939453125e-06 Z" stroke="none" fill="#eca675"/>
                          </g>
                        </g>
                      </g>
                    </g>
                  </g>
                </g>
              </g>
            </g>
          </g>
        </g>
      </g>
    </g>
    <g id="trust_12914589" transform="translate(285.946 1920.802)">
      <g id="Shadow" transform="translate(0.644 57.819)">
        <g id="Grupo_1224218" data-name="Grupo 1224218" transform="translate(0 0)">
          <g id="Grupo_1224215" data-name="Grupo 1224215" transform="translate(0 10.039)">
            <g id="Grupo_1224210" data-name="Grupo 1224210" transform="translate(8.205 7.048)">
              <path id="Trazado_1180406" data-name="Trazado 1180406" d="M109.91,192.964a3.347,3.347,0,0,1,.664,4.341,3.406,3.406,0,0,1-4.753.591l.864.6A3.227,3.227,0,1,1,103,203.76l-1.563-1.094a3.227,3.227,0,1,1-3.68,5.26l-1.95-1.364a3.227,3.227,0,1,1-3.681,5.26l-16.715-9.743-4.6-2.888c-9.03-5.672-7.038-11.572-7.038-11.572l-9.236-5.8,9.666-15.39,9.236,5.8s4.448-4.359,13.48,1.313h.646L81,178.217c-5.417,3.854-.372,10.606,4.458,7.172S92,180.732,92,180.732a6.037,6.037,0,0,0,3.186,2.533Z" transform="translate(-54.542 -166.428)" fill="#ffcebf"/>
              <path id="Trazado_1180407" data-name="Trazado 1180407" d="M235.149,187.615a7.358,7.358,0,0,1-.806,5.346,3.716,3.716,0,0,0-.408-.327l-14.314-9.372a6.038,6.038,0,0,1-3.186-2.533s-1.717,1.22-6.547,4.656-9.875-3.318-4.458-7.172L212,173.538c9.033-5.672,13.48-1.313,13.48-1.313l9.236-5.8,9.665,15.39Z" transform="translate(-178.975 -166.425)" fill="#ab695d"/>
              <path id="Trazado_1180408" data-name="Trazado 1180408" d="M319.636,279.84l-14.722-9.7,14.314,9.372A3.725,3.725,0,0,1,319.636,279.84Z" transform="translate(-264.268 -253.303)" fill="#fff"/>
            </g>
            <path id="Trazado_1180409" data-name="Trazado 1180409" d="M4.3,143.16a1.978,1.978,0,0,0,.621,2.718l5.986,3.759a1.977,1.977,0,0,0,2.718-.621L25.7,129.787a1.977,1.977,0,0,0-.621-2.718l-5.985-3.759a1.977,1.977,0,0,0-2.718.621Z" transform="translate(-4 -123.01)" fill="#fd4755"/>
            <circle id="Elipse_14741" data-name="Elipse 14741" cx="2.497" cy="2.497" r="2.497" transform="translate(12.422 4.724)" fill="#3a313a"/>
            <g id="Grupo_1224211" data-name="Grupo 1224211" transform="translate(30.541 43.581)">
              <path id="Trazado_1180410" data-name="Trazado 1180410" d="M203.893,392.965a3.4,3.4,0,0,1-1.451,4.556l-5.237,3.053a3.222,3.222,0,1,1-3.229-5.538l5.237-3.053A3.4,3.4,0,0,1,203.893,392.965Z" transform="translate(-192.128 -391.459)" fill="#ab695d"/>
            </g>
            <g id="Grupo_1224212" data-name="Grupo 1224212" transform="translate(24.991 39.396)">
              <path id="Trazado_1180411" data-name="Trazado 1180411" d="M169.7,367.187a3.4,3.4,0,0,1-1.451,4.556l-5.237,3.053a3.222,3.222,0,1,1-3.229-5.539l5.237-3.053a3.4,3.4,0,0,1,4.68.983Z" transform="translate(-157.937 -365.681)" fill="#ab695d"/>
            </g>
            <g id="Grupo_1224213" data-name="Grupo 1224213" transform="translate(19.666 35.079)">
              <path id="Trazado_1180412" data-name="Trazado 1180412" d="M136.9,340.6a3.4,3.4,0,0,1-1.451,4.556l-5.237,3.053a3.222,3.222,0,1,1-3.229-5.538l5.237-3.053A3.4,3.4,0,0,1,136.9,340.6Z" transform="translate(-125.138 -339.089)" fill="#ab695d"/>
            </g>
            <g id="Grupo_1224214" data-name="Grupo 1224214" transform="translate(16.898 29.272)">
              <path id="Trazado_1180413" data-name="Trazado 1180413" d="M119.852,304.826a3.4,3.4,0,0,1-1.451,4.556l-5.237,3.053a3.222,3.222,0,1,1-3.228-5.539l5.237-3.053A3.4,3.4,0,0,1,119.852,304.826Z" transform="translate(-108.087 -303.32)" fill="#ab695d"/>
            </g>
            <path id="Trazado_1180414" data-name="Trazado 1180414" d="M394.186,143.16a1.978,1.978,0,0,1-.621,2.718l-5.986,3.759a1.977,1.977,0,0,1-2.718-.621l-12.075-19.229a1.977,1.977,0,0,1,.621-2.718l5.985-3.759a1.977,1.977,0,0,1,2.718.621Z" transform="translate(-312.665 -123.01)" fill="#ffd15b"/>
            <circle id="Elipse_14742" data-name="Elipse 14742" cx="2.497" cy="2.497" r="2.497" transform="translate(64.404 4.724)" fill="#3a313a"/>
          </g>
          <g id="Grupo_1224217" data-name="Grupo 1224217" transform="translate(23.698)">
            <path id="Trazado_1180415" data-name="Trazado 1180415" d="M184.4,73.811c0-1.013-.049-2.014-.134-3l-17.078-9.638-17.078,9.638c-.086.991-.134,1.992-.134,3a34.41,34.41,0,0,0,17.212,29.818A34.409,34.409,0,0,0,184.4,73.811Z" transform="translate(-149.975 -61.169)" fill="#01d0fb"/>
            <g id="Grupo_1224216" data-name="Grupo 1224216" transform="translate(8.068 11.808)">
              <path id="Trazado_1180416" data-name="Trazado 1180416" d="M207.074,150.169a1.7,1.7,0,0,1-1.2-.5l-5.7-5.7a1.7,1.7,0,0,1,2.4-2.4l4.283,4.283,8.021-11.232a1.7,1.7,0,0,1,2.767,1.975l-9.187,12.865a1.7,1.7,0,0,1-1.243.706C207.167,150.167,207.12,150.169,207.074,150.169Z" transform="translate(-199.672 -133.904)" fill="#6fd7a3"/>
            </g>
          </g>
        </g>
      </g>
      <g id="Base" transform="translate(2.672 58.928)">
        <path id="Trazado_1180417" data-name="Trazado 1180417" d="M121.733,226.444a2.309,2.309,0,0,1-1.326-.43c-.032-.023-.067-.045-.1-.065l-3.218-1.876a4.682,4.682,0,0,0,.415-4.658l4.864,3.7.047.034a2.276,2.276,0,0,1,.931,1.342,1.6,1.6,0,0,1-.217,1.291,1.656,1.656,0,0,1-1.392.662Zm5.629-3.9a2.309,2.309,0,0,1-1.326-.43l-1.925-1.347-7.16-5.447a1.448,1.448,0,0,0-.884-.3,1.461,1.461,0,0,0-1.33,2.066,4.989,4.989,0,0,0-1.422-.2,5.162,5.162,0,0,0-.929.085,4.386,4.386,0,0,0-.592-2.038,4.582,4.582,0,0,0-4.03-2.232,5.173,5.173,0,0,0-.7.047,4.391,4.391,0,0,0-.6-2.133,4.435,4.435,0,0,0-2.455-1.979,4.531,4.531,0,0,0-.314-3.828,4.583,4.583,0,0,0-4.031-2.231,5.265,5.265,0,0,0-2.647.722l-4.374,2.55a5.269,5.269,0,0,1-.041-2.393,1.456,1.456,0,0,0-.613-1.688L86.62,198.4l8.11-12.916,2.631,1.652a35.686,35.686,0,0,0,3.6,8.437,36.087,36.087,0,0,0,12.992,12.886,1.461,1.461,0,0,0,1.463,0,35.941,35.941,0,0,0,8.611-6.952l12.1,7.735a2.489,2.489,0,0,1,.226.183l.009.008h0a1.9,1.9,0,0,1,.457,2.427,1.656,1.656,0,0,1-1.393.662,2.308,2.308,0,0,1-1.323-.428l-.049-.033-9.41-5.964a1.461,1.461,0,0,0-1.564,2.469l9.374,5.94.835.584a1.948,1.948,0,0,1,.713,2.634,1.655,1.655,0,0,1-1.392.661,2.311,2.311,0,0,1-1.327-.43l-1.576-1.1-8.348-5.771a1.461,1.461,0,1,0-1.661,2.4l8.346,5.769a1.947,1.947,0,0,1,.713,2.633A1.657,1.657,0,0,1,127.362,222.548Z" transform="translate(-75.236 -166.408)" fill="#ffdfcf"/>
        <path id="Trazado_1180418" data-name="Trazado 1180418" d="M336.656,200.071a14.492,14.492,0,0,0,3.867-1.756,1.461,1.461,0,1,0-1.554-2.475,13.346,13.346,0,0,1-1.9,1q.412-.634.788-1.272a35.686,35.686,0,0,0,3.6-8.437l2.631-1.652L352.2,198.4l-5.375,3.375a1.457,1.457,0,0,0-.609,1.7,5.083,5.083,0,0,1-.106,2.644Z" transform="translate(-284.68 -166.409)" fill="#ab695d"/>
        <path id="Trazado_1180419" data-name="Trazado 1180419" d="M22.985,152.511a.5.5,0,0,1-.266-.076l-5.986-3.759a.511.511,0,0,1-.161-.7l12.075-19.229a.505.505,0,0,1,.438-.237.5.5,0,0,1,.266.076l5.985,3.759a.516.516,0,0,1,.161.7L23.422,152.274a.5.5,0,0,1-.437.237Zm6.972-22.2a3.959,3.959,0,1,0,2.1.606,3.939,3.939,0,0,0-2.1-.606Z" transform="translate(-16.494 -118.683)" fill="#fe646f"/>
        <path id="Trazado_1180420" data-name="Trazado 1180420" d="M94.06,159.679a1.036,1.036,0,1,1,.879-.485A1.033,1.033,0,0,1,94.06,159.679Z" transform="translate(-80.602 -143.059)" fill="#685e68"/>
        <g id="Grupo_1224219" data-name="Grupo 1224219" transform="translate(16.895 39.095)">
          <path id="Trazado_1180421" data-name="Trazado 1180421" d="M206.331,403.658a1.69,1.69,0,0,1-1.5-.783,1.6,1.6,0,0,1-.11-1.3,2.263,2.263,0,0,1,1.033-1.256l2.916-1.7,2.322-1.354a2.355,2.355,0,0,1,1.182-.328,1.689,1.689,0,0,1,1.5.784,1.6,1.6,0,0,1,.106,1.324,2.276,2.276,0,0,1-1.031,1.234l-5.237,3.053a2.353,2.353,0,0,1-1.182.328h0Z" transform="translate(-190.985 -382.63)" fill="#ab695d"/>
          <path id="Trazado_1180422" data-name="Trazado 1180422" d="M172.139,377.878a1.689,1.689,0,0,1-1.5-.784,1.594,1.594,0,0,1-.11-1.3,2.264,2.264,0,0,1,1.034-1.257l5.237-3.053a2.356,2.356,0,0,1,1.182-.328,1.689,1.689,0,0,1,1.5.784,1.594,1.594,0,0,1,.11,1.3,2.262,2.262,0,0,1-1.028,1.253l-5.244,3.057A2.353,2.353,0,0,1,172.139,377.878Z" transform="translate(-162.343 -361.035)" fill="#ab695d"/>
          <path id="Trazado_1180423" data-name="Trazado 1180423" d="M139.342,351.291a1.69,1.69,0,0,1-1.5-.783,1.594,1.594,0,0,1-.11-1.3,2.264,2.264,0,0,1,1.035-1.257,1.415,1.415,0,0,0,.156-.106c.111-.055.211-.108.3-.163l4.781-2.787a2.354,2.354,0,0,1,1.178-.325,1.689,1.689,0,0,1,1.5.783,1.593,1.593,0,0,1,.11,1.3,2.264,2.264,0,0,1-1.035,1.257l-5.237,3.053A2.357,2.357,0,0,1,139.342,351.291Z" transform="translate(-134.871 -338.764)" fill="#ab695d"/>
          <path id="Trazado_1180424" data-name="Trazado 1180424" d="M122.273,315.531a1.7,1.7,0,0,1-1.507-.781,1.942,1.942,0,0,1,.925-2.558l5.237-3.053a2.341,2.341,0,0,1,1.175-.325,1.7,1.7,0,0,1,1.507.781,1.942,1.942,0,0,1-.925,2.558l-5.237,3.053a2.341,2.341,0,0,1-1.175.325Z" transform="translate(-120.564 -308.814)" fill="#ab695d"/>
        </g>
        <path id="Trazado_1180425" data-name="Trazado 1180425" d="M397.578,152.51a.5.5,0,0,1-.437-.237l-12.075-19.229a.516.516,0,0,1,.161-.7l5.985-3.759a.5.5,0,0,1,.266-.076.505.505,0,0,1,.437.237l12.075,19.229a.511.511,0,0,1-.161.7l-5.986,3.759A.5.5,0,0,1,397.578,152.51Zm-6.972-22.2a3.958,3.958,0,1,0,3.355,1.854A3.949,3.949,0,0,0,390.606,130.307Z" transform="translate(-325.167 -118.682)" fill="#fee45a"/>
        <path id="Trazado_1180426" data-name="Trazado 1180426" d="M414.263,159.679a1.036,1.036,0,1,1,.549-.159A1.032,1.032,0,0,1,414.263,159.679Z" transform="translate(-348.819 -143.059)" fill="#685e68"/>
        <path id="Trazado_1180427" data-name="Trazado 1180427" d="M178.232,107.08a33.143,33.143,0,0,1-15.751-28.117c0-.682.024-1.392.071-2.116L178.232,68l15.68,8.849c.047.724.071,1.434.071,2.116a33.143,33.143,0,0,1-15.751,28.117Zm-7.445-23.25a3.161,3.161,0,0,0-2.235,5.4l5.7,5.7a3.14,3.14,0,0,0,2.235.926c.1,0,.185,0,.268-.011a3.154,3.154,0,0,0,2.3-1.312l9.187-12.866a3.161,3.161,0,1,0-5.145-3.673l-7.018,9.828-3.063-3.064a3.139,3.139,0,0,0-2.235-.926Z" transform="translate(-138.781 -67.998)" fill="#62dbfb"/>
        <path id="Trazado_1180428" data-name="Trazado 1180428" d="M218.107,152.74a.226.226,0,0,1-.158-.071l-5.7-5.7a.239.239,0,1,1,.338-.338l4.283,4.283a1.452,1.452,0,0,0,1.033.428c.04,0,.079,0,.119,0a1.46,1.46,0,0,0,1.07-.607l8.021-11.232a.24.24,0,0,1,.2-.1.232.232,0,0,1,.137.044.239.239,0,0,1,.056.333l-9.186,12.865a.241.241,0,0,1-.18.1Z" transform="translate(-180.409 -127.805)" fill="#9be69d"/>
      </g>
      <g id="Outline" transform="translate(-0.007 57.17)">
        <path id="Trazado_1180429" data-name="Trazado 1180429" d="M23.226,73a2.6,2.6,0,0,0-1.159-1.636l-5.985-3.759a2.626,2.626,0,0,0-3.613.826L.394,87.664a2.624,2.624,0,0,0,.826,3.613l5.986,3.759a2.625,2.625,0,0,0,3.613-.826l.86-1.37L17.346,96.4a8.194,8.194,0,0,0,.623,4.637,3.9,3.9,0,0,0-.592,4.553,3.734,3.734,0,0,0,2.941,1.809,4.22,4.22,0,0,0-.47.993,3.677,3.677,0,0,0,.3,3.005,3.794,3.794,0,0,0,3.329,1.829,4.4,4.4,0,0,0,1.641-.322,3.654,3.654,0,0,0,.354,2.81,3.8,3.8,0,0,0,3.329,1.83,4.423,4.423,0,0,0,1.859-.417,3.65,3.65,0,0,0,.363,2.773,3.794,3.794,0,0,0,3.329,1.829,4.45,4.45,0,0,0,2.239-.613l4.979-2.9,4.52,2.635a4.407,4.407,0,0,0,2.513.795,3.735,3.735,0,0,0,3.121-1.562,3.658,3.658,0,0,0,.584-2.783,4.36,4.36,0,0,0,1.924.449,3.736,3.736,0,0,0,3.122-1.563,3.691,3.691,0,0,0,.564-2.893,4.342,4.342,0,0,0,1.56.29A3.735,3.735,0,0,0,62.6,112.02a3.867,3.867,0,0,0-.018-4.311,3.7,3.7,0,0,0,2.835-1.553A3.955,3.955,0,0,0,65,101.318a8.4,8.4,0,0,0,.757-4.915L71.43,92.84l.86,1.37a2.625,2.625,0,0,0,3.613.826l5.986-3.759a2.624,2.624,0,0,0,.826-3.613L70.639,68.435a2.626,2.626,0,0,0-3.613-.826l-5.985,3.759a2.626,2.626,0,0,0-.826,3.613l.86,1.37-2.453,1.54a35.181,35.181,0,0,0,.794-7.429c0-.982-.046-2.012-.137-3.061a.65.65,0,0,0-.328-.51L41.873,57.254a.65.65,0,0,0-.638,0L24.157,66.891a.65.65,0,0,0-.328.51c-.091,1.048-.137,2.078-.137,3.061a35.18,35.18,0,0,0,.794,7.429l-2.453-1.54.86-1.369A2.6,2.6,0,0,0,23.226,73ZM25.1,67.853l16.459-9.288,16.459,9.288c.069.894.1,1.77.1,2.609A33.9,33.9,0,0,1,41.554,99.527,33.9,33.9,0,0,1,24.991,70.462C24.991,69.622,25.026,68.746,25.1,67.853Zm36.053,5.44a1.313,1.313,0,0,1,.583-.826l5.985-3.759a1.327,1.327,0,0,1,1.823.417L81.614,88.354a1.324,1.324,0,0,1-.416,1.823l-5.986,3.759a1.326,1.326,0,0,1-1.822-.417L61.315,74.29a1.312,1.312,0,0,1-.167-1ZM70.739,91.74l-6.062,3.807a.649.649,0,0,0-.271.755,6.4,6.4,0,0,1-.443,4.141L51.85,92.7a11.644,11.644,0,0,0,5.664-1.982.649.649,0,0,0-.691-1.1,11.237,11.237,0,0,1-4.3,1.722A34.676,34.676,0,0,0,58.181,79.7l3.585-2.251ZM28.53,88.246a35.273,35.273,0,0,0,12.7,12.6.65.65,0,0,0,.65,0,35.255,35.255,0,0,0,8.872-7.306l12.7,8.119a3.3,3.3,0,0,1,.329.266h0a2.7,2.7,0,0,1,.572,3.489,2.455,2.455,0,0,1-2.058,1.009,3.115,3.115,0,0,1-1.787-.574l0,0-.013-.007-.012-.009-9.4-5.958a.649.649,0,1,0-.7,1.1l9.39,5.95.85.595a2.753,2.753,0,0,1,.913,3.764,2.454,2.454,0,0,1-2.057,1.008,3.119,3.119,0,0,1-1.792-.577l-1.558-1.091-.005,0h0l-8.353-5.774a.649.649,0,1,0-.738,1.068l8.349,5.771h0a2.753,2.753,0,0,1,.913,3.764,2.455,2.455,0,0,1-2.058,1.009,3.116,3.116,0,0,1-1.791-.576L50.5,114.516l-7.173-5.457a.649.649,0,1,0-.786,1.034l7.183,5.465.012.008.009.007.006,0A3.082,3.082,0,0,1,51,117.4a2.4,2.4,0,0,1-.344,1.938,2.454,2.454,0,0,1-2.057,1.008,3.117,3.117,0,0,1-1.791-.576l-.045-.029-4.045-2.358a3.93,3.93,0,0,0,.792-4.763,4,4,0,0,0-5.187-1.415,3.65,3.65,0,0,0-.364-2.77,3.978,3.978,0,0,0-4.97-1.509,3.654,3.654,0,0,0-.355-2.808,3.748,3.748,0,0,0-2.937-1.81,3.821,3.821,0,0,0,.169-4,3.779,3.779,0,0,0-3.33-1.828,4.452,4.452,0,0,0-2.238.612l-5.237,3.053-.028.017q-.092-.247-.167-.5a6.156,6.156,0,0,1-.168-3.362.649.649,0,0,0-.27-.758l-6.062-3.807L21.342,77.45,24.927,79.7a34.9,34.9,0,0,0,3.6,8.545Zm3.613,31a2.4,2.4,0,0,1-.182-1.957,3.073,3.073,0,0,1,1.4-1.712h0l2.914-1.7h0l2.322-1.354a2.576,2.576,0,1,1,2.575,4.417l-5.237,3.053a2.747,2.747,0,0,1-3.792-.748Zm-5.551-4.185a2.394,2.394,0,0,1-.182-1.957,3.074,3.074,0,0,1,1.4-1.712l3.141-1.831h0l2.1-1.222a2.747,2.747,0,0,1,3.792.748,2.4,2.4,0,0,1,.182,1.957,3.075,3.075,0,0,1-1.4,1.711h0l-5.237,3.053A2.747,2.747,0,0,1,26.592,115.06Zm-5.324-4.317a2.4,2.4,0,0,1-.182-1.957,3.073,3.073,0,0,1,1.4-1.712.646.646,0,0,0,.118-.09c.116-.055.231-.113.342-.178l4.781-2.786a2.747,2.747,0,0,1,3.788.75,2.394,2.394,0,0,1,.182,1.957,3.074,3.074,0,0,1-1.4,1.712l-5.237,3.053A2.747,2.747,0,0,1,21.267,110.743ZM18.5,104.936a2.747,2.747,0,0,1,1.217-3.668l5.237-3.053a3.152,3.152,0,0,1,1.584-.435,2.5,2.5,0,0,1,2.208,1.184,2.747,2.747,0,0,1-1.217,3.668l-.457.266,0,0h0l-4.776,2.784a3.152,3.152,0,0,1-1.584.435,2.5,2.5,0,0,1-2.208-1.183ZM9.718,93.519a1.326,1.326,0,0,1-1.822.417L1.91,90.177a1.324,1.324,0,0,1-.416-1.823L13.568,69.126a1.327,1.327,0,0,1,1.823-.417l5.985,3.758a1.328,1.328,0,0,1,.416,1.823Z" transform="translate(0.007 -57.17)"/>
        <path id="Trazado_1180430" data-name="Trazado 1180430" d="M81.343,148.592a3.147,3.147,0,1,0-1.676,5.812h0a3.147,3.147,0,0,0,1.675-5.812ZM79.668,153.1a1.848,1.848,0,1,1,1.567-.865A1.844,1.844,0,0,1,79.668,153.1Z" transform="translate(-64.1 -133.347)"/>
        <path id="Trazado_1180431" data-name="Trazado 1180431" d="M397.2,152.929a3.147,3.147,0,1,0,.991-4.338,3.131,3.131,0,0,0-.991,4.338Zm1.682-3.238a1.848,1.848,0,1,1-.582,2.547A1.841,1.841,0,0,1,398.886,149.691Z" transform="translate(-332.317 -133.346)"/>
        <path id="Trazado_1180432" data-name="Trazado 1180432" d="M196.359,141.078l5.7,5.7a2.334,2.334,0,0,0,1.661.688c.066,0,.132,0,.194-.008a2.347,2.347,0,0,0,1.718-.976l9.187-12.865a2.349,2.349,0,1,0-3.824-2.73L203.423,141.5l-3.741-3.741a2.349,2.349,0,1,0-3.322,3.322Zm2.4-2.4,4.283,4.283a.649.649,0,0,0,.988-.082l8.021-11.232a1.053,1.053,0,0,1,.856-.44,1.041,1.041,0,0,1,.609.2,1.052,1.052,0,0,1,.245,1.465l-9.186,12.865a1.053,1.053,0,0,1-.774.437,1.029,1.029,0,0,1-.825-.3l-5.7-5.7a1.05,1.05,0,1,1,1.486-1.485Z" transform="translate(-163.904 -118.096)"/>
      </g>
    </g>
  </g>
</svg>
