<svg xmlns="http://www.w3.org/2000/svg" xmlns:xlink="http://www.w3.org/1999/xlink" width="113" height="113" viewBox="0 0 113 113">
  <defs>
    <filter id="Trazado_982547" x="0" y="0" width="113" height="113" filterUnits="userSpaceOnUse">
      <feOffset dy="3" input="SourceAlpha"/>
      <feGaussianBlur stdDeviation="3" result="blur"/>
      <feFlood flood-opacity="0.161"/>
      <feComposite operator="in" in2="blur"/>
      <feComposite in="SourceGraphic"/>
    </filter>
  </defs>
  <g id="Grupo_1224222" data-name="Grupo 1224222" transform="translate(-585.509 -1954.751)">
    <g id="Grupo_1224092" data-name="Grupo 1224092" transform="translate(-88.49 -2620.317)">
      <g id="Grupo_1223184" data-name="Grupo 1223184" transform="translate(683 4581.069)">
        <g id="Grupo_1211216" data-name="Grupo 1211216" transform="translate(0)">
          <g id="Grupo_1210737" data-name="Grupo 1210737">
            <g id="Grupo_1210537" data-name="Grupo 1210537">
              <g id="Grupo_1164202" data-name="Grupo 1164202">
                <g id="Grupo_1158168" data-name="Grupo 1158168">
                  <g id="Grupo_1152576" data-name="Grupo 1152576">
                    <g id="Grupo_1148633" data-name="Grupo 1148633">
                      <g id="Grupo_1148525" data-name="Grupo 1148525">
                        <g transform="matrix(1, 0, 0, 1, -9, -6)" filter="url(#Trazado_982547)">
                          <g id="Trazado_982547-2" data-name="Trazado 982547" transform="translate(9 6)" fill="#fcf5f0">
                            <path d="M 47.49999618530273 93.5 C 41.28936767578125 93.5 35.26533126831055 92.28396606445312 29.59518241882324 89.88570404052734 C 24.11771583557129 87.56893157958984 19.19812965393066 84.251953125 14.97308921813965 80.02690124511719 C 10.74803638458252 75.80186462402344 7.431062698364258 70.88227844238281 5.114289283752441 65.40480804443359 C 2.716022968292236 59.73466110229492 1.499996185302734 53.71062469482422 1.499996185302734 47.49999618530273 C 1.499996185302734 41.28936767578125 2.716022968292236 35.26533126831055 5.114289283752441 29.59518241882324 C 7.431062698364258 24.11771583557129 10.74803638458252 19.19812965393066 14.97308921813965 14.97308921813965 C 19.19812965393066 10.74803638458252 24.11771583557129 7.431062698364258 29.59518241882324 5.114289283752441 C 35.26533126831055 2.716022968292236 41.28936767578125 1.499996185302734 47.49999618530273 1.499996185302734 C 53.71062469482422 1.499996185302734 59.73466110229492 2.716022968292236 65.40480804443359 5.114289283752441 C 70.88227844238281 7.431062698364258 75.80186462402344 10.74803638458252 80.02690124511719 14.97308921813965 C 84.251953125 19.19812965393066 87.56893157958984 24.11771583557129 89.88570404052734 29.59518241882324 C 92.28396606445312 35.26533126831055 93.5 41.28936767578125 93.5 47.49999618530273 C 93.5 53.71062469482422 92.28396606445312 59.73466110229492 89.88570404052734 65.40480804443359 C 87.56893157958984 70.88227844238281 84.251953125 75.80186462402344 80.02690124511719 80.02690124511719 C 75.80186462402344 84.251953125 70.88227844238281 87.56893157958984 65.40480804443359 89.88570404052734 C 59.73466110229492 92.28396606445312 53.71062469482422 93.5 47.49999618530273 93.5 Z" stroke="none"/>
                            <path d="M 47.49999618530273 2.999992370605469 C 41.4912109375 2.999992370605469 35.66376495361328 4.1761474609375 30.17950439453125 6.495796203613281 C 24.88084411621094 8.736953735351562 20.12152099609375 11.94598388671875 16.03375244140625 16.03375244140625 C 11.94598388671875 20.12152099609375 8.736953735351562 24.88084411621094 6.495796203613281 30.17950439453125 C 4.1761474609375 35.66376495361328 2.999992370605469 41.4912109375 2.999992370605469 47.49999618530273 C 2.999992370605469 53.50878143310547 4.1761474609375 59.33622741699219 6.495796203613281 64.82048797607422 C 8.736953735351562 70.11914825439453 11.94598388671875 74.87847137451172 16.03375244140625 78.96623992919922 C 20.12152099609375 83.05400848388672 24.88084411621094 86.26304626464844 30.17950439453125 88.50419616699219 C 35.66376495361328 90.82384490966797 41.4912109375 92 47.49999618530273 92 C 53.50878143310547 92 59.33622741699219 90.82384490966797 64.82048797607422 88.50419616699219 C 70.11914825439453 86.26304626464844 74.87847137451172 83.05400848388672 78.96623992919922 78.96623992919922 C 83.05400848388672 74.87847137451172 86.26304626464844 70.11914825439453 88.50419616699219 64.82048797607422 C 90.82384490966797 59.33622741699219 92 53.50878143310547 92 47.49999618530273 C 92 41.4912109375 90.82384490966797 35.66376495361328 88.50419616699219 30.17950439453125 C 86.26304626464844 24.88084411621094 83.05400848388672 20.12152099609375 78.96623992919922 16.03375244140625 C 74.87847137451172 11.94598388671875 70.11914825439453 8.736953735351562 64.82048797607422 6.495796203613281 C 59.33622741699219 4.1761474609375 53.50878143310547 2.999992370605469 47.49999618530273 2.999992370605469 M 47.49999618530273 -7.62939453125e-06 C 73.7335205078125 -7.62939453125e-06 95 21.26647186279297 95 47.49999618530273 C 95 73.7335205078125 73.7335205078125 95 47.49999618530273 95 C 21.26647186279297 95 -7.62939453125e-06 73.7335205078125 -7.62939453125e-06 47.49999618530273 C -7.62939453125e-06 21.26647186279297 21.26647186279297 -7.62939453125e-06 47.49999618530273 -7.62939453125e-06 Z" stroke="none" fill="#eca675"/>
                          </g>
                        </g>
                      </g>
                    </g>
                  </g>
                </g>
              </g>
            </g>
          </g>
        </g>
      </g>
    </g>
    <g id="motivation_12650025" transform="translate(600.908 1951.83)">
      <path id="Trazado_1180433" data-name="Trazado 1180433" d="M216.486,150.432a2.111,2.111,0,0,0,2.108-2.108v-8.116a2.108,2.108,0,1,0-4.215,0v8.116A2.109,2.109,0,0,0,216.486,150.432Z" transform="translate(-178.806 -96.992)" fill="#ffbcab"/>
      <path id="Trazado_1180434" data-name="Trazado 1180434" d="M120.122,131.015c0,.289-.007.567-.026.83a2.108,2.108,0,0,0,1.978-2.1V118.837a2.108,2.108,0,0,0-4.215,0v9.871a2.353,2.353,0,0,1,2.263,2.308Z" transform="translate(-94.899 -78.413)" fill="#ffbcab"/>
      <path id="Trazado_1180435" data-name="Trazado 1180435" d="M46.085,414.506v4.137a1.53,1.53,0,0,0,1.53,1.53H70.761a1.533,1.533,0,0,0,1.53-1.53v-4.137a1.533,1.533,0,0,0-1.53-1.53H47.615A1.53,1.53,0,0,0,46.085,414.506Z" transform="translate(-32.504 -335.949)" fill="#c2591d"/>
      <path id="Trazado_1180436" data-name="Trazado 1180436" d="M168.236,140.131a2.112,2.112,0,0,0,2.111-2.108V128.36a2.108,2.108,0,0,0-4.215,0v9.664A2.108,2.108,0,0,0,168.236,140.131Z" transform="translate(-136.865 -86.691)" fill="#ffbcab"/>
      <path id="Trazado_1180437" data-name="Trazado 1180437" d="M73.827,124.423a2.115,2.115,0,0,0-4.215,0V133.7h4.215Z" transform="translate(-52.957 -83.414)" fill="#ffbcab"/>
      <path id="Trazado_1180438" data-name="Trazado 1180438" d="M30.418,243.065c1.237.837,2.215,1.5,2.215,2.585v1.241h15.9v-1.278c0-2.448,1.2-3.8,2.356-5.108a9.193,9.193,0,0,0,2.8-7.138v-6.453a4.19,4.19,0,0,1-5.263-.859,4.19,4.19,0,0,1-6.3,0,4.187,4.187,0,0,1-3.152,1.43,1.043,1.043,0,0,1-.241-.03A5.358,5.358,0,0,1,37.1,230c3.178,1.03,4.467,3.1,5.727,5.126l.178.289a1.046,1.046,0,1,1-1.774,1.108l-.182-.293c-1.615-2.6-2.889-4.656-8.308-4.8-.319.015-.6.015-.837.015H30.747a1.046,1.046,0,1,1,0-2.093h1.159c2.7,0,5.126-.367,5.126-4.8,0-.107-.133-.226-.315-.226H29.633a.649.649,0,0,1-.122.011.678.678,0,0,1-.122-.011H27.455a2.655,2.655,0,0,0-2.771,2.515v6.523c0,5.826,3.449,8.156,5.734,9.7Z" transform="translate(-13.9 -171.953)" fill="#ffbcab"/>
      <path id="Trazado_1180439" data-name="Trazado 1180439" d="M322.211,357.36H343a.234.234,0,0,0,.23-.233v-3.76a.233.233,0,0,0-.23-.23H322.211a.236.236,0,0,0-.23.23v3.76A.237.237,0,0,0,322.211,357.36Z" transform="translate(-272.349 -283.929)" fill="#5b728c"/>
      <path id="Trazado_1180440" data-name="Trazado 1180440" d="M395.208,57.739l-1.019,3.119,2.652-1.934a1.673,1.673,0,0,1,1.974,0l2.648,1.934-1.019-3.119a1.674,1.674,0,0,1,.611-1.878l2.656-1.922-3.278.007h0a1.674,1.674,0,0,1-1.6-1.163l-1.007-3.123-1.007,3.123a1.668,1.668,0,0,1-1.6,1.163l-3.282-.007,2.66,1.922a1.672,1.672,0,0,1,.607,1.878Z" transform="translate(-333.167 -20.108)" fill="#feca5d"/>
      <path id="Trazado_1180441" data-name="Trazado 1180441" d="M351.8,274.755h16.92a.231.231,0,0,0,.23-.23v-3.76a.231.231,0,0,0-.23-.23H351.8a.231.231,0,0,0-.23.23v3.76A.231.231,0,0,0,351.8,274.755Z" transform="translate(-298.076 -212.121)" fill="#5b728c"/>
      <path id="Trazado_1180442" data-name="Trazado 1180442" d="M292.617,439.986h24.654a.231.231,0,0,0,.23-.23V436a.231.231,0,0,0-.23-.23H292.617a.233.233,0,0,0-.23.23v3.76A.233.233,0,0,0,292.617,439.986Z" transform="translate(-246.622 -355.762)" fill="#5b728c"/>
      <path id="Trazado_1180443" data-name="Trazado 1180443" d="M381.4,192.125h13.053a.231.231,0,0,0,.23-.23v-3.76a.233.233,0,0,0-.23-.23H381.4a.233.233,0,0,0-.23.23v3.76A.231.231,0,0,0,381.4,192.125Z" transform="translate(-323.802 -140.289)" fill="#5b728c"/>
      <g id="Grupo_1224221" data-name="Grupo 1224221" transform="translate(8.695 26.53)">
        <path id="Trazado_1180444" data-name="Trazado 1180444" d="M278.488,422.075a.233.233,0,0,1,.23-.23h24.654a.231.231,0,0,1,.23.23v3.76a.231.231,0,0,1-.23.23H278.718a.233.233,0,0,1-.23-.23Zm.23,6.078h24.654a2.322,2.322,0,0,0,2.319-2.319v-3.76a2.323,2.323,0,0,0-2.319-2.322H278.718a2.323,2.323,0,0,0-2.319,2.322v3.76A2.322,2.322,0,0,0,278.718,428.154Z" transform="translate(-241.418 -368.37)" fill="#030403"/>
        <path id="Trazado_1180445" data-name="Trazado 1180445" d="M10.784,122.94v-3.56a2.655,2.655,0,0,1,2.771-2.515h1.934a.679.679,0,0,0,.122.011.649.649,0,0,0,.122-.011h7.086c.182,0,.315.119.315.226,0,4.437-2.426,4.8-5.126,4.8H16.848a1.046,1.046,0,1,0,0,2.093h1.159c.237,0,.519,0,.837-.015,5.419.141,6.693,2.193,8.308,4.8l.182.293a1.046,1.046,0,1,0,1.774-1.108l-.178-.289c-1.259-2.022-2.548-4.1-5.727-5.126a5.359,5.359,0,0,0,1.622-2.548,1.042,1.042,0,0,0,.241.03,4.187,4.187,0,0,0,3.152-1.43,4.19,4.19,0,0,0,6.3,0,4.19,4.19,0,0,0,5.263.859V125.9a9.194,9.194,0,0,1-2.8,7.138c-1.156,1.308-2.356,2.66-2.356,5.108v1.278h-15.9v-1.241c0-1.089-.978-1.748-2.215-2.585-2.285-1.541-5.734-3.871-5.734-9.7V122.94ZM16.655,105.5a2.115,2.115,0,0,1,4.215,0v9.279H16.655Zm6.3-.585a2.108,2.108,0,0,1,4.215,0v10.908a2.108,2.108,0,0,1-1.978,2.1c.019-.263.026-.541.026-.83a2.353,2.353,0,0,0-2.263-2.308v-9.871Zm6.308,1.245a2.108,2.108,0,0,1,4.215,0v9.664a2.108,2.108,0,1,1-4.215,0Zm6.3,9.664v-8.116a2.108,2.108,0,0,1,4.215,0v8.116a2.108,2.108,0,0,1-4.215,0Zm2.685,25.7a1.533,1.533,0,0,1,1.53,1.53v4.137a1.533,1.533,0,0,1-1.53,1.53H15.111a1.53,1.53,0,0,1-1.53-1.53v-4.137a1.53,1.53,0,0,1,1.53-1.53Zm-22.91-4.182a9.124,9.124,0,0,1,1.3.97v1.122H15.111a3.622,3.622,0,0,0-3.619,3.619v4.137a3.622,3.622,0,0,0,3.619,3.619H38.257a3.622,3.622,0,0,0,3.619-3.619v-4.137a3.622,3.622,0,0,0-3.619-3.619H36.724v-1.278c0-1.656.767-2.522,1.83-3.723a11.227,11.227,0,0,0,3.323-8.523v-18.2a4.2,4.2,0,0,0-6.716-3.356,4.2,4.2,0,0,0-6.415-1.463,4.191,4.191,0,0,0-7.134-.348,4.275,4.275,0,0,0-2.848-1.074,4.123,4.123,0,0,0-4.2,4.034v9.279H13.555a4.742,4.742,0,0,0-4.86,4.6V125.9c0,6.938,4.326,9.86,6.652,11.431Z" transform="translate(-8.695 -91.019)" fill="#030403"/>
        <path id="Trazado_1180446" data-name="Trazado 1180446" d="M308.082,339.47a.236.236,0,0,1,.23-.23H329.1a.233.233,0,0,1,.23.23v3.76a.234.234,0,0,1-.23.233H308.312a.237.237,0,0,1-.23-.233Zm.23,6.082H329.1a2.323,2.323,0,0,0,2.319-2.322v-3.76a2.322,2.322,0,0,0-2.319-2.319H308.312a2.322,2.322,0,0,0-2.319,2.319v3.76A2.323,2.323,0,0,0,308.312,345.552Z" transform="translate(-267.145 -296.562)" fill="#030403"/>
        <path id="Trazado_1180447" data-name="Trazado 1180447" d="M367.269,174.237a.233.233,0,0,1,.23-.23h13.053a.233.233,0,0,1,.23.23V178a.231.231,0,0,1-.23.23H367.5a.231.231,0,0,1-.23-.23Zm.23,6.082h13.053A2.323,2.323,0,0,0,382.871,178v-3.76a2.322,2.322,0,0,0-2.319-2.319H367.5a2.32,2.32,0,0,0-2.319,2.319V178A2.321,2.321,0,0,0,367.5,180.319Z" transform="translate(-318.598 -152.92)" fill="#030403"/>
        <path id="Trazado_1180448" data-name="Trazado 1180448" d="M337.675,256.842a.231.231,0,0,1,.23-.23h16.92a.231.231,0,0,1,.23.23v3.76a.231.231,0,0,1-.23.23H337.9a.231.231,0,0,1-.23-.23Zm.23,6.078h16.92a2.322,2.322,0,0,0,2.319-2.319v-3.76a2.323,2.323,0,0,0-2.319-2.322H337.9a2.321,2.321,0,0,0-2.319,2.322v3.76A2.32,2.32,0,0,0,337.9,262.921Z" transform="translate(-292.871 -224.728)" fill="#030403"/>
        <path id="Trazado_1180449" data-name="Trazado 1180449" d="M375.538,33.838a1.667,1.667,0,0,0,1.6-1.163l1.008-3.123,1.007,3.123a1.674,1.674,0,0,0,1.6,1.163h0l3.278-.007-2.656,1.922a1.673,1.673,0,0,0-.611,1.878l1.019,3.119-2.648-1.934a1.673,1.673,0,0,0-1.974,0L374.5,40.75l1.019-3.119a1.672,1.672,0,0,0-.607-1.878l-2.66-1.922,3.282.007Zm-5.549.934,3.456,2.5-1.326,4.048a1.676,1.676,0,0,0,2.582,1.874l3.441-2.511,3.441,2.511a1.677,1.677,0,0,0,2.585-1.874l-1.326-4.048,3.452-2.5a1.676,1.676,0,0,0-.985-3.034l-4.26.007-1.311-4.056a1.679,1.679,0,0,0-3.193,0l-1.307,4.056-4.26-.007h0a1.676,1.676,0,0,0-.985,3.034Z" transform="translate(-322.177 -26.53)" fill="#030403"/>
      </g>
    </g>
  </g>
</svg>
