<svg xmlns="http://www.w3.org/2000/svg" xmlns:xlink="http://www.w3.org/1999/xlink" width="113" height="113" viewBox="0 0 113 113">
  <defs>
    <filter id="Trazado_982547" x="0" y="0" width="113" height="113" filterUnits="userSpaceOnUse">
      <feOffset dy="3" input="SourceAlpha"/>
      <feGaussianBlur stdDeviation="3" result="blur"/>
      <feFlood flood-opacity="0.161"/>
      <feComposite operator="in" in2="blur"/>
      <feComposite in="SourceGraphic"/>
    </filter>
  </defs>
  <g id="Grupo_1224240" data-name="Grupo 1224240" transform="translate(-1215.509 -1954.751)">
    <g id="Grupo_1224094" data-name="Grupo 1224094" transform="translate(541.51 -2620.317)">
      <g id="Grupo_1223184" data-name="Grupo 1223184" transform="translate(683 4581.069)">
        <g id="Grupo_1211216" data-name="Grupo 1211216" transform="translate(0)">
          <g id="Grupo_1210737" data-name="Grupo 1210737">
            <g id="Grupo_1210537" data-name="Grupo 1210537">
              <g id="Grupo_1164202" data-name="Grupo 1164202">
                <g id="Grupo_1158168" data-name="Grupo 1158168">
                  <g id="Grupo_1152576" data-name="Grupo 1152576">
                    <g id="Grupo_1148633" data-name="Grupo 1148633">
                      <g id="Grupo_1148525" data-name="Grupo 1148525">
                        <g transform="matrix(1, 0, 0, 1, -9, -6)" filter="url(#Trazado_982547)">
                          <g id="Trazado_982547-2" data-name="Trazado 982547" transform="translate(9 6)" fill="#fcf5f0">
                            <path d="M 47.49999618530273 93.5 C 41.28936767578125 93.5 35.26533126831055 92.28396606445312 29.59518241882324 89.88570404052734 C 24.11771583557129 87.56893157958984 19.19812965393066 84.251953125 14.97308921813965 80.02690124511719 C 10.74803638458252 75.80186462402344 7.431062698364258 70.88227844238281 5.114289283752441 65.40480804443359 C 2.716022968292236 59.73466110229492 1.499996185302734 53.71062469482422 1.499996185302734 47.49999618530273 C 1.499996185302734 41.28936767578125 2.716022968292236 35.26533126831055 5.114289283752441 29.59518241882324 C 7.431062698364258 24.11771583557129 10.74803638458252 19.19812965393066 14.97308921813965 14.97308921813965 C 19.19812965393066 10.74803638458252 24.11771583557129 7.431062698364258 29.59518241882324 5.114289283752441 C 35.26533126831055 2.716022968292236 41.28936767578125 1.499996185302734 47.49999618530273 1.499996185302734 C 53.71062469482422 1.499996185302734 59.73466110229492 2.716022968292236 65.40480804443359 5.114289283752441 C 70.88227844238281 7.431062698364258 75.80186462402344 10.74803638458252 80.02690124511719 14.97308921813965 C 84.251953125 19.19812965393066 87.56893157958984 24.11771583557129 89.88570404052734 29.59518241882324 C 92.28396606445312 35.26533126831055 93.5 41.28936767578125 93.5 47.49999618530273 C 93.5 53.71062469482422 92.28396606445312 59.73466110229492 89.88570404052734 65.40480804443359 C 87.56893157958984 70.88227844238281 84.251953125 75.80186462402344 80.02690124511719 80.02690124511719 C 75.80186462402344 84.251953125 70.88227844238281 87.56893157958984 65.40480804443359 89.88570404052734 C 59.73466110229492 92.28396606445312 53.71062469482422 93.5 47.49999618530273 93.5 Z" stroke="none"/>
                            <path d="M 47.49999618530273 2.999992370605469 C 41.4912109375 2.999992370605469 35.66376495361328 4.1761474609375 30.17950439453125 6.495796203613281 C 24.88084411621094 8.736953735351562 20.12152099609375 11.94598388671875 16.03375244140625 16.03375244140625 C 11.94598388671875 20.12152099609375 8.736953735351562 24.88084411621094 6.495796203613281 30.17950439453125 C 4.1761474609375 35.66376495361328 2.999992370605469 41.4912109375 2.999992370605469 47.49999618530273 C 2.999992370605469 53.50878143310547 4.1761474609375 59.33622741699219 6.495796203613281 64.82048797607422 C 8.736953735351562 70.11914825439453 11.94598388671875 74.87847137451172 16.03375244140625 78.96623992919922 C 20.12152099609375 83.05400848388672 24.88084411621094 86.26304626464844 30.17950439453125 88.50419616699219 C 35.66376495361328 90.82384490966797 41.4912109375 92 47.49999618530273 92 C 53.50878143310547 92 59.33622741699219 90.82384490966797 64.82048797607422 88.50419616699219 C 70.11914825439453 86.26304626464844 74.87847137451172 83.05400848388672 78.96623992919922 78.96623992919922 C 83.05400848388672 74.87847137451172 86.26304626464844 70.11914825439453 88.50419616699219 64.82048797607422 C 90.82384490966797 59.33622741699219 92 53.50878143310547 92 47.49999618530273 C 92 41.4912109375 90.82384490966797 35.66376495361328 88.50419616699219 30.17950439453125 C 86.26304626464844 24.88084411621094 83.05400848388672 20.12152099609375 78.96623992919922 16.03375244140625 C 74.87847137451172 11.94598388671875 70.11914825439453 8.736953735351562 64.82048797607422 6.495796203613281 C 59.33622741699219 4.1761474609375 53.50878143310547 2.999992370605469 47.49999618530273 2.999992370605469 M 47.49999618530273 -7.62939453125e-06 C 73.7335205078125 -7.62939453125e-06 95 21.26647186279297 95 47.49999618530273 C 95 73.7335205078125 73.7335205078125 95 47.49999618530273 95 C 21.26647186279297 95 -7.62939453125e-06 73.7335205078125 -7.62939453125e-06 47.49999618530273 C -7.62939453125e-06 21.26647186279297 21.26647186279297 -7.62939453125e-06 47.49999618530273 -7.62939453125e-06 Z" stroke="none" fill="#eca675"/>
                          </g>
                        </g>
                      </g>
                    </g>
                  </g>
                </g>
              </g>
            </g>
          </g>
        </g>
      </g>
    </g>
    <g id="law_3206879" transform="translate(1238.499 1971.735)">
      <g id="Grupo_1224238" data-name="Grupo 1224238" transform="translate(2.049 2.048)">
        <g id="Grupo_1224224" data-name="Grupo 1224224" transform="translate(41.949 23.072)">
          <path id="Trazado_1180475" data-name="Trazado 1180475" d="M44.1,24v7.341a1.052,1.052,0,0,1-1.049,1.049H42V47.6l4.195,2.622,10.487-1.961V24Z" transform="translate(-42 -24)" fill="#cf9e76"/>
        </g>
        <g id="Grupo_1224225" data-name="Grupo 1224225" transform="translate(6.292 23.072)">
          <path id="Trazado_1180476" data-name="Trazado 1180476" d="M21.633,32.39a1.052,1.052,0,0,1-1.049-1.049V24H8V48.121l12.585,2.1,2.1-2.1V32.39Z" transform="translate(-8 -24)" fill="#cf9e76"/>
        </g>
        <g id="Grupo_1224226" data-name="Grupo 1224226" transform="translate(2.097)">
          <path id="Trazado_1180477" data-name="Trazado 1180477" d="M31.414,6.73,4.65,22.586A1.356,1.356,0,0,0,4,23.74V20.405a3.139,3.139,0,0,1,1.552-2.716L31.414,2.535a3.824,3.824,0,0,1,3.9,0L61.176,17.689a3.139,3.139,0,0,1,1.552,2.716V23.74a1.356,1.356,0,0,0-.65-1.154L35.315,6.73a3.824,3.824,0,0,0-3.9,0Z" transform="translate(-4 -2)" fill="#fcd770"/>
        </g>
        <g id="Grupo_1224227" data-name="Grupo 1224227" transform="translate(2.097 4.195)">
          <path id="Trazado_1180478" data-name="Trazado 1180478" d="M62.078,22.392,35.315,6.535a3.824,3.824,0,0,0-3.9,0L4.65,22.392A1.356,1.356,0,0,0,4,23.545a1.334,1.334,0,0,0,1.332,1.332H61.4a1.334,1.334,0,0,0,1.332-1.332A1.356,1.356,0,0,0,62.078,22.392Z" transform="translate(-4 -6)" fill="#ffeaa7"/>
        </g>
        <g id="Grupo_1224228" data-name="Grupo 1224228" transform="translate(29.364 10.487)">
          <circle id="Elipse_14744" data-name="Elipse 14744" cx="2.097" cy="2.097" r="2.097" transform="translate(0 0)" fill="#69d6f4"/>
        </g>
        <g id="Grupo_1224229" data-name="Grupo 1224229" transform="translate(39.851 16.78)">
          <path id="Trazado_1180479" data-name="Trazado 1180479" d="M44.195,24.292v7.341a1.052,1.052,0,0,1-1.049,1.049H42.1a2.1,2.1,0,0,1-2.1-2.1V20.1A2.1,2.1,0,0,1,42.1,18h1.049a1.052,1.052,0,0,1,1.049,1.049Z" transform="translate(-40 -18)" fill="#aab2bd"/>
        </g>
        <g id="Grupo_1224230" data-name="Grupo 1224230" transform="translate(18.877 16.78)">
          <path id="Trazado_1180480" data-name="Trazado 1180480" d="M24.195,20.1V30.585a2.1,2.1,0,0,1-2.1,2.1H21.049A1.052,1.052,0,0,1,20,31.633V19.049A1.052,1.052,0,0,1,21.049,18H22.1A2.1,2.1,0,0,1,24.195,20.1Z" transform="translate(-20 -18)" fill="#aab2bd"/>
        </g>
        <g id="Grupo_1224231" data-name="Grupo 1224231" transform="translate(23.072 18.877)">
          <path id="Trazado_1180481" data-name="Trazado 1180481" d="M40.78,20V30.487H24V20Z" transform="translate(-24 -20)" fill="#ccd1d9"/>
        </g>
        <g id="Grupo_1224232" data-name="Grupo 1224232" transform="translate(29.364 33.559)">
          <path id="Trazado_1180482" data-name="Trazado 1180482" d="M34.195,34V45.2a2.734,2.734,0,0,0-.294.178l-1.416.944-2.485-1V34Z" transform="translate(-30 -34)" fill="#969faa"/>
        </g>
        <g id="Grupo_1224233" data-name="Grupo 1224233" transform="translate(28.316 29.364)">
          <path id="Trazado_1180483" data-name="Trazado 1180483" d="M35.292,30l-1.049,4.195H30.049L29,30Z" transform="translate(-29 -30)" fill="#969faa"/>
        </g>
        <g id="Grupo_1224234" data-name="Grupo 1224234" transform="translate(46.144 46.144)">
          <path id="Trazado_1180484" data-name="Trazado 1180484" d="M62.78,46V60.682L46,58.585V49.146l2.1-.4,4.195-.776,4.195-.787Z" transform="translate(-46 -46)" fill="#ff826e"/>
        </g>
        <g id="Grupo_1224235" data-name="Grupo 1224235" transform="translate(0 46.144)">
          <path id="Trazado_1180485" data-name="Trazado 1180485" d="M20.877,49.146v9.439L2,60.682V46l6.292,1.049,4.195.7,4.195.692Z" transform="translate(-2 -46)" fill="#75b1f2"/>
        </g>
        <g id="Grupo_1224236" data-name="Grupo 1224236" transform="translate(25.169 44.046)">
          <path id="Trazado_1180486" data-name="Trazado 1180486" d="M39.633,59.972v-.451a8.015,8.015,0,0,0-.178-1.657l-1.594-7.173a1.853,1.853,0,0,0-2.915-1.08L32.3,51.593a3.973,3.973,0,0,1-6.156-1.919L26,49.244a24.855,24.855,0,0,0,5.9-2.884l.776-.524,1.416-.944a2.733,2.733,0,0,1,.294-.178,5.35,5.35,0,0,1,5.5.094l2.894,1.814,4.195,2.622v9.438l-1.835.734A19.057,19.057,0,0,1,39.5,60.727a2.29,2.29,0,0,0,.136-.755Z" transform="translate(-26 -44)" fill="#f0d0b4"/>
        </g>
        <g id="Grupo_1224237" data-name="Grupo 1224237" transform="translate(18.877 44.046)">
          <path id="Trazado_1180487" data-name="Trazado 1180487" d="M39.926,59.521v.451a2.29,2.29,0,0,1-.136.755,2.12,2.12,0,0,1-1.7,1.332l-5.9.734a10.862,10.862,0,0,1-1.311.084,10.471,10.471,0,0,1-4.709-1.112L20,58.682V49.244l2.1-2.1,1.626-1.626a5.194,5.194,0,0,1,5.59-1.154l1.175.472,2.485,1-.776.524a24.855,24.855,0,0,1-5.9,2.884l.147.43A3.973,3.973,0,0,0,32.6,51.593l2.643-1.982a1.853,1.853,0,0,1,2.915,1.08l1.594,7.173a8.015,8.015,0,0,1,.178,1.657Z" transform="translate(-20 -44)" fill="#f0d0b4"/>
        </g>
      </g>
      <g id="Grupo_1224239" data-name="Grupo 1224239" transform="translate(1 1.012)">
        <path id="Trazado_1180488" data-name="Trazado 1180488" d="M66.021,46.928l-6.292,1.18V26.169h1.81a2.388,2.388,0,0,0,2.385-2.385V20.449A4.211,4.211,0,0,0,61.85,16.83L35.994,1.674a4.992,4.992,0,0,0-4.967,0L5.171,16.831A4.211,4.211,0,0,0,3.1,20.449v3.335a2.388,2.388,0,0,0,2.385,2.385h1.81V48L1,46.953V64.045l19.733-2.193L26.619,64.8a11.608,11.608,0,0,0,6.624,1.135l5.9-.738A3.141,3.141,0,0,0,41.372,63.8a20.041,20.041,0,0,0,5.372-1.313l1.588-.636,17.69,2.212ZM57.631,48.5l-2.1.393V26.169h2.1Zm-12.585-.367V34.559a2.1,2.1,0,0,0,2.1-2.1V26.169h2.1V50.074l-.84.157ZM17.78,49.75V26.169h2.1v6.292a2.1,2.1,0,0,0,2.1,2.1V48.806l-1.408,1.408Zm-2.1-23.582V49.4l-2.1-.349V26.169Zm6.292,6.292V19.876h1.049a1.05,1.05,0,0,1,1.049,1.049V31.412a1.05,1.05,0,0,1-1.049,1.049Zm2.1,1.9a3.143,3.143,0,0,0,1.9-1.9h3.57l.818,3.276v9.669a6.293,6.293,0,0,0-6.292,1.325Zm2.1-12.392H40.851v8.39H26.169Zm8.619,12.585H32.232l-.525-2.1h3.607Zm-2.327,2.1h2.1v9.576l-.778.519-1.319-.528Zm4.195-.919.819-3.276h3.57a3.143,3.143,0,0,0,1.9,1.9V46.824l-1.292-.808a6.475,6.475,0,0,0-5-.736V35.737Zm6.292-4.325V20.925A1.05,1.05,0,0,1,44,19.876h1.049V32.461H44A1.05,1.05,0,0,1,42.949,31.412Zm8.39-5.244h2.1V49.288l-2.1.393ZM6.231,18.64,32.088,3.484a2.859,2.859,0,0,1,2.845,0L60.79,18.641a2.1,2.1,0,0,1,1.036,1.808v.733L36,5.875a4.954,4.954,0,0,0-4.971,0L5.195,21.182v-.733A2.106,2.106,0,0,1,6.231,18.64ZM5.195,23.784a.29.29,0,0,1,.142-.247L32.094,7.68a2.825,2.825,0,0,1,2.833,0L61.684,23.536a.291.291,0,0,1,.142.247.288.288,0,0,1-.287.287H47.144V19.876a2.1,2.1,0,0,0-2.1-2.1H44a3.142,3.142,0,0,0-2.953,2.1H25.976a3.142,3.142,0,0,0-2.953-2.1H21.974a2.1,2.1,0,0,0-2.1,2.1v4.195H5.482a.288.288,0,0,1-.287-.287ZM9.39,26.169h2.1V48.7l-2.1-.349ZM3.1,49.43l16.78,2.8v7.612L3.1,61.7ZM39.8,62.071a1.05,1.05,0,0,1-.919,1.04l-5.9.738a9.582,9.582,0,0,1-5.425-.929l-5.583-2.792V51.772l3.418-3.417a4.179,4.179,0,0,1,4.461-.917l1.783.713a23.689,23.689,0,0,1-4.75,2.191l-.994.331.473,1.42a5.027,5.027,0,0,0,7.786,2.433l2.642-1.981a.825.825,0,0,1,1.258.466l1.594,7.169a6.629,6.629,0,0,1,.157,1.438Zm6.162-1.532A17.968,17.968,0,0,1,41.9,61.632v-.014a8.7,8.7,0,0,0-.208-1.893L40.1,52.556a2.878,2.878,0,0,0-2.826-2.266,2.909,2.909,0,0,0-1.737.579l-2.643,1.981a2.932,2.932,0,0,1-4.3-.888A25.835,25.835,0,0,0,33.7,49.322l2.189-1.46a4.356,4.356,0,0,1,4.651-.068l6.6,4.126v8.146Zm17.958,1.147L49.241,59.851V52.209l14.682-2.753Z" transform="translate(-1 -1.012)"/>
        <path id="Trazado_1180489" data-name="Trazado 1180489" d="M32.146,17.292A3.146,3.146,0,1,0,29,14.146,3.15,3.15,0,0,0,32.146,17.292Zm0-4.195A1.049,1.049,0,1,1,31.1,14.146,1.05,1.05,0,0,1,32.146,13.1Z" transform="translate(0.364 -0.526)"/>
      </g>
    </g>
  </g>
</svg>
