<svg xmlns="http://www.w3.org/2000/svg" xmlns:xlink="http://www.w3.org/1999/xlink" width="103" height="103" viewBox="0 0 103 103">
  <defs>
    <filter id="Trazado_982547" x="0" y="0" width="103" height="103" filterUnits="userSpaceOnUse">
      <feOffset dy="3" input="SourceAlpha"/>
      <feGaussianBlur stdDeviation="3" result="blur"/>
      <feFlood flood-opacity="0.161"/>
      <feComposite operator="in" in2="blur"/>
      <feComposite in="SourceGraphic"/>
    </filter>
  </defs>
  <g id="Grupo_1224203" data-name="Grupo 1224203" transform="translate(-614.13 -426)">
    <g id="Grupo_1224081" data-name="Grupo 1224081" transform="translate(420 -1582)">
      <g id="Grupo_1206686" data-name="Grupo 1206686" transform="translate(-2.87 300.583)">
        <g id="Grupo_1201889" data-name="Grupo 1201889" transform="translate(206 1713.417)">
          <g id="Grupo_1201680" data-name="Grupo 1201680">
            <g id="Grupo_1201330" data-name="Grupo 1201330">
              <g id="Grupo_1172010" data-name="Grupo 1172010">
                <g id="Grupo_1171046" data-name="Grupo 1171046">
                  <g id="Grupo_1148525" data-name="Grupo 1148525">
                    <g transform="matrix(1, 0, 0, 1, -9, -6)" filter="url(#Trazado_982547)">
                      <g id="Trazado_982547-2" data-name="Trazado 982547" transform="translate(9 6)" fill="#f2f4f0">
                        <path d="M 42.5 83.5 C 36.96437835693359 83.5 31.59512901306152 82.41617584228516 26.54141235351562 80.27863311767578 C 21.65934181213379 78.21369171142578 17.27447128295898 75.25723266601562 13.50862312316895 71.49137878417969 C 9.742764472961426 67.72553253173828 6.786305904388428 63.34066009521484 4.721364498138428 58.45858764648438 C 2.583823442459106 53.40486907958984 1.5 48.03562164306641 1.5 42.5 C 1.5 36.96437835693359 2.583823442459106 31.59512901306152 4.721364498138428 26.54141235351562 C 6.786305904388428 21.65934181213379 9.742764472961426 17.27448272705078 13.50862312316895 13.50862312316895 C 17.27447128295898 9.742776870727539 21.65934181213379 6.786305904388428 26.54141235351562 4.721364498138428 C 31.59512901306152 2.583823442459106 36.96437835693359 1.5 42.5 1.5 C 48.03562164306641 1.5 53.40486907958984 2.583823442459106 58.45858764648438 4.721364498138428 C 63.34066009521484 6.786305904388428 67.72553253173828 9.742776870727539 71.49137878417969 13.50862312316895 C 75.25723266601562 17.27448272705078 78.21369171142578 21.65934181213379 80.27863311767578 26.54141235351562 C 82.41617584228516 31.59512901306152 83.5 36.96437835693359 83.5 42.5 C 83.5 48.03562164306641 82.41617584228516 53.40486907958984 80.27863311767578 58.45858764648438 C 78.21369171142578 63.34066009521484 75.25723266601562 67.72553253173828 71.49137878417969 71.49137878417969 C 67.72553253173828 75.25723266601562 63.34066009521484 78.21369171142578 58.45858764648438 80.27863311767578 C 53.40486907958984 82.41617584228516 48.03562164306641 83.5 42.5 83.5 Z" stroke="none"/>
                        <path d="M 42.5 3 C 37.16621398925781 3 31.99356079101562 4.043960571289062 27.125732421875 6.102882385253906 C 22.42246627807617 8.092185974121094 18.19785308837891 10.94070434570312 14.56928253173828 14.56928253173828 C 10.94070434570312 18.19785308837891 8.092185974121094 22.42246627807617 6.102882385253906 27.125732421875 C 4.043960571289062 31.99356079101562 3 37.16621398925781 3 42.5 C 3 47.83378601074219 4.043960571289062 53.00643920898438 6.102882385253906 57.87425231933594 C 8.092185974121094 62.57753372192383 10.94070434570312 66.80213165283203 14.56928253173828 70.43071746826172 C 18.19786834716797 74.05929565429688 22.42246627807617 76.90781402587891 27.125732421875 78.89711761474609 C 31.99356079101562 80.95603942871094 37.16621398925781 82 42.5 82 C 47.83378601074219 82 53.00642395019531 80.95603942871094 57.87425231933594 78.89711761474609 C 62.57753372192383 76.90781402587891 66.80213165283203 74.05929565429688 70.43071746826172 70.43071746826172 C 74.05929565429688 66.80213165283203 76.90781402587891 62.57753372192383 78.89711761474609 57.87425231933594 C 80.95603942871094 53.00642395019531 82 47.83378601074219 82 42.5 C 82 37.16621398925781 80.95603942871094 31.99356079101562 78.89711761474609 27.125732421875 C 76.90781402587891 22.42246627807617 74.05929565429688 18.19786834716797 70.43071746826172 14.56928253173828 C 66.80213165283203 10.94070434570312 62.57753372192383 8.092185974121094 57.87425231933594 6.102882385253906 C 53.00643920898438 4.043960571289062 47.83378601074219 3 42.5 3 M 42.5 0 C 65.97209167480469 0 85 19.02789306640625 85 42.5 C 85 65.97209167480469 65.97209167480469 85 42.5 85 C 19.02789306640625 85 0 65.97209167480469 0 42.5 C 0 19.02789306640625 19.02789306640625 0 42.5 0 Z" stroke="none" fill="#899e78"/>
                      </g>
                    </g>
                  </g>
                </g>
              </g>
            </g>
          </g>
        </g>
      </g>
    </g>
    <g id="Layer_23" data-name="Layer 23" transform="translate(633.63 442.504)">
      <path id="Trazado_1180368" data-name="Trazado 1180368" d="M23.746,36a18,18,0,1,1,16.508,0" fill="#e2e7f6"/>
      <path id="Trazado_1180369" data-name="Trazado 1180369" d="M40.864,4.345A18,18,0,1,0,23.746,36H36.653A21.471,21.471,0,0,0,40.864,4.345Z" fill="#f2f2f2"/>
      <path id="Trazado_1180370" data-name="Trazado 1180370" d="M38,27l-3-6H29l-3,6Z" fill="#976947"/>
      <rect id="Rectángulo_421910" data-name="Rectángulo 421910" width="20" height="4" rx="2" transform="translate(22 27)" fill="#674025"/>
      <path id="Trazado_1180371" data-name="Trazado 1180371" d="M19,17H45v4H19Z" fill="#c18e59"/>
      <path id="Trazado_1180372" data-name="Trazado 1180372" d="M29,17V16a3,3,0,0,1,6,0v1" fill="#976947"/>
      <circle id="Elipse_14739" data-name="Elipse 14739" cx="3" cy="3" r="3" transform="translate(20 11)" fill="#f0ae42"/>
      <circle id="Elipse_14740" data-name="Elipse 14740" cx="3" cy="3" r="3" transform="translate(38 11)" fill="#f0ae42"/>
      <path id="Trazado_1180373" data-name="Trazado 1180373" d="M38,14a2.965,2.965,0,0,0,.446,1.554A2.965,2.965,0,0,0,40,16a3,3,0,0,0,3-3,2.965,2.965,0,0,0-.446-1.554A2.965,2.965,0,0,0,41,11a3,3,0,0,0-3,3Z" fill="#f9d266"/>
      <path id="Trazado_1180374" data-name="Trazado 1180374" d="M20,14a2.965,2.965,0,0,0,.446,1.554A2.965,2.965,0,0,0,22,16a3,3,0,0,0,3-3,2.965,2.965,0,0,0-.446-1.554A2.965,2.965,0,0,0,23,11a3,3,0,0,0-3,3Z" fill="#f9d266"/>
      <path id="Trazado_1180375" data-name="Trazado 1180375" d="M14,53h3l8.172,8.172a2.828,2.828,0,0,0,4-4l2,2a2.828,2.828,0,0,0,4-4l2,2a2.828,2.828,0,0,0,4-4l2,2a2.828,2.828,0,0,0,4-4L37,41H33l-5.172,5.172a2.828,2.828,0,0,1-4-4L30,36H14Z" fill="#fbe1ca"/>
      <g id="Grupo_1224202" data-name="Grupo 1224202">
        <path id="Trazado_1180376" data-name="Trazado 1180376" d="M52,53H48a2.83,2.83,0,0,0-.823-1.828L37,41H33l-5.172,5.172a2.828,2.828,0,0,1-4-4L30,36H43.2a5.954,5.954,0,0,1,3.3,1,5.954,5.954,0,0,0,3.3,1H52Z" fill="#f2b9a1"/>
        <path id="Trazado_1180377" data-name="Trazado 1180377" d="M37.086,45.722h2V54.45h-2Z" transform="translate(-24.261 41.598) rotate(-45)" fill="#f2b9a1"/>
        <path id="Trazado_1180378" data-name="Trazado 1180378" d="M26.086,52.136h2v5.9h-2Z" transform="translate(-31.017 35.283) rotate(-45)" fill="#f2b9a1"/>
        <path id="Trazado_1180379" data-name="Trazado 1180379" d="M31.586,48.929h2v7.314h-2Z" transform="translate(-27.639 38.441) rotate(-45)" fill="#f2b9a1"/>
      </g>
      <path id="Trazado_1180380" data-name="Trazado 1180380" d="M2,34H14V55H2Z" fill="#e1656e"/>
      <path id="Trazado_1180381" data-name="Trazado 1180381" d="M2,34V51H8a2,2,0,0,0,2-2V34Z" fill="#f29b99"/>
      <path id="Trazado_1180382" data-name="Trazado 1180382" d="M52,36H62V55H52Z" fill="#3b5892"/>
      <path id="Trazado_1180383" data-name="Trazado 1180383" d="M52,36V50h4a2,2,0,0,0,2-2V36Z" fill="#4c6cb5"/>
      <path id="Trazado_1180384" data-name="Trazado 1180384" d="M40,32a3,3,0,0,0,0-6H38.618l-2-4H45a1,1,0,0,0,1-1V17a1,1,0,0,0-1-1h-.556A3.959,3.959,0,0,0,45,14a4,4,0,1,0-8,0,3.959,3.959,0,0,0,.556,2H36a4,4,0,0,0-8,0H26.444A3.959,3.959,0,0,0,27,14a4,4,0,1,0-8,0,3.959,3.959,0,0,0,.556,2H19a1,1,0,0,0-1,1v4a1,1,0,0,0,1,1h8.382l-2,4H24a3,3,0,0,0,0,6ZM39,14a2,2,0,1,1,2,2A2,2,0,0,1,39,14Zm-7,0a2,2,0,0,1,2,2H30A2,2,0,0,1,32,14ZM21,14a2,2,0,1,1,2,2A2,2,0,0,1,21,14Zm-1,4H44v2H20Zm9.618,4h4.764l2,4H27.618ZM23,29a1,1,0,0,1,1-1H40a1,1,0,0,1,0,2H24A1,1,0,0,1,23,29Z"/>
      <path id="Trazado_1180385" data-name="Trazado 1180385" d="M62,35H52a1,1,0,0,0-1,1v1H49.8a4.938,4.938,0,0,1-2.748-.832,6.913,6.913,0,0,0-3.441-1.137A19,19,0,1,0,20.346,35H15V34a1,1,0,0,0-1-1H2a1,1,0,0,0-1,1V55a1,1,0,0,0,1,1H14a1,1,0,0,0,1-1V54h1.586l7.879,7.879a3.814,3.814,0,0,0,6.38-1.688,3.789,3.789,0,0,0,6-2,3.789,3.789,0,0,0,6-2A3.786,3.786,0,0,0,45.171,57,3.831,3.831,0,0,0,48.9,54H51v1a1,1,0,0,0,1,1H62a1,1,0,0,0,1-1V36A1,1,0,0,0,62,35ZM13,54H3V35H13Zm2-34A17,17,0,1,1,39.993,35H24.007A16.947,16.947,0,0,1,15,20ZM45.171,55a1.819,1.819,0,0,1-1.293-.535l-8.171-8.172-1.414,1.414,6.172,6.172a1.829,1.829,0,0,1-2.587,2.586l-7.171-7.172-1.414,1.414,5.172,5.172a1.829,1.829,0,0,1-2.587,2.586l-6.171-6.172-1.414,1.414,4.172,4.172a1.829,1.829,0,0,1-2.587,2.586l-8.171-8.172A1,1,0,0,0,17,52H15V37H27.586l-4.464,4.465a3.828,3.828,0,0,0,5.414,5.414L33.414,42h3.172l9.879,9.879A1.829,1.829,0,0,1,45.171,55ZM48.8,52a3.785,3.785,0,0,0-.922-1.535L37.707,40.293A1,1,0,0,0,37,40H33a1,1,0,0,0-.707.293l-5.171,5.172a1.829,1.829,0,1,1-2.586-2.586L30.414,37H43.2a4.938,4.938,0,0,1,2.748.832A6.933,6.933,0,0,0,49.8,39H51V52ZM61,54H53V37h8Z"/>
    </g>
  </g>
</svg>
