<svg xmlns="http://www.w3.org/2000/svg" xmlns:xlink="http://www.w3.org/1999/xlink" width="108" height="108" viewBox="0 0 108 108">
  <defs>
    <filter id="Trazado_904820" x="0" y="0" width="108" height="108" filterUnits="userSpaceOnUse">
      <feOffset dy="3" input="SourceAlpha"/>
      <feGaussianBlur stdDeviation="3" result="blur"/>
      <feFlood flood-opacity="0.161"/>
      <feComposite operator="in" in2="blur"/>
      <feComposite in="SourceGraphic"/>
    </filter>
  </defs>
  <g id="Grupo_1224074" data-name="Grupo 1224074" transform="translate(9 6)">
    <g id="Grupo_1173585" data-name="Grupo 1173585" transform="translate(0 0)">
      <g id="Grupo_1173428" data-name="Grupo 1173428">
        <g id="Grupo_1171958" data-name="Grupo 1171958">
          <g id="Grupo_1167341" data-name="Grupo 1167341">
            <g id="Grupo_1166792" data-name="Grupo 1166792">
              <g transform="matrix(1, 0, 0, 1, -9, -6)" filter="url(#Trazado_904820)">
                <g id="Trazado_904820-2" data-name="Trazado 904820" transform="translate(9 6)" fill="#f2f4f0">
                  <path d="M 44.99999618530273 88.49995422363281 C 39.12687301635742 88.49995422363281 33.43022155761719 87.35002899169922 28.06829643249512 85.08213043212891 C 22.88852119445801 82.89126586914062 18.23629570007324 79.75455474853516 14.24084663391113 75.75910186767578 C 10.24540901184082 71.76364898681641 7.108683586120605 67.11142730712891 4.917821407318115 61.93166351318359 C 2.649921178817749 56.56974029541016 1.499996185302734 50.87308883666992 1.499996185302734 44.99997711181641 C 1.499996185302734 39.12685394287109 2.649921178817749 33.43021392822266 4.917821407318115 28.06828880310059 C 7.108683586120605 22.88851547241211 10.24540901184082 18.23630142211914 14.24084663391113 14.24085235595703 C 18.23629570007324 10.24540233612061 22.88852119445801 7.108689785003662 28.06829643249512 4.917827129364014 C 33.43022155761719 2.649927139282227 39.12687301635742 1.500002145767212 44.99999618530273 1.500002145767212 C 50.87311935424805 1.500002145767212 56.56977081298828 2.649927139282227 61.93169784545898 4.917827129364014 C 67.11147308349609 7.108689785003662 71.76369476318359 10.24540233612061 75.75914764404297 14.24085235595703 C 79.75458526611328 18.23630142211914 82.89131164550781 22.88851547241211 85.08216857910156 28.06828880310059 C 87.35007476806641 33.43021392822266 88.5 39.12685394287109 88.5 44.99997711181641 C 88.5 50.87308883666992 87.35007476806641 56.56974029541016 85.08216857910156 61.93166351318359 C 82.89131164550781 67.11142730712891 79.75458526611328 71.76364898681641 75.75914764404297 75.75910186767578 C 71.76369476318359 79.75455474853516 67.11147308349609 82.89126586914062 61.93169784545898 85.08213043212891 C 56.56977081298828 87.35002899169922 50.87311935424805 88.49995422363281 44.99999618530273 88.49995422363281 Z" stroke="none"/>
                  <path d="M 44.99999618530273 2.999992370605469 C 39.32870864868164 2.999992370605469 33.82865142822266 4.11004638671875 28.65262603759766 6.299331665039062 C 23.65165710449219 8.414566040039062 19.15968322753906 11.44333648681641 15.301513671875 15.30150604248047 C 11.44333648681641 19.15967559814453 8.414566040039062 23.65163421630859 6.299339294433594 28.65260696411133 C 4.110054016113281 33.82864761352539 2.999992370605469 39.32868957519531 2.999992370605469 44.99997711181641 C 2.999992370605469 50.6712646484375 4.110054016113281 56.17130661010742 6.299339294433594 61.34733581542969 C 8.414566040039062 66.34830474853516 11.44333648681641 70.84026336669922 15.301513671875 74.69843292236328 C 19.15968322753906 78.55660247802734 23.65165710449219 81.58537292480469 28.65262603759766 83.70060729980469 C 33.82865142822266 85.889892578125 39.32870864868164 86.99994659423828 44.99999618530273 86.99994659423828 C 50.67128372192383 86.99994659423828 56.17134094238281 85.889892578125 61.34736633300781 83.70060729980469 C 66.34834289550781 81.58537292480469 70.84030914306641 78.55660247802734 74.69847869873047 74.69843292236328 C 78.55665588378906 70.84026336669922 81.58542633056641 66.34830474853516 83.70065307617188 61.34733581542969 C 85.88993835449219 56.17130661010742 87 50.6712646484375 87 44.99997711181641 C 87 39.32868957519531 85.88993835449219 33.82864761352539 83.70065307617188 28.65260696411133 C 81.58542633056641 23.65163421630859 78.55665588378906 19.15967559814453 74.69847869873047 15.30150604248047 C 70.84030914306641 11.44333648681641 66.34834289550781 8.414566040039062 61.34736633300781 6.299331665039062 C 56.17134094238281 4.11004638671875 50.67128372192383 2.999992370605469 44.99999618530273 2.999992370605469 M 44.99999618530273 -7.62939453125e-06 C 69.85281372070312 -7.62939453125e-06 90 20.14717864990234 90 44.99997711181641 C 90 69.85276031494141 69.85281372070312 89.99994659423828 44.99999618530273 89.99994659423828 C 20.14717864990234 89.99994659423828 -7.62939453125e-06 69.85276031494141 -7.62939453125e-06 44.99997711181641 C -7.62939453125e-06 20.14717864990234 20.14717864990234 -7.62939453125e-06 44.99999618530273 -7.62939453125e-06 Z" stroke="none" fill="#4a5641"/>
                </g>
              </g>
            </g>
          </g>
        </g>
      </g>
    </g>
    <g id="law_18091998_1_" data-name="law_18091998 (1)" transform="translate(-10.011 -15.839)">
      <g id="Grupo_1224171" data-name="Grupo 1224171" transform="translate(26.827 33.507)">
        <path id="Trazado_1180096" data-name="Trazado 1180096" d="M118.388,39.63H91.827L80.66,51.858v35.15a3.327,3.327,0,0,0,3.157,3.459h34.571a3.327,3.327,0,0,0,3.157-3.459V43.085a3.326,3.326,0,0,0-3.157-3.455Z" transform="translate(-74.684 -39.63)" fill="#5ac0ee" fill-rule="evenodd"/>
        <path id="Trazado_1180097" data-name="Trazado 1180097" d="M109.61,39.63H91.827L80.66,51.858v19.1a21.772,21.772,0,0,0,9.917,2.375A22.4,22.4,0,0,0,109.61,39.63Z" transform="translate(-74.684 -39.63)" fill="#b5e4fa" fill-rule="evenodd"/>
        <path id="Trazado_1180098" data-name="Trazado 1180098" d="M80.66,51.86h8.011A3.327,3.327,0,0,0,91.827,48.4V39.63Z" transform="translate(-74.684 -39.63)" fill="#2387c9" fill-rule="evenodd"/>
        <path id="Trazado_1180099" data-name="Trazado 1180099" d="M323.969,193.58l11.543,9.3a2.144,2.144,0,0,1-2.692,3.338l-11.541-9.3Z" transform="translate(-285.162 -174.295)" fill="#4d4d4e" fill-rule="evenodd"/>
        <path id="Trazado_1180100" data-name="Trazado 1180100" d="M248.364,119.94l7.6,6.124-7.688,9.538-7.6-6.122Z" transform="translate(-214.659 -109.88)" fill="#666766" fill-rule="evenodd"/>
        <path id="Trazado_1180101" data-name="Trazado 1180101" d="M278.694,144.4l3.8,3.06L274.809,157l-3.8-3.06Z" transform="translate(-241.189 -131.276)" fill="gray" fill-rule="evenodd"/>
        <path id="Trazado_1180102" data-name="Trazado 1180102" d="M300.739,85.157l7.634,6.153a2.308,2.308,0,1,1-2.894,3.6l-7.637-6.153a2.31,2.31,0,0,1,2.9-3.6Z" transform="translate(-263.91 -79.01)" fill="#4d4d4e" fill-rule="evenodd"/>
        <path id="Trazado_1180103" data-name="Trazado 1180103" d="M310.85,85.159l7.634,6.153a2.308,2.308,0,0,1,.831,2.152,2.3,2.3,0,0,1-2.276-.355L309.4,86.957a2.3,2.3,0,0,1-.83-2.148A2.309,2.309,0,0,1,310.85,85.159Z" transform="translate(-274.021 -79.013)" fill="#6f6f70" fill-rule="evenodd"/>
        <path id="Trazado_1180104" data-name="Trazado 1180104" d="M214.319,192.417l7.637,6.157a2.308,2.308,0,0,1-2.9,3.594l-7.637-6.153a2.31,2.31,0,0,1,2.9-3.6Z" transform="translate(-188.315 -172.834)" fill="#4d4d4e" fill-rule="evenodd"/>
        <path id="Trazado_1180105" data-name="Trazado 1180105" d="M224.432,192.429l7.637,6.157a1.33,1.33,0,1,1-1.449,1.8l-7.637-6.153a1.333,1.333,0,1,1,1.449-1.8Z" transform="translate(-198.428 -172.846)" fill="#6f6f70" fill-rule="evenodd"/>
        <path id="Trazado_1180106" data-name="Trazado 1180106" d="M350.869,218.164l2.884-3.575a1.858,1.858,0,0,1,2.609-.281l10.006,8.061a1.863,1.863,0,0,1,.281,2.613l-2.88,3.573a1.867,1.867,0,0,1-2.613.284l-10.006-8.063A1.865,1.865,0,0,1,350.869,218.164Z" transform="translate(-310.688 -192.069)" fill="#666766" fill-rule="evenodd"/>
        <path id="Trazado_1180107" data-name="Trazado 1180107" d="M365.23,216.365l1.442-1.786a1.858,1.858,0,0,1,2.609-.281l10.006,8.061a1.863,1.863,0,0,1,.281,2.613l-1.438,1.786Z" transform="translate(-323.607 -192.06)" fill="#8f8f8f" fill-rule="evenodd"/>
        <path id="Trazado_1180108" data-name="Trazado 1180108" d="M162.58,295.29h20.361v3.416H162.58Z" transform="translate(-146.342 -263.265)" fill="#748994" fill-rule="evenodd"/>
        <path id="Trazado_1180109" data-name="Trazado 1180109" d="M189.57,295.29h16.98v3.416H191.314A10.924,10.924,0,0,1,189.57,295.29Z" transform="translate(-169.951 -263.265)" fill="#9daeb7" fill-rule="evenodd"/>
        <path id="Trazado_1180110" data-name="Trazado 1180110" d="M149.93,330.117c4.819-2.578,9.158-4.03,13.447-3.246V322.55h-26.9v4.322C140.769,326.087,145.112,327.539,149.93,330.117Z" transform="translate(-123.511 -287.11)" fill="#556f78" fill-rule="evenodd"/>
        <path id="Trazado_1180111" data-name="Trazado 1180111" d="M211.656,328.594c3.611-1.587,6.989-2.336,10.337-1.722V322.55h-18.5A18.839,18.839,0,0,0,211.656,328.594Z" transform="translate(-182.127 -287.11)" fill="#82969d" fill-rule="evenodd"/>
        <path id="Trazado_1180112" data-name="Trazado 1180112" d="M32.95,420.41H85.783v4.1H62.721v1.132a1.728,1.728,0,0,1-1.726,1.726H57.741a1.73,1.73,0,0,1-1.729-1.726v-1.132H32.95Z" transform="translate(-32.95 -372.711)" fill="#fcc02d" fill-rule="evenodd"/>
        <path id="Trazado_1180113" data-name="Trazado 1180113" d="M67.08,355.928c7.378-.519,15.936-4.786,22.143,1.775v4.691H67.08Z" transform="translate(-62.805 -314.696)" fill="#feea3a" fill-rule="evenodd"/>
        <path id="Trazado_1180114" data-name="Trazado 1180114" d="M67.08,355.931c5.088-.358,10.738-2.5,15.791-1.641v.031c0,3.263-4.974,5.909-11.111,5.909a19.583,19.583,0,0,1-4.68-.547Z" transform="translate(-62.805 -314.699)" fill="#faf391" fill-rule="evenodd"/>
        <path id="Trazado_1180115" data-name="Trazado 1180115" d="M265.993,355.928c-7.382-.519-15.936-4.786-22.143,1.775v4.691h22.143Z" transform="translate(-217.431 -314.696)" fill="#feea3a" fill-rule="evenodd"/>
        <path id="Trazado_1180116" data-name="Trazado 1180116" d="M310.333,355.931c-5.092-.358-10.742-2.5-15.794-1.641v.031c0,3.263,4.974,5.909,11.111,5.909a19.638,19.638,0,0,0,4.684-.547v-3.752Z" transform="translate(-261.772 -314.699)" fill="#faf391" fill-rule="evenodd"/>
      </g>
      <path id="Trazado_1180117" data-name="Trazado 1180117" d="M36.333,63.3a.877.877,0,1,1,0-1.754H49.053a.877.877,0,1,1,0,1.754Zm7.016-6.416a.877.877,0,0,1,0-1.754H46.9a.877.877,0,1,1,0,1.754Zm-7.016,0a.877.877,0,0,1,0-1.754h4.545a.877.877,0,0,1,0,1.754Zm9.431-6.421a.877.877,0,0,1,0-1.754h5.408a.877.877,0,0,1,0,1.754Zm-9.431,0a.877.877,0,1,1,0-1.754H42.91a.877.877,0,0,1,0,1.754ZM74.512,80.329V75.546c-1.7-.178-3.356-.5-5.067-.824-5.45-1.043-11.05-2.113-15.321,2.145v3.462Zm-22.143,0V76.866c-4.275-4.258-9.871-3.189-15.321-2.145-1.711.327-3.366.646-5.067.824v4.783Zm.877-5.039c3.743-3.49,8.121-3.611,12.57-2.979V69.825H40.672V72.31C45.124,71.678,49.5,71.8,53.245,75.289Zm14.324-2.7c1.736.306,3.515.685,5.241.958V67.783l-6.068-4.889a2.739,2.739,0,0,1-.792-3.217l-2.872-2.315-1.473,1.829a3.182,3.182,0,0,1-4.58,4.333q-3.829-3.063-7.637-6.153a3.182,3.182,0,0,1,3.256-5.4l6.977-8.661A3.183,3.183,0,0,1,64.2,38.978l7.637,6.153a3.183,3.183,0,0,1,.97,1.324V36.962a2.457,2.457,0,0,0-2.28-2.578H44.848v7.9a4.205,4.205,0,0,1-4.034,4.332H33.68V73.549c1.722-.273,3.5-.654,5.237-.958V68.948a.876.876,0,0,1,.877-.873h2.394V65.532a.875.875,0,0,1,.877-.877H63.426a.876.876,0,0,1,.877.877v2.543h2.39a.874.874,0,0,1,.877.873Zm6.995,1.2c.281.033.561.056.838.078a.878.878,0,0,1,.863.877v5.586H79.66a.879.879,0,0,1,.877.877v4.1a.877.877,0,0,1-.877.877H57.474v.256a2.61,2.61,0,0,1-2.6,2.607H51.618a2.613,2.613,0,0,1-2.607-2.607v-.256H26.827a.876.876,0,0,1-.877-.877V81.2a.879.879,0,0,1,.877-.877h3.4V74.742a.876.876,0,0,1,.863-.877c.277-.021.557-.046.838-.078V45.737a.863.863,0,0,1,.267-.629l11.1-12.155a.88.88,0,0,1,.681-.323h26.56a4.208,4.208,0,0,1,4.034,4.332v19.32l8.491,6.842a2.738,2.738,0,0,1,.416,3.842l-2.88,3.575a2.738,2.738,0,0,1-3.842.416L74.566,69.2v4.592Zm4.219,8.3H27.7v2.351H49.891a.877.877,0,0,1,.877.877v1.132a.854.854,0,0,0,.852.852h3.253a.854.854,0,0,0,.848-.852V85.31a.879.879,0,0,1,.877-.877H78.783ZM43.942,68.074H62.549V66.409H43.942Zm23.031-9.821,1.591-1.974-2.795-2.255L64.175,56Zm2.766-3.278a2.744,2.744,0,0,1,3.072-.085V48.76a3.194,3.194,0,0,1-4.229,1.769L66.867,52.66Zm.8,1.648L67.69,60.15a.99.99,0,0,0,.149,1.382L77.845,69.6a.99.99,0,0,0,1.382-.149l2.88-3.573a.994.994,0,0,0-.145-1.385L71.92,56.4a1,1,0,0,0-1.318.142c-.021.028-.043.053-.068.081ZM54.077,52.976,60.317,58l6.832-8.475q-3.127-2.508-6.239-5.028Zm5.841,6.953-7.637-6.153a1.433,1.433,0,1,0-1.751,2.269l7.542,6.075a1.408,1.408,0,0,0,1.1.344,1.432,1.432,0,0,0,.745-2.535ZM70.744,46.492l-7.637-6.153a1.433,1.433,0,1,0-1.751,2.269L68.9,48.683a1.408,1.408,0,0,0,1.1.344A1.432,1.432,0,0,0,70.744,46.492ZM34.789,44.858h6.025a2.454,2.454,0,0,0,2.28-2.578V35.765Z"/>
    </g>
  </g>
</svg>
