<svg xmlns="http://www.w3.org/2000/svg" xmlns:xlink="http://www.w3.org/1999/xlink" width="113" height="113" viewBox="0 0 113 113">
  <defs>
    <filter id="Trazado_982547" x="0" y="0" width="113" height="113" filterUnits="userSpaceOnUse">
      <feOffset dy="3" input="SourceAlpha"/>
      <feGaussianBlur stdDeviation="3" result="blur"/>
      <feFlood flood-opacity="0.161"/>
      <feComposite operator="in" in2="blur"/>
      <feComposite in="SourceGraphic"/>
    </filter>
    <clipPath id="clip-path">
      <path id="path711" d="M0-682.665H70.021v70.021H0Z" transform="translate(0 682.665)"/>
    </clipPath>
  </defs>
  <g id="Grupo_1224175" data-name="Grupo 1224175" transform="translate(-355.49 -7420.751)">
    <g id="Grupo_1223670" data-name="Grupo 1223670" transform="translate(0 2845.683)">
      <g id="Grupo_1223183" data-name="Grupo 1223183" transform="translate(364.49 4581.069)">
        <g id="Grupo_1211217" data-name="Grupo 1211217" transform="translate(0)">
          <g id="Grupo_1210736" data-name="Grupo 1210736">
            <g id="Grupo_1210537" data-name="Grupo 1210537">
              <g id="Grupo_1164202" data-name="Grupo 1164202">
                <g id="Grupo_1158168" data-name="Grupo 1158168">
                  <g id="Grupo_1152576" data-name="Grupo 1152576">
                    <g id="Grupo_1148633" data-name="Grupo 1148633">
                      <g id="Grupo_1148525" data-name="Grupo 1148525">
                        <g transform="matrix(1, 0, 0, 1, -9, -6)" filter="url(#Trazado_982547)">
                          <g id="Trazado_982547-2" data-name="Trazado 982547" transform="translate(9 6)" fill="#fcf5f0">
                            <path d="M 47.49999618530273 93.5 C 41.28936767578125 93.5 35.26533126831055 92.28396606445312 29.59518241882324 89.88570404052734 C 24.11771583557129 87.56893157958984 19.19812965393066 84.251953125 14.97308921813965 80.02690124511719 C 10.74803638458252 75.80186462402344 7.431062698364258 70.88227844238281 5.114289283752441 65.40480804443359 C 2.716022968292236 59.73466110229492 1.499996185302734 53.71062469482422 1.499996185302734 47.49999618530273 C 1.499996185302734 41.28936767578125 2.716022968292236 35.26533126831055 5.114289283752441 29.59518241882324 C 7.431062698364258 24.11771583557129 10.74803638458252 19.19812965393066 14.97308921813965 14.97308921813965 C 19.19812965393066 10.74803638458252 24.11771583557129 7.431062698364258 29.59518241882324 5.114289283752441 C 35.26533126831055 2.716022968292236 41.28936767578125 1.499996185302734 47.49999618530273 1.499996185302734 C 53.71062469482422 1.499996185302734 59.73466110229492 2.716022968292236 65.40480804443359 5.114289283752441 C 70.88227844238281 7.431062698364258 75.80186462402344 10.74803638458252 80.02690124511719 14.97308921813965 C 84.251953125 19.19812965393066 87.56893157958984 24.11771583557129 89.88570404052734 29.59518241882324 C 92.28396606445312 35.26533126831055 93.5 41.28936767578125 93.5 47.49999618530273 C 93.5 53.71062469482422 92.28396606445312 59.73466110229492 89.88570404052734 65.40480804443359 C 87.56893157958984 70.88227844238281 84.251953125 75.80186462402344 80.02690124511719 80.02690124511719 C 75.80186462402344 84.251953125 70.88227844238281 87.56893157958984 65.40480804443359 89.88570404052734 C 59.73466110229492 92.28396606445312 53.71062469482422 93.5 47.49999618530273 93.5 Z" stroke="none"/>
                            <path d="M 47.49999618530273 2.999992370605469 C 41.4912109375 2.999992370605469 35.66376495361328 4.1761474609375 30.17950439453125 6.495796203613281 C 24.88084411621094 8.736953735351562 20.12152099609375 11.94598388671875 16.03375244140625 16.03375244140625 C 11.94598388671875 20.12152099609375 8.736953735351562 24.88084411621094 6.495796203613281 30.17950439453125 C 4.1761474609375 35.66376495361328 2.999992370605469 41.4912109375 2.999992370605469 47.49999618530273 C 2.999992370605469 53.50878143310547 4.1761474609375 59.33622741699219 6.495796203613281 64.82048797607422 C 8.736953735351562 70.11914825439453 11.94598388671875 74.87847137451172 16.03375244140625 78.96623992919922 C 20.12152099609375 83.05400848388672 24.88084411621094 86.26304626464844 30.17950439453125 88.50419616699219 C 35.66376495361328 90.82384490966797 41.4912109375 92 47.49999618530273 92 C 53.50878143310547 92 59.33622741699219 90.82384490966797 64.82048797607422 88.50419616699219 C 70.11914825439453 86.26304626464844 74.87847137451172 83.05400848388672 78.96623992919922 78.96623992919922 C 83.05400848388672 74.87847137451172 86.26304626464844 70.11914825439453 88.50419616699219 64.82048797607422 C 90.82384490966797 59.33622741699219 92 53.50878143310547 92 47.49999618530273 C 92 41.4912109375 90.82384490966797 35.66376495361328 88.50419616699219 30.17950439453125 C 86.26304626464844 24.88084411621094 83.05400848388672 20.12152099609375 78.96623992919922 16.03375244140625 C 74.87847137451172 11.94598388671875 70.11914825439453 8.736953735351562 64.82048797607422 6.495796203613281 C 59.33622741699219 4.1761474609375 53.50878143310547 2.999992370605469 47.49999618530273 2.999992370605469 M 47.49999618530273 -7.62939453125e-06 C 73.7335205078125 -7.62939453125e-06 95 21.26647186279297 95 47.49999618530273 C 95 73.7335205078125 73.7335205078125 95 47.49999618530273 95 C 21.26647186279297 95 -7.62939453125e-06 73.7335205078125 -7.62939453125e-06 47.49999618530273 C -7.62939453125e-06 21.26647186279297 21.26647186279297 -7.62939453125e-06 47.49999618530273 -7.62939453125e-06 Z" stroke="none" fill="#eca675"/>
                          </g>
                        </g>
                      </g>
                    </g>
                  </g>
                </g>
              </g>
            </g>
          </g>
        </g>
      </g>
    </g>
    <g id="g705" transform="translate(374.47 8122.906)">
      <g id="g707" transform="translate(0 -682.665)">
        <g id="g709" clip-path="url(#clip-path)">
          <g id="g727" transform="translate(23.354 32.119)">
            <path id="path729" d="M-152.712-260.643-170.166-278.1l12.336-12.336,17.454,17.454Z" transform="translate(170.166 290.433)" fill="#ffe5c2"/>
          </g>
          <g id="g731" transform="translate(23.354 32.119)">
            <path id="path733" d="M-49.551-82.97l8.077-8.078-1.405-1.405L-55.215-80.118l17.454,17.454,4.258-4.258Z" transform="translate(55.215 92.453)" fill="#fed2a4"/>
          </g>
          <g id="g735" transform="translate(23.354 32.119)">
            <path id="path737" d="M-152.712-260.643-170.166-278.1l12.336-12.336,17.454,17.454Z" transform="translate(170.166 290.433)" fill="none" stroke="#000" stroke-linecap="round" stroke-linejoin="round" stroke-miterlimit="10" stroke-width="1.5"/>
          </g>
          <g id="g739" transform="translate(36.773 46.277)">
            <path id="path741" d="M-49.825-196.244l-5.406-5.406a.986.986,0,0,1,0-1.395l15.34-15.34a.986.986,0,0,1,1.395,0l5.406,5.406a.986.986,0,0,1,0,1.395l-15.34,15.34a.986.986,0,0,1-1.395,0" transform="translate(55.52 218.673)" fill="#fe646f"/>
          </g>
          <g id="g743" transform="translate(36.773 46.277)">
            <path id="path745" d="M-52.774-148.947a.986.986,0,0,1,0-1.395l13.166-13.166-2.174-2.174a.986.986,0,0,0-1.395,0l-15.34,15.34a.986.986,0,0,0,0,1.395l5.406,5.406a.986.986,0,0,0,1.395,0l2.174-2.174Z" transform="translate(58.805 165.97)" fill="#fd4755"/>
          </g>
          <g id="g747" transform="translate(36.773 46.277)">
            <path id="path749" d="M-143.04-115.231l6.081-6.081a.986.986,0,0,0,0-1.395l-5.406-5.406a.986.986,0,0,0-1.395,0l-15.34,15.34a.986.986,0,0,0,0,1.395l5.406,5.406a.986.986,0,0,0,1.395,0l5.875-5.875" transform="translate(159.388 128.401)" fill="none" stroke="#000" stroke-linecap="round" stroke-linejoin="round" stroke-miterlimit="10" stroke-width="1.5"/>
          </g>
          <g id="g751" transform="translate(10.192 22.101)">
            <path id="path753" d="M-374.363-154.253a3,3,0,0,0,.125-4.16,2.954,2.954,0,0,0-4.248-.073,2.954,2.954,0,0,0,0-4.177,2.954,2.954,0,0,0-4.177,0,2.954,2.954,0,0,0,0-4.177,2.954,2.954,0,0,0-4.177,0,2.954,2.954,0,0,0,0-4.177,2.954,2.954,0,0,0-4.178,0l-26.132,26.132,12,12,7.43-7.43a8.189,8.189,0,0,1,6.093-2.393l1.952.072a8.188,8.188,0,0,0,6.093-2.393Z" transform="translate(417.15 171.883)" fill="#d88a55"/>
          </g>
          <g id="g755" transform="translate(10.192 22.1)">
            <path id="path757" d="M-91.679-206.6l20.694-20.694a2.943,2.943,0,0,0-.863-2.053,2.954,2.954,0,0,0-4.178,0l-26.132,26.132,12,12,5-5-6.516-6.517a2.735,2.735,0,0,1,0-3.868" transform="translate(102.157 230.213)" fill="#c57a44"/>
          </g>
          <g id="g759" transform="translate(10.192 22.1)">
            <path id="path761" d="M-309.974-218.642l7.359-7.359a3,3,0,0,0,.125-4.159,2.954,2.954,0,0,0-4.248-.073,2.954,2.954,0,0,0,0-4.178,2.954,2.954,0,0,0-4.177,0,2.954,2.954,0,0,0,0-4.177,2.954,2.954,0,0,0-4.177,0,2.954,2.954,0,0,0,0-4.177,2.954,2.954,0,0,0-4.178,0L-345.4-216.635l12,12,7.43-7.43a8.189,8.189,0,0,1,6.093-2.393l1.952.072a8.187,8.187,0,0,0,4.365-1.075" transform="translate(345.402 243.631)" fill="none" stroke="#000" stroke-linecap="round" stroke-linejoin="round" stroke-miterlimit="10" stroke-width="1.5"/>
          </g>
          <g id="g763" transform="translate(22.66 21.478)">
            <path id="path765" d="M-7.57-44.12l6.78,6.78a3.015,3.015,0,0,0,4.146.158,2.954,2.954,0,0,0,.1-4.27L-3.392-48.3a2.954,2.954,0,0,0-4.178,0,2.954,2.954,0,0,0,0,4.177" transform="translate(8.435 49.163)" fill="#ffe5c2"/>
          </g>
          <g id="g767" transform="translate(22.66 21.479)">
            <path id="path769" d="M-91.195-91.414l-6.78-6.78a2.953,2.953,0,0,1-.414-3.655,2.947,2.947,0,0,0-2.364.852,2.954,2.954,0,0,0,0,4.178l6.78,6.78a3.015,3.015,0,0,0,4.147.158,2.967,2.967,0,0,0,.526-.641,3.1,3.1,0,0,1-1.895-.892" transform="translate(101.617 101.862)" fill="#fed2a4"/>
          </g>
          <g id="g771" transform="translate(18.482 25.656)">
            <path id="path773" d="M-44.12-7.57a2.954,2.954,0,0,0-4.177,0,2.954,2.954,0,0,0,0,4.177l7.62,7.62a2.954,2.954,0,0,0,4.144.033A2.954,2.954,0,0,0-36.5.05Z" transform="translate(49.163 8.435)" fill="#ffe5c2"/>
          </g>
          <g id="g775" transform="translate(18.482 25.657)">
            <path id="path777" d="M-99.294-98.2l-7.62-7.62a2.953,2.953,0,0,1-.454-3.586,2.947,2.947,0,0,0-2.409.846h0a2.954,2.954,0,0,0,0,4.177l7.62,7.62a2.954,2.954,0,0,0,4.144.033,2.943,2.943,0,0,0,.487-.623,2.942,2.942,0,0,1-1.768-.847" transform="translate(110.643 109.419)" fill="#fed2a4"/>
          </g>
          <g id="g779" transform="translate(14.305 29.833)">
            <path id="path781" d="M-44.121-7.57a2.954,2.954,0,0,0-4.178,0,2.954,2.954,0,0,0,0,4.177l6.256,6.256A2.954,2.954,0,0,0-37.9,2.9a2.954,2.954,0,0,0,.033-4.21Z" transform="translate(49.164 8.435)" fill="#ffe5c2"/>
          </g>
          <g id="g783" transform="translate(14.305 29.834)">
            <path id="path785" d="M-86.786-86.782l-6.256-6.256a2.953,2.953,0,0,1-.417-3.648,2.947,2.947,0,0,0-2.381.85,2.954,2.954,0,0,0,0,4.177l6.256,6.256a2.954,2.954,0,0,0,4.144.033,2.949,2.949,0,0,0,.45-.562,2.942,2.942,0,0,1-1.8-.85" transform="translate(96.705 96.7)" fill="#fed2a4"/>
          </g>
          <g id="g787" transform="translate(11.406 35.289)">
            <path id="path789" d="M-44.121-7.57a2.954,2.954,0,0,0-4.178,0,2.954,2.954,0,0,0,0,4.177l3.332,3.332a2.954,2.954,0,0,0,4.144.033,2.954,2.954,0,0,0,.033-4.21Z" transform="translate(49.163 8.435)" fill="#ffe5c2"/>
          </g>
          <g id="g791" transform="translate(11.406 35.291)">
            <path id="path793" d="M-61.369-61.246-64.7-64.577a2.953,2.953,0,0,1-.415-3.652,2.947,2.947,0,0,0-2.4.847,2.954,2.954,0,0,0,0,4.177l3.332,3.332a2.954,2.954,0,0,0,4.144.032,2.959,2.959,0,0,0,.447-.557,2.942,2.942,0,0,1-1.774-.848" transform="translate(68.383 68.246)" fill="#fed2a4"/>
          </g>
          <g id="g795" transform="translate(22.66 21.478)">
            <path id="path797" d="M-7.57-44.12l6.78,6.78a3.015,3.015,0,0,0,4.146.158,2.954,2.954,0,0,0,.1-4.27L-3.392-48.3a2.954,2.954,0,0,0-4.178,0A2.954,2.954,0,0,0-7.57-44.12Z" transform="translate(8.435 49.163)" fill="none" stroke="#000" stroke-linecap="round" stroke-linejoin="round" stroke-miterlimit="10" stroke-width="1.5"/>
          </g>
          <g id="g799" transform="translate(18.482 25.656)">
            <path id="path801" d="M-44.12-7.57a2.954,2.954,0,0,0-4.177,0,2.954,2.954,0,0,0,0,4.177l7.62,7.62a2.954,2.954,0,0,0,4.144.033A2.954,2.954,0,0,0-36.5.05Z" transform="translate(49.163 8.435)" fill="none" stroke="#000" stroke-linecap="round" stroke-linejoin="round" stroke-miterlimit="10" stroke-width="1.5"/>
          </g>
          <g id="g803" transform="translate(14.305 29.833)">
            <path id="path805" d="M-44.121-7.57a2.954,2.954,0,0,0-4.178,0,2.954,2.954,0,0,0,0,4.177l6.256,6.256A2.954,2.954,0,0,0-37.9,2.9a2.954,2.954,0,0,0,.033-4.21Z" transform="translate(49.164 8.435)" fill="none" stroke="#000" stroke-linecap="round" stroke-linejoin="round" stroke-miterlimit="10" stroke-width="1.5"/>
          </g>
          <g id="g807" transform="translate(11.406 35.289)">
            <path id="path809" d="M-44.121-7.57a2.954,2.954,0,0,0-4.178,0,2.954,2.954,0,0,0,0,4.177l3.332,3.332a2.954,2.954,0,0,0,4.144.033,2.954,2.954,0,0,0,.033-4.21Z" transform="translate(49.163 8.435)" fill="none" stroke="#000" stroke-linecap="round" stroke-linejoin="round" stroke-miterlimit="10" stroke-width="1.5"/>
          </g>
          <g id="g811" transform="translate(26.267 21.07)">
            <path id="path813" d="M-60.29,0h-5.274a1.616,1.616,0,0,0-1.616,1.616v.671A3.621,3.621,0,0,0-63.56,5.908h2.423l3.7-3.7A2.954,2.954,0,0,0-60.29,0" transform="translate(67.181)" fill="#ffe5c2"/>
          </g>
          <g id="g815" transform="translate(26.267 21.07)">
            <path id="path817" d="M-60.29,0h-5.274a1.616,1.616,0,0,0-1.616,1.616v.671A3.621,3.621,0,0,0-63.56,5.908h2.423l3.7-3.7A2.954,2.954,0,0,0-60.29,0Z" transform="translate(67.181)" fill="none" stroke="#000" stroke-linecap="round" stroke-linejoin="round" stroke-miterlimit="10" stroke-width="1.5"/>
          </g>
          <g id="g819" transform="translate(2.991 46.277)">
            <path id="path821" d="M-196.244-148.947l-5.406,5.406a.986.986,0,0,1-1.395,0l-15.34-15.34a.986.986,0,0,1,0-1.395l5.406-5.406a.986.986,0,0,1,1.394,0l15.34,15.34a.986.986,0,0,1,0,1.395" transform="translate(218.673 165.97)" fill="#97d729"/>
          </g>
          <g id="g823" transform="translate(2.991 46.277)">
            <path id="path825" d="M-51.74-62.027a.986.986,0,0,1,0-1.395l3.291-3.291-2.115-2.115a.986.986,0,0,0-1.395,0l-5.406,5.406a.986.986,0,0,0,0,1.395l15.34,15.34a.986.986,0,0,0,1.395,0l2.115-2.115Z" transform="translate(57.654 69.116)" fill="#8bc727"/>
          </g>
          <g id="g827" transform="translate(2.991 46.277)">
            <path id="path829" d="M-196.244-148.947l-5.406,5.406a.986.986,0,0,1-1.395,0l-15.34-15.34a.986.986,0,0,1,0-1.395l5.406-5.406a.986.986,0,0,1,1.394,0l15.34,15.34A.986.986,0,0,1-196.244-148.947Z" transform="translate(218.673 165.97)" fill="none" stroke="#000" stroke-linecap="round" stroke-linejoin="round" stroke-miterlimit="10" stroke-width="1.5"/>
          </g>
          <g id="g831" transform="translate(42.957 1.026)">
            <path id="path833" d="M-105.314,0c-3.57,0-6.937,3.564-9.91,2.594a.683.683,0,0,0-.847.425,21.718,21.718,0,0,0-1.28,7.364c0,8.4,4.757,14.487,11.724,18.085a.681.681,0,0,0,.624,0c6.967-3.6,11.724-9.684,11.724-18.085a21.722,21.722,0,0,0-1.28-7.364.683.683,0,0,0-.847-.425C-98.377,3.564-101.744,0-105.314,0" transform="translate(117.35)" fill="#fed402"/>
          </g>
          <g id="g835" transform="translate(42.957 2.647)">
            <path id="path837" d="M-51.3-59.316a21.731,21.731,0,0,1,1.08-6.779c-1.69.787-3.3,1.466-4.816.973a.683.683,0,0,0-.847.425,21.718,21.718,0,0,0-1.28,7.364c0,8.4,4.757,14.487,11.724,18.085a.682.682,0,0,0,.625,0,25.86,25.86,0,0,0,4.092-2.611C-47.057-45.519-51.3-51.385-51.3-59.316" transform="translate(57.161 66.096)" fill="#fac600"/>
          </g>
          <g id="g839" transform="translate(42.957 1.026)">
            <path id="path841" d="M-105.314,0c-3.57,0-6.937,3.564-9.91,2.594a.683.683,0,0,0-.847.425,21.718,21.718,0,0,0-1.28,7.364c0,8.4,4.757,14.487,11.724,18.085a.681.681,0,0,0,.624,0c6.967-3.6,11.724-9.684,11.724-18.085a21.722,21.722,0,0,0-1.28-7.364.683.683,0,0,0-.847-.425C-98.377,3.564-101.744,0-105.314,0Z" transform="translate(117.35)" fill="none" stroke="#000" stroke-linecap="round" stroke-linejoin="round" stroke-miterlimit="10" stroke-width="1.5"/>
          </g>
          <g id="g843" transform="translate(47.898 6.788)">
            <path id="path845" d="M-124.153-62.076a7.1,7.1,0,0,1-7.095,7.095,7.1,7.1,0,0,1-7.095-7.095,7.1,7.1,0,0,1,7.095-7.095,7.1,7.1,0,0,1,7.095,7.095" transform="translate(138.342 69.17)" fill="#97d729"/>
          </g>
          <g id="g847" transform="translate(47.898 6.788)">
            <path id="path849" d="M-43.988-62.076a7.1,7.1,0,0,1,4.581-6.635,7.077,7.077,0,0,0-2.514-.46,7.1,7.1,0,0,0-7.095,7.095,7.1,7.1,0,0,0,7.095,7.095,7.074,7.074,0,0,0,2.514-.46,7.1,7.1,0,0,1-4.581-6.635" transform="translate(49.016 69.17)" fill="#8bc727"/>
          </g>
          <g id="g851" transform="translate(47.898 6.788)">
            <path id="path853" d="M-121.326-43.511a7.1,7.1,0,0,0-6.772-4.973,7.1,7.1,0,0,0-7.095,7.095,7.1,7.1,0,0,0,7.095,7.095,7.1,7.1,0,0,0,6.575-4.43" transform="translate(135.193 48.484)" fill="none" stroke="#000" stroke-linecap="round" stroke-linejoin="round" stroke-miterlimit="10" stroke-width="1.5"/>
          </g>
          <g id="g855" transform="translate(51.58 12.114)">
            <path id="path857" d="M0-8.4,2.933-5.462,6.826-9.355" transform="translate(0 9.355)" fill="none" stroke="#000" stroke-linecap="round" stroke-linejoin="round" stroke-miterlimit="10" stroke-width="1.5"/>
          </g>
        </g>
      </g>
    </g>
  </g>
</svg>
