<svg xmlns="http://www.w3.org/2000/svg" xmlns:xlink="http://www.w3.org/1999/xlink" width="113" height="113" viewBox="0 0 113 113">
  <defs>
    <filter id="Trazado_982547" x="0" y="0" width="113" height="113" filterUnits="userSpaceOnUse">
      <feOffset dy="3" input="SourceAlpha"/>
      <feGaussianBlur stdDeviation="3" result="blur"/>
      <feFlood flood-opacity="0.161"/>
      <feComposite operator="in" in2="blur"/>
      <feComposite in="SourceGraphic"/>
    </filter>
  </defs>
  <g id="Grupo_1224177" data-name="Grupo 1224177" transform="translate(-674 -7421)">
    <g id="Grupo_1223672" data-name="Grupo 1223672" transform="translate(0 2845.931)">
      <g id="Grupo_1223184" data-name="Grupo 1223184" transform="translate(683 4581.069)">
        <g id="Grupo_1211216" data-name="Grupo 1211216" transform="translate(0)">
          <g id="Grupo_1210737" data-name="Grupo 1210737">
            <g id="Grupo_1210537" data-name="Grupo 1210537">
              <g id="Grupo_1164202" data-name="Grupo 1164202">
                <g id="Grupo_1158168" data-name="Grupo 1158168">
                  <g id="Grupo_1152576" data-name="Grupo 1152576">
                    <g id="Grupo_1148633" data-name="Grupo 1148633">
                      <g id="Grupo_1148525" data-name="Grupo 1148525">
                        <g transform="matrix(1, 0, 0, 1, -9, -6)" filter="url(#Trazado_982547)">
                          <g id="Trazado_982547-2" data-name="Trazado 982547" transform="translate(9 6)" fill="#fcf5f0">
                            <path d="M 47.49999618530273 93.5 C 41.28936767578125 93.5 35.26533126831055 92.28396606445312 29.59518241882324 89.88570404052734 C 24.11771583557129 87.56893157958984 19.19812965393066 84.251953125 14.97308921813965 80.02690124511719 C 10.74803638458252 75.80186462402344 7.431062698364258 70.88227844238281 5.114289283752441 65.40480804443359 C 2.716022968292236 59.73466110229492 1.499996185302734 53.71062469482422 1.499996185302734 47.49999618530273 C 1.499996185302734 41.28936767578125 2.716022968292236 35.26533126831055 5.114289283752441 29.59518241882324 C 7.431062698364258 24.11771583557129 10.74803638458252 19.19812965393066 14.97308921813965 14.97308921813965 C 19.19812965393066 10.74803638458252 24.11771583557129 7.431062698364258 29.59518241882324 5.114289283752441 C 35.26533126831055 2.716022968292236 41.28936767578125 1.499996185302734 47.49999618530273 1.499996185302734 C 53.71062469482422 1.499996185302734 59.73466110229492 2.716022968292236 65.40480804443359 5.114289283752441 C 70.88227844238281 7.431062698364258 75.80186462402344 10.74803638458252 80.02690124511719 14.97308921813965 C 84.251953125 19.19812965393066 87.56893157958984 24.11771583557129 89.88570404052734 29.59518241882324 C 92.28396606445312 35.26533126831055 93.5 41.28936767578125 93.5 47.49999618530273 C 93.5 53.71062469482422 92.28396606445312 59.73466110229492 89.88570404052734 65.40480804443359 C 87.56893157958984 70.88227844238281 84.251953125 75.80186462402344 80.02690124511719 80.02690124511719 C 75.80186462402344 84.251953125 70.88227844238281 87.56893157958984 65.40480804443359 89.88570404052734 C 59.73466110229492 92.28396606445312 53.71062469482422 93.5 47.49999618530273 93.5 Z" stroke="none"/>
                            <path d="M 47.49999618530273 2.999992370605469 C 41.4912109375 2.999992370605469 35.66376495361328 4.1761474609375 30.17950439453125 6.495796203613281 C 24.88084411621094 8.736953735351562 20.12152099609375 11.94598388671875 16.03375244140625 16.03375244140625 C 11.94598388671875 20.12152099609375 8.736953735351562 24.88084411621094 6.495796203613281 30.17950439453125 C 4.1761474609375 35.66376495361328 2.999992370605469 41.4912109375 2.999992370605469 47.49999618530273 C 2.999992370605469 53.50878143310547 4.1761474609375 59.33622741699219 6.495796203613281 64.82048797607422 C 8.736953735351562 70.11914825439453 11.94598388671875 74.87847137451172 16.03375244140625 78.96623992919922 C 20.12152099609375 83.05400848388672 24.88084411621094 86.26304626464844 30.17950439453125 88.50419616699219 C 35.66376495361328 90.82384490966797 41.4912109375 92 47.49999618530273 92 C 53.50878143310547 92 59.33622741699219 90.82384490966797 64.82048797607422 88.50419616699219 C 70.11914825439453 86.26304626464844 74.87847137451172 83.05400848388672 78.96623992919922 78.96623992919922 C 83.05400848388672 74.87847137451172 86.26304626464844 70.11914825439453 88.50419616699219 64.82048797607422 C 90.82384490966797 59.33622741699219 92 53.50878143310547 92 47.49999618530273 C 92 41.4912109375 90.82384490966797 35.66376495361328 88.50419616699219 30.17950439453125 C 86.26304626464844 24.88084411621094 83.05400848388672 20.12152099609375 78.96623992919922 16.03375244140625 C 74.87847137451172 11.94598388671875 70.11914825439453 8.736953735351562 64.82048797607422 6.495796203613281 C 59.33622741699219 4.1761474609375 53.50878143310547 2.999992370605469 47.49999618530273 2.999992370605469 M 47.49999618530273 -7.62939453125e-06 C 73.7335205078125 -7.62939453125e-06 95 21.26647186279297 95 47.49999618530273 C 95 73.7335205078125 73.7335205078125 95 47.49999618530273 95 C 21.26647186279297 95 -7.62939453125e-06 73.7335205078125 -7.62939453125e-06 47.49999618530273 C -7.62939453125e-06 21.26647186279297 21.26647186279297 -7.62939453125e-06 47.49999618530273 -7.62939453125e-06 Z" stroke="none" fill="#eca675"/>
                          </g>
                        </g>
                      </g>
                    </g>
                  </g>
                </g>
              </g>
            </g>
          </g>
        </g>
      </g>
    </g>
    <g id="competition_12650038" transform="translate(687.746 7425.498)">
      <path id="Trazado_1180155" data-name="Trazado 1180155" d="M215.431,47.112l-1.009,3.075,2.627-1.906a1.725,1.725,0,0,1,2.046,0l2.623,1.906-1.006-3.075a1.743,1.743,0,0,1,.628-1.957l2.623-1.9-3.231.008h-.012a1.74,1.74,0,0,1-1.653-1.208l-1-3.083-1,3.083a1.736,1.736,0,0,1-1.653,1.208h-.008l-3.235-.008,2.623,1.9a1.739,1.739,0,0,1,.631,1.957Z" transform="translate(-175.542 -20.244)" fill="#f7cb7f"/>
      <path id="Trazado_1180156" data-name="Trazado 1180156" d="M68.951,160.51l-.518,1.59,1.349-.986a1.587,1.587,0,0,1,.943-.308,1.561,1.561,0,0,1,.931.308L73,162.1l-.511-1.59a1.579,1.579,0,0,1,.573-1.785l1.356-.978h-1.68a1.58,1.58,0,0,1-1.508-1.1l-.511-1.59-.522,1.59a1.573,1.573,0,0,1-1.508,1.1h-1.68l1.356.978A1.581,1.581,0,0,1,68.951,160.51Z" transform="translate(-50.34 -120.362)" fill="#f7cb7f"/>
      <path id="Trazado_1180157" data-name="Trazado 1180157" d="M393.911,160.51l-.522,1.59,1.356-.986a1.591,1.591,0,0,1,1.879,0l1.349.986-.522-1.59a1.588,1.588,0,0,1,.585-1.785l1.356-.978h-1.68a1.573,1.573,0,0,1-1.508-1.1l-.522-1.59-.511,1.59a1.585,1.585,0,0,1-1.512,1.1h-1.68l1.36.978a1.6,1.6,0,0,1,.573,1.785Z" transform="translate(-330.621 -120.362)" fill="#f7cb7f"/>
      <path id="Trazado_1180158" data-name="Trazado 1180158" d="M464.341,361.9h-2.67a.566.566,0,0,0-.557.561V377.4a.568.568,0,0,0,.557.561h2.67a.575.575,0,0,0,.565-.561v-14.94A.572.572,0,0,0,464.341,361.9Z" transform="translate(-390.25 -298.764)" fill="#c2591d"/>
      <path id="Trazado_1180159" data-name="Trazado 1180159" d="M356.714,352.284c-1-1.481-2.374-3.512-5.9-3.512H346.6a1.305,1.305,0,0,0-1.2,1.36v1.224c0,.035.008.07.008.105s-.008.07-.008.105v4.319c2.218-.09,2.389-1.255,2.389-2.877v-.748a1.1,1.1,0,1,1,2.2,0v.748c0,.148,0,.331-.008.542,0,0,.008.008.008.012,0,3.208,1.158,3.925,2.767,4.911.105.062.207.129.312.191a1.1,1.1,0,1,1-1.165,1.867c-.1-.062-.2-.121-.3-.183a7,7,0,0,1-3.181-3.2,4,4,0,0,1-1,.557,3.132,3.132,0,0,1-.744,1.89,3.128,3.128,0,0,1,0,4.069,3.143,3.143,0,0,1,.752,2.035,3.231,3.231,0,0,1-.144.935h3.516a5.512,5.512,0,0,0,4.319-1.7,5.027,5.027,0,0,1,3.578-1.629h.4v-9.405h-.374c-.928,0-1.438-.752-2.023-1.621Z" transform="translate(-290.45 -287.444)" fill="#ffbcab"/>
      <path id="Trazado_1180160" data-name="Trazado 1180160" d="M382.758,268.92V257.063a.422.422,0,0,0-.413-.417H369.471a.43.43,0,0,0-.425.417v10.048h2.159c4.7,0,6.665,2.915,7.725,4.482.144.218.331.5.456.651h.117v-.565a2.762,2.762,0,0,1,2.76-2.76h.495Z" transform="translate(-310.842 -207.986)" fill="#60b7ff"/>
      <path id="Trazado_1180161" data-name="Trazado 1180161" d="M215.225,207.8a3.142,3.142,0,0,1,.433-1.579,3.15,3.15,0,0,1-1.232-2.491,3.092,3.092,0,0,1,1.017-2.3,3.173,3.173,0,0,1-.53-1.766,3.085,3.085,0,0,1,3.029-3.134h2.378V170.836a.42.42,0,0,0-.413-.421H207.032a.423.423,0,0,0-.413.421v25.745h2.444a3.085,3.085,0,0,1,3.029,3.134,3.167,3.167,0,0,1-.522,1.766,3.141,3.141,0,0,1-.222,4.794,3.125,3.125,0,0,1-.943,4.167,2.752,2.752,0,0,1,.152.331h5.874a3.366,3.366,0,0,1,.171-.382,3.136,3.136,0,0,1-1.376-2.588Z" transform="translate(-170.749 -133.612)" fill="#0baa79"/>
      <g id="Grupo_1224176" data-name="Grupo 1224176" transform="translate(16.841 61.378)">
        <path id="Trazado_1180162" data-name="Trazado 1180162" d="M292.4,435.512H286.16a.935.935,0,0,0,0,1.871H292.4a.935.935,0,1,0,0-1.871Z" transform="translate(-255.388 -423.635)" fill="#ffbcab"/>
        <path id="Trazado_1180163" data-name="Trazado 1180163" d="M178.173,406.287h-6.01a1.928,1.928,0,0,1-1.8,1.462.926.926,0,0,0,.772.409h7.036a.935.935,0,0,0,0-1.871Z" transform="translate(-156.322 -398.429)" fill="#ffbcab"/>
        <path id="Trazado_1180164" data-name="Trazado 1180164" d="M175.373,465.474h-5.239a.935.935,0,0,0,0,1.871h5.239a.935.935,0,0,0,0-1.871Z" transform="translate(-155.319 -449.478)" fill="#ffbcab"/>
        <path id="Trazado_1180165" data-name="Trazado 1180165" d="M80.747,349.139H76.533c-3.531,0-4.9,2.031-5.9,3.512-.585.869-1.1,1.621-2.023,1.621h-.378v9.405h.405a5.01,5.01,0,0,1,3.574,1.629,5.521,5.521,0,0,0,4.323,1.7h3.524a2.882,2.882,0,0,1-.144-.935,3.123,3.123,0,0,1,.745-2.035,3.152,3.152,0,0,1,0-4.069,3.2,3.2,0,0,1-.745-1.89,4.081,4.081,0,0,1-.99-.55,6.677,6.677,0,0,1-3.106,3.142c-.125.078-.253.152-.378.234a1.1,1.1,0,0,1-1.169-1.867c.136-.086.269-.164.405-.246,1.555-.947,2.678-1.633,2.686-4.86v-.012c-.008-.211-.008-.394-.008-.542v-.748a1.1,1.1,0,0,1,2.2,0v.748c0,1.621.168,2.791,2.389,2.876V350.5a1.306,1.306,0,0,0-1.2-1.364Z" transform="translate(-68.231 -349.139)" fill="#ffbcab"/>
        <path id="Trazado_1180166" data-name="Trazado 1180166" d="M298.713,465.106h-5.246a.935.935,0,0,0,0,1.871h5.246a.935.935,0,1,0,0-1.871Z" transform="translate(-261.696 -449.16)" fill="#ffbcab"/>
        <path id="Trazado_1180167" data-name="Trazado 1180167" d="M287.393,407.789a.946.946,0,0,0,.772-.413,1.918,1.918,0,0,1-1.8-1.458h-6.01a.935.935,0,0,0,0,1.871h7.043Z" transform="translate(-250.376 -398.111)" fill="#ffbcab"/>
        <path id="Trazado_1180168" data-name="Trazado 1180168" d="M176.372,435.881h-6.236a.935.935,0,0,0,0,1.871h6.236a.935.935,0,1,0,0-1.871Z" transform="translate(-155.32 -423.954)" fill="#ffbcab"/>
        <path id="Trazado_1180169" data-name="Trazado 1180169" d="M190.331,377.653a.894.894,0,0,0-.826-.932h-5.562v1.867h5.562A.9.9,0,0,0,190.331,377.653Z" transform="translate(-168.032 -372.928)" fill="#ffbcab"/>
        <path id="Trazado_1180170" data-name="Trazado 1180170" d="M282.928,377.26a.9.9,0,0,0,.83.935h5.558v-1.871h-5.558A.9.9,0,0,0,282.928,377.26Z" transform="translate(-253.406 -372.587)" fill="#ffbcab"/>
      </g>
      <path id="Trazado_1180171" data-name="Trazado 1180171" d="M47.451,272.295h.117c.129-.156.316-.433.46-.647,1.06-1.567,3.029-4.482,7.725-4.482h2.093v-10.1a.426.426,0,0,0-.421-.417H44.551a.419.419,0,0,0-.413.417V268.97H44.7a2.756,2.756,0,0,1,2.756,2.76v.565Z" transform="translate(-30.61 -207.985)" fill="#ff7577"/>
      <path id="Trazado_1180172" data-name="Trazado 1180172" d="M27.9,362.265h-2.67a.572.572,0,0,0-.565.561v14.94a.572.572,0,0,0,.565.561H27.9a.566.566,0,0,0,.557-.561v-14.94a.566.566,0,0,0-.557-.561Z" transform="translate(-13.814 -299.082)" fill="#c2591d"/>
      <path id="Trazado_1180173" data-name="Trazado 1180173" d="M371.862,135.351h.008a1.585,1.585,0,0,0,1.512-1.1l.511-1.59.522,1.59a1.573,1.573,0,0,0,1.508,1.1h1.68l-1.356.978a1.589,1.589,0,0,0-.585,1.785l.522,1.59-1.349-.986a1.591,1.591,0,0,0-1.879,0l-1.356.986.522-1.59a1.6,1.6,0,0,0-.573-1.785l-1.36-.978Zm-4.482.678,2.514,1.824-.959,2.958a1.574,1.574,0,0,0,.573,1.781,1.591,1.591,0,0,0,1.871,0l2.514-1.836,2.514,1.836a1.612,1.612,0,0,0,.947.3,1.591,1.591,0,0,0,1.508-2.085l-.971-2.958,2.526-1.824a1.594,1.594,0,0,0-.935-2.884l-3.118.008-.951-2.962a1.6,1.6,0,0,0-1.52-1.1,1.573,1.573,0,0,0-1.508,1.1l-.963,2.962-3.106-.008H368.3a1.592,1.592,0,0,0-.924,2.884Z" transform="translate(-308.833 -97.967)" fill="#030403"/>
      <path id="Trazado_1180174" data-name="Trazado 1180174" d="M74.656,198.457a.575.575,0,0,1-.565.561h-2.67a.568.568,0,0,1-.557-.561v-14.94a.566.566,0,0,1,.557-.561h2.67a.572.572,0,0,1,.565.561Zm-5.995-14.94v.565h-.117c-.125-.156-.312-.433-.456-.651-1.06-1.567-3.029-4.482-7.725-4.482H58.2V168.9a.43.43,0,0,1,.425-.417H71.5a.422.422,0,0,1,.413.417v11.857h-.5a2.762,2.762,0,0,0-2.76,2.76Zm0,12.173h-.4a5.027,5.027,0,0,0-3.578,1.629,5.512,5.512,0,0,1-4.319,1.7H56.847a3.236,3.236,0,0,0,.144-.935,3.142,3.142,0,0,0-.752-2.035,3.128,3.128,0,0,0,0-4.069,3.132,3.132,0,0,0,.744-1.89,4,4,0,0,0,1-.557,7,7,0,0,0,3.181,3.2c.1.062.195.121.3.183a1.1,1.1,0,1,0,1.165-1.867c-.105-.062-.207-.129-.312-.191-1.61-.986-2.767-1.7-2.767-4.911,0,0-.008-.008-.008-.012.008-.211.008-.394.008-.542v-.748a1.1,1.1,0,1,0-2.2,0v.748c0,1.621-.171,2.787-2.389,2.877v-4.319c0-.035.008-.07.008-.105s-.008-.07-.008-.105v-1.224a1.305,1.305,0,0,1,1.2-1.36h4.214c3.527,0,4.9,2.031,5.9,3.512.585.869,1.1,1.621,2.023,1.621h.374v9.405Zm-14.8-.741H47.614a.935.935,0,1,1,0-1.871h6.244a.935.935,0,1,1,0,1.871Zm0,4.069H48.612a.935.935,0,0,1,0-1.871h5.246a.935.935,0,0,1,0,1.871Zm-7.979-9.074a.933.933,0,0,1,.935-.935h6.01a1.918,1.918,0,0,0,1.8,1.458.946.946,0,0,1-.772.413H46.815a.933.933,0,0,1-.935-.935Zm-.2,7.039H39.807a2.818,2.818,0,0,0-.152-.331,3.125,3.125,0,0,0,.943-4.167,3.141,3.141,0,0,0,.222-4.794,3.167,3.167,0,0,0,.522-1.766,3.085,3.085,0,0,0-3.029-3.134H35.87V157.047a.423.423,0,0,1,.413-.421H49.157a.42.42,0,0,1,.413.421v25.694H47.193a3.085,3.085,0,0,0-3.029,3.134,3.173,3.173,0,0,0,.53,1.766,3.091,3.091,0,0,0-1.017,2.3,3.15,3.15,0,0,0,1.232,2.491,3.113,3.113,0,0,0,.943,4.167,3.366,3.366,0,0,0-.171.382Zm-6.989-6.053H31.656a.926.926,0,0,1-.772-.409,1.927,1.927,0,0,0,1.8-1.462h6.01a.935.935,0,0,1,0,1.871Zm-.8,4.069H31.656a.935.935,0,0,1,0-1.871h6.236a.935.935,0,0,1,0,1.871Zm-1,4.069H31.656a.935.935,0,0,1,0-1.871h5.239a.935.935,0,0,1,0,1.871ZM30.553,183.79v4.525c-2.222-.086-2.389-1.255-2.389-2.876v-.748a1.1,1.1,0,0,0-2.2,0v.748c0,.148,0,.331.008.542v.012c-.008,3.227-1.13,3.913-2.686,4.86-.136.082-.269.16-.405.246a1.1,1.1,0,0,0,1.169,1.867c.125-.082.253-.156.378-.234a6.676,6.676,0,0,0,3.106-3.142,4.079,4.079,0,0,0,.99.55,3.194,3.194,0,0,0,.745,1.89,3.152,3.152,0,0,0,0,4.069,3.123,3.123,0,0,0-.745,2.035,2.881,2.881,0,0,0,.144.935H25.143a5.521,5.521,0,0,1-4.323-1.7,5.011,5.011,0,0,0-3.574-1.629h-.405v-9.405h.378c.928,0,1.438-.752,2.023-1.621,1-1.481,2.37-3.512,5.9-3.512h4.214a1.306,1.306,0,0,1,1.2,1.364v1.224Zm-16.468-2.982h-.557V168.9a.419.419,0,0,1,.413-.417H26.815a.426.426,0,0,1,.421.417V179H25.143c-4.7,0-6.665,2.916-7.725,4.482-.144.214-.331.491-.46.647h-.117v-.565a2.756,2.756,0,0,0-2.756-2.76Zm.557,17.7a.566.566,0,0,1-.557.561h-2.67a.572.572,0,0,1-.565-.561v-14.94a.572.572,0,0,1,.565-.561h2.67a.566.566,0,0,1,.557.561Zm18.109-13.513h5.562a.94.94,0,0,1,0,1.867H32.752Zm20-.055v1.871H47.193a.942.942,0,0,1,0-1.871Zm21.368-4.182V168.9a2.621,2.621,0,0,0-2.615-2.615H58.629a2.616,2.616,0,0,0-2.615,2.615v10.056a3.491,3.491,0,0,0-3.262,3.555v.23h-.978V157.047a2.622,2.622,0,0,0-2.615-2.619H36.283a2.613,2.613,0,0,0-2.611,2.619v25.745h-.92v-.226A3.492,3.492,0,0,0,29.431,179V168.9a2.616,2.616,0,0,0-2.615-2.615H13.941a2.621,2.621,0,0,0-2.615,2.615v11.911a2.766,2.766,0,0,0-2.678,2.756v14.94a2.766,2.766,0,0,0,2.767,2.76h2.67a2.756,2.756,0,0,0,2.756-2.76v-.565h.405c.861,0,1.3.347,2.12,1.076a7.684,7.684,0,0,0,5.776,2.249H36.895a3.137,3.137,0,0,0,2.947-2.085H45.68a3.139,3.139,0,0,0,2.931,2.035H60.363a7.711,7.711,0,0,0,5.784-2.253c.819-.725,1.247-1.072,2.113-1.072h.4v.565a2.765,2.765,0,0,0,2.76,2.76h2.67a2.769,2.769,0,0,0,2.767-2.76v-14.94a2.766,2.766,0,0,0-2.74-2.76Z" transform="translate(0 -119.823)" fill="#030403"/>
      <path id="Trazado_1180175" data-name="Trazado 1180175" d="M195.6,23.021h.008a1.736,1.736,0,0,0,1.653-1.208l1-3.083,1,3.083a1.74,1.74,0,0,0,1.653,1.208h.012l3.231-.008-2.623,1.9a1.743,1.743,0,0,0-.628,1.957l1.006,3.075-2.623-1.906a1.725,1.725,0,0,0-2.046,0l-2.627,1.906,1.009-3.075a1.739,1.739,0,0,0-.631-1.957l-2.623-1.9Zm-5.667.947,3.492,2.53-1.337,4.108a1.736,1.736,0,0,0,1.653,2.284,1.764,1.764,0,0,0,1.033-.335l3.485-2.545,3.488,2.545a1.743,1.743,0,0,0,2.685-1.949L203.1,26.5l3.5-2.53a1.743,1.743,0,0,0-1.013-3.157h-.012l-4.319.008-1.321-4.108v0a1.749,1.749,0,0,0-3.325,0l-1.321,4.108-4.323-.008h-.008a1.743,1.743,0,0,0-1.014,3.157Z" transform="translate(-155.736 0)" fill="#030403"/>
      <path id="Trazado_1180176" data-name="Trazado 1180176" d="M46.87,135.351h.012a1.573,1.573,0,0,0,1.508-1.1l.522-1.59.511,1.59a1.58,1.58,0,0,0,1.508,1.1h1.68l-1.356.978a1.579,1.579,0,0,0-.573,1.785l.511,1.59-1.349-.986a1.561,1.561,0,0,0-.931-.308,1.587,1.587,0,0,0-.943.308l-1.349.986.518-1.59a1.581,1.581,0,0,0-.581-1.785l-1.356-.978Zm-4.482.678,2.526,1.824-.971,2.958a1.593,1.593,0,0,0,2.452,1.781l2.518-1.836,2.506,1.836a1.6,1.6,0,0,0,1.875,0,1.576,1.576,0,0,0,.577-1.781l-.963-2.958,2.518-1.828a1.591,1.591,0,0,0-.928-2.88H54.49l-3.11.008-.959-2.962a1.591,1.591,0,0,0-3.029,0l-.951,2.962-3.118-.008a1.592,1.592,0,0,0-.935,2.884Z" transform="translate(-28.528 -97.967)" fill="#030403"/>
    </g>
  </g>
</svg>
