<svg xmlns="http://www.w3.org/2000/svg" xmlns:xlink="http://www.w3.org/1999/xlink" width="113" height="113" viewBox="0 0 113 113">
  <defs>
    <filter id="Trazado_982547" x="0" y="0" width="113" height="113" filterUnits="userSpaceOnUse">
      <feOffset dy="3" input="SourceAlpha"/>
      <feGaussianBlur stdDeviation="3" result="blur"/>
      <feFlood flood-opacity="0.161"/>
      <feComposite operator="in" in2="blur"/>
      <feComposite in="SourceGraphic"/>
    </filter>
  </defs>
  <g id="Grupo_1224187" data-name="Grupo 1224187" transform="translate(-2037.49 -7420.751)">
    <g id="Grupo_1224076" data-name="Grupo 1224076" transform="translate(1682 2845.683)">
      <g id="Grupo_1223183" data-name="Grupo 1223183" transform="translate(364.49 4581.069)">
        <g id="Grupo_1211217" data-name="Grupo 1211217" transform="translate(0)">
          <g id="Grupo_1210736" data-name="Grupo 1210736">
            <g id="Grupo_1210537" data-name="Grupo 1210537">
              <g id="Grupo_1164202" data-name="Grupo 1164202">
                <g id="Grupo_1158168" data-name="Grupo 1158168">
                  <g id="Grupo_1152576" data-name="Grupo 1152576">
                    <g id="Grupo_1148633" data-name="Grupo 1148633">
                      <g id="Grupo_1148525" data-name="Grupo 1148525">
                        <g transform="matrix(1, 0, 0, 1, -9, -6)" filter="url(#Trazado_982547)">
                          <g id="Trazado_982547-2" data-name="Trazado 982547" transform="translate(9 6)" fill="#fcf5f0">
                            <path d="M 47.49999618530273 93.5 C 41.28936767578125 93.5 35.26533126831055 92.28396606445312 29.59518241882324 89.88570404052734 C 24.11771583557129 87.56893157958984 19.19812965393066 84.251953125 14.97308921813965 80.02690124511719 C 10.74803638458252 75.80186462402344 7.431062698364258 70.88227844238281 5.114289283752441 65.40480804443359 C 2.716022968292236 59.73466110229492 1.499996185302734 53.71062469482422 1.499996185302734 47.49999618530273 C 1.499996185302734 41.28936767578125 2.716022968292236 35.26533126831055 5.114289283752441 29.59518241882324 C 7.431062698364258 24.11771583557129 10.74803638458252 19.19812965393066 14.97308921813965 14.97308921813965 C 19.19812965393066 10.74803638458252 24.11771583557129 7.431062698364258 29.59518241882324 5.114289283752441 C 35.26533126831055 2.716022968292236 41.28936767578125 1.499996185302734 47.49999618530273 1.499996185302734 C 53.71062469482422 1.499996185302734 59.73466110229492 2.716022968292236 65.40480804443359 5.114289283752441 C 70.88227844238281 7.431062698364258 75.80186462402344 10.74803638458252 80.02690124511719 14.97308921813965 C 84.251953125 19.19812965393066 87.56893157958984 24.11771583557129 89.88570404052734 29.59518241882324 C 92.28396606445312 35.26533126831055 93.5 41.28936767578125 93.5 47.49999618530273 C 93.5 53.71062469482422 92.28396606445312 59.73466110229492 89.88570404052734 65.40480804443359 C 87.56893157958984 70.88227844238281 84.251953125 75.80186462402344 80.02690124511719 80.02690124511719 C 75.80186462402344 84.251953125 70.88227844238281 87.56893157958984 65.40480804443359 89.88570404052734 C 59.73466110229492 92.28396606445312 53.71062469482422 93.5 47.49999618530273 93.5 Z" stroke="none"/>
                            <path d="M 47.49999618530273 2.999992370605469 C 41.4912109375 2.999992370605469 35.66376495361328 4.1761474609375 30.17950439453125 6.495796203613281 C 24.88084411621094 8.736953735351562 20.12152099609375 11.94598388671875 16.03375244140625 16.03375244140625 C 11.94598388671875 20.12152099609375 8.736953735351562 24.88084411621094 6.495796203613281 30.17950439453125 C 4.1761474609375 35.66376495361328 2.999992370605469 41.4912109375 2.999992370605469 47.49999618530273 C 2.999992370605469 53.50878143310547 4.1761474609375 59.33622741699219 6.495796203613281 64.82048797607422 C 8.736953735351562 70.11914825439453 11.94598388671875 74.87847137451172 16.03375244140625 78.96623992919922 C 20.12152099609375 83.05400848388672 24.88084411621094 86.26304626464844 30.17950439453125 88.50419616699219 C 35.66376495361328 90.82384490966797 41.4912109375 92 47.49999618530273 92 C 53.50878143310547 92 59.33622741699219 90.82384490966797 64.82048797607422 88.50419616699219 C 70.11914825439453 86.26304626464844 74.87847137451172 83.05400848388672 78.96623992919922 78.96623992919922 C 83.05400848388672 74.87847137451172 86.26304626464844 70.11914825439453 88.50419616699219 64.82048797607422 C 90.82384490966797 59.33622741699219 92 53.50878143310547 92 47.49999618530273 C 92 41.4912109375 90.82384490966797 35.66376495361328 88.50419616699219 30.17950439453125 C 86.26304626464844 24.88084411621094 83.05400848388672 20.12152099609375 78.96623992919922 16.03375244140625 C 74.87847137451172 11.94598388671875 70.11914825439453 8.736953735351562 64.82048797607422 6.495796203613281 C 59.33622741699219 4.1761474609375 53.50878143310547 2.999992370605469 47.49999618530273 2.999992370605469 M 47.49999618530273 -7.62939453125e-06 C 73.7335205078125 -7.62939453125e-06 95 21.26647186279297 95 47.49999618530273 C 95 73.7335205078125 73.7335205078125 95 47.49999618530273 95 C 21.26647186279297 95 -7.62939453125e-06 73.7335205078125 -7.62939453125e-06 47.49999618530273 C -7.62939453125e-06 21.26647186279297 21.26647186279297 -7.62939453125e-06 47.49999618530273 -7.62939453125e-06 Z" stroke="none" fill="#eca675"/>
                          </g>
                        </g>
                      </g>
                    </g>
                  </g>
                </g>
              </g>
            </g>
          </g>
        </g>
      </g>
    </g>
    <g id="thinking_9831318" transform="translate(2052.001 7385.046)">
      <path id="Trazado_1180207" data-name="Trazado 1180207" d="M37.756,74.246V86.683a5.259,5.259,0,0,1-5.271,5.246H25.74a.392.392,0,0,0-.373.273,9.228,9.228,0,0,0-.421,3.881.608.608,0,0,1-.923.584,6.277,6.277,0,0,1-2.914-4.417.387.387,0,0,0-.384-.322H12.771A5.259,5.259,0,0,1,7.5,86.683V74.246A5.259,5.259,0,0,1,12.771,69H32.485A5.259,5.259,0,0,1,37.756,74.246Z" transform="translate(0 0)" fill="#61a2f9"/>
      <g id="Grupo_1224179" data-name="Grupo 1224179" transform="translate(21.139 69)">
        <path id="Trazado_1180208" data-name="Trazado 1180208" d="M105.835,234.481c-.023.071-.044.141-.065.211a6.243,6.243,0,0,0,2.884,4.254.608.608,0,0,0,.923-.584,9.226,9.226,0,0,1,.421-3.881.392.392,0,0,1,.373-.273h-4.164A.392.392,0,0,0,105.835,234.481Z" transform="translate(-105.77 -211.279)" fill="#5490f9"/>
        <path id="Trazado_1180209" data-name="Trazado 1180209" d="M161.683,69h-4.164a5.259,5.259,0,0,1,5.271,5.246V86.683a5.259,5.259,0,0,1-5.271,5.246h4.164a5.259,5.259,0,0,0,5.271-5.246V74.246A5.259,5.259,0,0,0,161.683,69Z" transform="translate(-150.337 -69)" fill="#5490f9"/>
      </g>
      <path id="Trazado_1180210" data-name="Trazado 1180210" d="M286.5,74.246V86.683a5.259,5.259,0,0,0,5.271,5.246h6.745a.392.392,0,0,1,.372.273,9.227,9.227,0,0,1,.421,3.881.608.608,0,0,0,.923.584,6.277,6.277,0,0,0,2.914-4.417.387.387,0,0,1,.384-.322h7.954a5.259,5.259,0,0,0,5.271-5.246V74.246A5.259,5.259,0,0,0,311.485,69H291.771A5.259,5.259,0,0,0,286.5,74.246Z" transform="translate(-240.277 0)" fill="#86f1a7"/>
      <g id="Grupo_1224180" data-name="Grupo 1224180" transform="translate(67.044 69)">
        <path id="Trazado_1180211" data-name="Trazado 1180211" d="M440.683,69h-4.164a5.259,5.259,0,0,1,5.271,5.246V86.683a5.259,5.259,0,0,1-5.271,5.246h4.164a5.259,5.259,0,0,0,5.271-5.246V74.246A5.259,5.259,0,0,0,440.683,69Z" transform="translate(-436.519 -69)" fill="#80e29d"/>
      </g>
      <path id="Trazado_1180212" data-name="Trazado 1180212" d="M123.373,309.349V298.678c-.264-3.907-2.715-5.678-6.3-5.678a7.968,7.968,0,0,0-7.551,6.415.742.742,0,0,1-.477.506c-11.528,2.805-8.051,18.772,4.238,12.415a1.081,1.081,0,0,1,1.049.037C116.882,314.27,123.239,314.6,123.373,309.349Z" transform="translate(-81.384 -192.911)" fill="#dd4fb1"/>
      <g id="Grupo_1224181" data-name="Grupo 1224181" transform="translate(33.761 100.089)">
        <path id="Trazado_1180213" data-name="Trazado 1180213" d="M204.943,298.678c-.264-3.907-2.715-5.678-6.3-5.678a7.052,7.052,0,0,0-1.926.275c2.342.632,3.86,2.377,4.064,5.4v10.671a3.972,3.972,0,0,1-2.809,3.989c2.924.815,6.867.132,6.972-3.989Z" transform="translate(-196.715 -293)" fill="#da2ea2"/>
      </g>
      <path id="Trazado_1180214" data-name="Trazado 1180214" d="M256,309.349V298.678c.264-3.907,2.715-5.678,6.3-5.678a7.968,7.968,0,0,1,7.551,6.415.742.742,0,0,0,.477.506c11.528,2.805,8.051,18.772-4.238,12.415a1.081,1.081,0,0,0-1.049.037C262.491,314.27,256.134,314.6,256,309.349Z" transform="translate(-214.011 -192.911)" fill="#dd4fb1"/>
      <g id="Grupo_1224182" data-name="Grupo 1224182" transform="translate(44.36 100.089)">
        <path id="Trazado_1180215" data-name="Trazado 1180215" d="M285.043,299.92a.742.742,0,0,1-.477-.506A7.968,7.968,0,0,0,277.015,293a7.016,7.016,0,0,0-3.931,1.024,7.992,7.992,0,0,1,7.318,6.41.742.742,0,0,0,.477.506c7.868,1.915,8.746,9.96,4.6,12.854C293.778,314.429,294.936,302.328,285.043,299.92Z" transform="translate(-273.084 -293)" fill="#da2ea2"/>
      </g>
      <g id="Grupo_1224186" data-name="Grupo 1224186" transform="translate(7.5 69)">
        <g id="Grupo_1224183" data-name="Grupo 1224183" transform="translate(7.888 7.171)">
          <line id="Línea_3757" data-name="Línea 3757" x2="8.275" fill="none" stroke="#000" stroke-linecap="round" stroke-linejoin="round" stroke-miterlimit="10" stroke-width="1.5"/>
          <line id="Línea_3758" data-name="Línea 3758" x2="14.481" transform="translate(0 4.441)" fill="none" stroke="#000" stroke-linecap="round" stroke-linejoin="round" stroke-miterlimit="10" stroke-width="1.5"/>
          <line id="Línea_3759" data-name="Línea 3759" x2="11.628" transform="translate(0 8.883)" fill="none" stroke="#000" stroke-linecap="round" stroke-linejoin="round" stroke-miterlimit="10" stroke-width="1.5"/>
        </g>
        <path id="Trazado_1180216" data-name="Trazado 1180216" d="M123.373,309.349V298.678c-.264-3.907-2.715-5.678-6.3-5.678a7.968,7.968,0,0,0-7.551,6.415.742.742,0,0,1-.477.506c-11.528,2.805-8.051,18.772,4.238,12.415a1.081,1.081,0,0,1,1.049.037C116.882,314.27,123.239,314.6,123.373,309.349Z" transform="translate(-88.884 -261.911)" fill="none" stroke="#000" stroke-linecap="round" stroke-linejoin="round" stroke-miterlimit="10" stroke-width="1.5"/>
        <g id="Grupo_1224184" data-name="Grupo 1224184" transform="translate(16.109 33.534)">
          <path id="Trazado_1180217" data-name="Trazado 1180217" d="M173.193,310.618a9.9,9.9,0,0,0,5.132,2.719" transform="translate(-166.306 -310.618)" fill="none" stroke="#000" stroke-linecap="round" stroke-linejoin="round" stroke-miterlimit="10" stroke-width="1.5"/>
          <path id="Trazado_1180218" data-name="Trazado 1180218" d="M123.57,359.444a18.05,18.05,0,0,1,3.777,4.413" transform="translate(-123.57 -352.667)" fill="none" stroke="#000" stroke-linecap="round" stroke-linejoin="round" stroke-miterlimit="10" stroke-width="1.5"/>
          <path id="Trazado_1180219" data-name="Trazado 1180219" d="M210.6,381.053a13.175,13.175,0,0,0,6,1.988" transform="translate(-198.518 -371.277)" fill="none" stroke="#000" stroke-linecap="round" stroke-linejoin="round" stroke-miterlimit="10" stroke-width="1.5"/>
        </g>
        <path id="Trazado_1180220" data-name="Trazado 1180220" d="M272.492,300.672c8.848,4.139,5.047,17.585-6.4,11.664a1.081,1.081,0,0,0-1.049.037c-2.553,1.9-8.909,2.224-9.044-3.024V298.678c.264-3.907,2.715-5.678,6.3-5.678a7.769,7.769,0,0,1,6.829,4.417" transform="translate(-221.511 -261.911)" fill="none" stroke="#000" stroke-linecap="round" stroke-linejoin="round" stroke-miterlimit="10" stroke-width="1.5"/>
        <g id="Grupo_1224185" data-name="Grupo 1224185" transform="translate(34.794 33.534)">
          <path id="Trazado_1180221" data-name="Trazado 1180221" d="M306.96,310.618a9.9,9.9,0,0,1-5.132,2.719" transform="translate(-295.772 -310.618)" fill="none" stroke="#000" stroke-linecap="round" stroke-linejoin="round" stroke-miterlimit="10" stroke-width="1.5"/>
          <path id="Trazado_1180222" data-name="Trazado 1180222" d="M365,359.444a18.051,18.051,0,0,0-3.777,4.413" transform="translate(-346.92 -352.667)" fill="none" stroke="#000" stroke-linecap="round" stroke-linejoin="round" stroke-miterlimit="10" stroke-width="1.5"/>
          <path id="Trazado_1180223" data-name="Trazado 1180223" d="M264.194,381.053a13.175,13.175,0,0,1-6,1.988" transform="translate(-258.197 -371.277)" fill="none" stroke="#000" stroke-linecap="round" stroke-linejoin="round" stroke-miterlimit="10" stroke-width="1.5"/>
        </g>
        <path id="Trazado_1180224" data-name="Trazado 1180224" d="M21.2,69H32.485a5.259,5.259,0,0,1,5.271,5.246V86.683a5.259,5.259,0,0,1-5.271,5.246H25.74a.392.392,0,0,0-.373.273,9.228,9.228,0,0,0-.421,3.881.608.608,0,0,1-.923.584,6.277,6.277,0,0,1-2.914-4.417.387.387,0,0,0-.384-.322H12.771A5.259,5.259,0,0,1,7.5,86.683V74.246A5.259,5.259,0,0,1,12.771,69h3.346" transform="translate(-7.5 -69)" fill="none" stroke="#000" stroke-linecap="round" stroke-linejoin="round" stroke-miterlimit="10" stroke-width="1.5"/>
        <path id="Trazado_1180225" data-name="Trazado 1180225" d="M286.5,74.246V86.683a5.259,5.259,0,0,0,5.271,5.246h6.745a.392.392,0,0,1,.372.273,9.227,9.227,0,0,1,.421,3.881.608.608,0,0,0,.923.584,6.277,6.277,0,0,0,2.914-4.417.387.387,0,0,1,.384-.322h7.954a5.259,5.259,0,0,0,5.271-5.246V74.246A5.259,5.259,0,0,0,311.485,69H291.771A5.259,5.259,0,0,0,286.5,74.246Z" transform="translate(-247.777 -69)" fill="none" stroke="#000" stroke-linecap="round" stroke-linejoin="round" stroke-miterlimit="10" stroke-width="1.5"/>
        <path id="Trazado_1180226" data-name="Trazado 1180226" d="M363.943,131.322l3.777,3.886,6.6-6.708" transform="translate(-314.472 -120.242)" fill="none" stroke="#000" stroke-linecap="round" stroke-linejoin="round" stroke-miterlimit="10" stroke-width="1.5"/>
      </g>
    </g>
  </g>
</svg>
