<svg xmlns="http://www.w3.org/2000/svg" xmlns:xlink="http://www.w3.org/1999/xlink" width="400" height="336" viewBox="0 0 400 336">
  <defs>
    <clipPath id="clip-path">
      <rect id="Rectángulo_421525" data-name="Rectángulo 421525" width="400" height="336" transform="translate(181 5001.991)" fill="#fff" stroke="#707070" stroke-width="1"/>
    </clipPath>
    <clipPath id="clip-path-2">
      <rect id="Rectángulo_421905" data-name="Rectángulo 421905" width="327.339" height="319.628" fill="none"/>
    </clipPath>
    <clipPath id="clip-path-3">
      <path id="Trazado_1180236" data-name="Trazado 1180236" d="M609.589,26.653a18.387,18.387,0,0,0,2.7,4.631c-5.039.071-8.9-.8-12.747-4.141l.3,1.964a27.613,27.613,0,0,0,3.746,9.177,17.4,17.4,0,0,1-7.049-6.378,15.429,15.429,0,0,0,.2,2.7c.792,4.451,2.335,9.334,6.259,12.005l.453.28a27.648,27.648,0,0,0-1.3,3.94l-.06.26c-.894,4.2.6,9.2,2.472,12.94l.183-5.377a9.513,9.513,0,0,1,.137-1.493l.1-1.142.348.05.1-.28a8.758,8.758,0,0,1,2.216-3.149c1.205-.879,3.568-1.174,5.03-1.485a7.543,7.543,0,0,0,2.811-.973,60.643,60.643,0,0,0,18.164-3.821,102.677,102.677,0,0,1,3.245,10.2,28.9,28.9,0,0,0,.868,3.515c.327,1.486.586,4.017,1.581,5.159l.378.042c1.327-1.843,1.531-4.723,4.253-5.155a2.924,2.924,0,0,1,2.53.627c1.269,1.126,1.611,3.409,1.626,5.023a10.866,10.866,0,0,1-.189,1.772l.406.366c2.283-5.015,4.517-14.585,3.116-19.858l-.088-.314a10.049,10.049,0,0,0-1.463-3.267c-1.976-2.786-4.856-3.747-8.082-4.278a12.6,12.6,0,0,0-.191-2.747,7.281,7.281,0,0,0-3.374-4.529c-4.027-2.428-8.956-2.477-13.5-2.949-2.846-.3-5.621-.687-8.428-1.252a34.472,34.472,0,0,1-4.79-1.324,10.276,10.276,0,0,0-1.9-.753.258.258,0,0,0-.062.006" transform="translate(-596.519 -26.647)" fill="none"/>
    </clipPath>
    <linearGradient id="linear-gradient" x1="-4.886" y1="5.3" x2="-4.878" y2="5.3" gradientUnits="objectBoundingBox">
      <stop offset="0" stop-color="#523a2f"/>
      <stop offset="1" stop-color="#714f41"/>
    </linearGradient>
    <clipPath id="clip-path-5">
      <path id="Trazado_1180256" data-name="Trazado 1180256" d="M692.281,116.022c-2.723.432-2.927,3.312-4.253,5.155l-.378-.042c-1-1.142-1.254-3.674-1.581-5.159l-.129.34a2.787,2.787,0,0,0-.146,1.077c.011,2.077-.187,4.179-.333,6.251-.258,3.64-.6,7.284-2.116,10.653a21,21,0,0,1-4.643,6.346,17.812,17.812,0,0,1-4.139,2.925l-.844,3.513a.852.852,0,0,0,.415.134,7.34,7.34,0,0,0,1.95-.393,20.029,20.029,0,0,0,7.294-3.187,20.424,20.424,0,0,0,4.208-4.006l.771-.98-.062-1.112c-.056-1.651.576-2.2,1.635-3.32,3.1-2.95,4.987-6.553,6.723-10.407l-.406-.366a10.872,10.872,0,0,0,.189-1.772c-.015-1.614-.357-3.9-1.626-5.023a2.711,2.711,0,0,0-1.87-.682,4.208,4.208,0,0,0-.659.055" transform="translate(-673.718 -115.967)" fill="none"/>
    </clipPath>
    <linearGradient id="linear-gradient-2" x1="-6.713" y1="8.926" x2="-6.703" y2="8.926" gradientUnits="objectBoundingBox">
      <stop offset="0" stop-color="#e5785e"/>
      <stop offset="1" stop-color="#f7a98e"/>
    </linearGradient>
  </defs>
  <g id="Enmascarar_grupo_1211514" data-name="Enmascarar grupo 1211514" transform="translate(-181 -5001.991)" clip-path="url(#clip-path)">
    <rect id="Rectángulo_421524" data-name="Rectángulo 421524" width="400" height="208" transform="translate(181 5066.991)" fill="#e5782d"/>
    <path id="Trazado_1177184" data-name="Trazado 1177184" d="M0,0H230V335.981H0Z" transform="translate(266 5002)" fill="#134b69"/>
    <g id="Grupo_1224198" data-name="Grupo 1224198" transform="translate(217.331 5011.176)">
      <g id="Grupo_1224189" data-name="Grupo 1224189" transform="translate(0 0.001)">
        <g id="Grupo_1224188" data-name="Grupo 1224188" transform="translate(0 0)" clip-path="url(#clip-path-2)">
          <path id="Trazado_1180227" data-name="Trazado 1180227" d="M41.477,573.153l.886-.073c1.071.61,1.32,1.763,1.695,2.861a3.5,3.5,0,0,1,2,.775c.535.533.469.679.465,1.4-.725,1.43-1.586,1.149-2.855,1.755l-.061.679a2.353,2.353,0,0,1-1.061,1.746l-.29.082a1.2,1.2,0,0,1-1.118-.2,2.22,2.22,0,0,1-.9-1.664,1.9,1.9,0,0,0-.214-.8l-.194-.052a3.193,3.193,0,0,1-2.173-1.413,1.837,1.837,0,0,1,.053-1.1c.4-.906,1.573-1.132,2.432-1.428a3.443,3.443,0,0,1,1.329-2.56" transform="translate(-23.532 -358.607)" fill="#fefefe"/>
          <path id="Trazado_1180228" data-name="Trazado 1180228" d="M801.092,147.672l.657-.062a2.29,2.29,0,0,1,1.654.735c.9.893.769,1.824.734,3a1.27,1.27,0,0,0,.122.737,3.721,3.721,0,0,1,3.015.32,2.735,2.735,0,0,1,1.171,1.865,2.626,2.626,0,0,1-.638,1.926c-1.037,1.222-2.564.492-3.885.65l.084.21a3.63,3.63,0,0,1-.292,2.9,2.6,2.6,0,0,1-1.888,1.294,3.6,3.6,0,0,1-.842-.036,2.3,2.3,0,0,1-1.458-1.1,3.564,3.564,0,0,1-.174-2.9l.069-.27-1.637,0a2.884,2.884,0,0,1-2.536-.912,2.372,2.372,0,0,1-.589-1.769,2.534,2.534,0,0,1,.9-1.8c1.024-.909,2.288-.79,3.553-.7l.226.019a4.088,4.088,0,0,1,.052-2.777,2.873,2.873,0,0,1,1.7-1.34" transform="translate(-497.257 -92.368)" fill="#fefefe"/>
          <path id="Trazado_1180230" data-name="Trazado 1180230" d="M770.128,486.955a18.287,18.287,0,0,1,2.223,3.136c.67,1.649,1.095,3.471,1.619,5.178L777.5,507.19c.9,3.065,2.242,6.145,2.915,9.255a3.894,3.894,0,0,1,.006,1.317,2.992,2.992,0,0,1-.939,1,26.261,26.261,0,0,1-3.763,1.534l-5.969,2.223-16.24,6.016-3.514,1.338-13.982,5.636c-.73-1.407-1.523-2.827-2.111-4.3-1.048-2.622-1.688-5.391-2.492-8.091l-3.159-10.477-.172-.582-.084-.468-.185-.35a3.482,3.482,0,0,0-.161-.973c-.163-.363-.109-.148-.174-.5a22.935,22.935,0,0,0-.979-3.233,2.583,2.583,0,0,1-.18-1.263l.262-.082,5.653,17.565a66.227,66.227,0,0,0,2.289,6.942,1.7,1.7,0,0,0,.588.7,14.4,14.4,0,0,0,5-.924l8.8-3.1,16.233-5.7c3.782-1.385,7.837-2.461,11.508-4.113a7.3,7.3,0,0,0,2.064-1.493l-3.342-10.582c-1.428-3.408-2.292-7.391-3.351-10.941-.631-2.115-1.693-4.394-1.89-6.585" transform="translate(-454.489 -304.714)" fill="#cf3b28"/>
          <path id="Trazado_1180231" data-name="Trazado 1180231" d="M62,138.976a33.5,33.5,0,0,0,1.638,2.925,13.122,13.122,0,0,0,6.712,4.607,17.448,17.448,0,0,0,5.221.5l.164,2.272a43.476,43.476,0,0,1,3.225-5.512c.984,3.792,2.339,8.062,5.921,10.235,1.61.976,2.769.922,4.6.879a19.727,19.727,0,0,0,1.086,9.838l-1.14.974a4.18,4.18,0,0,0-3.09-1.284,2.791,2.791,0,0,0-2.112,1.009,3.694,3.694,0,0,0-.85,2.894,6.639,6.639,0,0,0,.324,1.506l-.241.185.149.237c.176.289.346.508.259.844a4.288,4.288,0,0,0-1.178-.814h-.019c-2.676-2.979-4.386-7.1-5.585-10.872l-.612.313a10.36,10.36,0,0,1-7.668.395c-3.366-1.21-5.3-4.054-6.746-7.169-2.159-4.651-1.786-9.258-.055-13.96" transform="translate(-37.898 -86.965)" fill="#231438"/>
          <path id="Trazado_1180232" data-name="Trazado 1180232" d="M64.394,125.728a11.843,11.843,0,0,1,5.294-6.468c4.264-2.177,9.847-1.633,14.255-.186,1.8.785,3.645,1.742,4.442,3.657a23.875,23.875,0,0,1,18.593-3.381c5.318,1.09,11.355,3.847,14.426,8.535,2.2,3.353,2.453,7.074,1.883,10.94a3.508,3.508,0,0,1-.338-.624l-.328-.977a12.138,12.138,0,0,0-2.22-4.211,10.038,10.038,0,0,0-7.01-3.926,22.252,22.252,0,0,0-15.556,3.655c-3.171,2.569-4.963,4.906-5.963,8.893-1.828.043-2.987.1-4.6-.879-3.582-2.172-4.938-6.442-5.921-10.235a43.478,43.478,0,0,0-3.225,5.512l-.164-2.272a17.448,17.448,0,0,1-5.221-.5,13.122,13.122,0,0,1-6.712-4.607,33.5,33.5,0,0,1-1.638-2.925" transform="translate(-40.295 -73.717)" fill="#1b3d6d"/>
          <path id="Trazado_1180233" data-name="Trazado 1180233" d="M100.659,141.117l.143-.717a15.732,15.732,0,0,1,5.854-9.183c.911-.691,2.53-1.8,3.692-1.64l.451.618a28.192,28.192,0,0,0-3.7,4.23,41.848,41.848,0,0,0-3.052,3.453,43.427,43.427,0,0,0-3.224,5.512Z" transform="translate(-62.988 -81.073)" fill="#ec6a6b"/>
          <path id="Trazado_1180234" data-name="Trazado 1180234" d="M112.765,142.559a6.116,6.116,0,0,0,2.936,4.123A12.131,12.131,0,0,0,119.763,148l.272.047c1.992.323,4.27-.269,6.159.183-3.171,2.569-4.963,4.906-5.963,8.893-1.828.043-2.987.1-4.6-.879-3.583-2.172-4.938-6.442-5.922-10.235a41.786,41.786,0,0,1,3.052-3.453" transform="translate(-68.653 -89.207)" fill="#0f264e"/>
        </g>
      </g>
      <g id="Grupo_1224191" data-name="Grupo 1224191" transform="translate(223.245 9.973)">
        <g id="Grupo_1224190" data-name="Grupo 1224190" clip-path="url(#clip-path-3)">
          <rect id="Rectángulo_421906" data-name="Rectángulo 421906" width="46.671" height="60.215" transform="translate(-4.129 40.863) rotate(-84.295)" fill="url(#linear-gradient)"/>
        </g>
      </g>
      <g id="Grupo_1224193" data-name="Grupo 1224193" transform="translate(0 0.001)">
        <g id="Grupo_1224192" data-name="Grupo 1224192" transform="translate(0 0)" clip-path="url(#clip-path-2)">
          <path id="Trazado_1180237" data-name="Trazado 1180237" d="M619.138,93.254a40.982,40.982,0,0,1,1.392-7.109,36,36,0,0,0,9.107,1.272,7.549,7.549,0,0,1-2.811.973c-1.461.311-3.825.606-5.03,1.485a8.76,8.76,0,0,0-2.216,3.149l-.1.28Z" transform="translate(-387.428 -53.906)" fill="#f39e79"/>
          <path id="Trazado_1180238" data-name="Trazado 1180238" d="M596.734,43.4a15.427,15.427,0,0,1-.2-2.7,17.4,17.4,0,0,0,7.049,6.378l.03.007c1.587,1.723,3.658,3.152,5.4,4.742a25.913,25.913,0,0,1-7.421-2.419,8.474,8.474,0,0,1-3.462-3.479l-.21-.43a3.581,3.581,0,0,1-.621-1.423c-.092-.376-.273-.43-.563-.674" transform="translate(-373.273 -25.469)" fill="#774b3d"/>
          <path id="Trazado_1180239" data-name="Trazado 1180239" d="M132.423,151.219a22.251,22.251,0,0,1,15.556-3.655,10.037,10.037,0,0,1,7.01,3.926,12.138,12.138,0,0,1,2.221,4.211l.328.977a3.511,3.511,0,0,0,.338.624l1.906,8.855.318,3.119c.336,5.244.127,10.42-3.527,14.58a13.709,13.709,0,0,1-9.368,4.686,17.6,17.6,0,0,1-3.647-.229,26.408,26.408,0,0,1-6.968-1.523,23.576,23.576,0,0,1-5.089-3.31l-.058,1.714a29.761,29.761,0,0,1-4.284-2.59c-2.558-2.368-5.552-4.093-7.492-7.1a4.286,4.286,0,0,1,1.177.814c.087-.336-.082-.555-.258-.844l-.149-.237.242-.185a6.685,6.685,0,0,1-.324-1.506,3.7,3.7,0,0,1,.85-2.894,2.794,2.794,0,0,1,2.112-1.009,4.181,4.181,0,0,1,3.089,1.284l1.14-.975a19.721,19.721,0,0,1-1.086-9.837c1-3.988,2.792-6.324,5.962-8.893" transform="translate(-74.882 -92.194)" fill="#f8bf99"/>
          <path id="Trazado_1180240" data-name="Trazado 1180240" d="M210.346,169.244l-.764-.425a4.738,4.738,0,0,0-3.725-.125l-1.421.593-.281-.178-.1-.438a1.9,1.9,0,0,1,1.285-1.05,6.2,6.2,0,0,1,4.17.365l.5.28Z" transform="translate(-127.69 -104.76)" fill="#2e2c2a"/>
          <path id="Trazado_1180241" data-name="Trazado 1180241" d="M138.812,207.767c.685,2.326,1.711,4.624,2.182,7-1.641-1.457-2.266-4.106-3.323-6.024Z" transform="translate(-86.149 -130.011)" fill="#2e2c2a"/>
          <path id="Trazado_1180242" data-name="Trazado 1180242" d="M159.333,177.033c.859-.038,2.165-.2,2.876.338l-.044.333-.5.292h-.329a5.646,5.646,0,0,0-4.909,1.993l-1,1.781-.27-.119a3.127,3.127,0,0,1,.3-1.939c.783-1.534,2.342-2.169,3.882-2.677" transform="translate(-97.068 -110.746)" fill="#2e2c2a"/>
          <path id="Trazado_1180243" data-name="Trazado 1180243" d="M211.177,182.1l.229-.061a2.71,2.71,0,0,1,1.931.351,2.132,2.132,0,0,1,.92,1.207l-.359.086-1.717-1.636a2.452,2.452,0,0,0,.314.959,5.573,5.573,0,0,1,.78,1.891,2.953,2.953,0,0,1-.855,2.1c-.3.221-.612.043-.955-.024a3.223,3.223,0,0,1-1.094-2.342,3.138,3.138,0,0,1,.8-2.526" transform="translate(-131.632 -113.88)" fill="#17142e"/>
          <path id="Trazado_1180244" data-name="Trazado 1180244" d="M166.826,196.144a1.747,1.747,0,0,1,1.151.04,3.24,3.24,0,0,1,1.2,2.578,2.747,2.747,0,0,1-.757,2.3c-.363.194-.223.166-.6.206a1.159,1.159,0,0,1-.9-.438,4.316,4.316,0,0,1-.823-3.1,2.073,2.073,0,0,1,.725-1.591" transform="translate(-103.931 -122.689)" fill="#231438"/>
          <path id="Trazado_1180245" data-name="Trazado 1180245" d="M218.846,197.634l.318,3.119c-1.153.741-1.875,1.3-3.318.956a2.485,2.485,0,0,1-1.762-1.215,2.824,2.824,0,0,1,.487-2.22c.537-.619,3.412-.571,4.275-.639" transform="translate(-133.947 -123.67)" fill="#f39e79"/>
          <path id="Trazado_1180246" data-name="Trazado 1180246" d="M119.667,221.843a4.284,4.284,0,0,1,1.177.814c.087-.337-.082-.555-.258-.845l-.149-.237.242-.185c.933,1.746,1.879,3.119,3.894,3.718,1.157.344,2.716-.065,3.666.354a16.385,16.385,0,0,0,3.263,4.36l-.058,1.714a29.724,29.724,0,0,1-4.284-2.589c-2.558-2.368-5.552-4.094-7.492-7.1" transform="translate(-74.882 -138.536)" fill="#17142e"/>
          <path id="Trazado_1180247" data-name="Trazado 1180247" d="M190.2,222.733c.321-.04.14-.049.535.1a6.014,6.014,0,0,1-.962,2.8,5.332,5.332,0,0,1-3.367,2.488c-2.051.38-3.82-.624-5.428-1.751a22.706,22.706,0,0,1-2.6-2.936,24.3,24.3,0,0,0,11.819-.7" transform="translate(-111.62 -139.36)" fill="#fefefe"/>
          <path id="Trazado_1180248" data-name="Trazado 1180248" d="M155.848,215.089a11.119,11.119,0,0,1,4.7.544c1.392.579,1.832,1.655,2.348,2.978a9.822,9.822,0,0,1-2.959,2.347,6.318,6.318,0,0,1-2.954.348l-.255-.048-.244-.043a4.022,4.022,0,0,1-2.64-1.653,2.7,2.7,0,0,1-.335-2.3,3.687,3.687,0,0,1,2.341-2.174" transform="translate(-95.979 -134.574)" fill="#f39e79"/>
          <path id="Trazado_1180249" data-name="Trazado 1180249" d="M628.93,83.153a60.655,60.655,0,0,0,18.164-3.821,102.709,102.709,0,0,1,3.245,10.2,28.906,28.906,0,0,0,.868,3.515c.328,1.486.586,4.017,1.581,5.159l.378.043c1.327-1.843,1.531-4.724,4.253-5.156a2.925,2.925,0,0,1,2.53.627c1.269,1.126,1.611,3.409,1.626,5.022a10.872,10.872,0,0,1-.189,1.773l.406.366c-1.736,3.855-3.623,7.457-6.723,10.407-1.059,1.125-1.692,1.67-1.635,3.32l.062,1.112-.771.98a20.424,20.424,0,0,1-4.208,4.006,20.042,20.042,0,0,1-7.294,3.187,7.354,7.354,0,0,1-1.95.393.852.852,0,0,1-.415-.134l.844-3.513a19.293,19.293,0,0,1-7,2.119,14.58,14.58,0,0,1-10.38-3.8c-4.388-4.076-4.328-9.637-4.25-15.185L618.008,97l.183-5.377a9.5,9.5,0,0,1,.137-1.493l.1-1.142.348.05.1-.28a8.763,8.763,0,0,1,2.216-3.149c1.205-.879,3.568-1.174,5.03-1.485a7.544,7.544,0,0,0,2.811-.973" transform="translate(-386.721 -49.643)" fill="#f8bf99"/>
          <path id="Trazado_1180250" data-name="Trazado 1180250" d="M618.635,105.459l.23.219c1.375-.731,3.862-2.3,5.494-1.728.554.2.941,1.036,1.128,1.541l-.067.42a2.7,2.7,0,0,1-.973-.128c-1.71-.458-4.341.514-5.949,1.171a9.5,9.5,0,0,1,.137-1.493" transform="translate(-387.027 -64.969)" fill="#cf3b28"/>
          <path id="Trazado_1180251" data-name="Trazado 1180251" d="M643.588,138.63l.374-.087.185.18a17.171,17.171,0,0,1-2.67,2.689,9.171,9.171,0,0,0,2.086,2.8l-.058.194-1.547-.411-1.667-.476a1.845,1.845,0,0,1-1.158-.957c.894-2.116,2.55-2.875,4.455-3.93" transform="translate(-399.94 -86.694)" fill="#ec6a6b"/>
          <path id="Trazado_1180252" data-name="Trazado 1180252" d="M625.774,121.543a1.271,1.271,0,0,1,.46-.135,1.556,1.556,0,0,1,1.3.652,5.21,5.21,0,0,1,.571,3.133,2.5,2.5,0,0,1-1.132,1.957l-.307.1a1.317,1.317,0,0,1-1.153-.387,3.363,3.363,0,0,1-.836-2.425,3.918,3.918,0,0,1,1.095-2.9" transform="translate(-390.894 -75.97)" fill="#4a3229"/>
          <path id="Trazado_1180253" data-name="Trazado 1180253" d="M668.7,121.775l.631.088a2.429,2.429,0,0,1,1.087,1.293,4.176,4.176,0,0,1,.058,3.113,2.027,2.027,0,0,1-1.332,1.221,2.626,2.626,0,0,1-.655-.025,2.136,2.136,0,0,1-1.229-1.229,4.31,4.31,0,0,1-.1-2.969,2.361,2.361,0,0,1,1.54-1.492" transform="translate(-417.339 -76.201)" fill="#4a3229"/>
          <path id="Trazado_1180254" data-name="Trazado 1180254" d="M667.816,102.052l1.332.016c1.471.161,3.535.714,4.474,1.9a7.4,7.4,0,0,1-.511,1.8,4.53,4.53,0,0,1-1.587-.641,11.624,11.624,0,0,0-5.631-.658,1.142,1.142,0,0,1-.762-.091,1.476,1.476,0,0,1,.088-.528c.419-.992,1.673-1.461,2.6-1.8" transform="translate(-416.209 -63.86)" fill="#4a3229"/>
          <path id="Trazado_1180255" data-name="Trazado 1180255" d="M649.687,156.518h8.089l-.586,1.308a9.491,9.491,0,0,1-5.917,5.293,7.846,7.846,0,0,1-3.131.007c-2.513-.659-3.825-2.717-5.1-4.789a10.691,10.691,0,0,0,6.648-1.82" transform="translate(-402.383 -97.942)" fill="#fefefe"/>
        </g>
      </g>
      <g id="Grupo_1224195" data-name="Grupo 1224195" transform="translate(252.137 43.401)">
        <g id="Grupo_1224194" data-name="Grupo 1224194" clip-path="url(#clip-path-5)">
          <rect id="Rectángulo_421908" data-name="Rectángulo 421908" width="36.547" height="30.925" transform="matrix(0.286, -0.958, 0.958, 0.286, -8.573, 28.738)" fill="url(#linear-gradient-2)"/>
        </g>
      </g>
      <g id="Grupo_1224197" data-name="Grupo 1224197" transform="translate(0 0.001)">
        <g id="Grupo_1224196" data-name="Grupo 1224196" transform="translate(0 0)" clip-path="url(#clip-path-2)">
          <path id="Trazado_1180257" data-name="Trazado 1180257" d="M719.659,125.641l.634-.08.314.361a9.446,9.446,0,0,1-.544,2.236c-.365,1.129-.543,1.7-1.641,2.262l-.642.119-.193-.314c.313-.606.73-1.165,1.018-1.778.442-.934.354-1.984,1.053-2.807" transform="translate(-449.033 -78.571)" fill="#ec6a6b"/>
          <path id="Trazado_1180258" data-name="Trazado 1180258" d="M722.786,135.945l.406.366c-1.737,3.855-3.623,7.457-6.723,10.407l-.341-5.915,1.007.11a3.586,3.586,0,0,0,2.152-.253c2.023-.872,2.734-2.818,3.5-4.714" transform="translate(-448.119 -85.068)" fill="#4a3229"/>
          <path id="Trazado_1180259" data-name="Trazado 1180259" d="M747.231,477.67l8.087,1.463-.284,4.927a41.927,41.927,0,0,1,7.721-3.1,12.362,12.362,0,0,1,4.431-1.074,2.952,2.952,0,0,1,1.059,1.261c.2,2.191,1.259,4.47,1.89,6.585,1.059,3.55,1.924,7.534,3.351,10.941l3.342,10.582a7.3,7.3,0,0,1-2.064,1.493c-3.671,1.652-7.726,2.728-11.508,4.113l-16.233,5.7-8.8,3.1a14.4,14.4,0,0,1-5,.924,1.7,1.7,0,0,1-.588-.7,66.222,66.222,0,0,1-2.289-6.942l-5.653-17.565a2.357,2.357,0,0,0-.283-1.188,5.862,5.862,0,0,1-.284-.659l-.273-.831-.2-.655a7.813,7.813,0,0,1-.357-1.976,54.863,54.863,0,0,1,7.043-2.509l9.324-2.986-.279-.647a5.131,5.131,0,0,1,.793-4.01l.792-.668,2.8-1.388-1.01-3.492,4.42-.013Z" transform="translate(-452.606 -298.904)" fill="#f6aa46"/>
          <path id="Trazado_1180260" data-name="Trazado 1180260" d="M787.7,527.011a8.2,8.2,0,0,1,4.813,1.591l.069-.013a6.388,6.388,0,0,1,2.968,3.759l.376,1.424c.118,2.184-.1,3.83-1.665,5.511a6.721,6.721,0,0,1-4.775,2.1,6.926,6.926,0,0,1-4.291-1.433,1.443,1.443,0,0,1-.292-.427c-1.531-1.475-2.493-2.24-3.144-4.371l-.082-.279a5.819,5.819,0,0,1,.625-4.4,7.893,7.893,0,0,1,5.4-3.467" transform="translate(-489.022 -329.778)" fill="#f8bf99"/>
          <path id="Trazado_1180261" data-name="Trazado 1180261" d="M798.273,531.23a6.388,6.388,0,0,1,2.968,3.759l.376,1.424c.118,2.184-.1,3.83-1.665,5.511a6.721,6.721,0,0,1-4.775,2.1,6.926,6.926,0,0,1-4.291-1.433,1.443,1.443,0,0,1-.292-.427,10.082,10.082,0,0,0,2.206.61,6.953,6.953,0,0,0,5.363-1.375,6.377,6.377,0,0,0,2.33-4.538,7.538,7.538,0,0,0-2.219-5.632" transform="translate(-494.716 -332.419)" fill="#cf3b28"/>
          <path id="Trazado_1180262" data-name="Trazado 1180262" d="M773.865,477.67l8.087,1.463-.284,4.927.028.275c.309,2.79,2.15,6.589.548,9.212l-.307.2c-.432-1.055-.022-2.41-.561-3.391l-.189.17.024.253c.084,1,.245,3.08-.4,3.853a3.34,3.34,0,0,1-2.477.984l-.2-.008-3.1.573c-.681.092-1.572.326-2.148-.148a2.529,2.529,0,0,1-.76-2.013c-.028-.312-.082-.279-.3-.481a1.219,1.219,0,0,1-.8.472,4.188,4.188,0,0,1-.739-.762c-1.345-1.987-.808-4.337-.427-6.529a5.3,5.3,0,0,1-3.293,1.806l-.271.049-.279-.647a5.13,5.13,0,0,1,.793-4.01l.792-.668,2.8-1.388-1.01-3.492,4.42-.013Z" transform="translate(-479.24 -298.904)" fill="#f8bf99"/>
          <path id="Trazado_1180263" data-name="Trazado 1180263" d="M775.308,479.518l4.42-.013c-.049.786.047,1.523-.636,2.066a14.747,14.747,0,0,1-2.773,1.439Z" transform="translate(-485.152 -300.052)" fill="#e5782d"/>
          <path id="Trazado_1180264" data-name="Trazado 1180264" d="M790.125,533.771l3.342,10.582a7.3,7.3,0,0,1-2.064,1.493c-3.671,1.652-7.726,2.728-11.508,4.113l-16.233,5.7-8.8,3.1-.322-.537a10.027,10.027,0,0,1-2.152-.945c-1.3-.8-1.748-2.365-2.133-3.737a6.864,6.864,0,0,1-.311-1.254A10.984,10.984,0,0,1,752.4,544c2.622-3.108,5.616-4.259,9.575-4.626.651,2.131,1.613,2.9,3.144,4.371a1.445,1.445,0,0,0,.292.427,6.927,6.927,0,0,0,4.291,1.433,6.721,6.721,0,0,0,4.775-2.1c1.564-1.68,1.783-3.327,1.665-5.511a98.894,98.894,0,0,0,9.5-3.17,11.591,11.591,0,0,1,4.478-1.057" transform="translate(-469.245 -334.004)" fill="#f49d3c"/>
          <path id="Trazado_1180267" data-name="Trazado 1180267" d="M210.977,804.982c.211-.546.205-.638.689-.952.906.3,2.239,2.148,2.89,2.942l-.206.036c-.591.071-2.854.165-3.278-.172Z" transform="translate(-132.02 -503.125)" fill="#134b69"/>
          <path id="Trazado_1180268" data-name="Trazado 1180268" d="M204.4,774.045l5.259.238.335.15,2.253,3.9,2.656,4.145c.868,1.274,3.266,5.432,4.332,6.038l2.253,2.534c1.77.565,3.707,2.477,5.021,3.7l-12.247.058c-2.986-.311-4.573-4.461-6.279-6.6-.651-.793-1.984-2.638-2.89-2.942-.484.314-.478.406-.689.952l-.058.342a15.908,15.908,0,0,0-.006,2.73l.1,5.423a1.07,1.07,0,0,1-.906.23,5.709,5.709,0,0,1-.568-2.122l-.816-4.4-1.375-5.6c-.316-1.587-.6-4.083.313-5.507a3.227,3.227,0,0,1,2.211-1.383,6.244,6.244,0,0,0,1.1-1.894" transform="translate(-125.447 -484.362)" fill="#2e2c2a"/>
          <path id="Trazado_1180269" data-name="Trazado 1180269" d="M209.13,774.045l5.259.238.335.15,2.253,3.9,2.656,4.145c.868,1.274,3.266,5.432,4.332,6.038l2.253,2.534a20.1,20.1,0,0,1-5.087-.483c-3.018-.743-5.184-3.365-7-5.735A78.09,78.09,0,0,1,209.4,777.8l-1.368-1.858a6.244,6.244,0,0,0,1.1-1.894" transform="translate(-130.177 -484.362)" fill="#f8bf99"/>
          <path id="Trazado_1180270" data-name="Trazado 1180270" d="M209.13,774.045l5.259.238.335.15,2.253,3.9L209.4,777.8l-1.368-1.858a6.244,6.244,0,0,0,1.1-1.894" transform="translate(-130.177 -484.362)" fill="#e37a50"/>
          <path id="Trazado_1180271" data-name="Trazado 1180271" d="M75.511,765.685l.528,2.332c3,.655,5.543,2.328,8.269,3.666l1.085,4.173a9.438,9.438,0,0,0,.524,1.877l1.845,5.155,1.869,3.492.017,0c1.527,1.252,2.886,3.608,4,5.247a53.164,53.164,0,0,1-11.916-2.9,9.134,9.134,0,0,1-1.8-.722c-1.048-.707-2.181-3.662-2.738-4.813l-7.165.546a7.459,7.459,0,0,1-.737,1.531l-.936-.041-.272-.329.259-1.4,2.5-11.121a10.736,10.736,0,0,1,4.665-6.692" transform="translate(-42.608 -479.13)" fill="#2e2c2a"/>
          <path id="Trazado_1180272" data-name="Trazado 1180272" d="M73.286,800.318c1.094-2.85,1.5-5.627,3.372-8.138l.145.037c1.555,2.257,2.525,5.06,3.649,7.554Z" transform="translate(-45.859 -495.71)" fill="#fbece2"/>
          <path id="Trazado_1180273" data-name="Trazado 1180273" d="M89.332,771.915c3,.655,5.543,2.328,8.269,3.666l1.085,4.173a9.437,9.437,0,0,0,.524,1.877l1.846,5.155,1.869,3.492a11.44,11.44,0,0,1-6.747-1.493c-2.467-1.641-3.3-4.628-4.2-7.292a97.38,97.38,0,0,1-2.646-9.577" transform="translate(-55.9 -483.029)" fill="#f8bf99"/>
          <path id="Trazado_1180275" data-name="Trazado 1180275" d="M754.3,783.173a9.894,9.894,0,0,1,2.76-.449l5.505-1.014a20.285,20.285,0,0,0,1.34,4.422,22.309,22.309,0,0,1,2.74,7.623l.369,4.9-8.873.131a7.289,7.289,0,0,0-.408-1.551c-6.71,2.509-15.12,1.937-22.159,1.452l-.019-6.433a6.339,6.339,0,0,1,2.092.14c4.88.44,9.652-.125,13.516-3.391l.172-.148a21.145,21.145,0,0,0,3.276-3.181,8.8,8.8,0,0,0-.311-2.5" transform="translate(-460.278 -489.158)" fill="#0f264e"/>
          <path id="Trazado_1180276" data-name="Trazado 1180276" d="M785.648,783.173a9.894,9.894,0,0,1,2.76-.449l5.505-1.014a20.289,20.289,0,0,0,1.34,4.422c-1.847.96-4.392,2.268-6.536,1.579l-.2-.071a3.951,3.951,0,0,1-2.56-1.967,8.8,8.8,0,0,0-.311-2.5" transform="translate(-491.622 -489.158)" fill="#ec6a6b"/>
          <path id="Trazado_1180277" data-name="Trazado 1180277" d="M625.59,784.853c1.3-.157,2.691-.058,4-.1,1.77-.052,3.531-.21,5.3-.1l-.006,2.751a6.863,6.863,0,0,1,1.2,2.107,45.332,45.332,0,0,1,1.078,10.784,53.181,53.181,0,0,0-8.007,0l-.4-1.948c-7.463,2.837-15.346,2.719-23.188,1.935l-.037-4.674a10.625,10.625,0,0,1,.1-2l2.794.281c5.037.316,10.505-.934,14.345-4.352a23.217,23.217,0,0,0,2.964-2.315,9,9,0,0,0-.153-2.373" transform="translate(-378.915 -490.976)" fill="#0f264e"/>
          <path id="Trazado_1180278" data-name="Trazado 1180278" d="M659.123,784.853c1.3-.157,2.691-.058,4-.1,1.77-.052,3.531-.21,5.3-.1l-.006,2.751-1.01.911a6.221,6.221,0,0,1-4.366,1.068,5.074,5.074,0,0,1-3.769-2.157,9,9,0,0,0-.153-2.373" transform="translate(-412.448 -490.976)" fill="#ec6a6b"/>
          <path id="Trazado_1180280" data-name="Trazado 1180280" d="M95.005,243.921a23.576,23.576,0,0,0,5.089,3.31,26.426,26.426,0,0,0,6.968,1.523l-.117,1.4,1.223,1.168c3.512.677,5.146,2.542,7.056,5.361a14.662,14.662,0,0,1,1.436,2.314,41.554,41.554,0,0,0,4.012,5.358l4.5,5.494a31.341,31.341,0,0,1,3.933,5c.863,1.44,1.341,2.549.9,4.234a8.616,8.616,0,0,1-3.846,4.973l-.256.138a27.231,27.231,0,0,0-.918,4.481l-1.494,7.838-1.254,5.924a9.752,9.752,0,0,0-.412,2.011,19.644,19.644,0,0,0,1.184,3.483c.576,1.727,4.19,12.5,4.05,13.486-.035.245-.392.472-.608.58l-.807.273.051.8a14.957,14.957,0,0,1-2.052,2.2l.5.367a1.44,1.44,0,0,1-.271,1.171c-.958,1.336-4.232,2-5.789,2.085a25.98,25.98,0,0,1-7.945-1.242l-3.4-1.042a5.5,5.5,0,0,0-1.458-.447l-6.251-2.784a12.251,12.251,0,0,1-.6,1.6,14.962,14.962,0,0,1-2.913-1.362l-7.815-3.974L61.345,307.069a39.686,39.686,0,0,1,1.9-4.758l2.558-6.266L72.651,279.7a132.131,132.131,0,0,1,6.966-14.988,11.093,11.093,0,0,0,.7-1.249c.819-1.291,1.552-2.635,2.5-3.843a16.059,16.059,0,0,1,7.84-5.4c.993-.846,2.2-2.225,3.5-2.408.885-1.716.8-4.137.829-6.016l-.028-.163Z" transform="translate(-38.387 -152.635)" fill="#ec6a6b"/>
          <path id="Trazado_1180281" data-name="Trazado 1180281" d="M232.719,326.56c.864,1.44,1.341,2.549.9,4.234a8.612,8.612,0,0,1-3.846,4.972l-.256.138a17.674,17.674,0,0,0,.246-5.8c-.335-1.7-1.487-2.452-2.841-3.4Z" transform="translate(-141.998 -204.346)" fill="#b33042"/>
          <path id="Trazado_1180282" data-name="Trazado 1180282" d="M173.151,429.653l.205-.071a8.8,8.8,0,0,0,3.435-1.967,8.921,8.921,0,0,1,1.282-1.34,2.314,2.314,0,0,1,.759,1.669,4.246,4.246,0,0,1-1.353,2.97c-.888.859-3.2,1.553-3.723,2.489.609.76,2.6,1.065,3.515,1.16a26.467,26.467,0,0,0,4.289.015c1.292-.08,4.894-.8,5.916-.256a2.212,2.212,0,0,1-.774,1.961,2.027,2.027,0,0,1-1.064.543l-.347.092c-.919.223-2.134,0-2.927.589a10.14,10.14,0,0,0,4.4-.505,5.279,5.279,0,0,1,1.907-.623l.051.8a14.953,14.953,0,0,1-2.052,2.2l.5.367a1.442,1.442,0,0,1-.272,1.171c-.958,1.336-4.231,2-5.789,2.085a25.984,25.984,0,0,1-7.945-1.242l-3.4-1.042a5.492,5.492,0,0,0-1.458-.447l-6.251-2.784a38.143,38.143,0,0,0,2.814-5.258,4.836,4.836,0,0,0,1.962.719,2.369,2.369,0,0,0,.477-1.106l.043-.178a40.56,40.56,0,0,1,5.8-2.012" transform="translate(-101.407 -266.743)" fill="#f8bf99"/>
          <path id="Trazado_1180283" data-name="Trazado 1180283" d="M144,243.921a23.576,23.576,0,0,0,5.089,3.31,26.426,26.426,0,0,0,6.968,1.523l-.117,1.4,1.223,1.168a112.923,112.923,0,0,1,5.839,12.947,7.414,7.414,0,0,1,.622,1.982c-3.623-2.82-7.523-5.841-10.312-9.523L151.5,270.159c-2.917-3.309-5.678-6.869-8.284-10.426a30.487,30.487,0,0,1-3.574-5.511c.993-.846,2.2-2.225,3.5-2.408.885-1.716.8-4.137.829-6.016l-.028-.163Z" transform="translate(-87.384 -152.635)" fill="#fefefe"/>
          <path id="Trazado_1180284" data-name="Trazado 1180284" d="M149.85,243.921a23.575,23.575,0,0,0,5.089,3.31,26.426,26.426,0,0,0,6.968,1.523l-.117,1.4-.58,2.2a6.731,6.731,0,0,1-2.745,3.3,4.549,4.549,0,0,1-2.609-.054,22.712,22.712,0,0,1-4.868-2.256c-.808-.459-1.537-.7-2-1.524.885-1.716.8-4.137.829-6.016l-.028-.163Z" transform="translate(-93.232 -152.635)" fill="#e37a50"/>
          <path id="Trazado_1180285" data-name="Trazado 1180285" d="M149.82,248.936l.026.168c.1.671-.088,1.461.025,2.063a7.937,7.937,0,0,0,1.861,2.575,10.248,10.248,0,0,0,7.486,2.075l1.992-.326a6.733,6.733,0,0,1-2.745,3.3,4.553,4.553,0,0,1-2.609-.053,22.719,22.719,0,0,1-4.867-2.256c-.809-.459-1.537-.7-2-1.524.885-1.716.8-4.137.83-6.016" transform="translate(-93.231 -155.773)" fill="#f39e79"/>
          <path id="Trazado_1180286" data-name="Trazado 1180286" d="M107.96,348.018c1.756,4.186,3.858,8.206,5.926,12.244,1.1,2.139,2.115,4.43,3.39,6.459l-4.952,9.863a9.693,9.693,0,0,1-2.246-1.336l-4.044-2.455-11.245-6.266Z" transform="translate(-59.314 -217.774)" fill="#e5782d"/>
          <path id="Trazado_1180287" data-name="Trazado 1180287" d="M129.984,337.364l4.37-6.372c2.045,3.2,4.22,7.047,7.45,9.183l.225.152c4.988,3.295,12.8,1.629,18.4,1.136.726-.064,1.308-.045,1.4.863a1.89,1.89,0,0,1-.439,1.533,7.422,7.422,0,0,1-2.816,1.307,92.243,92.243,0,0,1-10.9,2.261c-.845.158-2.848.307-3.283,1.074.047,2.2.957,4.11,1.713,6.137,2,5.359,4.471,10.27,6.97,15.392a40.571,40.571,0,0,0-5.8,2.012l-.043.178a2.375,2.375,0,0,1-.477,1.106,4.844,4.844,0,0,1-1.963-.719,18.732,18.732,0,0,0-3.226-2.159l-7.227-4.517,4.952-9.863c-1.275-2.029-2.294-4.32-3.39-6.459-2.068-4.037-4.17-8.058-5.926-12.244" transform="translate(-81.338 -207.12)" fill="#b33042"/>
          <path id="Trazado_1180289" data-name="Trazado 1180289" d="M101.962,446.25l7.815,3.974a14.962,14.962,0,0,0,2.913,1.362,12.253,12.253,0,0,0,.6-1.6l6.251,2.784a5.5,5.5,0,0,1,1.458.447l3.4,1.042a25.98,25.98,0,0,0,7.945,1.242c1.558-.084,4.831-.748,5.789-2.085a1.44,1.44,0,0,0,.271-1.171l-.5-.367a14.957,14.957,0,0,0,2.052-2.2,13.75,13.75,0,0,1,1.321,3.546,50.814,50.814,0,0,1,1.352,6.1c.631,4.188.931,8.452,1.26,12.672l1.317,20.3c.385,6.866,1.064,13.89,1,20.761-.019,2.186-.317,4.369-.546,6.542-.208,1.969-.342,3.982-.671,5.932l-4.837,43.416-2.964.371-.335-.15-5.259-.238a6.243,6.243,0,0,1-1.1,1.894,3.227,3.227,0,0,0-2.211,1.383c-.914,1.424-.629,3.92-.313,5.507l1.375,5.6L97.8,583l-1.846-5.155a9.412,9.412,0,0,1-.524-1.877l-1.085-4.173c-2.726-1.338-5.269-3.011-8.269-3.666l-.528-2.332.655-1.115-2.075-.93,4.607-10.3,16.033-38.478,1.157-2.616a4.757,4.757,0,0,0,.39-.84,5.411,5.411,0,0,0-.383-1.115l-.966-3.365-4.314-16.693-4.007-18.748a49.1,49.1,0,0,1-.51-10.644,30.985,30.985,0,0,1,5.832-14.7" transform="translate(-52.641 -279.243)" fill="#3b494f"/>
          <path id="Trazado_1180290" data-name="Trazado 1180290" d="M160.922,456.235l6.251,2.784a7.058,7.058,0,0,1-2.9-.221l-4.03-.633.079-.331a12.309,12.309,0,0,0,.6-1.6" transform="translate(-100.273 -285.491)" fill="#2e2c2a"/>
          <path id="Trazado_1180291" data-name="Trazado 1180291" d="M88.575,762.705l8.959,2.987-.816,4.126c-2.726-1.338-5.268-3.011-8.269-3.666l-.528-2.332Z" transform="translate(-55.016 -477.266)" fill="#f39e79"/>
          <path id="Trazado_1180292" data-name="Trazado 1180292" d="M121.84,446.25l7.815,3.974a14.961,14.961,0,0,0,2.913,1.362l-.079.331-3.878-1.287c-5.507,4.931-7.189,13.634-7.573,20.692a83.928,83.928,0,0,0,.626,13.157l1.454,11.6,1.094,6.411c.234,1.231,1.006,3.361.628,4.543l-4.314-16.693-4.007-18.748a49.1,49.1,0,0,1-.51-10.644,30.985,30.985,0,0,1,5.832-14.7" transform="translate(-72.519 -279.243)" fill="#273133"/>
          <path id="Trazado_1180293" data-name="Trazado 1180293" d="M196.513,537.521c-.576-3.857-.321-8.1-.424-12.019l-.685-24.315,11.179-3.967a52.934,52.934,0,0,0-8.394,7.195,253.95,253.95,0,0,0,3.05,27.539,111.191,111.191,0,0,0,1.975,11.456c.266,1.01-.325,2.927-.5,3.98l-.743,5.853a198.19,198.19,0,0,0-.555,25.43c.175,5.268.27,10.707,1.6,15.836a18.49,18.49,0,0,0,2.72,6.053c.157.234.1.159.142.5l-5.259-.238-5.535-.457-.167-3.6a242.667,242.667,0,0,1-.342-24.487c.166-7.549-.046-15.892,2.193-23.147a12.5,12.5,0,0,1,2.744-4.719Z" transform="translate(-121.663 -311.137)" fill="#273133"/>
          <path id="Trazado_1180294" data-name="Trazado 1180294" d="M144.576,604.905l2.994,6.894a12.5,12.5,0,0,0-2.744,4.719c-2.239,7.255-2.027,15.6-2.193,23.147a242.667,242.667,0,0,0,.342,24.487l.167,3.6,5.535.457a6.243,6.243,0,0,1-1.1,1.894,3.227,3.227,0,0,0-2.211,1.383c-.914,1.424-.629,3.92-.313,5.507l1.375,5.6-31.55-.307-1.846-5.155a9.412,9.412,0,0,1-.524-1.877l-1.085-4.173.816-4.126,2.171.621.2-.131a10.54,10.54,0,0,0,1-1.733l3.047-5.576,18.585-34.092,4.71-9.111a42.28,42.28,0,0,0,1.836-3.872c.879-2.4.258-5.462.744-7.992Z" transform="translate(-69.726 -378.522)" fill="#134b69"/>
          <path id="Trazado_1180295" data-name="Trazado 1180295" d="M166.648,782.058a17.421,17.421,0,0,1,2.134-2.955c2.119-2.468,5.5-6.024,8.915-6.278l5.535.457a6.244,6.244,0,0,1-1.1,1.894,3.226,3.226,0,0,0-2.211,1.383c-.914,1.424-.629,3.92-.313,5.507Z" transform="translate(-104.281 -483.598)" fill="#134b69"/>
          <path id="Trazado_1180296" data-name="Trazado 1180296" d="M134.783,797.286l12.964.008,1.375,5.6-31.55-.307-1.846-5.155c1.219-.5,3.876-.148,5.244-.148Z" transform="translate(-72.416 -498.826)" fill="#134b69"/>
          <path id="Trazado_1180297" data-name="Trazado 1180297" d="M323.265,71.807c2.8-1.756,5.605-2.925,8.987-2.213a11.373,11.373,0,0,1,7.477,4.86,8.458,8.458,0,0,1,1.028,6.382c-.207.908-1.093,2.4-1.1,3.221a5.151,5.151,0,0,0,.573,1.129,2.112,2.112,0,0,0,1.271,1.09c1.705-.068,3.507-.968,5.118-1.512l6.744-2.061c4.684-1.26,9-2.91,13.811-3.445,4.919,8.641,21.521,60.063,20.479,58.847l.327-.464-.894-2.113a13.577,13.577,0,0,0-2.017.638l-2.5,1.217a56.4,56.4,0,0,1-8.183,3.94l-16.534,6.253c-1.039.418-2.141,1.1-3.25.584-3.374-1.564-.692-4.25-.3-6.591a8.032,8.032,0,0,0-.516-4.023,10.242,10.242,0,0,0-5.211-5.568,9.976,9.976,0,0,0-8.087-.3,10.768,10.768,0,0,0-6.261,6.132,8.721,8.721,0,0,0-.558,4.472,6.272,6.272,0,0,0,2.41,4.431c1.1.823,2.951,1.468,3.413,2.879a3.656,3.656,0,0,1-.417,2.727,2.438,2.438,0,0,1-1.124.929,28.16,28.16,0,0,1-3.5.936l-5.083,1.318-14.917,3.9a32.022,32.022,0,0,1-1.609-5.763L309.782,141.5a17.813,17.813,0,0,0-.991-3.42c-1.051-.835-2.591-.791-3.515-1.99l.013-.154a7.815,7.815,0,0,0-1.229-2c-1.943-.463-3.7-1.465-5.715-1.781l-.165-.32a10.343,10.343,0,0,1-2.229-4.246c-.223-1.338-.029-3.367.965-4.4.772-.8,1.852-1.353,2.676-2.128a25.147,25.147,0,0,0,2.809-3.376c.3-.865-.532-2.993-.815-3.928l-2.836-9.915a15.033,15.033,0,0,1-.787-3.3l15.7-4.759c2.76-.717,5.643-1.248,8.355-2.112A4.9,4.9,0,0,0,324,92.607a3.516,3.516,0,0,0,.984-2.306c.006-1.906-2.384-2.884-3.6-4.123a7.988,7.988,0,0,1-2.265-6.1c.065-3.348,1.822-6.006,4.142-8.266" transform="translate(-185.14 -43.417)" fill="#e37a50"/>
          <path id="Trazado_1180298" data-name="Trazado 1180298" d="M318.025,206.479a7.477,7.477,0,0,1,1.677-.059c.446.48.278.978.271,1.617a7.626,7.626,0,0,1,1.458,1.778c.241,2.178-1.084,4.506-2.291,6.241l-.288.122a1.518,1.518,0,0,1-.369-.282c-1.453-1.409-2.853-6.1-2.731-8.14.428-.763,1.5-1,2.272-1.278" transform="translate(-197.579 -129.157)" fill="#f6aa46"/>
          <path id="Trazado_1180299" data-name="Trazado 1180299" d="M302.4,198.427a12.049,12.049,0,0,1,1.287,3.533l-.178.078c-.594.266-2.208,1.158-2.459,1.777a3.814,3.814,0,0,0,.076,2.228,25.858,25.858,0,0,0,.66,2.578l.216.687a33.5,33.5,0,0,0,2.058,5.37c-1.943-.463-3.7-1.465-5.715-1.781l-.165-.32a10.343,10.343,0,0,1-2.229-4.246c-.223-1.338-.029-3.367.965-4.4.772-.8,1.852-1.353,2.676-2.128a25.147,25.147,0,0,0,2.809-3.376" transform="translate(-185.14 -124.167)" fill="#f49d3c"/>
          <path id="Trazado_1180301" data-name="Trazado 1180301" d="M514.593,197.052l.232-.112a3.8,3.8,0,0,0,.739-.52,2.765,2.765,0,0,1,1.171-.586,1.523,1.523,0,0,1,.453.165,13.535,13.535,0,0,1,1.83,2.683,44.117,44.117,0,0,1,3.329,5.16,4.133,4.133,0,0,1,.449,1.322,45.689,45.689,0,0,1-.131,5.326,15.561,15.561,0,0,1-.294,4.068,2.923,2.923,0,0,1-.429.738l-2.5,1.217a7.669,7.669,0,0,0-.1-1.975c-.913-4.156-2.388-8.272-3.512-12.383l-.782-3.073a8.305,8.305,0,0,0-.458-2.03" transform="translate(-322.008 -122.544)" fill="#f8bf99"/>
          <path id="Trazado_1180302" data-name="Trazado 1180302" d="M676.7,176.574c.432,2.613.762,5.648,1.918,8.058a7.945,7.945,0,0,0,1.684,1.378,31.265,31.265,0,0,1,5.672,1.837c4.437,1.833,9.377,3.074,13.568,5.438a15.011,15.011,0,0,1,4.558,4.6c3.31,4.636,5.773,10.2,7.951,15.452l10.486,27.3c.675,2,1.808,4.531,2,6.625a11.407,11.407,0,0,1-.4,3.022l-1.823,7.486-4.607,17.146c-1.179,4.4-2.071,9.113-3.647,13.375-.457.217-.509.094-.977-.039l-.447,2.472-8.087-1.463-.049.686-4.42.013,1.01,3.491-2.8,1.388-.792.668a5.129,5.129,0,0,0-.793,4.01l.279.647-9.324,2.987a54.8,54.8,0,0,0-7.043,2.509,7.816,7.816,0,0,0,.357,1.976l.2.655.273.83a5.824,5.824,0,0,0,.284.659,2.359,2.359,0,0,1,.283,1.189l-.262.082a2.585,2.585,0,0,0,.18,1.263,22.927,22.927,0,0,1,.979,3.233c.066.348.011.133.174.5a3.48,3.48,0,0,1,.161.973l.185.35.084.468.172.582,3.159,10.477c.8,2.7,1.445,5.47,2.493,8.091.588,1.473,1.381,2.893,2.111,4.3l13.982-5.636,5.5,45.047L713.4,402.72a8.772,8.772,0,0,1-1.177.323l-5.505,1.015a9.9,9.9,0,0,0-2.76.449,8.8,8.8,0,0,1,.311,2.5,21.143,21.143,0,0,1-3.276,3.181L667.1,409.026a6.866,6.866,0,0,0-1.2-2.107l.006-2.75c.515-.051.844.03,1.216-.352l3.828-100.15-.133-.135-.062-1.042a1.448,1.448,0,0,0-.475-.909,31.921,31.921,0,0,0-4.491-3.069l-6.72-4.8.146-16.339a36.567,36.567,0,0,0-4.122-.29l.208-5.378.724-.131a1.2,1.2,0,0,1-.653-.3c-.043-.041-.1-.076-.118-.132a7.342,7.342,0,0,1,0-1.434l.007-3.418.423-25.326a29.951,29.951,0,0,0,.155-4.534l.352-9.769,1.518-21.991c.406-5.474.56-11.16,1.508-16.569l.015-.54a4.744,4.744,0,0,1,2.412-1.811,5.269,5.269,0,0,0,.417-.75.849.849,0,0,0,.415.134,7.339,7.339,0,0,0,1.95-.393,20.036,20.036,0,0,0,7.294-3.187,20.424,20.424,0,0,0,4.208-4.006Z" transform="translate(-409.927 -110.492)" fill="#335d8e"/>
          <path id="Trazado_1180303" data-name="Trazado 1180303" d="M787.023,471.94l8.246,1.136-.447,2.472-8.087-1.463a6.8,6.8,0,0,0-.307-1.985Z" transform="translate(-492.11 -295.318)" fill="#fefefe"/>
          <path id="Trazado_1180304" data-name="Trazado 1180304" d="M731.838,557.12a3.36,3.36,0,0,1-1.561-.251,2.575,2.575,0,0,1-1.171-1.493c-.67-1.682-1.095-3.5-1.607-5.241l-2.857-9.826-5-16.856a5.423,5.423,0,0,1,1.37-1.957,7.818,7.818,0,0,0,.357,1.976l.2.655.273.831a5.883,5.883,0,0,0,.284.659,2.356,2.356,0,0,1,.283,1.188l-.262.082a2.584,2.584,0,0,0,.18,1.263,22.934,22.934,0,0,1,.979,3.233c.065.348.011.133.174.5a3.483,3.483,0,0,1,.161.973l.185.35.084.468.172.582,3.159,10.477c.8,2.7,1.445,5.47,2.492,8.091.588,1.473,1.381,2.893,2.111,4.3" transform="translate(-450.316 -326.328)" fill="#f49d3c"/>
          <path id="Trazado_1180305" data-name="Trazado 1180305" d="M746.016,392.966c-1.186,1.066-11.561,1.567-13.561,1.684-.021-.867-.312-3.247.137-3.893,1.239-.588,3.222-.448,4.592-.562l8.054-.645Z" transform="translate(-458.266 -243.763)" fill="#0f264e"/>
          <path id="Trazado_1180306" data-name="Trazado 1180306" d="M734.95,393.053a10.6,10.6,0,0,1,2.816-.047l.18.982c-.247.488-.434.467-.928.665l-.21.058a3.528,3.528,0,0,1-2.552-.226,2.158,2.158,0,0,1-.045-1.2Z" transform="translate(-459.394 -245.871)" fill="#3e9ac2"/>
          <path id="Trazado_1180307" data-name="Trazado 1180307" d="M656.025,430.425c4.912.294,10.028.792,14.923.187l.11,5.844-11.843-.232a36.653,36.653,0,0,0-4.122-.29l.208-5.378Z" transform="translate(-409.927 -269.34)" fill="#0f264e"/>
          <path id="Trazado_1180308" data-name="Trazado 1180308" d="M725.332,479.544l1.978,0,1.01,3.492-2.8,1.388-.792.668c-2.625-.528-5.331-.762-7.981-1.156a139.4,139.4,0,0,1-18.143-3.668c.773-.569,7.622-.342,9.062-.365Z" transform="translate(-437.153 -300.074)" fill="#0f264e"/>
          <path id="Trazado_1180309" data-name="Trazado 1180309" d="M770.023,479.543l1.978,0,1.01,3.492-2.8,1.388Z" transform="translate(-481.844 -300.074)" fill="#fefefe"/>
          <path id="Trazado_1180310" data-name="Trazado 1180310" d="M754.459,301.663l-.226-.016L749.809,280.2a127.427,127.427,0,0,1-2.655-16.935,29.08,29.08,0,0,1,.153-7.181,45.51,45.51,0,0,0,6.082,20.513c.709,1.247,1.514,2.431,2.343,3.6a5.529,5.529,0,0,1,1.256,2.233Z" transform="translate(-467.443 -160.248)" fill="#1b3d6d"/>
          <path id="Trazado_1180311" data-name="Trazado 1180311" d="M706.558,201.786a31.263,31.263,0,0,1,5.672,1.837l-1.377,17.731a19.814,19.814,0,0,0-4.311,0,23.9,23.9,0,0,0,1.525,2.772,13.743,13.743,0,0,1,1.5,2.115,220.987,220.987,0,0,1-9.244,22.307,35.484,35.484,0,0,1-3.269,6.105c.019-6.61,1.381-13.277,2.448-19.773l1.953-12.318,4.175-18.089Z" transform="translate(-436.18 -126.269)" fill="#3e9ac2"/>
          <path id="Trazado_1180312" data-name="Trazado 1180312" d="M769.187,326.488c.782.353,1.42,1.589,1.925,2.272l4.568,6.13a35.291,35.291,0,0,0,3.563,4.059l-4.465,34.974-.644,5.224a6.677,6.677,0,0,0-.138,1.34c.03.112.135.189.2.284l.357.152-.6.159a18.051,18.051,0,0,1-1.1-3.611l-1.553-6.506-3.913-17.46-.778-3.415a18.378,18.378,0,0,1,.045-4.372Z" transform="translate(-479.643 -204.301)" fill="#e5782d"/>
          <path id="Trazado_1180313" data-name="Trazado 1180313" d="M676.9,176.574c.432,2.613.762,5.648,1.918,8.058a7.944,7.944,0,0,0,1.684,1.378l-.934,2.687L675.4,206.785,673.443,219.1c-1.067,6.5-2.429,13.163-2.448,19.773l.153,32.888c-4.9.6-10.011.106-14.923-.187a1.2,1.2,0,0,1-.653-.3c-.043-.041-.1-.076-.118-.132a7.342,7.342,0,0,1,0-1.434l.007-3.418.423-25.326a29.951,29.951,0,0,0,.155-4.534l.352-9.769,1.518-21.991c.406-5.474.559-11.16,1.508-16.569l.015-.54a4.744,4.744,0,0,1,2.412-1.811,5.269,5.269,0,0,0,.417-.75.849.849,0,0,0,.415.134,7.34,7.34,0,0,0,1.95-.393,20.036,20.036,0,0,0,7.294-3.187,20.424,20.424,0,0,0,4.208-4.006Z" transform="translate(-410.127 -110.492)" fill="#eae5e1"/>
          <path id="Trazado_1180314" data-name="Trazado 1180314" d="M668.545,201.109a37.226,37.226,0,0,0,3.857,4.866,9.7,9.7,0,0,1,1.731,2.364,42.681,42.681,0,0,0-3.456,6.2c-.268-.387-.195-.187-.262-.643-.255-1.676-1.665-3.238-2.35-4.8-.775-1.765-.958-4.07-1.946-5.64l.015-.54a4.744,4.744,0,0,1,2.412-1.811" transform="translate(-416.826 -125.845)" fill="#fefefe"/>
          <path id="Trazado_1180315" data-name="Trazado 1180315" d="M699.411,198.1a7.945,7.945,0,0,0,1.684,1.378l-.934,2.687a22.115,22.115,0,0,0-3.924,4.177c-1.589,1.93-3.217,3.832-4.626,5.9a5.507,5.507,0,0,1-.866.91l-.443.018a2.693,2.693,0,0,0,.253-1.082,8.439,8.439,0,0,0-.853-2.081c-.513-1.157-.986-2.306-1.383-3.508a17.14,17.14,0,0,1,2.577-2.089Z" transform="translate(-430.717 -123.965)" fill="#fefefe"/>
          <path id="Trazado_1180316" data-name="Trazado 1180316" d="M687.659,176.574c.432,2.613.762,5.648,1.918,8.058l-8.516,6.306a17.141,17.141,0,0,0-2.577,2.089l-.294-.04a9.7,9.7,0,0,0-1.731-2.365,37.224,37.224,0,0,1-3.857-4.866,5.269,5.269,0,0,0,.417-.75.849.849,0,0,0,.415.134,7.34,7.34,0,0,0,1.95-.393,20.036,20.036,0,0,0,7.294-3.187,20.424,20.424,0,0,0,4.208-4.006Z" transform="translate(-420.884 -110.492)" fill="#f39e79"/>
          <path id="Trazado_1180317" data-name="Trazado 1180317" d="M671.47,220.43l.294.04c.4,1.2.87,2.351,1.383,3.508a8.439,8.439,0,0,1,.853,2.081,2.7,2.7,0,0,1-.253,1.082,4.126,4.126,0,0,0-1.239,1.452,3.816,3.816,0,0,0,.024.833l-.03,2.56.273,41.973.365,7.3a9.141,9.141,0,0,1,.127,1.95,10.514,10.514,0,0,1-1.213,1.724l-4.5,6.03c-1.641-2.439-2.973-5.1-4.476-7.625a10.962,10.962,0,0,1-1.175-1.883,9.661,9.661,0,0,1,.133-2.228l.64-5.807,4.789-35.932,1.162-6.3a11.378,11.378,0,0,0,.522-2.343,9.322,9.322,0,0,0-1.132-2.219,42.669,42.669,0,0,1,3.456-6.2" transform="translate(-414.163 -137.935)" fill="#cf3b28"/>
          <path id="Trazado_1180318" data-name="Trazado 1180318" d="M689.018,516.079l.155-.054L721.342,616.9l.679.024a8.8,8.8,0,0,1,.311,2.5,21.144,21.144,0,0,1-3.276,3.181l-33.884-1.162a6.862,6.862,0,0,0-1.2-2.107l.006-2.751c.515-.051.844.03,1.216-.352Z" transform="translate(-427.995 -322.905)" fill="#134b69"/>
          <path id="Trazado_1180320" data-name="Trazado 1180320" d="M243.916,236.237l.165.32c2.011.315,3.772,1.317,5.715,1.781a7.816,7.816,0,0,1,1.23,2l-.013.154a2.348,2.348,0,0,0-.948.266l-32.4,24.277-4.5-5.494a41.52,41.52,0,0,1-4.012-5.358Z" transform="translate(-130.877 -147.826)" fill="#b33042"/>
          <path id="Trazado_1180321" data-name="Trazado 1180321" d="M302.486,237.092c2.01.316,3.772,1.318,5.715,1.781a7.814,7.814,0,0,1,1.229,2l-.013.154a2.349,2.349,0,0,0-.948.266l-.391-.04c-2.406-.313-4.23-2.338-5.592-4.163" transform="translate(-189.282 -148.361)" fill="#f39e79"/>
          <path id="Trazado_1180322" data-name="Trazado 1180322" d="M554.745,222.162a1.342,1.342,0,0,1,.21.883L553.188,245.5l-.172,5.5a10.023,10.023,0,0,1-.086,2.074.787.787,0,0,1-.2.351,36.317,36.317,0,0,0-3.089,2.112,94.443,94.443,0,0,1-14.749,8.543c-2.6,1.176-5.5,2.559-8.4,1.981a7.114,7.114,0,0,1-2.751-1.1c-1.954-1.376-3.561-3.734-4.966-5.641l-6.156-8.975-6.63-10.875-.2-.3a5.715,5.715,0,0,1-.155-2.252,56.4,56.4,0,0,0,8.183-3.94l2.5-1.217a13.535,13.535,0,0,1,2.017-.638l.894,2.112-.327.464a42.085,42.085,0,0,1,2.764,4.239l7.126,10.74Z" transform="translate(-316.375 -139.019)" fill="#1b3d6d"/>
          <path id="Trazado_1180323" data-name="Trazado 1180323" d="M516.31,246.768a13.536,13.536,0,0,1,2.017-.638l.894,2.112-.327.465-13.114,5.471a5.716,5.716,0,0,1-.155-2.253,56.358,56.358,0,0,0,8.183-3.94Z" transform="translate(-316.375 -154.017)" fill="#fefefe"/>
          <path id="Trazado_1180324" data-name="Trazado 1180324" d="M628.948,206.782A37.948,37.948,0,0,1,632.789,205l.241.354-.015.54c-.949,5.409-1.1,11.095-1.508,16.569l-1.518,21.991-.352,9.768a29.956,29.956,0,0,1-.155,4.534l-.423,25.326-.008,3.419a7.338,7.338,0,0,0,0,1.433c.017.056.075.092.118.133a1.2,1.2,0,0,0,.653.3l-.724.131-.208,5.378L628.7,304.6a14.778,14.778,0,0,1-2.717.5c-1.826.094-3.7.017-5.526.007-.483,0-1.241-.133-1.607.155l-.109.436a5.055,5.055,0,0,0-.372-.5l-5.15.039,3.664-25.44.638-4.742,1.6-13.7L619.9,248.8l.3-4.22a3.4,3.4,0,0,0-.118-1.884.785.785,0,0,0,.2-.351,10.029,10.029,0,0,0,.086-2.074l.172-5.5,1.766-22.456a1.342,1.342,0,0,0-.21-.883,19.3,19.3,0,0,1,5.14-3.916Z" transform="translate(-383.723 -128.28)" fill="#335d8e"/>
          <path id="Trazado_1180325" data-name="Trazado 1180325" d="M623.646,392.2l4.5.5-.35,4.611-4.792-.371Z" transform="translate(-389.849 -245.421)" fill="#0f264e"/>
          <path id="Trazado_1180326" data-name="Trazado 1180326" d="M646.631,206.782A37.947,37.947,0,0,1,650.473,205l.241.354-.015.54c-.949,5.409-1.1,11.095-1.508,16.569l-1.518,21.991-.352,9.768a29.948,29.948,0,0,1-.155,4.534,3.536,3.536,0,0,0-.253-1.792c-1.192-1.649-1.742-4.515-2.21-6.485-.814-3.419-1.379-6.964-1.931-10.431a84.459,84.459,0,0,1-1.222-10.278,7.413,7.413,0,0,1-.041-1.456,9.562,9.562,0,0,1,1.379-1.395,19.87,19.87,0,0,0,2.919-3.494l-3.679-1.449c1.39-5.01,2.29-10.482,4.5-15.2" transform="translate(-401.406 -128.28)" fill="#3e9ac2"/>
          <path id="Trazado_1180327" data-name="Trazado 1180327" d="M638.123,445.145a36.645,36.645,0,0,1,4.122.29l-.146,16.34,6.72,4.8a31.923,31.923,0,0,1,4.491,3.069,1.449,1.449,0,0,1,.475.909l.062,1.042.133.135-3.829,100.15c-.372.382-.7.3-1.216.352-1.77-.109-3.531.049-5.3.1-1.312.041-2.706-.058-4,.1a2.52,2.52,0,0,1-1.473-.09L627.973,455.97l.109-.436c.367-.288,1.125-.157,1.607-.155,1.83.009,3.7.086,5.526-.008a14.775,14.775,0,0,0,2.717-.5Z" transform="translate(-392.956 -278.551)" fill="#1b3d6d"/>
          <path id="Trazado_1180329" data-name="Trazado 1180329" d="M350.807,361.11l2.236-.021a10.513,10.513,0,0,1,7.337,3.634,9.009,9.009,0,0,1,1.97,6.193c-.1,1.049-.453,2.093-.522,3.139a1.675,1.675,0,0,0,.509,1.316A4.146,4.146,0,0,0,365.1,376.6l.3-.08a27.14,27.14,0,0,0,5.4-2.347l9.379-4.772,6.9-3.446a41.963,41.963,0,0,0,4.274-2.224l.2-.133,10.587,19.341a3.829,3.829,0,0,1,.32,3.278c-1.039,2.436-3.72,1.1-5.559.876a8.87,8.87,0,0,0-4.7.651,9.771,9.771,0,0,0-5.148,5.606,8.88,8.88,0,0,0,.464,7.186,9.914,9.914,0,0,0,5.726,5.06,9.552,9.552,0,0,0,10.267-3.028c1.033-1.381,1.233-3.5,2.9-4.323a3.919,3.919,0,0,1,3.009-.185A2.858,2.858,0,0,1,410.6,399.1c1.617,2.354,2.8,5.348,4.152,7.9l6.839,12.79-38.854,19.135-30.655,15.415c-1.875-2.781-3.21-6.267-4.754-9.274-1.864-3.628-4.035-7.191-5.725-10.9a3.225,3.225,0,0,1-.161-2.781c1.247-3.054,4.46-1.007,6.646-.681a7.988,7.988,0,0,0,4.242-.614,9.713,9.713,0,0,0,5.089-5.352,9.173,9.173,0,0,0-.318-7.337,10.523,10.523,0,0,0-6.418-5.056c-3.266-.917-7.391.062-9.5,2.85-1.241,1.643-1.568,4.223-3.564,5.2a2.5,2.5,0,0,1-1.907,0,3.525,3.525,0,0,1-1.241-.6c-.97-.988-1.6-3.091-2.237-4.334l-8.847-17.668,15.584-7.485c2.64-1.291,5.614-2.438,8.1-3.954a5.7,5.7,0,0,0,2.159-1.989,3.746,3.746,0,0,0,.552-2.663c-.381-1.287-2.488-2.047-3.59-2.714a9.082,9.082,0,0,1-3.957-5.822,9.674,9.674,0,0,1,1.449-7.651c1.721-2.592,4.172-3.774,7.127-4.4" transform="translate(-202.358 -225.953)" fill="#59b4d5"/>
        </g>
      </g>
    </g>
  </g>
</svg>
