<svg xmlns="http://www.w3.org/2000/svg" xmlns:xlink="http://www.w3.org/1999/xlink" width="113" height="113" viewBox="0 0 113 113">
  <defs>
    <filter id="Trazado_982547" x="0" y="0" width="113" height="113" filterUnits="userSpaceOnUse">
      <feOffset dy="3" input="SourceAlpha"/>
      <feGaussianBlur stdDeviation="3" result="blur"/>
      <feFlood flood-opacity="0.161"/>
      <feComposite operator="in" in2="blur"/>
      <feComposite in="SourceGraphic"/>
    </filter>
  </defs>
  <g id="Grupo_1224209" data-name="Grupo 1224209" transform="translate(-674 -862.751)">
    <g id="Grupo_1224085" data-name="Grupo 1224085" transform="translate(0 -3712.317)">
      <g id="Grupo_1223184" data-name="Grupo 1223184" transform="translate(683 4581.069)">
        <g id="Grupo_1211216" data-name="Grupo 1211216" transform="translate(0)">
          <g id="Grupo_1210737" data-name="Grupo 1210737">
            <g id="Grupo_1210537" data-name="Grupo 1210537">
              <g id="Grupo_1164202" data-name="Grupo 1164202">
                <g id="Grupo_1158168" data-name="Grupo 1158168">
                  <g id="Grupo_1152576" data-name="Grupo 1152576">
                    <g id="Grupo_1148633" data-name="Grupo 1148633">
                      <g id="Grupo_1148525" data-name="Grupo 1148525">
                        <g transform="matrix(1, 0, 0, 1, -9, -6)" filter="url(#Trazado_982547)">
                          <g id="Trazado_982547-2" data-name="Trazado 982547" transform="translate(9 6)" fill="#fcf5f0">
                            <path d="M 47.49999618530273 93.5 C 41.28936767578125 93.5 35.26533126831055 92.28396606445312 29.59518241882324 89.88570404052734 C 24.11771583557129 87.56893157958984 19.19812965393066 84.251953125 14.97308921813965 80.02690124511719 C 10.74803638458252 75.80186462402344 7.431062698364258 70.88227844238281 5.114289283752441 65.40480804443359 C 2.716022968292236 59.73466110229492 1.499996185302734 53.71062469482422 1.499996185302734 47.49999618530273 C 1.499996185302734 41.28936767578125 2.716022968292236 35.26533126831055 5.114289283752441 29.59518241882324 C 7.431062698364258 24.11771583557129 10.74803638458252 19.19812965393066 14.97308921813965 14.97308921813965 C 19.19812965393066 10.74803638458252 24.11771583557129 7.431062698364258 29.59518241882324 5.114289283752441 C 35.26533126831055 2.716022968292236 41.28936767578125 1.499996185302734 47.49999618530273 1.499996185302734 C 53.71062469482422 1.499996185302734 59.73466110229492 2.716022968292236 65.40480804443359 5.114289283752441 C 70.88227844238281 7.431062698364258 75.80186462402344 10.74803638458252 80.02690124511719 14.97308921813965 C 84.251953125 19.19812965393066 87.56893157958984 24.11771583557129 89.88570404052734 29.59518241882324 C 92.28396606445312 35.26533126831055 93.5 41.28936767578125 93.5 47.49999618530273 C 93.5 53.71062469482422 92.28396606445312 59.73466110229492 89.88570404052734 65.40480804443359 C 87.56893157958984 70.88227844238281 84.251953125 75.80186462402344 80.02690124511719 80.02690124511719 C 75.80186462402344 84.251953125 70.88227844238281 87.56893157958984 65.40480804443359 89.88570404052734 C 59.73466110229492 92.28396606445312 53.71062469482422 93.5 47.49999618530273 93.5 Z" stroke="none"/>
                            <path d="M 47.49999618530273 2.999992370605469 C 41.4912109375 2.999992370605469 35.66376495361328 4.1761474609375 30.17950439453125 6.495796203613281 C 24.88084411621094 8.736953735351562 20.12152099609375 11.94598388671875 16.03375244140625 16.03375244140625 C 11.94598388671875 20.12152099609375 8.736953735351562 24.88084411621094 6.495796203613281 30.17950439453125 C 4.1761474609375 35.66376495361328 2.999992370605469 41.4912109375 2.999992370605469 47.49999618530273 C 2.999992370605469 53.50878143310547 4.1761474609375 59.33622741699219 6.495796203613281 64.82048797607422 C 8.736953735351562 70.11914825439453 11.94598388671875 74.87847137451172 16.03375244140625 78.96623992919922 C 20.12152099609375 83.05400848388672 24.88084411621094 86.26304626464844 30.17950439453125 88.50419616699219 C 35.66376495361328 90.82384490966797 41.4912109375 92 47.49999618530273 92 C 53.50878143310547 92 59.33622741699219 90.82384490966797 64.82048797607422 88.50419616699219 C 70.11914825439453 86.26304626464844 74.87847137451172 83.05400848388672 78.96623992919922 78.96623992919922 C 83.05400848388672 74.87847137451172 86.26304626464844 70.11914825439453 88.50419616699219 64.82048797607422 C 90.82384490966797 59.33622741699219 92 53.50878143310547 92 47.49999618530273 C 92 41.4912109375 90.82384490966797 35.66376495361328 88.50419616699219 30.17950439453125 C 86.26304626464844 24.88084411621094 83.05400848388672 20.12152099609375 78.96623992919922 16.03375244140625 C 74.87847137451172 11.94598388671875 70.11914825439453 8.736953735351562 64.82048797607422 6.495796203613281 C 59.33622741699219 4.1761474609375 53.50878143310547 2.999992370605469 47.49999618530273 2.999992370605469 M 47.49999618530273 -7.62939453125e-06 C 73.7335205078125 -7.62939453125e-06 95 21.26647186279297 95 47.49999618530273 C 95 73.7335205078125 73.7335205078125 95 47.49999618530273 95 C 21.26647186279297 95 -7.62939453125e-06 73.7335205078125 -7.62939453125e-06 47.49999618530273 C -7.62939453125e-06 21.26647186279297 21.26647186279297 -7.62939453125e-06 47.49999618530273 -7.62939453125e-06 Z" stroke="none" fill="#eca675"/>
                          </g>
                        </g>
                      </g>
                    </g>
                  </g>
                </g>
              </g>
            </g>
          </g>
        </g>
      </g>
    </g>
    <g id="equity_15577528" transform="translate(676.074 875.47)">
      <g id="Grupo_1224208" data-name="Grupo 1224208" transform="translate(18.832 8.157)">
        <path id="Trazado_1180393" data-name="Trazado 1180393" d="M111.945,64.05v5.488a2.141,2.141,0,1,1-4.283,0V64.05a2.141,2.141,0,0,1-2.386-3.553l3.268-2.375a2.141,2.141,0,0,1,2.517,0l3.268,2.375a2.141,2.141,0,0,1-2.386,3.553Z" transform="translate(-93.038 -51.551)" fill="#6cf5c2" fill-rule="evenodd"/>
        <g id="Grupo_1224206" data-name="Grupo 1224206" transform="translate(24.171 0)">
          <path id="Trazado_1180394" data-name="Trazado 1180394" d="M212.6,67.973,226.309,81.68A19.383,19.383,0,1,1,212.6,48.59Z" transform="translate(-193.219 -43.744)" fill="#8ac9fe" fill-rule="evenodd"/>
          <path id="Trazado_1180395" data-name="Trazado 1180395" d="M369.351,171.748H349.968l13.706,13.706A19.323,19.323,0,0,0,369.351,171.748Z" transform="translate(-327.354 -149.134)" fill="#ffe177" fill-rule="evenodd"/>
          <path id="Trazado_1180396" data-name="Trazado 1180396" d="M349.968,15a19.384,19.384,0,0,1,19.383,19.383H349.968Z" transform="translate(-327.354 -15)" fill="#6cf5c2" fill-rule="evenodd"/>
        </g>
        <path id="Trazado_1180397" data-name="Trazado 1180397" d="M33.228,147.416V152.9a2.141,2.141,0,1,1-4.283,0v-5.488a2.141,2.141,0,0,1-2.386-3.553l3.268-2.375a2.141,2.141,0,0,1,2.517,0l3.268,2.375a2.141,2.141,0,0,1-2.386,3.553Z" transform="translate(-25.677 -122.89)" fill="#6cf5c2" fill-rule="evenodd"/>
        <path id="Trazado_1180398" data-name="Trazado 1180398" d="M117,226.833v5.488a2.141,2.141,0,1,1-4.283,0v-5.488a2.141,2.141,0,0,1-2.386-3.553l3.268-2.375a2.141,2.141,0,0,1,2.517,0l3.268,2.375A2.141,2.141,0,0,1,117,226.833Z" transform="translate(-97.363 -190.85)" fill="#6cf5c2" fill-rule="evenodd"/>
        <g id="Grupo_1224207" data-name="Grupo 1224207" transform="translate(7.874 46.181)">
          <path id="Trazado_1180399" data-name="Trazado 1180399" d="M104.8,342.682l10.484-6.073c1.968-1.141,3.969-1.949,6.133-1.248,2.411.784,6.348,2.461,10.364,3.185a2.913,2.913,0,0,1,2.016,3.488,2.823,2.823,0,0,1-3.491,2.016l1.406.224a6.516,6.516,0,0,0,4.493-.784l10.079-5.871c7.836-4.563,8.986,2.458,6.382,4.063L134.37,352.948a6.714,6.714,0,0,1-5.431.765l-13.267-3.555L110.755,353a1.986,1.986,0,0,1-2.7-.727l-3.975-6.882A1.988,1.988,0,0,1,104.8,342.682Z" transform="translate(-100.413 -335.1)" fill="#f6dccd" fill-rule="evenodd"/>
          <path id="Trazado_1180400" data-name="Trazado 1180400" d="M247.249,372.688A2.877,2.877,0,0,1,244,374.075c-2.171-.575-4.344-1.163-6.515-1.744a1.091,1.091,0,1,1,.566-2.107Z" transform="translate(-214.107 -365.124)" fill="#f1cbbc" fill-rule="evenodd"/>
          <path id="Trazado_1180401" data-name="Trazado 1180401" d="M104.8,342.682l10.484-6.073c1.968-1.141,3.969-1.949,6.133-1.248,1.289.417,3.017,1.093,4.957,1.741l-20.31,11.729-1.987-3.444A1.988,1.988,0,0,1,104.8,342.682Z" transform="translate(-100.413 -335.1)" fill="#f1cbbc" fill-rule="evenodd"/>
          <path id="Trazado_1180402" data-name="Trazado 1180402" d="M85.855,362.252l8.316,14.692a1.49,1.49,0,0,1-.559,2.022l-2.831,1.6a1.49,1.49,0,0,1-2.022-.562l-8.313-14.692A1.485,1.485,0,0,1,81,363.292l2.828-1.6a1.489,1.489,0,0,1,2.022.563Z" transform="translate(-80.252 -357.691)" fill="#d1d1d6" fill-rule="evenodd"/>
          <path id="Trazado_1180403" data-name="Trazado 1180403" d="M113.208,372.347l1.469,2.6,1.457,2.572a1.487,1.487,0,0,1-.556,2.019l1.011-.572a1.49,1.49,0,0,0,.559-2.022l-1.46-2.581-2.932-5.182L109.821,364l-.989-1.744a1.49,1.49,0,0,0-1.728-.689l1.709,3.021,2.932,5.182,1.46,2.578Z" transform="translate(-103.23 -357.691)" fill="#b1b1b5" fill-rule="evenodd"/>
          <path id="Trazado_1180404" data-name="Trazado 1180404" d="M99.6,379.882a1.009,1.009,0,1,0,1.147.853A1.011,1.011,0,0,0,99.6,379.882Z" transform="translate(-96.066 -373.412)" fill="#685e68" fill-rule="evenodd"/>
        </g>
      </g>
      <path id="Trazado_1180405" data-name="Trazado 1180405" d="M40.631,71.654l.747,1.319,0,0A2.667,2.667,0,0,1,40.373,76.6L37.51,78.218l0,0a2.667,2.667,0,0,1-3.619-1.006l-8.421-14.88a2.662,2.662,0,0,1,1-3.622l2.867-1.623h0a2.669,2.669,0,0,1,3.619,1v0l.593,1.047,7.378-4.272c2.29-1.324,4.632-2.179,7.147-1.362,2.407.781,6.336,2.464,10.346,3.188a1.146,1.146,0,0,1,.15.038,4.1,4.1,0,0,1,2.8,4.933,4.781,4.781,0,0,1-.212.621,5.508,5.508,0,0,0,.958-.444l10.211-5.947c3.76-2.19,6.269-1.93,7.688-.979a4.375,4.375,0,0,1-.039,7.073L61.445,73.4a7.913,7.913,0,0,1-6.405.911h0L42.059,70.829ZM34.685,61.149l4.809,8.5,1.825-1.054a1.155,1.155,0,0,1,.876-.115l13.44,3.6a5.679,5.679,0,0,0,4.6-.645h0L78.763,60.023a1.815,1.815,0,0,0,.72-1.528c.048-1.8-1.759-3.075-6-.607L63.276,63.836a7.738,7.738,0,0,1-5.316.938h0l-1.267-.206-.047-.009h0c-2.307-.474-4.447-1.17-6.821-1.808a1.154,1.154,0,0,1,.6-2.229c2.311.621,4.4,1.3,6.639,1.767a1.739,1.739,0,0,0,2.081-1.221h0a1.793,1.793,0,0,0-1.215-2.116c-4.1-.754-8.1-2.451-10.562-3.249h0c-1.869-.607-3.577.181-5.279,1.165Zm-3.737-1.917v0a.353.353,0,0,0-.477-.132L27.6,60.72h0a.348.348,0,0,0-.129.475h0L35.9,76.077h0a.352.352,0,0,0,.478.131l2.861-1.622h0a.352.352,0,0,0,.131-.478Zm-.953,1.5a1.189,1.189,0,1,1-1.006,1.346A1.189,1.189,0,0,1,29.995,60.728Zm8.9-38.6v4.014a3.3,3.3,0,1,1-6.591,0V22.13a3.295,3.295,0,0,1-1.91-5.961l3.268-2.375a3.3,3.3,0,0,1,3.874,0L40.8,16.169a3.295,3.295,0,0,1-1.91,5.961Zm-.546-2.455a.987.987,0,0,0,1.1-1.639l-3.268-2.375a.987.987,0,0,0-1.16,0l-3.268,2.375a.987.987,0,0,0,1.1,1.639,1.154,1.154,0,0,1,1.763.981v5.488a.987.987,0,1,0,1.974,0V20.656a1.154,1.154,0,0,1,1.763-.981ZM63.541,31.908,76.909,45.277a1.154,1.154,0,0,1,0,1.632,20.538,20.538,0,1,1-14.522-35.06A1.154,1.154,0,0,1,63.541,13Zm-2.308.478V14.193a18.23,18.23,0,1,0,13.2,31.874L61.57,33.2A1.154,1.154,0,0,1,61.232,32.386Zm24.922-1.615a20.473,20.473,0,0,1-6.015,14.522,1.154,1.154,0,0,1-1.632,0L64.8,31.587a1.154,1.154,0,0,1,.816-1.97H85a1.154,1.154,0,0,1,1.154,1.154ZM83.81,31.925H68.4L79.3,42.819A18.154,18.154,0,0,0,83.81,31.925ZM65.617,7A20.538,20.538,0,0,1,86.155,27.54,1.154,1.154,0,0,1,85,28.695H65.617a1.154,1.154,0,0,1-1.154-1.154V8.157A1.154,1.154,0,0,1,65.617,7Zm1.154,2.344V26.386H83.81A18.232,18.232,0,0,0,66.771,9.347ZM27.536,34.157v4.014a3.3,3.3,0,0,1-6.591,0V34.157a3.295,3.295,0,0,1-1.91-5.961L22.3,25.822a3.3,3.3,0,0,1,3.874,0L29.446,28.2a3.295,3.295,0,0,1-1.91,5.961ZM26.991,31.7a.987.987,0,0,0,1.1-1.638l-3.268-2.375a.987.987,0,0,0-1.16,0l-3.268,2.375a.987.987,0,0,0,1.1,1.638,1.154,1.154,0,0,1,1.763.981v5.488a.987.987,0,0,0,1.974,0V32.683a1.154,1.154,0,0,1,1.763-.981ZM39.622,45.615v4.014a3.3,3.3,0,1,1-6.591,0V45.615a3.295,3.295,0,0,1-1.91-5.961l3.268-2.375a3.3,3.3,0,0,1,3.874,0l3.268,2.375a3.295,3.295,0,0,1-1.91,5.961Zm-.546-2.455a.987.987,0,0,0,1.1-1.638l-3.268-2.375a.987.987,0,0,0-1.16,0l-3.268,2.375a.987.987,0,0,0,1.1,1.638,1.154,1.154,0,0,1,1.763.981v5.488a.987.987,0,1,0,1.974,0V44.141a1.154,1.154,0,0,1,1.763-.981Z" transform="translate(0)" fill-rule="evenodd"/>
    </g>
  </g>
</svg>
