<svg xmlns="http://www.w3.org/2000/svg" xmlns:xlink="http://www.w3.org/1999/xlink" width="113" height="113" viewBox="0 0 113 113">
  <defs>
    <filter id="Trazado_982547" x="0" y="0" width="113" height="113" filterUnits="userSpaceOnUse">
      <feOffset dy="3" input="SourceAlpha"/>
      <feGaussianBlur stdDeviation="3" result="blur"/>
      <feFlood flood-opacity="0.161"/>
      <feComposite operator="in" in2="blur"/>
      <feComposite in="SourceGraphic"/>
    </filter>
    <clipPath id="clip-path">
      <path id="path5112" d="M0-682.665H61.739v61.739H0Z" transform="translate(0 682.665)"/>
    </clipPath>
  </defs>
  <g id="Grupo_1224278" data-name="Grupo 1224278" transform="translate(-6344.964 -862.751)">
    <g id="Grupo_1224087" data-name="Grupo 1224087" transform="translate(5670.965 -3712.317)">
      <g id="Grupo_1223184" data-name="Grupo 1223184" transform="translate(683 4581.069)">
        <g id="Grupo_1211216" data-name="Grupo 1211216" transform="translate(0)">
          <g id="Grupo_1210737" data-name="Grupo 1210737">
            <g id="Grupo_1210537" data-name="Grupo 1210537">
              <g id="Grupo_1164202" data-name="Grupo 1164202">
                <g id="Grupo_1158168" data-name="Grupo 1158168">
                  <g id="Grupo_1152576" data-name="Grupo 1152576">
                    <g id="Grupo_1148633" data-name="Grupo 1148633">
                      <g id="Grupo_1148525" data-name="Grupo 1148525">
                        <g transform="matrix(1, 0, 0, 1, -9, -6)" filter="url(#Trazado_982547)">
                          <g id="Trazado_982547-2" data-name="Trazado 982547" transform="translate(9 6)" fill="#fcf5f0">
                            <path d="M 47.49999618530273 93.5 C 41.28936767578125 93.5 35.26533126831055 92.28396606445312 29.59518241882324 89.88570404052734 C 24.11771583557129 87.56893157958984 19.19812965393066 84.251953125 14.97308921813965 80.02690124511719 C 10.74803638458252 75.80186462402344 7.431062698364258 70.88227844238281 5.114289283752441 65.40480804443359 C 2.716022968292236 59.73466110229492 1.499996185302734 53.71062469482422 1.499996185302734 47.49999618530273 C 1.499996185302734 41.28936767578125 2.716022968292236 35.26533126831055 5.114289283752441 29.59518241882324 C 7.431062698364258 24.11771583557129 10.74803638458252 19.19812965393066 14.97308921813965 14.97308921813965 C 19.19812965393066 10.74803638458252 24.11771583557129 7.431062698364258 29.59518241882324 5.114289283752441 C 35.26533126831055 2.716022968292236 41.28936767578125 1.499996185302734 47.49999618530273 1.499996185302734 C 53.71062469482422 1.499996185302734 59.73466110229492 2.716022968292236 65.40480804443359 5.114289283752441 C 70.88227844238281 7.431062698364258 75.80186462402344 10.74803638458252 80.02690124511719 14.97308921813965 C 84.251953125 19.19812965393066 87.56893157958984 24.11771583557129 89.88570404052734 29.59518241882324 C 92.28396606445312 35.26533126831055 93.5 41.28936767578125 93.5 47.49999618530273 C 93.5 53.71062469482422 92.28396606445312 59.73466110229492 89.88570404052734 65.40480804443359 C 87.56893157958984 70.88227844238281 84.251953125 75.80186462402344 80.02690124511719 80.02690124511719 C 75.80186462402344 84.251953125 70.88227844238281 87.56893157958984 65.40480804443359 89.88570404052734 C 59.73466110229492 92.28396606445312 53.71062469482422 93.5 47.49999618530273 93.5 Z" stroke="none"/>
                            <path d="M 47.49999618530273 2.999992370605469 C 41.4912109375 2.999992370605469 35.66376495361328 4.1761474609375 30.17950439453125 6.495796203613281 C 24.88084411621094 8.736953735351562 20.12152099609375 11.94598388671875 16.03375244140625 16.03375244140625 C 11.94598388671875 20.12152099609375 8.736953735351562 24.88084411621094 6.495796203613281 30.17950439453125 C 4.1761474609375 35.66376495361328 2.999992370605469 41.4912109375 2.999992370605469 47.49999618530273 C 2.999992370605469 53.50878143310547 4.1761474609375 59.33622741699219 6.495796203613281 64.82048797607422 C 8.736953735351562 70.11914825439453 11.94598388671875 74.87847137451172 16.03375244140625 78.96623992919922 C 20.12152099609375 83.05400848388672 24.88084411621094 86.26304626464844 30.17950439453125 88.50419616699219 C 35.66376495361328 90.82384490966797 41.4912109375 92 47.49999618530273 92 C 53.50878143310547 92 59.33622741699219 90.82384490966797 64.82048797607422 88.50419616699219 C 70.11914825439453 86.26304626464844 74.87847137451172 83.05400848388672 78.96623992919922 78.96623992919922 C 83.05400848388672 74.87847137451172 86.26304626464844 70.11914825439453 88.50419616699219 64.82048797607422 C 90.82384490966797 59.33622741699219 92 53.50878143310547 92 47.49999618530273 C 92 41.4912109375 90.82384490966797 35.66376495361328 88.50419616699219 30.17950439453125 C 86.26304626464844 24.88084411621094 83.05400848388672 20.12152099609375 78.96623992919922 16.03375244140625 C 74.87847137451172 11.94598388671875 70.11914825439453 8.736953735351562 64.82048797607422 6.495796203613281 C 59.33622741699219 4.1761474609375 53.50878143310547 2.999992370605469 47.49999618530273 2.999992370605469 M 47.49999618530273 -7.62939453125e-06 C 73.7335205078125 -7.62939453125e-06 95 21.26647186279297 95 47.49999618530273 C 95 73.7335205078125 73.7335205078125 95 47.49999618530273 95 C 21.26647186279297 95 -7.62939453125e-06 73.7335205078125 -7.62939453125e-06 47.49999618530273 C -7.62939453125e-06 21.26647186279297 21.26647186279297 -7.62939453125e-06 47.49999618530273 -7.62939453125e-06 Z" stroke="none" fill="#eca675"/>
                          </g>
                        </g>
                      </g>
                    </g>
                  </g>
                </g>
              </g>
            </g>
          </g>
        </g>
      </g>
    </g>
    <g id="g5106" transform="translate(6370.595 1570.047)">
      <g id="g5108" transform="translate(0 -682.665)">
        <g id="g5110" transform="translate(0 0)" clip-path="url(#clip-path)">
          <g id="g5116" transform="translate(1.903 0.904)">
            <path id="path5118" d="M-363.233-100.523a2.157,2.157,0,0,1-2.157-2.157v-7.226a.4.4,0,0,0-.227-.362,2.706,2.706,0,0,0-1.136-.25h-29.889a2.708,2.708,0,0,0-2.708,2.708v51.194a2.708,2.708,0,0,0,2.708,2.708h31.107a2.708,2.708,0,0,0,2.708-2.708v-43.907Z" transform="translate(399.35 110.518)" fill="#f9f5f8"/>
          </g>
          <g id="g5120" transform="translate(35.462 10.859)">
            <path id="path5122" d="M-100.367,0h-7.272V43.947a2.708,2.708,0,0,1-2.708,2.708h7.628a2.708,2.708,0,0,0,2.708-2.708V1.343A2.708,2.708,0,0,0-100.367,0" transform="translate(110.346)" fill="#f0ecef"/>
          </g>
          <g id="g5124" transform="translate(35.622 1.148)">
            <path id="path5126" d="M0,0A2.714,2.714,0,0,1,.793.55l8.59,8.59a2.7,2.7,0,0,1,.547.793H2.157A2.157,2.157,0,0,1,0,7.776Z" fill="#c5bec7"/>
          </g>
          <g id="g5128" transform="translate(50.049 0.913)">
            <path id="path5130" d="M-98.022-310.573l-2.077-28.3a2.787,2.787,0,0,0-2.779-2.583,2.787,2.787,0,0,0-2.779,2.583l-2.077,28.3a12.513,12.513,0,0,0-.017,1.55l.734.6h8.279l.734-.6a12.587,12.587,0,0,0-.018-1.55" transform="translate(107.768 341.454)" fill="#c5bec7"/>
          </g>
          <g id="g5132" transform="translate(50.066 33.343)">
            <path id="path5134" d="M0,0A12.508,12.508,0,0,0,.2,1.705l2.08,10.944.965.574H6.562l.9-.574L9.543,1.705A12.528,12.528,0,0,0,9.746,0Z" transform="translate(0 0)" fill="#a99da6"/>
          </g>
          <g id="g5136" transform="translate(50.042 45.992)">
            <path id="path5138" d="M-96.366-48.18a8.5,8.5,0,0,1-2.095-4.791h-5.18a8.5,8.5,0,0,1-2.095,4.791.925.925,0,0,0-.022,1.152l3.97,5.206a.927.927,0,0,0,1.475,0l3.97-5.206a.925.925,0,0,0-.022-1.152" transform="translate(105.948 52.971)" fill="#fce25c"/>
          </g>
          <g id="g5140" transform="translate(12.229 48.141)">
            <path id="path5142" d="M-78.177-126.819l-2.9-1.369a.868.868,0,0,0-.741,0l-2.9,1.369a.867.867,0,0,1-1.238-.784v-11.826h9.011V-127.6a.867.867,0,0,1-1.238.784" transform="translate(85.95 139.429)" fill="#fc8086"/>
          </g>
          <g id="g5144" transform="translate(7.229 36.697)">
            <path id="path5146" d="M-107.854-5.535h0a1.626,1.626,0,0,1,2.836.922,1.626,1.626,0,0,0,1.97,1.431A1.626,1.626,0,0,1-101.295-.77a1.626,1.626,0,0,0,.752,2.316h0a1.626,1.626,0,0,1,0,2.982,1.626,1.626,0,0,0-.752,2.316,1.626,1.626,0,0,1-1.753,2.413,1.626,1.626,0,0,0-1.97,1.431,1.626,1.626,0,0,1-2.836.922,1.626,1.626,0,0,0-2.435,0,1.626,1.626,0,0,1-2.836-.922,1.626,1.626,0,0,0-1.97-1.431,1.626,1.626,0,0,1-1.753-2.413,1.626,1.626,0,0,0-.752-2.316,1.626,1.626,0,0,1,0-2.982h0a1.626,1.626,0,0,0,.752-2.316A1.626,1.626,0,0,1-115.1-3.182a1.626,1.626,0,0,0,1.97-1.431,1.626,1.626,0,0,1,2.836-.922,1.626,1.626,0,0,0,2.435,0" transform="translate(118.578 6.086)" fill="#fdcb82"/>
          </g>
          <g id="g5148" transform="translate(12.996 36.697)">
            <path id="path5150" d="M-123.38-76.755h0a1.626,1.626,0,0,1-.752-2.316,1.626,1.626,0,0,0-1.753-2.413,1.626,1.626,0,0,1-1.97-1.431,1.626,1.626,0,0,0-2.836-.922,1.626,1.626,0,0,1-2.435,0,1.629,1.629,0,0,0-2.521.1,9.259,9.259,0,0,1,5.525,8.473,9.26,9.26,0,0,1-5.525,8.473,1.629,1.629,0,0,0,2.521.1,1.626,1.626,0,0,1,2.435,0,1.626,1.626,0,0,0,2.836-.922,1.626,1.626,0,0,1,1.97-1.431,1.626,1.626,0,0,0,1.753-2.412,1.626,1.626,0,0,1,.752-2.316,1.626,1.626,0,0,0,0-2.982" transform="translate(135.648 84.386)" fill="#fbbe66"/>
          </g>
          <g id="g5152" transform="translate(12.355 41.441)">
            <path id="path5154" d="M-88.094-44.047a4.38,4.38,0,0,1-4.38,4.38,4.38,4.38,0,0,1-4.38-4.38,4.38,4.38,0,0,1,4.38-4.38,4.38,4.38,0,0,1,4.38,4.38" transform="translate(96.853 48.427)" fill="#fce25c"/>
          </g>
          <g id="g5156" transform="translate(7.228 5.965)">
            <path id="path5158" d="M-151.36-51.446h-13.909a1.141,1.141,0,0,1-1.141-1.141V-55.42a1.141,1.141,0,0,1,1.141-1.141h13.909a1.141,1.141,0,0,1,1.141,1.141v2.833a1.141,1.141,0,0,1-1.141,1.141" transform="translate(166.41 56.561)" fill="#b3d8fb"/>
          </g>
          <g id="g5160" transform="translate(14.65 5.965)">
            <path id="path5162" d="M-76.717,0H-83.2V3.974a1.141,1.141,0,0,1-1.141,1.141h7.628a1.141,1.141,0,0,0,1.141-1.141V1.141A1.141,1.141,0,0,0-76.717,0" transform="translate(84.345 0)" fill="#89c6fc"/>
          </g>
          <g id="g5164" transform="translate(54.939 51.536)">
            <path id="path5166" d="M0,0V5.969" fill="none" stroke="#000" stroke-linecap="round" stroke-linejoin="round" stroke-miterlimit="10" stroke-width="1.5"/>
          </g>
          <g id="g5168" transform="translate(7.229 19.84)">
            <path id="path5170" d="M-334.341,0h-33.244" transform="translate(367.584)" fill="none" stroke="#000" stroke-linecap="round" stroke-linejoin="round" stroke-miterlimit="10" stroke-width="1.5"/>
          </g>
          <g id="g5172" transform="translate(7.229 25.531)">
            <path id="path5174" d="M-334.341,0h-33.244" transform="translate(367.584)" fill="none" stroke="#000" stroke-linecap="round" stroke-linejoin="round" stroke-miterlimit="10" stroke-width="1.5"/>
          </g>
          <g id="g5176" transform="translate(7.229 31.222)">
            <path id="path5178" d="M-334.341,0h-33.244" transform="translate(367.584)" fill="none" stroke="#000" stroke-linecap="round" stroke-linejoin="round" stroke-miterlimit="10" stroke-width="1.5"/>
          </g>
          <g id="g5180" transform="translate(35.622 1.151)">
            <path id="path5182" d="M0,0V7.773A2.157,2.157,0,0,0,2.157,9.93H9.929" fill="none" stroke="#000" stroke-linecap="round" stroke-linejoin="round" stroke-miterlimit="10" stroke-width="1.5"/>
          </g>
          <g id="g5184" transform="translate(12.229 52.497)">
            <path id="path5186" d="M0,0V7.469a.867.867,0,0,0,1.238.784l2.9-1.369a.867.867,0,0,1,.741,0l2.9,1.369a.867.867,0,0,0,1.238-.784V0" fill="none" stroke="#000" stroke-linecap="round" stroke-linejoin="round" stroke-miterlimit="10" stroke-width="1.5"/>
          </g>
          <g id="g5188" transform="translate(7.229 36.697)">
            <path id="path5190" d="M-95.609-47.7a4.38,4.38,0,0,1,4.38,4.38,4.38,4.38,0,0,1-4.38,4.38,4.38,4.38,0,0,1-4.38-4.38A4.38,4.38,0,0,1-95.609-47.7Zm-4.054,12.031a1.626,1.626,0,0,0,2.836.922,1.626,1.626,0,0,1,2.435,0,1.626,1.626,0,0,0,2.836-.922,1.614,1.614,0,0,1,.452-.974,1.622,1.622,0,0,1,1.518-.458,1.626,1.626,0,0,0,1.753-2.412,1.626,1.626,0,0,1,.752-2.316,1.626,1.626,0,0,0,0-2.982,1.626,1.626,0,0,1-.752-2.316,1.626,1.626,0,0,0-1.753-2.413,1.626,1.626,0,0,1-1.97-1.431,1.626,1.626,0,0,0-2.836-.922,1.626,1.626,0,0,1-2.435,0,1.626,1.626,0,0,0-2.836.922,1.626,1.626,0,0,1-1.97,1.431,1.626,1.626,0,0,0-1.753,2.413,1.626,1.626,0,0,1-.752,2.316,1.626,1.626,0,0,0,0,2.982,1.626,1.626,0,0,1,.752,2.316,1.626,1.626,0,0,0,1.753,2.412,1.622,1.622,0,0,1,1.518.458A1.613,1.613,0,0,1-99.662-35.674Z" transform="translate(105.115 52.447)" fill="none" stroke="#000" stroke-linecap="round" stroke-linejoin="round" stroke-miterlimit="10" stroke-width="1.5"/>
          </g>
          <g id="g5192" transform="translate(12.355 41.441)">
            <path id="path5194" d="M-44.047-88.094a4.38,4.38,0,0,0,4.38-4.38,4.38,4.38,0,0,0-4.38-4.38,4.38,4.38,0,0,0-4.38,4.38A4.38,4.38,0,0,0-44.047-88.094Z" transform="translate(48.427 96.853)" fill="none" stroke="#000" stroke-linecap="round" stroke-linejoin="round" stroke-miterlimit="10" stroke-width="1.5"/>
          </g>
          <g id="g5196" transform="translate(50.066 33.343)">
            <path id="path5198" d="M-98.015,0h-9.746" transform="translate(107.761)" fill="none" stroke="#000" stroke-linecap="round" stroke-linejoin="round" stroke-miterlimit="10" stroke-width="1.5"/>
          </g>
          <g id="g5200" transform="translate(50.042 45.992)">
            <path id="path5202" d="M-75.3,0h-5.18a8.5,8.5,0,0,1-2.095,4.791.925.925,0,0,0-.022,1.152l3.97,5.207a.927.927,0,0,0,1.475,0l3.97-5.207A.925.925,0,0,0-73.2,4.791,8.5,8.5,0,0,1-75.3,0Z" transform="translate(82.784)" fill="none" stroke="#000" stroke-linecap="round" stroke-linejoin="round" stroke-miterlimit="10" stroke-width="1.5"/>
          </g>
          <g id="g5204" transform="translate(50.049 0.913)">
            <path id="path5206" d="M-80.358-69.912l-.321-4.369a2.787,2.787,0,0,0-2.779-2.583,2.787,2.787,0,0,0-2.779,2.583l-2.077,28.3a12.518,12.518,0,0,0,.186,3.255l2.08,10.944h5.18l2.08-10.944a12.522,12.522,0,0,0,.187-3.255l-1.446-19.7" transform="translate(88.348 76.864)" fill="none" stroke="#000" stroke-linecap="round" stroke-linejoin="round" stroke-miterlimit="10" stroke-width="1.5"/>
          </g>
          <g id="g5208" transform="translate(1.903 0.904)">
            <path id="path5210" d="M-237.106-569.337H-219.5a2.708,2.708,0,0,0,2.708-2.708v-42.6a2.707,2.707,0,0,0-.356-1.343h0a2.661,2.661,0,0,0-.434-.572l-8.59-8.59a2.715,2.715,0,0,0-.793-.55,2.706,2.706,0,0,0-1.122-.243h-29.889a2.708,2.708,0,0,0-2.708,2.708v51.194a2.708,2.708,0,0,0,2.708,2.708h3.38" transform="translate(260.682 625.946)" fill="none" stroke="#000" stroke-linecap="round" stroke-linejoin="round" stroke-miterlimit="10" stroke-width="1.5"/>
          </g>
          <g id="g5212" transform="translate(7.228 5.965)">
            <path id="path5214" d="M-151.36-51.446h-13.909a1.141,1.141,0,0,1-1.141-1.141V-55.42a1.141,1.141,0,0,1,1.141-1.141h13.909a1.141,1.141,0,0,1,1.141,1.141v2.833A1.141,1.141,0,0,1-151.36-51.446Z" transform="translate(166.41 56.561)" fill="none" stroke="#000" stroke-linecap="round" stroke-linejoin="round" stroke-miterlimit="10" stroke-width="1.5"/>
          </g>
        </g>
      </g>
    </g>
  </g>
</svg>
